<?xml version="1.0" encoding="utf-8"?>
<!-- Generator: Adobe Illustrator 22.1.0, SVG Export Plug-In . SVG Version: 6.00 Build 0)  -->
<svg version="1.1" xmlns="http://www.w3.org/2000/svg" xmlns:xlink="http://www.w3.org/1999/xlink" x="0px" y="0px"
	 viewBox="0 0 3840 2160" style="enable-background:new 0 0 3840 2160;" xml:space="preserve">
<style type="text/css">
	.st0{fill:#CCCCCC;}
	.st1{fill:#FFFFFF;}
	.st2{fill:#0BA833;}
	.st3{fill:none;stroke:#0BA833;stroke-width:8;stroke-miterlimit:10;}
	.st4{clip-path:url(#SVGID_2_);fill:#0BA833;}
	.st5{clip-path:url(#SVGID_4_);fill:#0BA833;}
	.st6{clip-path:url(#SVGID_6_);fill:#0BA833;}
	.st7{clip-path:url(#SVGID_8_);fill:#0BA833;}
	.st8{fill:#3232CC;}
	.st9{fill:none;stroke:#3232CC;stroke-width:8;stroke-miterlimit:10;}
	.st10{fill:none;stroke:#000000;stroke-width:2;stroke-miterlimit:10;}
	.st11{font-family:sans-serif;}
	.st12{font-size:72px;}
</style>
<g id="Layer_1">
	<g id="Layer_1_1_">
		<g>
			<g>
				<g>
					<rect x="639.3" y="607" class="st0" width="8" height="6"/>
				</g>
				<g>
					<path class="st0" d="M647.3,1329h-8v-11.9h8V1329z M647.3,1305.2h-8v-11.9h8V1305.2z M647.3,1281.3h-8v-11.9h8V1281.3z
						 M647.3,1257.4h-8v-11.9h8V1257.4z M647.3,1233.6h-8v-11.9h8V1233.6z M647.3,1209.7h-8v-11.9h8V1209.7z M647.3,1185.8h-8v-11.9
						h8V1185.8z M647.3,1161.9h-8V1150h8V1161.9z M647.3,1138.1h-8v-11.9h8V1138.1z M647.3,1114.2h-8v-11.9h8V1114.2z M647.3,1090.3
						h-8v-11.9h8V1090.3z M647.3,1066.5h-8v-11.9h8V1066.5z M647.3,1042.6h-8v-11.9h8V1042.6z M647.3,1018.7h-8v-11.9h8V1018.7z
						 M647.3,994.9h-8v-11.9h8V994.9z M647.3,971h-8v-11.9h8V971z M647.3,947.1h-8v-11.9h8V947.1z M647.3,923.3h-8v-11.9h8V923.3z
						 M647.3,899.4h-8v-11.9h8V899.4z M647.3,875.5h-8v-11.9h8V875.5z M647.3,851.7h-8v-11.9h8V851.7z M647.3,827.8h-8v-11.9h8
						V827.8z M647.3,803.9h-8V792h8V803.9z M647.3,780h-8v-11.9h8V780z M647.3,756.2h-8v-11.9h8V756.2z M647.3,732.3h-8v-11.9h8
						V732.3z M647.3,708.4h-8v-11.9h8V708.4z M647.3,684.6h-8v-11.9h8V684.6z M647.3,660.7h-8v-11.9h8V660.7z M647.3,636.8h-8v-11.9
						h8V636.8z"/>
				</g>
				<g>
					<rect x="639.3" y="1341" class="st0" width="8" height="6"/>
				</g>
			</g>
			<g>
				<g>
					<rect x="2245.3" y="607" class="st0" width="8" height="6"/>
				</g>
				<g>
					<path class="st0" d="M2253.3,1329h-8v-11.9h8V1329z M2253.3,1305.2h-8v-11.9h8V1305.2z M2253.3,1281.3h-8v-11.9h8V1281.3z
						 M2253.3,1257.4h-8v-11.9h8V1257.4z M2253.3,1233.6h-8v-11.9h8V1233.6z M2253.3,1209.7h-8v-11.9h8V1209.7z M2253.3,1185.8h-8
						v-11.9h8V1185.8z M2253.3,1161.9h-8V1150h8V1161.9z M2253.3,1138.1h-8v-11.9h8V1138.1z M2253.3,1114.2h-8v-11.9h8V1114.2z
						 M2253.3,1090.3h-8v-11.9h8V1090.3z M2253.3,1066.5h-8v-11.9h8V1066.5z M2253.3,1042.6h-8v-11.9h8V1042.6z M2253.3,1018.7h-8
						v-11.9h8V1018.7z M2253.3,994.9h-8v-11.9h8V994.9z M2253.3,971h-8v-11.9h8V971z M2253.3,947.1h-8v-11.9h8V947.1z M2253.3,923.3
						h-8v-11.9h8V923.3z M2253.3,899.4h-8v-11.9h8V899.4z M2253.3,875.5h-8v-11.9h8V875.5z M2253.3,851.7h-8v-11.9h8V851.7z
						 M2253.3,827.8h-8v-11.9h8V827.8z M2253.3,803.9h-8V792h8V803.9z M2253.3,780h-8v-11.9h8V780z M2253.3,756.2h-8v-11.9h8V756.2z
						 M2253.3,732.3h-8v-11.9h8V732.3z M2253.3,708.4h-8v-11.9h8V708.4z M2253.3,684.6h-8v-11.9h8V684.6z M2253.3,660.7h-8v-11.9h8
						V660.7z M2253.3,636.8h-8v-11.9h8V636.8z"/>
				</g>
				<g>
					<rect x="2245.3" y="1341" class="st0" width="8" height="6"/>
				</g>
			</g>
		</g>
		<g>
			<g>
				<g>
					<g>
						<g>
							<polygon class="st1" points="1047.5,2025.9 648.3,1581.5 648.3,1472.9 1047.5,1028.4 1845.1,1028.4 2244.3,1472.9 
								2244.3,1581.5 1845.1,2025.9 							"/>
						</g>
						<g>
							<path class="st2" d="M1843.3,1032.4l397,442V1580l-397,442h-794l-397-442v-105.6l397-442H1843.3 M1846.9,1024.4h-3.6h-794
								h-3.6l-2.4,2.7l-397,442l-2,2.3v3.1V1580v3.1l2,2.3l397,442l2.4,2.7h3.6h794h3.6l2.4-2.7l397-442l2-2.3v-3.1v-105.6v-3.1
								l-2-2.3l-397-442L1846.9,1024.4L1846.9,1024.4z"/>
						</g>
					</g>
					<g>
						<path class="st1" d="M1047.5,1920.4l-400.6-446l400.6-446h797.6l400.6,446l-400.6,446H1047.5z M1811.1,1844.2l332.2-369.8
							l-332.2-369.8h-729.7l-332.2,369.8l332.2,369.8H1811.1z"/>
						<path class="st2" d="M1843.3,1032.4l397,442l-397,442h-794l-397-442l397-442H1843.3 M1079.7,1848.2H1813l335.8-373.8
							L1813,1100.6h-733.3l-335.8,373.8L1079.7,1848.2 M1846.9,1024.4h-3.6h-794h-3.6l-2.4,2.7l-397,442l-4.8,5.3l4.8,5.3l397,442
							l2.4,2.7h3.6h794h3.6l2.4-2.7l397-442l4.8-5.3l-4.8-5.3l-397-442L1846.9,1024.4L1846.9,1024.4z M1083.2,1108.5h726.1
							l328.6,365.8l-328.6,365.8h-726.1l-328.6-365.8L1083.2,1108.5L1083.2,1108.5z"/>
					</g>
				</g>
				<g>
					<line class="st3" x1="1048.2" y1="1919.8" x2="1048.2" y2="2025.4"/>
					<line class="st3" x1="1844.4" y1="1919.8" x2="1844.4" y2="2025.4"/>
				</g>
			</g>
			<g>
				<g>
					<g>
						<g>
							<polygon class="st1" points="1047.5,1875.9 648.3,1431.5 648.3,1322.9 1047.5,878.4 1845.1,878.4 2244.3,1322.9 
								2244.3,1431.5 1845.1,1875.9 							"/>
						</g>
						<g>
							<path class="st2" d="M1843.3,882.4l397,442V1430l-397,442h-794l-397-442v-105.6l397-442H1843.3 M1846.9,874.4h-3.6h-794h-3.6
								l-2.4,2.7l-397,442l-2,2.3v3.1V1430v3.1l2,2.3l397,442l2.4,2.7h3.6h794h3.6l2.4-2.7l397-442l2-2.3v-3.1v-105.6v-3.1l-2-2.3
								l-397-442L1846.9,874.4L1846.9,874.4z"/>
						</g>
					</g>
					<g>
						<path class="st1" d="M1047.5,1770.4l-400.6-446l400.6-446h797.6l400.6,446l-400.6,446H1047.5z M1811.1,1694.2l332.2-369.8
							l-332.2-369.8h-729.7l-332.2,369.8l332.2,369.8H1811.1z"/>
						<path class="st2" d="M1843.3,882.4l397,442l-397,442h-794l-397-442l397-442H1843.3 M1079.7,1698.2H1813l335.8-373.8
							L1813,950.6h-733.3l-335.8,373.8L1079.7,1698.2 M1846.9,874.4h-3.6h-794h-3.6l-2.4,2.7l-397,442l-4.8,5.3l4.8,5.3l397,442
							l2.4,2.7h3.6h794h3.6l2.4-2.7l397-442l4.8-5.3l-4.8-5.3l-397-442L1846.9,874.4L1846.9,874.4z M1083.2,958.5h726.1l328.6,365.8
							l-328.6,365.8h-726.1l-328.6-365.8L1083.2,958.5L1083.2,958.5z"/>
					</g>
				</g>
				<g>
					<line class="st3" x1="1048.2" y1="1769.8" x2="1048.2" y2="1875.4"/>
					<line class="st3" x1="1844.4" y1="1769.8" x2="1844.4" y2="1875.4"/>
				</g>
			</g>
		</g>
		<path class="st2" d="M1843.3,883.4l397,442V1431l-19.9,22.2l19.9,22.2V1581l-397,442h-794l-397-442v-105.6l19.9-22.2l-19.9-22.2
			v-105.6l397-442L1843.3,883.4 M1850.4,867.4h-7.1h-794h-7.1l-4.8,5.3l-397,442l-4.1,4.6v6.1V1431v6.1l4.1,4.6l10.3,11.5
			l-10.3,11.5l-4.1,4.6v6.1V1581v6.1l4.1,4.6l397,442l4.8,5.3h7.1h794h7.1l4.8-5.3l397-442l4.1-4.6v-6.1v-105.6v-6.1l-4.1-4.6
			l-10.3-11.5l10.3-11.5l4.1-4.6v-6.1v-105.6v-6.1l-4.1-4.6l-397-442L1850.4,867.4L1850.4,867.4z"/>
		<g>
			<g>
				<g>
					<g>
						<g>
							<path id="SVGID_41_" class="st2" d="M1577.1,1248.5c-41.4-10.6-85.9-16.1-130.9-16.1c-94.5,0-183.5,24.1-250.4,67.8
								c-66.6,43.5-103.7,101.3-104.3,162.7l-0.1,8.2l11.1,4.1c53.3,19.7,113.5,30,174.6,30c1.7,0,3.4,0,5.1,0
								c53.2-0.5,105.9-8.8,153.6-24.1c-15.1-5.5-29.5-11.6-43.2-18.4c-83.2,21.2-177.5,18.6-257.3-8
								c7.8-107.8,144.6-194.1,310.9-194.1c46.2,0,91.9,6.6,133.2,19.2C1580,1269.3,1579.2,1258.9,1577.1,1248.5"/>
						</g>
						<g>
							<defs>
								<path id="SVGID_1_" d="M1577.1,1248.5c-41.4-10.6-85.9-16.1-130.9-16.1c-94.5,0-183.5,24.1-250.4,67.8
									c-66.6,43.5-103.7,101.3-104.3,162.7l-0.1,8.2l11.1,4.1c53.3,19.7,113.5,30,174.6,30c1.7,0,3.4,0,5.1,0
									c53.2-0.5,105.9-8.8,153.6-24.1c-15.1-5.5-29.5-11.6-43.2-18.4c-83.2,21.2-177.5,18.6-257.3-8
									c7.8-107.8,144.6-194.1,310.9-194.1c46.2,0,91.9,6.6,133.2,19.2C1580,1269.3,1579.2,1258.9,1577.1,1248.5"/>
							</defs>
							<clipPath id="SVGID_2_">
								<use xlink:href="#SVGID_1_"  style="overflow:visible;"/>
							</clipPath>
							<rect x="1081.7" y="1226" class="st4" width="507.8" height="285.6"/>
						</g>
					</g>
					<g>
						<g>
							<path id="SVGID_38_" class="st2" d="M1800.9,1460.9c-1.3-76.4-58.6-146-154.2-188.5c0.1,11.2-1.1,22.3-3.4,33.4
								c67.9,36,109.4,88.9,113.9,146.9c-146.5,49-329.3,14.7-412.6-78.9c-22.5-25.3-36.3-53.5-40.3-82.4
								c-14.1,5-27.7,10.8-40.4,17.2c6.7,27.8,21.3,54.8,43.1,79.3c47.4,53.2,123.5,91.4,214.4,107.4c30.8,5.4,62.2,8.1,93.4,8.1
								c60.7,0,120.8-10.2,175.2-30.3l11.1-4.1L1800.9,1460.9z"/>
						</g>
						<g>
							<defs>
								<path id="SVGID_3_" d="M1800.9,1460.9c-1.3-76.4-58.6-146-154.2-188.5c0.1,11.2-1.1,22.3-3.4,33.4
									c67.9,36,109.4,88.9,113.9,146.9c-146.5,49-329.3,14.7-412.6-78.9c-22.5-25.3-36.3-53.5-40.3-82.4
									c-14.1,5-27.7,10.8-40.4,17.2c6.7,27.8,21.3,54.8,43.1,79.3c47.4,53.2,123.5,91.4,214.4,107.4c30.8,5.4,62.2,8.1,93.4,8.1
									c60.7,0,120.8-10.2,175.2-30.3l11.1-4.1L1800.9,1460.9z"/>
							</defs>
							<clipPath id="SVGID_4_">
								<use xlink:href="#SVGID_3_"  style="overflow:visible;"/>
							</clipPath>
							<rect x="1254" y="1266" class="st5" width="557" height="243.9"/>
						</g>
					</g>
					<g>
						<g>
							<path id="SVGID_37_" class="st2" d="M1458.8,1073.3l-11-4.2l-11,4.2c-54.2,20.6-99.2,50-130.1,85.2
								c-26.7,30.4-42.6,64.4-46.3,99.2c14.8-5.7,30.3-10.7,46.2-15c13.8-57.3,65.1-109.1,141.1-140.7
								c139.5,58.2,185.4,178.8,101.6,272.9c-22.7,25.5-53.7,47.6-90.5,64.5c13.7,5.4,28.2,10.1,43.1,14.1
								c34-17.9,62.9-39.8,84.9-64.5C1684.9,1279,1627.3,1137.4,1458.8,1073.3"/>
						</g>
						<g>
							<defs>
								<path id="SVGID_5_" d="M1458.8,1073.3l-11-4.2l-11,4.2c-54.2,20.6-99.2,50-130.1,85.2c-26.7,30.4-42.6,64.4-46.3,99.2
									c14.8-5.7,30.3-10.7,46.2-15c13.8-57.3,65.1-109.1,141.1-140.7c139.5,58.2,185.4,178.8,101.6,272.9
									c-22.7,25.5-53.7,47.6-90.5,64.5c13.7,5.4,28.2,10.1,43.1,14.1c34-17.9,62.9-39.8,84.9-64.5
									C1684.9,1279,1627.3,1137.4,1458.8,1073.3"/>
							</defs>
							<clipPath id="SVGID_6_">
								<use xlink:href="#SVGID_5_"  style="overflow:visible;"/>
							</clipPath>
							<rect x="1250.6" y="1062.7" class="st6" width="394" height="397.1"/>
						</g>
					</g>
					<g>
						<g>
							<path id="SVGID_26_" class="st2" d="M1447.6,1388.7c-43.9,0-79.6-23.2-79.6-51.7s35.7-51.7,79.6-51.7s79.7,23.2,79.7,51.7
								C1527.3,1365.5,1491.5,1388.7,1447.6,1388.7 M1447.6,1313.5c-20,0-36.3,10.6-36.3,23.5c0,13,16.3,23.5,36.3,23.5
								s36.3-10.5,36.3-23.5C1483.9,1324.1,1467.6,1313.5,1447.6,1313.5"/>
						</g>
						<g>
							<defs>
								<path id="SVGID_7_" d="M1447.6,1388.7c-43.9,0-79.6-23.2-79.6-51.7s35.7-51.7,79.6-51.7s79.7,23.2,79.7,51.7
									C1527.3,1365.5,1491.5,1388.7,1447.6,1388.7 M1447.6,1313.5c-20,0-36.3,10.6-36.3,23.5c0,13,16.3,23.5,36.3,23.5
									s36.3-10.5,36.3-23.5C1483.9,1324.1,1467.6,1313.5,1447.6,1313.5"/>
							</defs>
							<clipPath id="SVGID_8_">
								<use xlink:href="#SVGID_7_"  style="overflow:visible;"/>
							</clipPath>
							<rect x="1358.1" y="1279" class="st7" width="179" height="116.1"/>
						</g>
					</g>
				</g>
			</g>
		</g>
		<g>
			<g>
				<g>
					<g>
						<polygon class="st1" points="1045.7,1150 644.3,703.1 644.3,591.4 1045.7,144.5 1846.9,144.5 2248.3,591.4 2248.3,703.1 
							1846.9,1150 						"/>
					</g>
					<g>
						<path class="st8" d="M1843.3,152.5l397,442v105.6l-397,442h-794l-397-442V594.5l397-442H1843.3 M1850.4,136.5h-7.1h-794h-7.1
							l-4.8,5.3l-397,442l-4.1,4.6v6.1v105.6v6.1l4.1,4.6l397,442l4.8,5.3h7.1h794h7.1l4.8-5.3l397-442l4.1-4.6v-6.1V594.5v-6.1
							l-4.1-4.6l-397-442L1850.4,136.5L1850.4,136.5z"/>
					</g>
				</g>
				<path class="st8" d="M1843.3,152.5l397,442v105.6l-397,442h-794l-397-442V594.5l397-442H1843.3 M1846.9,144.5h-3.6h-794h-3.6
					l-2.4,2.7l-397,442l-2,2.3v3.1v105.6v3.1l2,2.3l397,442l2.4,2.7h3.6h794h3.6l2.4-2.7l397-442l2-2.3v-3.1V594.5v-3.1l-2-2.3
					l-397-442L1846.9,144.5L1846.9,144.5z"/>
				<g>
					<path class="st1" d="M1047.5,1040.4l-400.6-446l400.6-446h797.6l400.6,446l-400.6,446H1047.5z M1811.1,964.3l332.2-369.8
						l-332.2-369.8h-729.7L749.2,594.5l332.2,369.8H1811.1z"/>
					<path class="st8" d="M1843.3,152.5l397,442l-397,442h-794l-397-442l397-442H1843.3 M1079.7,968.3H1813l335.8-373.8L1813,220.7
						h-733.3L743.8,594.5L1079.7,968.3 M1846.9,144.5h-3.6h-794h-3.6l-2.4,2.7l-397,442l-4.8,5.3l4.8,5.3l397,442l2.4,2.7h3.6h794
						h3.6l2.4-2.7l397-442l4.8-5.3l-4.8-5.3l-397-442L1846.9,144.5L1846.9,144.5z M1083.2,228.6h726.1L2138,594.5l-328.6,365.8
						h-726.1L754.6,594.5L1083.2,228.6L1083.2,228.6z"/>
				</g>
				<g>
					<line class="st9" x1="1048.2" y1="1039.8" x2="1048.2" y2="1145.4"/>
					<line class="st9" x1="1844.4" y1="1039.8" x2="1844.4" y2="1145.4"/>
				</g>
			</g>
		</g>
	</g>
</g>
<g id="Layer_2">
	<g id="Layer_2_1_">
		<g>
			<g>
				<g>
					<line class="st10" x1="2207.1" y1="685" x2="2656" y2="685"/>
					<g>
						<circle cx="2207.5" cy="685" r="7.5"/>
					</g>
				</g>
			</g>
			<text transform="matrix(1 0 0 1 2692 709)" class="st11 st12">Application</text>
			<g>
				<g>
					<line class="st10" x1="2207.1" y1="1415" x2="2656" y2="1415"/>
					<g>
						<circle cx="2207.5" cy="1415" r="7.5"/>
					</g>
				</g>
			</g>
			<text transform="matrix(1 0 0 1 2692 1439)" class="st11 st12">Consensus</text>
			<g>
				<g>
					<line class="st10" x1="2207.1" y1="1559" x2="2656" y2="1559"/>
					<g>
						<circle cx="2207.5" cy="1559" r="7.5"/>
					</g>
				</g>
			</g>
			<text transform="matrix(1 0 0 1 2692 1583)" class="st11 st12">Networking</text>
		</g>
	</g>
</g>
</svg>
