<?xml version="1.0" encoding="utf-8"?>
<!-- Generator: Adobe Illustrator 22.1.0, SVG Export Plug-In . SVG Version: 6.00 Build 0)  -->
<svg version="1.1" xmlns="http://www.w3.org/2000/svg" xmlns:xlink="http://www.w3.org/1999/xlink" x="0px" y="0px"
	 viewBox="0 0 3840 2160" style="enable-background:new 0 0 3840 2160;" xml:space="preserve">
<style type="text/css">
	.st0{fill:#FFFFFF;}
	.st1{fill:#0BA833;}
	.st2{fill:#3232CC;}
	.st3{fill:#6FD89E;}
	.st4{fill-rule:evenodd;clip-rule:evenodd;fill:#3232CC;}
</style>
<g id="Layer_1">
	<g>
		<g>
			<g>
				<g>
					<g>
						<g>
							<g>
								<polygon class="st0" points="1521.3,1999.5 1122,1555.1 1122,1446.5 1521.3,1002 2318.8,1002 2718.1,1446.5 2718.1,1555.1 
									2318.8,1999.5 								"/>
							</g>
						</g>
						<g>
							<g>
								<path class="st1" d="M2317,1006l397,442v105.6l-397,442h-794l-397-442V1448l397-442H2317 M2320.6,998h-3.6h-794h-3.6
									l-2.4,2.7l-397,442l-2,2.3v3.1v105.6v3.1l2,2.3l397,442l2.4,2.7h3.6h794h3.6l2.4-2.7l397-442l2-2.3v-3.1V1448v-3.1l-2-2.3
									l-397-442L2320.6,998L2320.6,998z"/>
							</g>
						</g>
					</g>
					<g>
						<g>
							<path class="st0" d="M1521.3,1894l-400.6-446l400.6-446h797.6l400.6,446l-400.6,446H1521.3z M2284.9,1817.8l332.2-369.8
								l-332.2-369.8h-729.7L1223,1448l332.2,369.8H2284.9z"/>
						</g>
						<g>
							<path class="st1" d="M2317,1006l397,442l-397,442h-794l-397-442l397-442H2317 M1553.4,1821.8h733.3l335.8-373.8l-335.8-373.8
								h-733.3L1217.6,1448L1553.4,1821.8 M2320.6,998h-3.6h-794h-3.6l-2.4,2.7l-397,442l-4.8,5.3l4.8,5.3l397,442l2.4,2.7h3.6h794
								h3.6l2.4-2.7l397-442l4.8-5.3l-4.8-5.3l-397-442L2320.6,998L2320.6,998z M1557,1082.1h726.1l328.6,365.8l-328.6,365.8H1557
								L1228.4,1448L1557,1082.1L1557,1082.1z"/>
						</g>
					</g>
				</g>
				<g>
					<g>
						<line class="st0" x1="1521.9" y1="1893.4" x2="1521.9" y2="1999"/>
						<rect x="1517.9" y="1893.4" class="st1" width="8" height="105.6"/>
					</g>
					<g>
						<line class="st0" x1="2318.2" y1="1893.4" x2="2318.2" y2="1999"/>
						<rect x="2314.2" y="1893.4" class="st1" width="8" height="105.6"/>
					</g>
				</g>
			</g>
			<g>
				<g>
					<g>
						<g>
							<g>
								<polygon class="st0" points="1521.3,1844.6 1122,1400.2 1122,1291.5 1521.3,847.1 2318.8,847.1 2718.1,1291.5 
									2718.1,1400.2 2318.8,1844.6 								"/>
							</g>
						</g>
						<g>
							<g>
								<path class="st1" d="M2317,851.1l397,442v105.6l-397,442h-794l-397-442V1293l397-442H2317 M2320.6,843.1h-3.6h-794h-3.6
									l-2.4,2.7l-397,442l-2,2.3v3.1v105.6v3.1l2,2.3l397,442l2.4,2.7h3.6h794h3.6l2.4-2.7l397-442l2-2.3v-3.1V1293v-3.1l-2-2.3
									l-397-442L2320.6,843.1L2320.6,843.1z"/>
							</g>
						</g>
					</g>
					<g>
						<g>
							<path class="st0" d="M1521.3,1739l-400.6-446l400.6-446h797.6l400.6,446l-400.6,446H1521.3z M2284.9,1662.9l332.2-369.8
								l-332.2-369.8h-729.7L1223,1293l332.2,369.8H2284.9z"/>
						</g>
						<g>
							<path class="st1" d="M2317,851.1l397,442l-397,442h-794l-397-442l397-442H2317 M1553.4,1666.9h733.3l335.8-373.8
								l-335.8-373.8h-733.3L1217.6,1293L1553.4,1666.9 M2320.6,843.1h-3.6h-794h-3.6l-2.4,2.7l-397,442l-4.8,5.3l4.8,5.3l397,442
								l2.4,2.7h3.6h794h3.6l2.4-2.7l397-442l4.8-5.3l-4.8-5.3l-397-442L2320.6,843.1L2320.6,843.1z M1557,927.2h726.1l328.6,365.8
								l-328.6,365.8H1557L1228.4,1293L1557,927.2L1557,927.2z"/>
						</g>
					</g>
				</g>
				<g>
					<g>
						<line class="st0" x1="1521.9" y1="1738.4" x2="1521.9" y2="1844"/>
						<rect x="1517.9" y="1738.4" class="st1" width="8" height="105.6"/>
					</g>
					<g>
						<line class="st0" x1="2318.2" y1="1738.4" x2="2318.2" y2="1844"/>
						<rect x="2314.2" y="1738.4" class="st1" width="8" height="105.6"/>
					</g>
				</g>
			</g>
			<g>
				<g>
					<g>
						<g>
							<polygon class="st0" points="1521.3,1689.6 1122,1245.2 1122,1136.5 1521.3,692.1 2318.8,692.1 2718.1,1136.5 2718.1,1245.2 
								2318.8,1689.6 							"/>
						</g>
					</g>
					<g>
						<g>
							<path class="st2" d="M2317,696.1l397,442v105.6l-397,442h-794l-397-442v-105.6l397-442H2317 M2320.6,688.1h-3.6h-794h-3.6
								l-2.4,2.7l-397,442l-2,2.3v3.1v105.6v3.1l2,2.3l397,442l2.4,2.7h3.6h794h3.6l2.4-2.7l397-442l2-2.3v-3.1v-105.6v-3.1l-2-2.3
								l-397-442L2320.6,688.1L2320.6,688.1z"/>
						</g>
					</g>
				</g>
				<g>
					<line class="st0" x1="1920" y1="1190.9" x2="1920" y2="1190.9"/>
					<path class="st2" d="M1920,1190.9"/>
				</g>
				<g>
					<g>
						<line class="st3" x1="1920" y1="1190.9" x2="1920" y2="1190.9"/>
						<path class="st2" d="M1920,1190.9"/>
					</g>
				</g>
				<g>
					<g>
						<path class="st0" d="M1521.3,1584l-400.6-446l400.6-446h797.6l400.6,446l-400.6,446H1521.3z M2284.9,1507.9l332.2-369.8
							l-332.2-369.8h-729.7L1223,1138.1l332.2,369.8H2284.9z"/>
					</g>
					<g>
						<path class="st2" d="M2317,696.1l397,442l-397,442h-794l-397-442l397-442H2317 M1553.4,1511.9h733.3l335.8-373.8l-335.8-373.8
							h-733.3l-335.8,373.8L1553.4,1511.9 M2320.6,688.1h-3.6h-794h-3.6l-2.4,2.7l-397,442l-4.8,5.3l4.8,5.3l397,442l2.4,2.7h3.6
							h794h3.6l2.4-2.7l397-442l4.8-5.3l-4.8-5.3l-397-442L2320.6,688.1L2320.6,688.1z M1557,772.2h726.1l328.6,365.8l-328.6,365.8
							H1557l-328.6-365.8L1557,772.2L1557,772.2z"/>
					</g>
				</g>
				<g>
					<g>
						<rect x="1517.9" y="1583.4" class="st2" width="8" height="105.6"/>
					</g>
					<g>
						<rect x="2314.2" y="1583.4" class="st2" width="8" height="105.6"/>
					</g>
				</g>
				<g>
					<path class="st4" d="M2045.4,1249.1c34-7.1,63.4-16.6,88.2-28.7c24.8-12.1,44.1-26.1,57.8-42.2c13.7-16.1,20.5-33.2,20.5-51.2
						c0-18-6.8-35.1-20.5-51.2c-8.1-9.5-18.1-18.4-30-26.4l165.1-79.4l-65.6-31.5l-165.6,79.6c-14.9-4.9-31-9.1-48.4-12.6
						c-34-6.9-71.5-10.4-112.5-10.4c-41.1,0-78.6,3.5-112.5,10.6c-34,7.1-63.4,16.6-88.2,28.7s-44.1,26.1-57.8,42.2
						c-13.7,16.1-20.5,33.2-20.5,51.2c0,18,6.8,35.1,20.5,51.2c8.1,9.5,18.1,18.4,30,26.4l-165.1,79.4l65.6,31.5l165.6-79.6
						c14.9,4.9,31,9.1,48.4,12.6c34,6.9,71.5,10.4,112.5,10.4C1973.9,1259.7,2011.4,1256.2,2045.4,1249.1z M2007,1211.3
						c-22.1,4.8-46.3,7.1-72.6,7.1c-26.4,0-50.7-2.4-73-7.3c-8.3-1.8-16.1-3.9-23.5-6.1l253.8-122c3.3,3,6.2,6.2,8.9,9.5
						c8.9,11.1,13.3,22.9,13.3,35.3c0,12.4-4.4,24.2-13.3,35.3c-8.9,11.1-21.2,20.7-36.9,28.9
						C2047.9,1200.1,2029,1206.5,2007,1211.3z M2029.4,1049.8l-253.8,122.1c-3.3-3.1-6.2-6.2-8.9-9.5c-8.9-11.1-13.3-22.9-13.3-35.3
						c0-12.4,4.4-24.2,13.3-35.3c8.9-11.1,21.2-20.7,36.9-28.9c15.7-8.2,34.6-14.6,56.6-19.4c22.1-4.8,46.3-7.1,72.6-7.1
						c26.4,0,50.7,2.4,73,7.3C2014.1,1045.5,2021.9,1047.5,2029.4,1049.8z"/>
				</g>
			</g>
			<g>
				<path class="st1" d="M2317,696.1l397,442v105.6l-22.2,24.7l22.2,24.7v105.6l-22.2,24.7l22.2,24.7v105.6l-397,442h-794l-397-442
					V1448l22.2-24.7l-22.2-24.7V1293l22.2-24.7l-22.2-24.7v-105.6l397-442H2317 M2324.2,680.1h-7.1h-794h-7.1l-4.8,5.3l-397,442
					l-4.1,4.6v6.1v105.6v6.1l4.1,4.6l12.6,14l-12.6,14l-4.1,4.6v6.1v105.6v6.1l4.1,4.6l12.6,14l-12.6,14l-4.1,4.6v6.1v105.6v6.1
					l4.1,4.6l397,442l4.8,5.3h7.1h794h7.1l4.8-5.3l397-442l4.1-4.6v-6.1V1448v-6.1l-4.1-4.6l-12.6-14l12.6-14l4.1-4.6v-6.1V1293
					v-6.1l-4.1-4.6l-12.6-14l12.6-14l4.1-4.6v-6.1v-105.6v-6.1l-4.1-4.6l-397-442L2324.2,680.1L2324.2,680.1z"/>
			</g>
		</g>
		<g>
			<g>
				<g>
					<g>
						<path class="st2" d="M2317,696.1l397,442v105.6l-397,442h-794l-397-442v-105.6l397-442H2317 M2324.1,680.1h-7.1h-794h-7.1
							l-4.8,5.3l-397,442l-4.1,4.6v6.1v105.6v6.1l4.1,4.6l397,442l4.8,5.3h7.1h794h7.1l4.8-5.3l397-442l4.1-4.6v-6.1v-105.6v-6.1
							l-4.1-4.6l-397-442L2324.1,680.1L2324.1,680.1z"/>
					</g>
				</g>
				<g>
					<line class="st0" x1="1695" y1="1190.9" x2="1695" y2="1190.9"/>
					<path class="st2" d="M1695,1190.9"/>
				</g>
				<g>
					<g>
						<line class="st3" x1="1695" y1="1190.9" x2="1695" y2="1190.9"/>
						<path class="st2" d="M1695,1190.9"/>
					</g>
				</g>
			</g>
		</g>
	</g>
</g>
<g id="Layer_2">
</g>
</svg>
