<?xml version="1.0" encoding="utf-8"?>
<!-- Generator: Adobe Illustrator 22.1.0, SVG Export Plug-In . SVG Version: 6.00 Build 0)  -->
<svg version="1.1" xmlns="http://www.w3.org/2000/svg" xmlns:xlink="http://www.w3.org/1999/xlink" x="0px" y="0px"
	 viewBox="0 0 3840 2160" style="enable-background:new 0 0 3840 2160;" xml:space="preserve">
<style type="text/css">
	.st0{fill:#CCCCCC;}
	.st1{fill:#0BA833;}
	.st2{fill:#FFFFFF;}
	.st3{fill:#6FD89E;}
	.st4{clip-path:url(#SVGID_2_);}
	.st5{clip-path:url(#SVGID_4_);}
	.st6{clip-path:url(#SVGID_6_);}
	.st7{clip-path:url(#SVGID_8_);}
	.st8{fill:#3232CC;}
	.st9{fill:none;stroke:#000000;stroke-width:2;stroke-miterlimit:10;}
	.st10{font-family:sans-serif;}
	.st11{font-size:72px;}
</style>
<g id="Layer_1">
	<g>
		<g>
			<g>
				<rect x="1297.2" y="516.6" class="st0" width="8" height="6"/>
			</g>
			<g>
				<path class="st0" d="M1305.2,1238.7h-8v-11.9h8V1238.7z M1305.2,1214.8h-8v-11.9h8V1214.8z M1305.2,1190.9h-8V1179h8V1190.9z
					 M1305.2,1167.1h-8v-11.9h8V1167.1z M1305.2,1143.2h-8v-11.9h8V1143.2z M1305.2,1119.3h-8v-11.9h8V1119.3z M1305.2,1095.4h-8
					v-11.9h8V1095.4z M1305.2,1071.6h-8v-11.9h8V1071.6z M1305.2,1047.7h-8v-11.9h8V1047.7z M1305.2,1023.8h-8v-11.9h8V1023.8z
					 M1305.2,1000h-8V988h8V1000z M1305.2,976.1h-8v-11.9h8V976.1z M1305.2,952.2h-8v-11.9h8V952.2z M1305.2,928.4h-8v-11.9h8V928.4
					z M1305.2,904.5h-8v-11.9h8V904.5z M1305.2,880.6h-8v-11.9h8V880.6z M1305.2,856.8h-8v-11.9h8V856.8z M1305.2,832.9h-8V821h8
					V832.9z M1305.2,809h-8v-11.9h8V809z M1305.2,785.2h-8v-11.9h8V785.2z M1305.2,761.3h-8v-11.9h8V761.3z M1305.2,737.4h-8v-11.9
					h8V737.4z M1305.2,713.5h-8v-11.9h8V713.5z M1305.2,689.7h-8v-11.9h8V689.7z M1305.2,665.8h-8v-11.9h8V665.8z M1305.2,641.9h-8
					V630h8V641.9z M1305.2,618.1h-8v-11.9h8V618.1z M1305.2,594.2h-8v-11.9h8V594.2z M1305.2,570.3h-8v-11.9h8V570.3z M1305.2,546.5
					h-8v-11.9h8V546.5z"/>
			</g>
			<g>
				<rect x="1297.2" y="1250.6" class="st0" width="8" height="6"/>
			</g>
		</g>
		<g>
			<g>
				<rect x="2903.2" y="516.6" class="st0" width="8" height="6"/>
			</g>
			<g>
				<path class="st0" d="M2911.2,1238.7h-8v-11.9h8V1238.7z M2911.2,1214.8h-8v-11.9h8V1214.8z M2911.2,1190.9h-8V1179h8V1190.9z
					 M2911.2,1167.1h-8v-11.9h8V1167.1z M2911.2,1143.2h-8v-11.9h8V1143.2z M2911.2,1119.3h-8v-11.9h8V1119.3z M2911.2,1095.4h-8
					v-11.9h8V1095.4z M2911.2,1071.6h-8v-11.9h8V1071.6z M2911.2,1047.7h-8v-11.9h8V1047.7z M2911.2,1023.8h-8v-11.9h8V1023.8z
					 M2911.2,1000h-8V988h8V1000z M2911.2,976.1h-8v-11.9h8V976.1z M2911.2,952.2h-8v-11.9h8V952.2z M2911.2,928.4h-8v-11.9h8V928.4
					z M2911.2,904.5h-8v-11.9h8V904.5z M2911.2,880.6h-8v-11.9h8V880.6z M2911.2,856.8h-8v-11.9h8V856.8z M2911.2,832.9h-8V821h8
					V832.9z M2911.2,809h-8v-11.9h8V809z M2911.2,785.2h-8v-11.9h8V785.2z M2911.2,761.3h-8v-11.9h8V761.3z M2911.2,737.4h-8v-11.9
					h8V737.4z M2911.2,713.5h-8v-11.9h8V713.5z M2911.2,689.7h-8v-11.9h8V689.7z M2911.2,665.8h-8v-11.9h8V665.8z M2911.2,641.9h-8
					V630h8V641.9z M2911.2,618.1h-8v-11.9h8V618.1z M2911.2,594.2h-8v-11.9h8V594.2z M2911.2,570.3h-8v-11.9h8V570.3z M2911.2,546.5
					h-8v-11.9h8V546.5z"/>
			</g>
			<g>
				<rect x="2903.2" y="1250.6" class="st0" width="8" height="6"/>
			</g>
		</g>
	</g>
	<g>
		<path class="st1" d="M2497.9,793l397,442v105.6l-19.9,22.2l19.9,22.2v105.6l-397,442h-794l-397-442V1385l19.9-22.2l-19.9-22.2
			V1235l397-442H2497.9 M2505.1,777h-7.1h-794h-7.1l-4.8,5.3l-397,442l-4.1,4.6v6.1v105.6v6.1l4.1,4.6l10.3,11.5l-10.3,11.5
			l-4.1,4.6v6.1v105.6v6.1l4.1,4.6l397,442l4.8,5.3h7.1h794h7.1l4.8-5.3l397-442l4.1-4.6v-6.1V1385v-6.1l-4.1-4.6l-10.3-11.5
			l10.3-11.5l4.1-4.6v-6.1V1235v-6.1l-4.1-4.6l-397-442L2505.1,777L2505.1,777z"/>
	</g>
	<g>
		<g>
			<g>
				<g>
					<g>
						<g>
							<g>
								<polygon class="st2" points="1702.1,1935.5 1302.9,1491.1 1302.9,1382.5 1702.1,938 2499.7,938 2898.9,1382.5 
									2898.9,1491.1 2499.7,1935.5 								"/>
							</g>
						</g>
						<g>
							<g>
								<path class="st1" d="M2497.9,942l397,442v105.6l-397,442h-794l-397-442V1384l397-442H2497.9 M2501.5,934h-3.6h-794h-3.6
									l-2.4,2.7l-397,442l-2,2.3v3.1v105.6v3.1l2,2.3l397,442l2.4,2.7h3.6h794h3.6l2.4-2.7l397-442l2-2.3v-3.1V1384v-3.1l-2-2.3
									l-397-442L2501.5,934L2501.5,934z"/>
							</g>
						</g>
					</g>
					<g>
						<g>
							<path class="st2" d="M1702.1,1830l-400.6-446l400.6-446h797.6l400.6,446l-400.6,446H1702.1z M2465.8,1753.8L2798,1384
								l-332.2-369.8h-729.7L1403.9,1384l332.2,369.8H2465.8z"/>
						</g>
						<g>
							<path class="st1" d="M2497.9,942l397,442l-397,442h-794l-397-442l397-442H2497.9 M1734.3,1757.8h733.3l335.8-373.8
								l-335.8-373.8h-733.3L1398.5,1384L1734.3,1757.8 M2501.5,934h-3.6h-794h-3.6l-2.4,2.7l-397,442l-4.8,5.3l4.8,5.3l397,442
								l2.4,2.7h3.6h794h3.6l2.4-2.7l397-442l4.8-5.3l-4.8-5.3l-397-442L2501.5,934L2501.5,934z M1737.9,1018.1H2464l328.6,365.8
								L2464,1749.8h-726.1L1409.2,1384L1737.9,1018.1L1737.9,1018.1z"/>
						</g>
					</g>
				</g>
				<g>
					<g>
						<rect x="1698.8" y="1829.4" class="st1" width="8" height="105.6"/>
					</g>
					<g>
						<rect x="2495" y="1829.4" class="st1" width="8" height="105.6"/>
					</g>
				</g>
			</g>
			<g>
				<g>
					<g>
						<g>
							<g>
								<polygon class="st2" points="1702.1,1785.5 1302.9,1341.1 1302.9,1232.5 1702.1,788 2499.7,788 2898.9,1232.5 
									2898.9,1341.1 2499.7,1785.5 								"/>
							</g>
						</g>
						<g>
							<g>
								<path class="st1" d="M2497.9,792l397,442v105.6l-397,442h-794l-397-442V1234l397-442H2497.9 M2501.5,784h-3.6h-794h-3.6
									l-2.4,2.7l-397,442l-2,2.3v3.1v105.6v3.1l2,2.3l397,442l2.4,2.7h3.6h794h3.6l2.4-2.7l397-442l2-2.3v-3.1V1234v-3.1l-2-2.3
									l-397-442L2501.5,784L2501.5,784z"/>
							</g>
						</g>
					</g>
					<g>
						<g>
							<path class="st2" d="M1702.1,1680l-400.6-446l400.6-446h797.6l400.6,446l-400.6,446H1702.1z M2465.8,1603.8L2798,1234
								l-332.2-369.8h-729.7L1403.9,1234l332.2,369.8H2465.8z"/>
						</g>
						<g>
							<path class="st1" d="M2497.9,792l397,442l-397,442h-794l-397-442l397-442H2497.9 M1734.3,1607.8h733.3l335.8-373.8
								l-335.8-373.8h-733.3L1398.5,1234L1734.3,1607.8 M2501.5,784h-3.6h-794h-3.6l-2.4,2.7l-397,442l-4.8,5.3l4.8,5.3l397,442
								l2.4,2.7h3.6h794h3.6l2.4-2.7l397-442l4.8-5.3l-4.8-5.3l-397-442L2501.5,784L2501.5,784z M1737.9,868.1H2464l328.6,365.8
								L2464,1599.8h-726.1L1409.2,1234L1737.9,868.1L1737.9,868.1z"/>
						</g>
					</g>
				</g>
				<g>
					<g>
						<rect x="1698.8" y="1679.4" class="st1" width="8" height="105.6"/>
					</g>
					<g>
						<rect x="2495" y="1679.4" class="st1" width="8" height="105.6"/>
					</g>
				</g>
			</g>
		</g>
		<g>
			<g>
				<g>
					<line class="st2" x1="2101.9" y1="1287.8" x2="2101.9" y2="1287.8"/>
					<path class="st1" d="M2101.9,1287.8"/>
				</g>
				<g>
					<g>
						<line class="st3" x1="2101.9" y1="1287.8" x2="2101.9" y2="1287.8"/>
						<path class="st1" d="M2101.9,1287.8"/>
					</g>
				</g>
			</g>
			<g>
				<g>
					<g>
						<defs>
							<path id="SVGID_1_" d="M2232.3,1158.1c-41.4-10.6-85.9-16.1-130.9-16.1c-94.5,0-183.5,24.1-250.4,67.8
								c-66.6,43.5-103.7,101.3-104.3,162.7l-0.1,8.2l11.1,4.1c53.3,19.7,113.5,30,174.6,30c1.7,0,3.4,0,5.1,0
								c53.2-0.5,105.9-8.8,153.6-24.1c-15.1-5.5-29.5-11.6-43.2-18.4c-83.2,21.2-177.5,18.6-257.3-8
								c7.8-107.8,144.6-194.1,310.9-194.1c46.2,0,91.9,6.6,133.2,19.2C2235.1,1178.9,2234.4,1168.5,2232.3,1158.1"/>
						</defs>
						<use xlink:href="#SVGID_1_"  style="overflow:visible;fill-rule:evenodd;clip-rule:evenodd;fill:#0BA833;"/>
						<clipPath id="SVGID_2_">
							<use xlink:href="#SVGID_1_"  style="overflow:visible;"/>
						</clipPath>
						<g class="st4">
							<rect x="1736.8" y="1135.6" class="st1" width="507.8" height="285.6"/>
						</g>
					</g>
					<g>
						<defs>
							<path id="SVGID_3_" d="M2456.1,1370.5c-1.3-76.4-58.6-146-154.2-188.5c0.1,11.2-1.1,22.3-3.4,33.4
								c67.9,36,109.4,88.9,113.9,146.9c-146.5,49-329.3,14.7-412.6-78.9c-22.5-25.3-36.3-53.5-40.3-82.4
								c-14.1,5-27.7,10.8-40.4,17.2c6.7,27.8,21.3,54.8,43.1,79.3c47.4,53.2,123.5,91.4,214.4,107.4c30.8,5.4,62.2,8.1,93.4,8.1
								c60.7,0,120.8-10.2,175.2-30.3l11.1-4.1L2456.1,1370.5z"/>
						</defs>
						<use xlink:href="#SVGID_3_"  style="overflow:visible;fill-rule:evenodd;clip-rule:evenodd;fill:#0BA833;"/>
						<clipPath id="SVGID_4_">
							<use xlink:href="#SVGID_3_"  style="overflow:visible;"/>
						</clipPath>
						<g class="st5">
							<rect x="1909.1" y="1175.6" class="st1" width="557" height="243.9"/>
						</g>
					</g>
					<g>
						<defs>
							<path id="SVGID_5_" d="M2114,982.9l-11-4.2l-11,4.2c-54.2,20.6-99.2,50-130.1,85.2c-26.7,30.4-42.6,64.4-46.3,99.2
								c14.8-5.7,30.3-10.7,46.2-15c13.8-57.3,65.1-109.1,141.1-140.7c139.5,58.2,185.4,178.8,101.6,272.9
								c-22.7,25.5-53.7,47.6-90.5,64.5c13.7,5.4,28.2,10.1,43.1,14.1c34-17.9,62.9-39.8,84.9-64.5
								C2340,1188.6,2282.5,1047,2114,982.9"/>
						</defs>
						<use xlink:href="#SVGID_5_"  style="overflow:visible;fill-rule:evenodd;clip-rule:evenodd;fill:#0BA833;"/>
						<clipPath id="SVGID_6_">
							<use xlink:href="#SVGID_5_"  style="overflow:visible;"/>
						</clipPath>
						<g class="st6">
							<rect x="1905.7" y="972.3" class="st1" width="394" height="397.1"/>
						</g>
					</g>
					<g>
						<defs>
							<path id="SVGID_7_" d="M2102.8,1298.3c-43.9,0-79.6-23.2-79.6-51.7c0-28.5,35.7-51.7,79.6-51.7s79.7,23.2,79.7,51.7
								C2182.4,1275.1,2146.7,1298.3,2102.8,1298.3 M2102.8,1223.1c-20,0-36.3,10.6-36.3,23.5c0,13,16.3,23.5,36.3,23.5
								c20,0,36.3-10.5,36.3-23.5C2139,1233.7,2122.8,1223.1,2102.8,1223.1"/>
						</defs>
						<use xlink:href="#SVGID_7_"  style="overflow:visible;fill-rule:evenodd;clip-rule:evenodd;fill:#0BA833;"/>
						<clipPath id="SVGID_8_">
							<use xlink:href="#SVGID_7_"  style="overflow:visible;"/>
						</clipPath>
						<g class="st7">
							<rect x="2013.3" y="1188.6" class="st1" width="179" height="116.1"/>
						</g>
					</g>
				</g>
			</g>
		</g>
	</g>
	<g>
		<g>
			<g>
				<g>
					<g>
						<polygon class="st2" points="1702.2,1059.6 1300.7,612.7 1300.7,501 1702.2,54.1 2503.3,54.1 2904.8,501 2904.8,612.7 
							2503.3,1059.6 						"/>
					</g>
				</g>
				<g>
					<g>
						<path class="st8" d="M2499.8,62.1l397,442v105.6l-397,442h-794l-397-442V504.1l397-442H2499.8 M2506.9,46.1h-7.1h-794h-7.1
							l-4.8,5.3l-397,442l-4.1,4.6v6.1v105.6v6.1l4.1,4.6l397,442l4.8,5.3h7.1h794h7.1l4.8-5.3l397-442l4.1-4.6v-6.1V504.1v-6.1
							l-4.1-4.6l-397-442L2506.9,46.1L2506.9,46.1z"/>
					</g>
				</g>
			</g>
			<g>
				<path class="st8" d="M2499.8,62.1l397,442v105.6l-397,442h-794l-397-442V504.1l397-442H2499.8 M2503.3,54.1h-3.6h-794h-3.6
					l-2.4,2.7l-397,442l-2,2.3v3.1v105.6v3.1l2,2.3l397,442l2.4,2.7h3.6h794h3.6l2.4-2.7l397-442l2-2.3v-3.1V504.1V501l-2-2.3
					l-397-442L2503.3,54.1L2503.3,54.1z"/>
			</g>
			<g>
				<line class="st2" x1="2102.8" y1="556.9" x2="2102.8" y2="556.9"/>
				<path class="st8" d="M2102.8,556.9"/>
			</g>
			<g>
				<g>
					<line class="st3" x1="2102.8" y1="556.9" x2="2102.8" y2="556.9"/>
					<path class="st8" d="M2102.8,556.9"/>
				</g>
			</g>
			<g>
				<g>
					<path class="st2" d="M1704,950l-400.6-446l400.6-446h797.6l400.6,446l-400.6,446H1704z M2467.6,873.9l332.2-369.8l-332.2-369.8
						h-729.7l-332.2,369.8l332.2,369.8H2467.6z"/>
				</g>
				<g>
					<path class="st8" d="M2499.8,62.1l397,442l-397,442h-794l-397-442l397-442H2499.8 M1736.1,877.9h733.3l335.8-373.8
						l-335.8-373.8h-733.3l-335.8,373.8L1736.1,877.9 M2503.3,54.1h-3.6h-794h-3.6l-2.4,2.7l-397,442l-4.8,5.3l4.8,5.3l397,442
						l2.4,2.7h3.6h794h3.6l2.4-2.7l397-442l4.8-5.3l-4.8-5.3l-397-442L2503.3,54.1L2503.3,54.1z M1739.7,138.2h726.1l328.6,365.8
						l-328.6,365.8h-726.1l-328.6-365.8L1739.7,138.2L1739.7,138.2z"/>
				</g>
			</g>
			<g>
				<g>
					<rect x="1700.6" y="949.4" class="st8" width="8" height="105.6"/>
				</g>
				<g>
					<rect x="2496.9" y="949.4" class="st8" width="8" height="105.6"/>
				</g>
			</g>
		</g>
	</g>
	<g>
		<path class="st8" d="M1903.3,481.9c-6.2,0-11.8-1-16.8-2.9c-5-1.9-9.2-4.7-12.6-8.5c-3.4-3.7-6.1-8.3-7.9-13.6
			c-1.8-5.4-2.8-11.5-2.8-18.5c0-7,1.1-13.1,3.2-18.5c2.1-5.4,5-9.9,8.7-13.6c3.7-3.7,8-6.5,13-8.5c5-1.9,10.3-2.9,16-2.9
			c3.4,0,6.6,0.3,9.4,0.8c2.8,0.5,5.2,1.1,7.3,1.7c2.1,0.6,3.8,1.3,5.2,2c1.4,0.7,2.3,1.2,2.9,1.6l-4.4,12.4
			c-1.9-1.2-4.7-2.3-8.2-3.4c-3.6-1.1-7.4-1.6-11.6-1.6c-3.6,0-7,0.6-10.1,1.9c-3.1,1.2-5.8,3.1-8.1,5.6c-2.3,2.5-4.1,5.6-5.3,9.4
			c-1.3,3.8-1.9,8.1-1.9,13.1c0,4.4,0.5,8.4,1.5,12.1c1,3.7,2.5,6.9,4.6,9.5c2.1,2.7,4.7,4.8,7.9,6.2c3.2,1.5,7,2.2,11.5,2.2
			c5.4,0,9.7-0.5,13.1-1.6c3.4-1.1,6-2.1,7.8-3.1l4.1,12.4c-1,0.6-2.3,1.3-3.9,1.9c-1.6,0.6-3.6,1.3-5.8,1.9
			c-2.2,0.6-4.8,1.1-7.6,1.4C1909.5,481.7,1906.5,481.9,1903.3,481.9z"/>
		<path class="st8" d="M2018,438.5c0,7.1-1.1,13.4-3.2,18.8c-2.1,5.4-5,10-8.6,13.6c-3.6,3.6-7.9,6.4-12.8,8.2
			c-4.9,1.8-10.1,2.8-15.6,2.8s-10.7-0.9-15.7-2.8s-9.2-4.6-12.8-8.2c-3.6-3.6-6.5-8.2-8.7-13.6c-2.2-5.4-3.2-11.7-3.2-18.8
			c0-7.1,1.1-13.4,3.2-18.8c2.2-5.4,5.1-9.9,8.8-13.6c3.7-3.7,8-6.4,12.9-8.3c4.9-1.8,10-2.8,15.5-2.8c5.4,0,10.6,0.9,15.5,2.8
			c4.9,1.8,9.1,4.6,12.8,8.3c3.6,3.7,6.5,8.2,8.7,13.6C2016.9,425.1,2018,431.3,2018,438.5z M1953.1,438.5c0,4.6,0.6,8.7,1.7,12.4
			c1.1,3.7,2.7,6.9,4.9,9.5c2.1,2.6,4.7,4.6,7.7,6.1c3,1.4,6.5,2.2,10.3,2.2c3.8,0,7.2-0.7,10.2-2.2c3-1.4,5.6-3.5,7.7-6.1
			c2.1-2.6,3.7-5.8,4.9-9.5c1.1-3.7,1.7-7.9,1.7-12.4c0-4.6-0.6-8.7-1.7-12.4c-1.1-3.7-2.7-6.9-4.9-9.5c-2.1-2.6-4.7-4.6-7.7-6.1
			c-3-1.4-6.4-2.2-10.2-2.2c-3.8,0-7.3,0.7-10.3,2.2c-3,1.4-5.6,3.5-7.7,6.1c-2.1,2.6-3.7,5.8-4.9,9.5
			C1953.7,429.8,1953.1,433.9,1953.1,438.5z"/>
		<path class="st8" d="M2053.7,468.8c5.4,0,9.4-0.9,11.9-2.8c2.5-1.8,3.7-4.4,3.7-7.8c0-2-0.4-3.7-1.3-5.2s-2-2.7-3.6-3.9
			c-1.6-1.2-3.5-2.2-5.7-3.2c-2.2-1-4.8-2-7.7-2.9c-2.9-1-5.7-2.2-8.3-3.4c-2.7-1.2-5-2.8-7.1-4.6c-2-1.8-3.7-4-4.9-6.6
			c-1.2-2.6-1.9-5.6-1.9-9.2c0-7.5,2.6-13.4,7.8-17.7c5.2-4.3,12.3-6.4,21.2-6.4c5.2,0,9.8,0.6,13.9,1.7c4,1.2,7.2,2.4,9.5,3.8
			l-4.7,12.2c-2.7-1.5-5.7-2.7-8.9-3.5c-3.2-0.8-6.6-1.2-10-1.2c-4.1,0-7.3,0.8-9.5,2.5c-2.3,1.7-3.4,4-3.4,7.1
			c0,1.8,0.4,3.4,1.1,4.7c0.8,1.3,1.8,2.5,3.2,3.5c1.4,1,3,2,4.9,2.9c1.9,0.9,3.9,1.7,6.2,2.5c3.9,1.4,7.4,2.9,10.5,4.4
			c3.1,1.5,5.7,3.2,7.8,5.3c2.1,2,3.7,4.4,4.9,7.2c1.1,2.8,1.7,6.1,1.7,10c0,7.5-2.7,13.3-8,17.5c-5.3,4.1-13.1,6.2-23.3,6.2
			c-3.4,0-6.6-0.2-9.4-0.7c-2.8-0.4-5.4-1-7.6-1.6c-2.2-0.6-4.1-1.3-5.7-2c-1.6-0.7-2.9-1.3-3.8-1.9l4.4-12.4
			c2.2,1.2,5.1,2.4,8.8,3.6C2044,468.2,2048.5,468.8,2053.7,468.8z"/>
		<path class="st8" d="M2116.5,396.9c1.8,3,3.7,6.8,5.9,11.2c2.2,4.4,4.4,9,6.6,13.9c2.2,4.8,4.5,9.8,6.7,14.8
			c2.2,5,4.2,9.6,6.1,13.9c1.8-4.2,3.8-8.9,6-13.9c2.2-5,4.4-9.9,6.6-14.8c2.2-4.8,4.4-9.5,6.6-13.9c2.2-4.4,4.1-8.1,5.9-11.2h13.6
			c0.7,6.1,1.4,12.5,2.1,19.4c0.7,6.8,1.2,13.8,1.8,21c0.5,7.2,1,14.4,1.5,21.6c0.4,7.2,0.8,14.3,1.2,21.2H2172
			c-0.3-9.7-0.7-19.6-1.2-29.9c-0.4-10.2-1.1-20.2-2-29.8c-0.9,1.8-1.9,4-3.1,6.6c-1.2,2.6-2.5,5.3-3.8,8.3c-1.4,3-2.7,6.1-4.1,9.3
			c-1.4,3.2-2.8,6.3-4.1,9.3s-2.5,5.8-3.7,8.4c-1.1,2.6-2.1,4.8-2.9,6.7h-11.3c-0.8-1.8-1.8-4.1-2.9-6.7c-1.1-2.6-2.3-5.5-3.7-8.5
			c-1.3-3-2.7-6.1-4.1-9.3c-1.4-3.2-2.8-6.3-4.1-9.2c-1.4-3-2.6-5.7-3.8-8.3c-1.2-2.6-2.2-4.8-3.1-6.5c-0.9,9.6-1.6,19.5-2,29.8
			c-0.4,10.2-0.8,20.2-1.2,29.9H2096c0.3-6.9,0.7-14,1.2-21.4c0.4-7.4,0.9-14.7,1.5-21.9c0.5-7.2,1.1-14.3,1.8-21.1
			c0.7-6.8,1.3-13.1,2.1-18.8H2116.5z"/>
		<path class="st8" d="M2281.7,438.5c0,7.1-1.1,13.4-3.2,18.8c-2.1,5.4-5,10-8.6,13.6c-3.6,3.6-7.9,6.4-12.8,8.2
			c-4.9,1.8-10.1,2.8-15.6,2.8c-5.5,0-10.7-0.9-15.7-2.8s-9.2-4.6-12.8-8.2c-3.6-3.6-6.5-8.2-8.7-13.6c-2.2-5.4-3.2-11.7-3.2-18.8
			c0-7.1,1.1-13.4,3.2-18.8c2.2-5.4,5.1-9.9,8.8-13.6c3.7-3.7,8-6.4,12.9-8.3c4.9-1.8,10-2.8,15.5-2.8c5.4,0,10.6,0.9,15.5,2.8
			c4.9,1.8,9.1,4.6,12.8,8.3c3.6,3.7,6.5,8.2,8.7,13.6C2280.6,425.1,2281.7,431.3,2281.7,438.5z M2216.7,438.5
			c0,4.6,0.6,8.7,1.7,12.4c1.1,3.7,2.7,6.9,4.9,9.5c2.1,2.6,4.7,4.6,7.7,6.1c3,1.4,6.5,2.2,10.3,2.2c3.8,0,7.2-0.7,10.2-2.2
			c3-1.4,5.6-3.5,7.7-6.1c2.1-2.6,3.7-5.8,4.9-9.5c1.1-3.7,1.7-7.9,1.7-12.4c0-4.6-0.6-8.7-1.7-12.4c-1.1-3.7-2.7-6.9-4.9-9.5
			c-2.1-2.6-4.7-4.6-7.7-6.1c-3-1.4-6.4-2.2-10.2-2.2c-3.8,0-7.3,0.7-10.3,2.2c-3,1.4-5.6,3.5-7.7,6.1c-2.1,2.6-3.7,5.8-4.9,9.5
			C2217.3,429.8,2216.7,433.9,2216.7,438.5z"/>
		<path class="st8" d="M2317.3,468.8c5.4,0,9.4-0.9,11.9-2.8c2.5-1.8,3.7-4.4,3.7-7.8c0-2-0.4-3.7-1.3-5.2s-2-2.7-3.6-3.9
			c-1.6-1.2-3.5-2.2-5.7-3.2c-2.2-1-4.8-2-7.7-2.9c-2.9-1-5.7-2.2-8.3-3.4c-2.7-1.2-5-2.8-7.1-4.6c-2-1.8-3.7-4-4.9-6.6
			c-1.2-2.6-1.9-5.6-1.9-9.2c0-7.5,2.6-13.4,7.8-17.7c5.2-4.3,12.3-6.4,21.2-6.4c5.2,0,9.8,0.6,13.9,1.7c4,1.2,7.2,2.4,9.5,3.8
			l-4.7,12.2c-2.7-1.5-5.7-2.7-8.9-3.5c-3.2-0.8-6.6-1.2-10-1.2c-4.1,0-7.3,0.8-9.5,2.5c-2.3,1.7-3.4,4-3.4,7.1
			c0,1.8,0.4,3.4,1.1,4.7c0.8,1.3,1.8,2.5,3.2,3.5c1.4,1,3,2,4.9,2.9c1.9,0.9,3.9,1.7,6.2,2.5c3.9,1.4,7.4,2.9,10.5,4.4
			c3.1,1.5,5.7,3.2,7.8,5.3c2.1,2,3.7,4.4,4.9,7.2c1.1,2.8,1.7,6.1,1.7,10c0,7.5-2.7,13.3-8,17.5c-5.3,4.1-13.1,6.2-23.3,6.2
			c-3.4,0-6.6-0.2-9.4-0.7c-2.8-0.4-5.4-1-7.6-1.6c-2.2-0.6-4.1-1.3-5.7-2c-1.6-0.7-2.9-1.3-3.8-1.9l4.4-12.4
			c2.2,1.2,5.1,2.4,8.8,3.6C2307.7,468.2,2312.1,468.8,2317.3,468.8z"/>
		<path class="st8" d="M2019.3,612.8c5.4,0,9.4-0.9,11.9-2.8c2.5-1.8,3.7-4.4,3.7-7.8c0-2-0.4-3.7-1.3-5.2c-0.8-1.4-2-2.7-3.6-3.9
			c-1.6-1.2-3.5-2.2-5.7-3.2c-2.2-1-4.8-2-7.7-2.9c-2.9-1-5.7-2.2-8.3-3.4c-2.7-1.2-5-2.8-7.1-4.6c-2-1.8-3.7-4-4.9-6.6
			c-1.2-2.6-1.9-5.6-1.9-9.2c0-7.5,2.6-13.4,7.8-17.7c5.2-4.3,12.3-6.4,21.2-6.4c5.2,0,9.8,0.6,13.9,1.7c4,1.2,7.2,2.4,9.5,3.8
			l-4.7,12.2c-2.7-1.5-5.7-2.7-8.9-3.5c-3.2-0.8-6.6-1.2-10-1.2c-4.1,0-7.3,0.8-9.5,2.5c-2.3,1.7-3.4,4-3.4,7.1
			c0,1.8,0.4,3.4,1.1,4.7c0.8,1.3,1.8,2.5,3.2,3.5c1.4,1,3,2,4.9,2.9c1.9,0.9,3.9,1.7,6.2,2.5c3.9,1.4,7.4,2.9,10.5,4.4
			c3.1,1.5,5.7,3.2,7.8,5.3c2.1,2,3.7,4.4,4.9,7.2c1.1,2.8,1.7,6.1,1.7,10c0,7.5-2.7,13.3-8,17.5c-5.3,4.1-13.1,6.2-23.3,6.2
			c-3.4,0-6.6-0.2-9.4-0.7c-2.8-0.4-5.4-1-7.6-1.6c-2.2-0.6-4.1-1.3-5.7-2c-1.6-0.7-2.9-1.3-3.8-1.9l4.4-12.4
			c2.2,1.2,5.1,2.4,8.8,3.6C2009.6,612.2,2014.1,612.8,2019.3,612.8z"/>
		<path class="st8" d="M2134.5,582.5c0,7.2-1.1,13.5-3.4,18.8c-2.2,5.3-5.4,9.8-9.5,13.3c-4.1,3.6-9.1,6.2-14.9,7.9
			c-5.8,1.7-12.2,2.6-19.3,2.6c-3.4,0-7.2-0.1-11.4-0.4c-4.2-0.3-8.3-0.9-12.1-1.7v-80.8c3.8-0.9,7.9-1.4,12.2-1.7
			c4.3-0.2,8.2-0.4,11.5-0.4c7,0,13.3,0.8,19.1,2.5c5.8,1.6,10.7,4.2,14.8,7.7c4.1,3.5,7.3,7.9,9.5,13.2
			C2133.4,568.8,2134.5,575.1,2134.5,582.5z M2079,611.6c0.9,0.1,2,0.1,3.5,0.2c1.4,0,3.4,0.1,5.9,0.1c10.2,0,17.7-2.6,22.7-7.7
			c5-5.2,7.5-12.4,7.5-21.7c0-9.4-2.4-16.7-7.3-21.7c-4.9-5-12.4-7.6-22.7-7.6c-4.5,0-7.7,0.1-9.6,0.4V611.6z"/>
		<path class="st8" d="M2200.7,624.1c-2.1-3.2-4.5-6.6-7.2-10.1c-2.7-3.5-5.6-6.9-8.6-10.2c-3-3.3-6.1-6.4-9.3-9.4
			c-3.2-3-6.4-5.5-9.5-7.7v37.3H2151v-83.2h15.1v34.3c2.6-2.6,5.4-5.5,8.3-8.5s5.7-6,8.6-9.1c2.8-3.1,5.5-6.1,8.1-8.9
			c2.6-2.9,4.9-5.5,7-7.8h18.1c-2.6,3-5.4,6.2-8.4,9.5c-3,3.3-6,6.6-9.1,9.9c-3.1,3.3-6.3,6.6-9.4,9.9c-3.2,3.3-6.3,6.4-9.3,9.4
			c3.4,2.6,6.8,5.5,10.3,8.9c3.5,3.4,6.9,7,10.3,10.9c3.4,3.9,6.6,7.9,9.7,12.1c3.1,4.2,5.9,8.4,8.5,12.5H2200.7z"/>
	</g>
</g>
<g id="Layer_2">
	<g>
		<g>
			<g>
				<line class="st9" x1="1340.9" y1="594.6" x2="892" y2="594.6"/>
				<g>
					<path d="M1340.5,587.1c4.2,0,7.5,3.4,7.5,7.5s-3.4,7.5-7.5,7.5c-4.2,0-7.5-3.4-7.5-7.5S1336.3,587.1,1340.5,587.1z"/>
				</g>
			</g>
		</g>
		<text transform="matrix(1 0 0 1 491.5503 618.5967)" class="st10 st11">Application</text>
		<g>
			<g>
				<line class="st9" x1="1340.9" y1="1324.6" x2="892" y2="1324.6"/>
				<g>
					<path d="M1340.5,1317.1c4.2,0,7.5,3.4,7.5,7.5s-3.4,7.5-7.5,7.5c-4.2,0-7.5-3.4-7.5-7.5S1336.3,1317.1,1340.5,1317.1z"/>
				</g>
			</g>
		</g>
		<text transform="matrix(1 0 0 1 516.3157 1348.5967)" class="st10 st11">Consensus</text>
		<g>
			<g>
				<line class="st9" x1="1340.9" y1="1468.6" x2="892" y2="1468.6"/>
				<g>
					<path d="M1340.5,1461.1c4.2,0,7.5,3.4,7.5,7.5s-3.4,7.5-7.5,7.5c-4.2,0-7.5-3.4-7.5-7.5S1336.3,1461.1,1340.5,1461.1z"/>
				</g>
			</g>
		</g>
		<text transform="matrix(1 0 0 1 477.4385 1492.5967)" class="st10 st11">Networking</text>
	</g>
</g>
</svg>
