<?xml version="1.0" encoding="utf-8"?>
<!-- Generator: Adobe Illustrator 22.1.0, SVG Export Plug-In . SVG Version: 6.00 Build 0)  -->
<svg version="1.1" xmlns="http://www.w3.org/2000/svg" xmlns:xlink="http://www.w3.org/1999/xlink" x="0px" y="0px"
	 viewBox="0 0 3840 2160" style="enable-background:new 0 0 3840 2160;" xml:space="preserve">
<style type="text/css">
	.st0{fill:#FFFFFF;}
	.st1{fill:#149ADD;}
	.st2{fill:#6FD89E;}
</style>
<g id="Layer_1">
	<g>
		<g>
			<g>
				<g>
					<g>
						<g>
							<polygon class="st0" points="1519.4,1876.5 1118,1429.6 1118,1169.9 1519.4,723 2320.6,723 2722,1169.9 2722,1429.6 
								2320.6,1876.5 							"/>
						</g>
					</g>
					<g>
						<g>
							<path class="st1" d="M2317,731l397,442v253.6l-397,442h-794l-397-442V1173l397-442H2317 M2324.1,715h-7.1h-794h-7.1l-4.8,5.3
								l-397,442l-4.1,4.6v6.1v253.6v6.1l4.1,4.6l397,442l4.8,5.3h7.1h794h7.1l4.8-5.3l397-442l4.1-4.6v-6.1V1173v-6.1l-4.1-4.6
								l-397-442L2324.1,715L2324.1,715z"/>
						</g>
					</g>
				</g>
				<g>
					<path class="st1" d="M2317,731l397,442v253.6l-397,442h-794l-397-442V1173l397-442H2317 M2320.6,723h-3.6h-794h-3.6l-2.4,2.7
						l-397,442l-2,2.3v3.1v253.6v3.1l2,2.3l397,442l2.4,2.7h3.6h794h3.6l2.4-2.7l397-442l2-2.3v-3.1V1173v-3.1l-2-2.3l-397-442
						L2320.6,723L2320.6,723z"/>
				</g>
				<g>
					<line class="st0" x1="1920" y1="1225.8" x2="1920" y2="1225.8"/>
					<path class="st1" d="M1920,1225.8"/>
				</g>
				<g>
					<g>
						<line class="st2" x1="1920" y1="1225.8" x2="1920" y2="1225.8"/>
						<path class="st1" d="M1920,1225.8"/>
					</g>
				</g>
				<g>
					<g>
						<path class="st0" d="M1521.2,1619l-400.6-446l400.6-446h797.6l400.6,446l-400.6,446H1521.2z M2284.8,1542.8l332.2-369.8
							l-332.2-369.8h-729.7L1222.9,1173l332.2,369.8H2284.8z"/>
					</g>
					<g>
						<path class="st1" d="M2317,731l397,442l-397,442h-794l-397-442l397-442H2317 M1553.4,1546.8h733.3l335.8-373.8l-335.8-373.8
							h-733.3L1217.6,1173L1553.4,1546.8 M2320.6,723h-3.6h-794h-3.6l-2.4,2.7l-397,442l-4.8,5.3l4.8,5.3l397,442l2.4,2.7h3.6h794
							h3.6l2.4-2.7l397-442l4.8-5.3l-4.8-5.3l-397-442L2320.6,723L2320.6,723z M1556.9,807.1h726.1l328.6,365.8l-328.6,365.8h-726.1
							L1228.3,1173L1556.9,807.1L1556.9,807.1z"/>
					</g>
				</g>
				<g>
					<g>
						<rect x="1517.9" y="1618.4" class="st1" width="8" height="253.6"/>
					</g>
					<g>
						<rect x="2314.1" y="1618.4" class="st1" width="8" height="253.6"/>
					</g>
				</g>
			</g>
		</g>
	</g>
	<g>
		<g>
			<g>
				<g>
					<g>
						<g>
							<polygon class="st0" points="1519.4,1571.5 1118,1124.6 1118,1012.9 1519.4,566 2320.6,566 2722,1012.9 2722,1124.6 
								2320.6,1571.5 							"/>
						</g>
					</g>
					<g>
						<g>
							<path class="st1" d="M2317,574l397,442v105.6l-397,442h-794l-397-442V1016l397-442H2317 M2324.1,558h-7.1h-794h-7.1l-4.8,5.3
								l-397,442l-4.1,4.6v6.1v105.6v6.1l4.1,4.6l397,442l4.8,5.3h7.1h794h7.1l4.8-5.3l397-442l4.1-4.6v-6.1V1016v-6.1l-4.1-4.6
								l-397-442L2324.1,558L2324.1,558z"/>
						</g>
					</g>
				</g>
				<g>
					<path class="st1" d="M2317,574l397,442v105.6l-397,442h-794l-397-442V1016l397-442H2317 M2320.6,566h-3.6h-794h-3.6l-2.4,2.7
						l-397,442l-2,2.3v3.1v105.6v3.1l2,2.3l397,442l2.4,2.7h3.6h794h3.6l2.4-2.7l397-442l2-2.3v-3.1V1016v-3.1l-2-2.3l-397-442
						L2320.6,566L2320.6,566z"/>
				</g>
				<g>
					<line class="st0" x1="1920" y1="1068.8" x2="1920" y2="1068.8"/>
					<path class="st1" d="M1920,1068.8"/>
				</g>
				<g>
					<g>
						<line class="st2" x1="1920" y1="1068.8" x2="1920" y2="1068.8"/>
						<path class="st1" d="M1920,1068.8"/>
					</g>
				</g>
				<g>
					<g>
						<path class="st0" d="M1521.2,1462l-400.6-446l400.6-446h797.6l400.6,446l-400.6,446H1521.2z M2284.8,1385.8l332.2-369.8
							l-332.2-369.8h-729.7L1222.9,1016l332.2,369.8H2284.8z"/>
					</g>
					<g>
						<path class="st1" d="M2317,574l397,442l-397,442h-794l-397-442l397-442H2317 M1553.4,1389.8h733.3l335.8-373.8l-335.8-373.8
							h-733.3L1217.6,1016L1553.4,1389.8 M2320.6,566h-3.6h-794h-3.6l-2.4,2.7l-397,442l-4.8,5.3l4.8,5.3l397,442l2.4,2.7h3.6h794
							h3.6l2.4-2.7l397-442l4.8-5.3l-4.8-5.3l-397-442L2320.6,566L2320.6,566z M1556.9,650.1h726.1l328.6,365.8l-328.6,365.8h-726.1
							L1228.3,1016L1556.9,650.1L1556.9,650.1z"/>
					</g>
				</g>
				<g>
					<g>
						<rect x="1517.9" y="1461.4" class="st1" width="8" height="105.6"/>
					</g>
					<g>
						<rect x="2314.1" y="1461.4" class="st1" width="8" height="105.6"/>
					</g>
				</g>
			</g>
		</g>
		<g>
			<polygon class="st1" points="1920.7,1086.9 1628,1022.8 1921,1208 2213.3,1022.8 			"/>
			<polygon class="st1" points="1919.2,1060.6 2211.1,996.6 1919.2,805.3 1627.3,996.6 			"/>
		</g>
	</g>
</g>
<g id="Layer_2">
</g>
</svg>
