<?xml version="1.0" encoding="utf-8"?>
<!-- Generator: Adobe Illustrator 22.1.0, SVG Export Plug-In . SVG Version: 6.00 Build 0)  -->
<svg version="1.1" xmlns="http://www.w3.org/2000/svg" xmlns:xlink="http://www.w3.org/1999/xlink" x="0px" y="0px"
	 viewBox="0 0 3840 2160" style="enable-background:new 0 0 3840 2160;" xml:space="preserve">
<style type="text/css">
	.st0{fill:#FFFFFF;}
	.st1{fill:#E58800;}
	.st2{fill:#6FD89E;}
</style>
<g id="Layer_1">
	<g>
		<g>
			<g>
				<g>
					<g>
						<g>
							<polygon class="st0" points="1519.4,1979.5 1118,1532.6 1118,1134.9 1519.4,688 2320.6,688 2722,1134.9 2722,1532.6 
								2320.6,1979.5 							"/>
						</g>
					</g>
					<g>
						<g>
							<path class="st1" d="M2317,696l397,442v391.6l-397,442h-794l-397-442V1138l397-442H2317 M2324.1,680h-7.1h-794h-7.1l-4.8,5.3
								l-397,442l-4.1,4.6v6.1v391.6v6.1l4.1,4.6l397,442l4.8,5.3h7.1h794h7.1l4.8-5.3l397-442l4.1-4.6v-6.1V1138v-6.1l-4.1-4.6
								l-397-442L2324.1,680L2324.1,680z"/>
						</g>
					</g>
				</g>
				<g>
					<path class="st1" d="M2317,696l397,442v391.6l-397,442h-794l-397-442V1138l397-442H2317 M2320.6,688h-3.6h-794h-3.6l-2.4,2.7
						l-397,442l-2,2.3v3.1v391.6v3.1l2,2.3l397,442l2.4,2.7h3.6h794h3.6l2.4-2.7l397-442l2-2.3v-3.1V1138v-3.1l-2-2.3l-397-442
						L2320.6,688L2320.6,688z"/>
				</g>
				<g>
				</g>
				<g>
					<g>
					</g>
				</g>
				<g>
					<g>
						<path class="st0" d="M1521.2,1584l-400.6-446l400.6-446h797.6l400.6,446l-400.6,446H1521.2z M2284.8,1507.8l332.2-369.8
							l-332.2-369.8h-729.7L1222.9,1138l332.2,369.8H2284.8z"/>
					</g>
					<g>
						<path class="st1" d="M2317,696l397,442l-397,442h-794l-397-442l397-442H2317 M1553.4,1511.8h733.3l335.8-373.8l-335.8-373.8
							h-733.3L1217.6,1138L1553.4,1511.8 M2320.6,688h-3.6h-794h-3.6l-2.4,2.7l-397,442l-4.8,5.3l4.8,5.3l397,442l2.4,2.7h3.6h794
							h3.6l2.4-2.7l397-442l4.8-5.3l-4.8-5.3l-397-442L2320.6,688L2320.6,688z M1556.9,772.1h726.1l328.6,365.8l-328.6,365.8h-726.1
							L1228.3,1138L1556.9,772.1L1556.9,772.1z"/>
					</g>
				</g>
				<g>
					<g>
						<rect x="1517.9" y="1583.4" class="st1" width="8" height="391.6"/>
					</g>
					<g>
						<rect x="2314.1" y="1583.4" class="st1" width="8" height="391.6"/>
					</g>
				</g>
			</g>
		</g>
		<g>
			<path class="st1" d="M2121.4,1114.7c33,16.9,54,41,54.2,67.8l0,5.2c0.4,51-73.9,92.5-165.7,92.5h-4.1l0.2,27.3h-106.9l-0.2-27.3
				h-43.8l0.2,27.3h-106.9l-0.2-27.3h-25h-53l-0.5-59.4h53l-0.6-71.3l-0.5-59.4l-0.6-64.3h-53l-0.5-59.4h53h25l-0.3-33.4h106.9
				l0.3,33.4h43.8l-0.3-33.4h106.9l0.3,33.7c83.9,2.8,151,41.5,151.4,88.8l0,4.9C2154.8,1080.8,2142.3,1099.6,2121.4,1114.7z
				 M2068.8,1187.6l0-5.2c-0.2-18.3-27-33.1-59.9-33.1H1995h-165.9l0.6,71.3h22.7h157C2042.3,1220.7,2068.9,1205.9,2068.8,1187.6
				 M1828,1025.7l0.6,64.3h165.9c29.5,0,53.4-13.3,53.2-29.7l0-4.9c-0.1-16.4-24.3-29.7-53.7-29.7h-143.2H1828"/>
		</g>
	</g>
</g>
<g id="Layer_2">
</g>
</svg>
