<?xml version="1.0" encoding="utf-8"?>
<!-- Generator: Adobe Illustrator 22.1.0, SVG Export Plug-In . SVG Version: 6.00 Build 0)  -->
<svg version="1.1" id="Layer_1" xmlns="http://www.w3.org/2000/svg" xmlns:xlink="http://www.w3.org/1999/xlink" x="0px" y="0px"
	 viewBox="0 0 3840 2676" style="enable-background:new 0 0 3840 2676;" xml:space="preserve">
<style type="text/css">
	.st0{opacity:0.2;}
	.st1{fill:#FFFFFF;}
	.st2{fill:#0BA833;}
	.st3{fill:#CCCCCC;}
	.st4{opacity:0.1;}
	.st5{fill:#14932F;}
	.st6{fill:none;stroke:#0BA833;stroke-width:4;stroke-miterlimit:10;}
	.st7{fill:#3232CC;}
	.st8{fill:none;}
	.st9{fill:none;stroke:#000000;stroke-width:2;stroke-miterlimit:10;}
	.st10{font-family:sans-serif;}
	.st11{font-size:72px;}
</style>
<g id="Layer_1_1_">
	<g class="st0">
		<polygon class="st1" points="1172.2,1751 1439,1454.1 1441.3,1451.4 1444.9,1451.4 2238.9,1451.4 2242.5,1451.4 2244.9,1454.1 
			2511.6,1751 2532,1751 2532,1749.6 2205,1385.5 1478.9,1385.5 1153,1748.3 1153,1751 		"/>
		<path class="st1" d="M1702.9,1669.6c-16,4.3-31.4,9.3-46.2,15c3.7-34.7,19.5-68.8,46.3-99.2c16.2-18.4,36.1-35.1,59.2-49.9H1479
			L1285.3,1751H1560c9.7-8.4,20.4-16.3,32-23.9c66.9-43.7,155.9-67.8,250.4-67.8c45,0,89.5,5.5,130.9,16.1
			c2.1,10.4,2.8,20.9,2.3,31.3c-41.3-12.6-86.9-19.2-133.2-19.2c-88.4,0-168.5,24.4-225.3,63.5h47.4c-1.8-5.1-3.3-10.1-4.5-15.3
			c12.8-6.5,26.3-12.2,40.4-17.2c1.5,11,4.5,21.8,8.8,32.5h57.6c8.9-22.2,40.1-38.6,77.1-38.6s68.1,16.4,77.1,38.6h56.8
			c31.6-79.6-14-166-118.8-215.5h-29.8C1761.3,1567.5,1715.7,1616.2,1702.9,1669.6z"/>
		<path class="st1" d="M1843.8,1740.5c-12.6,0-23.6,4.2-30.1,10.5h60.3C1867.4,1744.7,1856.3,1740.5,1843.8,1740.5z"/>
		<path class="st1" d="M2022.3,1751h47.1c-9.3-6.4-19.3-12.5-30-18.1c2.4-11.1,3.5-22.3,3.4-33.4c32.3,14.3,60.2,31.8,83.1,51.6
			h272.5L2205,1535.5h-279.4C2012.6,1591.6,2049,1673.7,2022.3,1751z"/>
		<path class="st1" d="M1475.3,1527.5h299.9c17.7-10.3,37.1-19.4,57.8-27.3l11-4.2l11,4.2c20.9,8,40.2,17.1,57.6,27.3h296
			l200.7,223.5h91.6L2239,1459.4h-794L1183,1751h91.6L1475.3,1527.5z"/>
		<path class="st1" d="M1858.8,1535.5c-2.9-1.4-5.8-2.7-8.8-4h-12.2c-3,1.3-5.9,2.6-8.8,4H1858.8z"/>
		<path class="st1" d="M2205,1535.5l193.5,215.5h5.4l-197.1-219.5h-287.5c2.1,1.3,4.3,2.7,6.4,4H2205z"/>
		<path class="st1" d="M1478.9,1535.5h283.2c2.1-1.3,4.2-2.7,6.4-4h-291.4L1280,1751h5.4L1478.9,1535.5z"/>
		<polygon class="st1" points="2240.7,1455.4 2506.2,1751 2511.6,1751 2244.9,1454.1 2242.5,1451.4 2238.9,1451.4 1444.9,1451.4 
			1441.3,1451.4 1439,1454.1 1172.2,1751 1177.6,1751 1443.1,1455.4 		"/>
		<polygon class="st1" points="1177.6,1751 1177.6,1751 1443.1,1455.4 		"/>
		<polygon class="st1" points="2506.2,1751 2506.2,1751 2240.7,1455.4 		"/>
		<path class="st1" d="M1844,1528.9c-2.1,0.9-4.1,1.7-6.1,2.6h12.2C1848.1,1530.7,1846,1529.8,1844,1528.9z"/>
		<path class="st1" d="M1477.1,1531.5h291.4c2.2-1.4,4.5-2.7,6.7-4h-299.9L1274.6,1751h5.4L1477.1,1531.5z"/>
		<path class="st1" d="M1912.5,1527.5c2.3,1.3,4.5,2.7,6.7,4h287.5l197.1,219.5h5.4l-200.7-223.5H1912.5z"/>
		<polygon class="st1" points="2238.9,1459.4 2500.8,1751 2506.2,1751 2240.7,1455.4 1443.1,1455.4 1177.6,1751 1183,1751 
			1444.9,1459.4 		"/>
		<polygon class="st1" points="1475.3,1377.5 2208.6,1377.5 2532,1737.6 2532,1636.7 2238.9,1310.4 1444.9,1310.4 1153,1635.4 
			1153,1736.3 		"/>
		<polygon class="st2" points="1478.9,1385.5 2205,1385.5 2532,1749.6 2532,1743.6 2206.8,1381.5 1477.1,1381.5 1153,1742.3 
			1153,1748.3 		"/>
		<polygon class="st2" points="1477.1,1381.5 2206.8,1381.5 2532,1743.6 2532,1737.6 2208.6,1377.5 1475.3,1377.5 1153,1736.3 
			1153,1742.3 		"/>
		<polygon class="st2" points="1439,1304.1 1441.3,1301.4 1444.9,1301.4 2238.9,1301.4 2242.5,1301.4 2244.9,1304.1 2532,1623.7 
			2532,1612.7 2250.8,1299.7 2246.1,1294.4 2238.9,1294.4 1444.9,1294.4 1437.8,1294.4 1433,1299.7 1153,1611.5 1153,1622.4 		"/>
		<polygon class="st2" points="1444.9,1310.4 2238.9,1310.4 2532,1636.7 2532,1635.7 2238.9,1309.4 1444.9,1309.4 1153,1634.4 
			1153,1635.4 		"/>
		<polygon class="st2" points="2242.5,1301.4 2238.9,1301.4 1444.9,1301.4 1441.3,1301.4 1439,1304.1 1153,1622.4 1153,1628.4 
			1443.1,1305.4 2240.7,1305.4 2532,1629.7 2532,1623.7 2244.9,1304.1 		"/>
		<path class="st2" d="M2532,1629.7l-291.3-324.3L2532,1629.7z"/>
		<polygon class="st2" points="1443.1,1305.4 1153,1628.4 1153,1628.4 		"/>
		<polygon class="st2" points="1153,1634.4 1444.9,1309.4 2238.9,1309.4 2532,1635.7 2532,1629.7 2240.7,1305.4 1443.1,1305.4 
			1153,1628.4 		"/>
		<path class="st2" d="M1842.4,1687.5c46.2,0,91.9,6.6,133.2,19.2c0.5-10.4-0.2-20.9-2.3-31.3c-41.4-10.6-85.9-16.1-130.9-16.1
			c-94.5,0-183.5,24.1-250.4,67.8c-11.6,7.5-22.2,15.5-32,23.9h57C1673.9,1711.9,1754,1687.5,1842.4,1687.5z"/>
		<path class="st2" d="M2042.8,1699.4c0.1,11.2-1.1,22.3-3.4,33.4c10.7,5.6,20.7,11.7,30,18.1h56.6
			C2103.1,1731.2,2075.2,1713.8,2042.8,1699.4z"/>
		<path class="st2" d="M1700.4,1718.5c-14.1,5-27.7,10.8-40.4,17.2c1.2,5.1,2.7,10.2,4.5,15.3h44.7
			C1704.9,1740.4,1701.9,1729.5,1700.4,1718.5z"/>
		<path class="st2" d="M1702.9,1585.5c-26.7,30.4-42.6,64.4-46.3,99.2c14.8-5.7,30.3-10.7,46.2-15c12.8-53.5,58.5-102.1,126.2-134.1
			h-67C1739,1550.3,1719,1567.1,1702.9,1585.5z"/>
		<path class="st2" d="M1977.6,1751h44.6c26.7-77.3-9.7-159.4-96.7-215.5h-66.8C1963.7,1585,2009.2,1671.4,1977.6,1751z"/>
		<path class="st2" d="M1855,1500.3l-11-4.2l-11,4.2c-20.7,7.9-40,17-57.8,27.3h137.3C1895.1,1517.4,1875.9,1508.2,1855,1500.3z"/>
		<path class="st2" d="M1858.8,1535.5h66.8c-2.1-1.3-4.2-2.7-6.4-4H1850C1853.1,1532.8,1856,1534.2,1858.8,1535.5z"/>
		<path class="st2" d="M1829.1,1535.5c2.9-1.4,5.8-2.7,8.8-4h-69.4c-2.2,1.3-4.3,2.7-6.4,4H1829.1z"/>
		<path class="st2" d="M1837.9,1531.5c2-0.9,4-1.8,6.1-2.6c2.1,0.9,4.1,1.7,6.1,2.6h69.2c-2.2-1.3-4.4-2.7-6.7-4h-137.3
			c-2.3,1.3-4.5,2.6-6.7,4H1837.9z"/>
		<path class="st2" d="M1843.8,1740.5c12.6,0,23.6,4.2,30.1,10.5h46.9c-8.9-22.2-40.1-38.6-77.1-38.6s-68.1,16.4-77.1,38.6h46.9
			C1820.1,1744.7,1831.2,1740.5,1843.8,1740.5z"/>
	</g>
	<g>
		<g>
			<g>
				<rect x="1036" y="652" class="st3" width="8" height="6"/>
			</g>
			<g>
				<path class="st3" d="M1044,1756.1h-8v-11.9h8V1756.1z M1044,1732.2h-8v-11.9h8V1732.2z M1044,1708.3h-8v-11.9h8V1708.3z
					 M1044,1684.5h-8v-11.9h8V1684.5z M1044,1660.6h-8v-11.9h8V1660.6z M1044,1636.7h-8v-11.9h8V1636.7z M1044,1612.8h-8v-11.9h8
					V1612.8z M1044,1589h-8v-12h8V1589z M1044,1565.1h-8v-11.9h8V1565.1z M1044,1541.2h-8v-11.9h8V1541.2z M1044,1517.4h-8v-11.9h8
					V1517.4z M1044,1493.5h-8v-11.9h8V1493.5z M1044,1469.6h-8v-11.9h8V1469.6z M1044,1445.7h-8v-11.9h8V1445.7z M1044,1421.9h-8
					V1410h8V1421.9z M1044,1398h-8v-11.9h8V1398z M1044,1374.1h-8v-11.9h8V1374.1z M1044,1350.3h-8v-11.9h8V1350.3z M1044,1326.4h-8
					v-11.9h8V1326.4z M1044,1302.5h-8v-11.9h8V1302.5z M1044,1278.6h-8v-11.9h8V1278.6z M1044,1254.8h-8v-11.9h8V1254.8z
					 M1044,1230.9h-8V1219h8V1230.9z M1044,1207h-8v-11.9h8V1207z M1044,1183.2h-8v-11.9h8V1183.2z M1044,1159.3h-8v-11.9h8V1159.3z
					 M1044,1135.4h-8v-11.9h8V1135.4z M1044,1111.5h-8v-11.9h8V1111.5z M1044,1087.7h-8v-11.9h8V1087.7z M1044,1063.8h-8v-11.9h8
					V1063.8z M1044,1039.9h-8V1028h8V1039.9z M1044,1016.1h-8v-11.9h8V1016.1z M1044,992.2h-8v-11.9h8V992.2z M1044,968.3h-8v-11.9
					h8V968.3z M1044,944.5h-8v-11.9h8V944.5z M1044,920.6h-8v-11.9h8V920.6z M1044,896.7h-8v-11.9h8V896.7z M1044,872.8h-8v-11.9h8
					V872.8z M1044,849h-8v-12h8V849z M1044,825.1h-8v-11.9h8V825.1z M1044,801.2h-8v-11.9h8V801.2z M1044,777.4h-8v-11.9h8V777.4z
					 M1044,753.5h-8v-11.9h8V753.5z M1044,729.6h-8v-11.9h8V729.6z M1044,705.7h-8v-11.9h8V705.7z M1044,681.9h-8V670h8V681.9z"/>
			</g>
			<g>
				<rect x="1036" y="1768" class="st3" width="8" height="6"/>
			</g>
		</g>
		<g>
			<g>
				<rect x="2642" y="652" class="st3" width="8" height="6"/>
			</g>
			<g>
				<path class="st3" d="M2650,1756.1h-8v-11.9h8V1756.1z M2650,1732.2h-8v-11.9h8V1732.2z M2650,1708.3h-8v-11.9h8V1708.3z
					 M2650,1684.5h-8v-11.9h8V1684.5z M2650,1660.6h-8v-11.9h8V1660.6z M2650,1636.7h-8v-11.9h8V1636.7z M2650,1612.8h-8v-11.9h8
					V1612.8z M2650,1589h-8v-12h8V1589z M2650,1565.1h-8v-11.9h8V1565.1z M2650,1541.2h-8v-11.9h8V1541.2z M2650,1517.4h-8v-11.9h8
					V1517.4z M2650,1493.5h-8v-11.9h8V1493.5z M2650,1469.6h-8v-11.9h8V1469.6z M2650,1445.7h-8v-11.9h8V1445.7z M2650,1421.9h-8
					V1410h8V1421.9z M2650,1398h-8v-11.9h8V1398z M2650,1374.1h-8v-11.9h8V1374.1z M2650,1350.3h-8v-11.9h8V1350.3z M2650,1326.4h-8
					v-11.9h8V1326.4z M2650,1302.5h-8v-11.9h8V1302.5z M2650,1278.6h-8v-11.9h8V1278.6z M2650,1254.8h-8v-11.9h8V1254.8z
					 M2650,1230.9h-8V1219h8V1230.9z M2650,1207h-8v-11.9h8V1207z M2650,1183.2h-8v-11.9h8V1183.2z M2650,1159.3h-8v-11.9h8V1159.3z
					 M2650,1135.4h-8v-11.9h8V1135.4z M2650,1111.5h-8v-11.9h8V1111.5z M2650,1087.7h-8v-11.9h8V1087.7z M2650,1063.8h-8v-11.9h8
					V1063.8z M2650,1039.9h-8V1028h8V1039.9z M2650,1016.1h-8v-11.9h8V1016.1z M2650,992.2h-8v-11.9h8V992.2z M2650,968.3h-8v-11.9
					h8V968.3z M2650,944.5h-8v-11.9h8V944.5z M2650,920.6h-8v-11.9h8V920.6z M2650,896.7h-8v-11.9h8V896.7z M2650,872.8h-8v-11.9h8
					V872.8z M2650,849h-8v-12h8V849z M2650,825.1h-8v-11.9h8V825.1z M2650,801.2h-8v-11.9h8V801.2z M2650,777.4h-8v-11.9h8V777.4z
					 M2650,753.5h-8v-11.9h8V753.5z M2650,729.6h-8v-11.9h8V729.6z M2650,705.7h-8v-11.9h8V705.7z M2650,681.9h-8V670h8V681.9z"/>
			</g>
			<g>
				<rect x="2642" y="1768" class="st3" width="8" height="6"/>
			</g>
		</g>
	</g>
	<g class="st4">
		<g>
			<rect x="1152" y="679" class="st2" width="1379" height="1072"/>
		</g>
	</g>
	<g>
		<path class="st5" d="M1775,1255.5c-1.1-3.3-2.3-6.5-3.5-9.7s-2.4-6.5-3.5-9.8h-35.1c-1.1,3.4-2.3,6.7-3.4,9.9s-2.3,6.5-3.4,9.7
			h-15.7c3.1-8.9,6.1-17.1,8.9-24.6s5.5-14.6,8.2-21.4s5.3-13.1,8-19.2c2.6-6.1,5.4-12.1,8.2-18h14.4c2.8,5.9,5.5,11.9,8.2,18
			c2.6,6.1,5.3,12.5,8,19.2s5.4,13.8,8.3,21.4c2.8,7.5,5.8,15.7,8.9,24.6L1775,1255.5L1775,1255.5z M1750.5,1188.4
			c-1.8,4.2-3.9,9.4-6.3,15.5s-4.8,12.7-7.4,19.8h27.4c-2.6-7.1-5-13.8-7.4-19.9C1754.3,1197.6,1752.2,1192.5,1750.5,1188.4z"/>
		<path class="st5" d="M1826.9,1256.5c-4.4,0-8.8-0.1-13.3-0.4s-8.4-0.9-11.8-1.7v-80.8c1.8-0.3,3.6-0.6,5.6-0.9s4-0.5,6.1-0.7
			s4.1-0.3,6.2-0.4c2-0.1,4-0.1,5.8-0.1c5,0,9.7,0.4,14,1.1c4.3,0.8,8.1,2,11.2,3.8c3.2,1.8,5.6,4.1,7.4,7s2.6,6.4,2.6,10.7
			c0,3.9-0.9,7.3-2.8,10.1c-1.9,2.8-4.5,5-7.9,6.7c5,1.7,8.8,4.2,11.2,7.4c2.4,3.3,3.6,7.4,3.6,12.5c0,8.6-3.1,15-9.4,19.3
			C1849.3,1254.3,1839.7,1256.5,1826.9,1256.5z M1816.7,1206.2h10.7c5.8,0,10.3-0.8,13.6-2.5c3.3-1.6,4.9-4.6,4.9-8.8
			c0-4-1.7-6.8-5.1-8.5s-7.8-2.5-13.3-2.5c-2.3,0-4.4,0-6.2,0.1c-1.8,0.1-3.3,0.2-4.6,0.4V1206.2z M1816.7,1218.1v25.3
			c1.7,0.2,3.5,0.3,5.4,0.4s3.7,0.1,5.3,0.1c3.1,0,6-0.2,8.7-0.6s5-1.1,7-2.1s3.5-2.3,4.7-4s1.7-3.8,1.7-6.5c0-4.7-1.7-8-5.2-9.8
			c-3.4-1.8-8.2-2.8-14.3-2.8H1816.7z"/>
		<path class="st5" d="M1917.6,1257.3c-6.2,0-11.8-1-16.8-2.9s-9.2-4.7-12.6-8.5c-3.4-3.7-6.1-8.3-7.9-13.6
			c-1.8-5.4-2.8-11.5-2.8-18.5s1.1-13.1,3.2-18.5s5-9.9,8.7-13.6s8-6.5,13-8.5c5-1.9,10.3-2.9,16-2.9c3.4,0,6.6,0.3,9.4,0.8
			s5.2,1.1,7.3,1.7c2.1,0.6,3.8,1.3,5.2,2c1.4,0.7,2.3,1.2,2.9,1.6l-4.4,12.4c-1.9-1.2-4.7-2.3-8.2-3.4c-3.6-1.1-7.4-1.6-11.6-1.6
			c-3.6,0-7,0.6-10.1,1.9c-3.1,1.2-5.8,3.1-8.1,5.6c-2.3,2.5-4.1,5.6-5.3,9.4c-1.3,3.8-1.9,8.1-1.9,13.1c0,4.4,0.5,8.4,1.5,12.1
			s2.5,6.9,4.6,9.5c2.1,2.7,4.7,4.8,7.9,6.2c3.2,1.5,7,2.2,11.5,2.2c5.4,0,9.7-0.5,13.1-1.6s6-2.1,7.8-3.1l4.1,12.4
			c-1,0.6-2.3,1.3-3.9,1.9s-3.6,1.3-5.8,1.9c-2.2,0.6-4.8,1.1-7.6,1.4C1923.8,1257.1,1920.8,1257.3,1917.6,1257.3z"/>
		<path class="st5" d="M1957.2,1172.3h15.1v83.2h-15.1V1172.3z"/>
	</g>
	<g>
		<path class="st1" d="M1843.8,1740.5c-12.6,0-23.6,4.2-30.1,10.5h60.3C1867.5,1744.7,1856.4,1740.5,1843.8,1740.5z"/>
		<path class="st2" d="M2042.9,1699.4c0.1,11.2-1.1,22.3-3.4,33.4c10.7,5.6,20.7,11.7,30,18.1h56.6
			C2103.1,1731.2,2075.2,1713.8,2042.9,1699.4z"/>
		<polygon class="st1" points="1439,2348.7 1048,1913.4 1048,2007 1439.9,2443.3 1439.9,2349.6 		"/>
		<polygon class="st1" points="2244.1,2349.6 2244.1,2443.3 2636,2007 2636,1913.4 2244.9,2348.7 		"/>
		<rect x="1447.9" y="2351.4" class="st1" width="788.2" height="97.6"/>
		<polygon class="st2" points="2244.1,2444.3 2636,2008 2636,2007 2244.1,2443.3 		"/>
		<rect x="1447.9" y="2448.9" class="st2" width="788.2" height="1"/>
		<polygon class="st2" points="1048,2007 1048,1913.4 1048,1913.4 1048,2008 1439.9,2444.3 1439.9,2443.3 		"/>
		<polygon class="st1" points="2242.5,2306.9 2239,2306.9 1445,2306.9 1441.4,2306.9 1439,2304.3 1063,1885.7 1048.4,1901.9 
			1445,2343.4 2239,2343.4 2635.5,1901.9 2621,1885.7 2244.9,2304.3 		"/>
		<rect x="1447.9" y="2347.4" class="st2" width="788.2" height="4"/>
		<polygon class="st2" points="1439,2348.7 1439.9,2349.6 1439.9,2346.8 1442.7,2346.8 1048,1907.4 1048,1913.4 		"/>
		<polygon class="st2" points="2244.1,2346.8 2244.1,2349.6 2244.9,2348.7 2636,1913.4 2636,1907.4 2241.3,2346.8 		"/>
		<rect x="1048" y="1907.4" class="st2" width="0" height="6"/>
		<polygon class="st2" points="2239,2343.4 1445,2343.4 1048.4,1901.9 1048,1902.4 1048,1907.4 1442.7,2346.8 1447.9,2346.8 
			1447.9,2347.4 2236.1,2347.4 2236.1,2346.8 2241.3,2346.8 2636,1907.4 2636,1902.4 2635.5,1901.9 		"/>
		<polygon class="st2" points="1046.2,1903.1 1046.2,1903.1 1049.8,1906.6 1049.8,1906.6 		"/>
		<polygon class="st2" points="1445,2351.4 1441.4,2351.4 1439.9,2349.6 1439.9,2443.3 1445,2448.9 1447.9,2448.9 1447.9,2351.4 		
			"/>
		<polygon class="st2" points="1445,2448.9 1439.9,2443.3 1439.9,2444.3 1445,2449.9 1447.9,2449.9 1447.9,2448.9 		"/>
		<polygon class="st2" points="1439.9,2349.6 1441.4,2351.4 1445,2351.4 1447.9,2351.4 1447.9,2347.4 1443.2,2347.4 1442.7,2346.8 
			1439.9,2346.8 		"/>
		<polygon class="st2" points="1447.9,2347.4 1447.9,2346.8 1442.7,2346.8 1443.2,2347.4 		"/>
		<polygon class="st2" points="2239,2351.4 2236.1,2351.4 2236.1,2448.9 2239,2448.9 2244.1,2443.3 2244.1,2349.6 2242.5,2351.4 		
			"/>
		<polygon class="st2" points="2239,2448.9 2236.1,2448.9 2236.1,2449.9 2239,2449.9 2244.1,2444.3 2244.1,2443.3 		"/>
		<polygon class="st2" points="2239,2351.4 2242.5,2351.4 2244.1,2349.6 2244.1,2346.8 2241.3,2346.8 2240.8,2347.4 2236.1,2347.4 
			2236.1,2351.4 		"/>
		<polygon class="st2" points="2241.3,2346.8 2236.1,2346.8 2236.1,2347.4 2240.8,2347.4 		"/>
		<polygon class="st1" points="1152.5,1751 1152.5,1749 1150.3,1751.4 1161.1,1763.4 1172.3,1751 		"/>
		<polygon class="st1" points="1048,1763.4 1048,1857 1062.5,1873.2 1104.6,1826.4 		"/>
		<polygon class="st1" points="2511.7,1751 2522.8,1763.4 2533.7,1751.4 2531.5,1749 2531.5,1751 		"/>
		<polygon class="st1" points="2621.4,1873.2 2636,1857 2636,1763.4 2579.4,1826.4 		"/>
		<polygon class="st1" points="2244.1,2199.6 2244.1,2223.8 2533.7,1901.4 2522.8,1889.3 2244.9,2198.7 		"/>
		<path class="st1" d="M2153.3,1879.8c-3.8-48.9-33.9-94.2-83.9-128.8h-47.1c-7.7,22.3-20.6,44.2-39.1,64.9
			c-22,24.7-51,46.6-84.9,64.5c-15-3.9-29.4-8.7-43.1-14.1c36.8-16.9,67.8-39,90.5-64.5c14.5-16.3,25.1-33.4,32.1-50.9H1921
			c1.7,4.2,2.6,8.5,2.6,13.1c0,28.5-35.7,51.7-79.7,51.7c-43.9,0-79.6-23.2-79.6-51.7c0-4.5,0.9-8.9,2.6-13.1h-57.6
			c7,17.4,17.6,34.2,31.6,49.9C1824,1894.5,2006.8,1928.8,2153.3,1879.8z"/>
		<path class="st1" d="M1807.6,1764.1c0,13,16.3,23.5,36.3,23.5s36.3-10.5,36.3-23.5c0-4.8-2.3-9.3-6.1-13.1h-60.3
			C1809.8,1754.7,1807.6,1759.2,1807.6,1764.1z"/>
		<path class="st1" d="M2197.1,1887.9l0.1,8.3l-11.1,4.1c-54.4,20.1-114.5,30.3-175.2,30.3c-31.2,0-62.5-2.7-93.4-8.1
			c-90.9-16.1-167-54.2-214.4-107.4c-17.8-20-30.8-41.6-38.6-64h-47.4c-50,34.4-82,80.2-85.6,130.6c79.8,26.6,174.1,29.2,257.3,8
			c13.7,6.8,28.1,12.9,43.2,18.4c-47.7,15.3-100.4,23.6-153.6,24.1c-1.7,0-3.4,0-5.1,0c-61.1,0-121.3-10.3-174.6-30l-11.1-4.1
			l0.1-8.2c0.5-50.8,25.9-99,72.3-138.8h-274.7l-67.7,75.4l261.3,290.8H2205l261.3-290.8l-67.7-75.4H2126
			C2170.9,1789.7,2196.3,1837.3,2197.1,1887.9z"/>
		<polygon class="st1" points="1439,2198.7 1161.1,1889.3 1150.3,1901.4 1439.9,2223.8 1439.9,2199.6 		"/>
		<polygon class="st1" points="1447.9,2201.4 1447.9,2232.7 1478.9,2267.2 2205,2267.2 2236.1,2232.7 2236.1,2201.4 		"/>
		<polygon class="st1" points="1475.3,2275.2 1447.9,2244.6 1447.9,2298.9 2236.1,2298.9 2236.1,2244.6 2208.6,2275.2 		"/>
		<polygon class="st1" points="2409.3,1751 2471.7,1820.4 2517.5,1769.4 2500.9,1751 		"/>
		<polygon class="st1" points="1274.6,1751 1183,1751 1166.5,1769.4 1212.3,1820.4 		"/>
		<polygon class="st1" points="1439.9,2235.7 1139.5,1901.4 1155.7,1883.3 1110,1832.4 1067.9,1879.2 1439.9,2293.3 		"/>
		<polygon class="st1" points="2528.2,1883.3 2544.4,1901.4 2244.1,2235.7 2244.1,2293.3 2616,1879.2 2574,1832.4 		"/>
		<polygon class="st1" points="1150.3,1901.4 1161.1,1889.3 1158.4,1886.3 1144.9,1901.4 1439.9,2229.7 1439.9,2223.8 		"/>
		<polygon class="st1" points="2205,2267.2 1478.9,2267.2 1447.9,2232.7 1447.9,2238.6 1477.1,2271.2 2206.8,2271.2 2236.1,2238.6 
			2236.1,2232.7 		"/>
		<polygon class="st1" points="2533.7,1901.4 2244.1,2223.8 2244.1,2229.7 2539,1901.4 2525.5,1886.3 2522.8,1889.3 		"/>
		<polygon class="st1" points="1285.4,1751 1280,1751 1215,1823.4 1217.7,1826.4 		"/>
		<polygon class="st1" points="2466.3,1826.4 2469,1823.4 2403.9,1751 2398.6,1751 		"/>
		<polygon class="st1" points="1104.6,1826.4 1062.5,1873.2 1065.2,1876.2 1107.3,1829.4 		"/>
		<polygon class="st1" points="1172.3,1751 1161.1,1763.4 1163.8,1766.4 1177.7,1751 		"/>
		<polygon class="st1" points="2618.7,1876.2 2621.4,1873.2 2579.4,1826.4 2576.7,1829.4 		"/>
		<polygon class="st1" points="2506.3,1751 2520.1,1766.4 2522.8,1763.4 2511.7,1751 		"/>
		<polygon class="st1" points="2506.3,1751 2520.1,1766.4 2520.1,1766.4 		"/>
		<polygon class="st1" points="2576.7,1829.4 2618.7,1876.2 2618.7,1876.2 		"/>
		<polygon class="st1" points="1177.7,1751 1163.8,1766.4 1163.8,1766.4 		"/>
		<polygon class="st1" points="1107.3,1829.4 1065.2,1876.2 1065.2,1876.2 		"/>
		<polygon class="st1" points="1280,1751 1274.6,1751 1212.3,1820.4 1215,1823.4 		"/>
		<polygon class="st1" points="1144.9,1901.4 1158.4,1886.3 1155.7,1883.3 1139.5,1901.4 1439.9,2235.7 1439.9,2229.7 		"/>
		<polygon class="st1" points="2539,1901.4 2244.1,2229.7 2244.1,2235.7 2544.4,1901.4 2528.2,1883.3 2525.5,1886.3 		"/>
		<polygon class="st1" points="1477.1,2271.2 1447.9,2238.6 1447.9,2244.6 1475.3,2275.2 2208.6,2275.2 2236.1,2244.6 
			2236.1,2238.6 2206.8,2271.2 		"/>
		<polygon class="st1" points="2469,1823.4 2471.7,1820.4 2409.3,1751 2403.9,1751 		"/>
		<polygon class="st1" points="1107.3,1829.4 1065.2,1876.2 1067.9,1879.2 1110,1832.4 		"/>
		<polygon class="st1" points="1183,1751 1177.7,1751 1163.8,1766.4 1166.5,1769.4 		"/>
		<polygon class="st1" points="2574,1832.4 2616,1879.2 2618.7,1876.2 2576.7,1829.4 		"/>
		<polygon class="st1" points="2500.9,1751 2517.5,1769.4 2520.1,1766.4 2506.3,1751 		"/>
		<polygon class="st2" points="2244.1,2302.4 2241.3,2302.4 2240.8,2302.9 1443.2,2302.9 1442.7,2302.4 1439.9,2302.4 
			1439.9,2299.3 1065.7,1882.7 1063,1885.7 1439,2304.3 1441.4,2306.9 1445,2306.9 2239,2306.9 2242.5,2306.9 2244.9,2304.3 
			2621,1885.7 2618.3,1882.7 2244.1,2299.3 		"/>
		<polygon class="st2" points="1048,1857 1048,1763.4 1048,1763.4 1048,1858 1062.1,1873.7 1062.5,1873.2 		"/>
		<polygon class="st2" points="2621.9,1873.7 2636,1858 2636,1857 2621.4,1873.2 		"/>
		<polygon class="st2" points="2244.1,2299.3 2618.3,1882.7 2616,1880.2 2616.5,1879.7 2616,1879.2 2244.1,2293.3 		"/>
		<polygon class="st2" points="1439.9,2293.3 1067.9,1879.2 1067.5,1879.7 1067.9,1880.2 1065.7,1882.7 1439.9,2299.3 		"/>
		<polygon class="st2" points="2236.1,2298.9 1447.9,2298.9 1447.9,2302.4 1442.7,2302.4 1443.2,2302.9 2240.8,2302.9 
			2241.3,2302.4 2236.1,2302.4 		"/>
		<polygon class="st2" points="1062.5,1873.2 1062.1,1873.7 1064.8,1876.7 1065.2,1876.2 		"/>
		<polygon class="st2" points="2618.7,1876.2 2619.2,1876.7 2621.9,1873.7 2621.4,1873.2 		"/>
		<polygon class="st2" points="1065.2,1876.2 1064.8,1876.7 1064.8,1876.7 		"/>
		<polygon class="st2" points="2618.7,1876.2 2619.2,1876.7 2619.2,1876.7 		"/>
		<polygon class="st2" points="2616,1879.2 2616.5,1879.7 2619.2,1876.7 2618.7,1876.2 		"/>
		<polygon class="st2" points="1067.9,1879.2 1065.2,1876.2 1064.8,1876.7 1067.5,1879.7 		"/>
		<polygon class="st1" points="1155.7,1769.4 1139.5,1751.4 1152.5,1737 1152.5,1636 1048.4,1751.9 1110,1820.4 		"/>
		<polygon class="st1" points="2544.4,1751.4 2528.2,1769.4 2574,1820.4 2635.5,1751.9 2531.5,1636 2531.5,1737 		"/>
		<polygon class="st1" points="2208.6,2125.2 1475.3,2125.2 1212.3,1832.4 1166.5,1883.3 1445,2193.4 2239,2193.4 2517.5,1883.3 
			2471.7,1832.4 		"/>
		<polygon class="st1" points="1161.1,1775.4 1115.3,1826.4 1161.1,1877.4 1206.9,1826.4 		"/>
		<polygon class="st1" points="2522.8,1877.4 2568.6,1826.4 2522.8,1775.4 2477,1826.4 		"/>
		<polygon class="st1" points="1209.6,1829.4 1163.8,1880.4 1166.5,1883.3 1212.3,1832.4 		"/>
		<polygon class="st1" points="2471.7,1832.4 2517.5,1883.3 2520.1,1880.4 2474.4,1829.4 		"/>
		<polygon class="st1" points="1158.4,1772.4 1155.7,1769.4 1110,1820.4 1112.6,1823.4 		"/>
		<polygon class="st1" points="2525.5,1772.4 2571.3,1823.4 2574,1820.4 2528.2,1769.4 		"/>
		<polygon class="st1" points="2571.3,1823.4 2571.3,1823.4 2525.5,1772.4 2525.5,1772.4 		"/>
		<polygon class="st1" points="1158.4,1772.4 1158.4,1772.4 1112.6,1823.4 1112.6,1823.4 		"/>
		<polygon class="st1" points="1206.9,1826.4 1161.1,1877.4 1163.8,1880.4 1209.6,1829.4 		"/>
		<polygon class="st1" points="2474.4,1829.4 2520.1,1880.4 2522.8,1877.4 2477,1826.4 		"/>
		<polygon class="st1" points="1161.1,1775.4 1158.4,1772.4 1112.6,1823.4 1115.3,1826.4 		"/>
		<polygon class="st1" points="2568.6,1826.4 2571.3,1823.4 2525.5,1772.4 2522.8,1775.4 		"/>
		<polygon class="st2" points="2579.4,1826.4 2636,1763.4 2636,1757.4 2576.7,1823.4 		"/>
		<polygon class="st2" points="2533.7,1751.4 2522.8,1763.4 2525.5,1766.4 2539,1751.4 2531.5,1743 2531.5,1749 		"/>
		<polygon class="st2" points="1107.3,1823.4 1048,1757.4 1048,1763.4 1104.6,1826.4 		"/>
		<polygon class="st2" points="1150.3,1751.4 1152.5,1749 1152.5,1743 1144.9,1751.4 1158.4,1766.4 1161.1,1763.4 		"/>
		<polygon class="st2" points="2205,2117.2 1478.9,2117.2 1217.7,1826.4 1215,1829.4 1477.1,2121.2 2206.8,2121.2 2469,1829.4 
			2466.3,1826.4 		"/>
		<rect x="1447.9" y="2197.4" class="st2" width="788.2" height="4"/>
		<polygon class="st2" points="1439.9,2199.6 1439.9,2196.8 1442.7,2196.8 1163.8,1886.3 1161.1,1889.3 1439,2198.7 		"/>
		<polygon class="st2" points="2244.1,2196.8 2244.1,2199.6 2244.9,2198.7 2522.8,1889.3 2520.1,1886.3 2241.3,2196.8 		"/>
		<polygon class="st2" points="1112.6,1829.4 1110,1832.4 1155.7,1883.3 1158.4,1880.4 		"/>
		<polygon class="st2" points="2474.4,1823.4 2520.1,1772.4 2517.5,1769.4 2471.7,1820.4 		"/>
		<polygon class="st2" points="2525.5,1880.4 2528.2,1883.3 2574,1832.4 2571.3,1829.4 		"/>
		<polygon class="st2" points="1212.3,1820.4 1166.5,1769.4 1163.8,1772.4 1209.6,1823.4 		"/>
		<polygon class="st2" points="1163.8,1886.3 1161.1,1883.3 1158.4,1886.3 1161.1,1889.3 		"/>
		<polygon class="st2" points="2469,1829.4 2471.7,1826.4 2469,1823.4 2466.3,1826.4 		"/>
		<polygon class="st2" points="1215,1823.4 1212.3,1826.4 1215,1829.4 1217.7,1826.4 		"/>
		<polygon class="st2" points="2522.8,1889.3 2525.5,1886.3 2522.8,1883.3 2520.1,1886.3 		"/>
		<polygon class="st2" points="1161.1,1763.4 1158.4,1766.4 1161.1,1769.4 1163.8,1766.4 		"/>
		<polygon class="st2" points="2576.7,1829.4 2579.4,1826.4 2576.7,1823.4 2574,1826.4 		"/>
		<polygon class="st2" points="2520.1,1766.4 2522.8,1769.4 2525.5,1766.4 2522.8,1763.4 		"/>
		<polygon class="st2" points="1107.3,1829.4 1110,1826.4 1107.3,1823.4 1104.6,1826.4 		"/>
		<polygon class="st2" points="1163.8,1766.4 1163.8,1766.4 1161.1,1769.4 1161.1,1769.4 		"/>
		<polygon class="st2" points="1110,1826.4 1107.3,1829.4 1107.3,1829.4 		"/>
		<polygon class="st2" points="2520.1,1766.4 2522.8,1769.4 2522.8,1769.4 		"/>
		<polygon class="st2" points="2576.7,1829.4 2576.7,1829.4 2574,1826.4 2574,1826.4 		"/>
		<polygon class="st2" points="2471.7,1826.4 2474.4,1823.4 2471.7,1820.4 2469,1823.4 		"/>
		<polygon class="st2" points="1161.1,1883.3 1158.4,1880.4 1155.7,1883.3 1158.4,1886.3 		"/>
		<polygon class="st2" points="2522.8,1883.3 2525.5,1886.3 2528.2,1883.3 2525.5,1880.4 		"/>
		<polygon class="st2" points="1215,1823.4 1212.3,1820.4 1209.6,1823.4 1212.3,1826.4 		"/>
		<polygon class="st2" points="1166.5,1769.4 1163.8,1766.4 1161.1,1769.4 1163.8,1772.4 		"/>
		<polygon class="st2" points="2571.3,1829.4 2574,1832.4 2576.7,1829.4 2574,1826.4 		"/>
		<polygon class="st2" points="2517.5,1769.4 2520.1,1772.4 2522.8,1769.4 2520.1,1766.4 		"/>
		<polygon class="st2" points="1110,1826.4 1107.3,1829.4 1110,1832.4 1112.6,1829.4 		"/>
		<rect x="1048" y="1757.4" class="st2" width="0" height="6"/>
		<polygon class="st2" points="1107.3,1823.4 1110,1820.4 1048.4,1751.9 1048,1752.4 1048,1757.4 		"/>
		<polygon class="st2" points="1144.9,1751.4 1152.5,1743 1152.5,1737 1139.5,1751.4 1155.7,1769.4 1158.4,1766.4 		"/>
		<polygon class="st2" points="2574,1820.4 2576.7,1823.4 2636,1757.4 2636,1752.4 2635.5,1751.9 		"/>
		<polygon class="st2" points="2539,1751.4 2525.5,1766.4 2528.2,1769.4 2544.4,1751.4 2531.5,1737 2531.5,1743 		"/>
		<polygon class="st2" points="2206.8,2121.2 1477.1,2121.2 1215,1829.4 1212.3,1832.4 1475.3,2125.2 2208.6,2125.2 2471.7,1832.4 
			2469,1829.4 		"/>
		<polygon class="st2" points="1445,2193.4 1166.5,1883.3 1163.8,1886.3 1442.7,2196.8 1447.9,2196.8 1447.9,2197.4 2236.1,2197.4 
			2236.1,2196.8 2241.3,2196.8 2520.1,1886.3 2517.5,1883.3 2239,2193.4 		"/>
		<polygon class="st2" points="2477,1826.4 2522.8,1775.4 2520.1,1772.4 2474.4,1823.4 		"/>
		<polygon class="st2" points="1209.6,1823.4 1163.8,1772.4 1161.1,1775.4 1206.9,1826.4 		"/>
		<polygon class="st2" points="1115.3,1826.4 1112.6,1829.4 1158.4,1880.4 1161.1,1877.4 		"/>
		<polygon class="st2" points="2522.8,1877.4 2525.5,1880.4 2571.3,1829.4 2568.6,1826.4 		"/>
		<polygon class="st2" points="1166.5,1883.3 1163.8,1880.4 1161.1,1883.3 1163.8,1886.3 		"/>
		<polygon class="st2" points="1212.3,1826.4 1209.6,1829.4 1212.3,1832.4 1215,1829.4 		"/>
		<polygon class="st2" points="2517.5,1883.3 2520.1,1886.3 2522.8,1883.3 2520.1,1880.4 		"/>
		<polygon class="st2" points="2469,1829.4 2471.7,1832.4 2474.4,1829.4 2471.7,1826.4 		"/>
		<polygon class="st2" points="1161.1,1769.4 1158.4,1766.4 1155.7,1769.4 1158.4,1772.4 		"/>
		<polygon class="st2" points="1112.6,1823.4 1110,1820.4 1107.3,1823.4 1110,1826.4 		"/>
		<polygon class="st2" points="2522.8,1769.4 2525.5,1772.4 2528.2,1769.4 2525.5,1766.4 		"/>
		<polygon class="st2" points="2574,1826.4 2576.7,1823.4 2574,1820.4 2571.3,1823.4 		"/>
		<polygon class="st2" points="1161.1,1769.4 1161.1,1769.4 1158.4,1772.4 1158.4,1772.4 		"/>
		<polygon class="st2" points="2522.8,1769.4 2525.5,1772.4 2525.5,1772.4 		"/>
		<polygon class="st2" points="2574,1826.4 2574,1826.4 2571.3,1823.4 2571.3,1823.4 		"/>
		<polygon class="st2" points="1112.6,1823.4 1112.6,1823.4 1110,1826.4 1110,1826.4 		"/>
		<polygon class="st2" points="2474.4,1829.4 2477,1826.4 2474.4,1823.4 2471.7,1826.4 		"/>
		<polygon class="st2" points="2520.1,1880.4 2522.8,1883.3 2525.5,1880.4 2522.8,1877.4 		"/>
		<polygon class="st2" points="1209.6,1823.4 1206.9,1826.4 1209.6,1829.4 1212.3,1826.4 		"/>
		<polygon class="st2" points="1161.1,1877.4 1158.4,1880.4 1161.1,1883.3 1163.8,1880.4 		"/>
		<polygon class="st2" points="1112.6,1823.4 1110,1826.4 1112.6,1829.4 1115.3,1826.4 		"/>
		<polygon class="st2" points="2571.3,1829.4 2574,1826.4 2571.3,1823.4 2568.6,1826.4 		"/>
		<polygon class="st2" points="2522.8,1775.4 2525.5,1772.4 2522.8,1769.4 2520.1,1772.4 		"/>
		<polygon class="st2" points="1163.8,1772.4 1161.1,1769.4 1158.4,1772.4 1161.1,1775.4 		"/>
		<polygon class="st2" points="1046.2,1753.1 1046.2,1753.1 1049.8,1756.6 1049.8,1756.6 		"/>
		<polygon class="st2" points="1445,2201.4 1441.4,2201.4 1439.9,2199.6 1439.9,2223.8 1447.9,2232.7 1447.9,2201.4 		"/>
		<polygon class="st2" points="1447.9,2298.9 1447.9,2244.6 1439.9,2235.7 1439.9,2293.3 1445,2298.9 		"/>
		<polygon class="st2" points="1439.9,2223.8 1439.9,2229.7 1447.9,2238.6 1447.9,2232.7 		"/>
		<polygon class="st2" points="1447.9,2238.6 1439.9,2229.7 1439.9,2235.7 1447.9,2244.6 		"/>
		<polygon class="st2" points="1439.9,2302.4 1442.7,2302.4 1439.9,2299.3 		"/>
		<polygon class="st2" points="1447.9,2298.9 1445,2298.9 1439.9,2293.3 1439.9,2299.3 1442.7,2302.4 1447.9,2302.4 		"/>
		<polygon class="st2" points="1439.9,2199.6 1441.4,2201.4 1445,2201.4 1447.9,2201.4 1447.9,2197.4 1443.2,2197.4 1442.7,2196.8 
			1439.9,2196.8 		"/>
		<polygon class="st2" points="1447.9,2197.4 1447.9,2196.8 1442.7,2196.8 1443.2,2197.4 		"/>
		<polygon class="st2" points="2242.5,2201.4 2239,2201.4 2236.1,2201.4 2236.1,2232.7 2244.1,2223.8 2244.1,2199.6 		"/>
		<polygon class="st2" points="2236.1,2298.9 2239,2298.9 2244.1,2293.3 2244.1,2235.7 2236.1,2244.6 		"/>
		<polygon class="st2" points="2236.1,2232.7 2236.1,2238.6 2244.1,2229.7 2244.1,2223.8 		"/>
		<polygon class="st2" points="2236.1,2238.6 2236.1,2244.6 2244.1,2235.7 2244.1,2229.7 		"/>
		<polygon class="st2" points="2244.1,2302.4 2244.1,2299.3 2241.3,2302.4 		"/>
		<polygon class="st2" points="2236.1,2298.9 2236.1,2302.4 2241.3,2302.4 2244.1,2299.3 2244.1,2293.3 2239,2298.9 		"/>
		<polygon class="st2" points="2239,2201.4 2242.5,2201.4 2244.1,2199.6 2244.1,2196.8 2241.3,2196.8 2240.8,2197.4 2236.1,2197.4 
			2236.1,2201.4 		"/>
		<polygon class="st2" points="2241.3,2196.8 2236.1,2196.8 2236.1,2197.4 2240.8,2197.4 		"/>
		<polygon class="st2" points="1032,1746.3 1032,1752.4 1032,1858 1032,1864.1 1036.1,1868.7 1046.4,1880.2 1036.1,1891.7 
			1032,1896.3 1032,1902.4 1032,2008 1032,2014.1 1036.1,2018.7 1433.1,2460.6 1437.8,2465.9 1445,2465.9 2239,2465.9 
			2246.1,2465.9 2250.9,2460.6 2647.9,2018.7 2652,2014.1 2652,2008 2652,1902.4 2652,1896.3 2647.9,1891.7 2637.6,1880.2 
			2647.9,1868.7 2652,1864.1 2652,1858 2652,1752.4 2652,1746.3 2647.9,1741.7 2531.5,1612.1 2531.5,1623.1 2641.9,1746 
			2646.7,1751.4 2644,1754.5 2644,1857 2644,1860 2641.9,1862.3 2626.8,1879.2 2641.9,1896 2646.7,1901.4 2644,1904.5 2644,2007 
			2644,2010 2641.9,2012.3 2244.9,2454.3 2242.5,2456.9 2239,2456.9 1445,2456.9 1441.4,2456.9 1439,2454.3 1042,2012.3 1040,2010 
			1040,2007 1040,1904.5 1037.2,1901.4 1042,1896 1057.2,1879.2 1042,1862.3 1040,1860 1040,1857 1040,1754.5 1037.2,1751.4 
			1042,1746 1152.5,1623.1 1152.5,1612.1 1036.1,1741.7 		"/>
		<polygon class="st2" points="2640,1908.9 2640,2008.5 2244.1,2449.3 2244.1,2452.4 2241.3,2452.4 2240.8,2452.9 1443.2,2452.9 
			1442.7,2452.4 1439.9,2452.4 1439.9,2449.3 1044,2008.5 1044,1908.9 1042,1906.7 1040,1904.5 1040,2007 1040,2010 1042,2012.3 
			1439,2454.3 1441.4,2456.9 1445,2456.9 2239,2456.9 2242.5,2456.9 2244.9,2454.3 2641.9,2012.3 2644,2010 2644,2007 2644,1904.5 
			2641.9,1906.7 		"/>
		<polygon class="st2" points="2636,2007 2636,2008 2244.1,2444.3 2244.1,2449.3 2640,2008.5 2640,1908.9 2636,1913.4 		"/>
		<polygon class="st2" points="1048,2008 1048,1913.4 1044,1908.9 1044,2008.5 1439.9,2449.3 1439.9,2444.3 		"/>
		<polygon class="st2" points="2236.1,2449.9 1447.9,2449.9 1447.9,2452.4 1442.7,2452.4 1443.2,2452.9 2240.8,2452.9 
			2241.3,2452.4 2236.1,2452.4 		"/>
		<polygon class="st2" points="2635.5,1901.9 2636,1901.4 2621.4,1885.2 2621,1885.7 		"/>
		<polygon class="st2" points="1063,1885.7 1062.5,1885.2 1048,1901.4 1048.4,1901.9 		"/>
		<polygon class="st2" points="1040,1898.3 1042,1896 1037.2,1901.4 1040,1904.5 1040,1901.4 		"/>
		<polygon class="st2" points="2644,1901.4 2644,1904.5 2646.7,1901.4 2641.9,1896 2644,1898.3 		"/>
		<polygon class="st2" points="1044,1908.9 1044,1902.9 1042.6,1901.4 1044,1899.9 1044,1899.9 1059.8,1882.2 1057.2,1879.2 
			1042,1896 1040,1898.3 1040,1901.4 1040,1904.5 1042,1906.7 		"/>
		<polygon class="st2" points="2640,1899.9 2640,1899.9 2641.4,1901.4 2640,1902.9 2640,1908.9 2641.9,1906.7 2644,1904.5 
			2644,1901.4 2644,1898.3 2641.9,1896 2626.8,1879.2 2624.1,1882.2 		"/>
		<polygon class="st2" points="1048,1907.4 1044,1902.9 1044,1908.9 1048,1913.4 		"/>
		<polygon class="st2" points="2640,1899.9 2640,1899.9 2624.1,1882.2 2624.1,1882.2 		"/>
		<polygon class="st2" points="1059.8,1882.2 1044,1899.9 1044,1899.9 		"/>
		<polygon class="st2" points="2636,1913.4 2640,1908.9 2640,1902.9 2636,1907.4 		"/>
		<polygon class="st2" points="2636,1902.4 2636,1901.4 2635.5,1901.9 		"/>
		<polygon class="st2" points="1048,1901.4 1048,1902.4 1048.4,1901.9 		"/>
		<polygon class="st2" points="2641.4,1901.4 2640,1899.9 2640,1902.9 		"/>
		<polygon class="st2" points="1042.6,1901.4 1044,1902.9 1044,1899.9 		"/>
		<polygon class="st2" points="1048,1902.4 1048,1902.4 1048,1901.4 1062.5,1885.2 1059.8,1882.2 1044,1899.9 1044,1902.9 
			1048,1907.4 		"/>
		<polygon class="st2" points="2621.4,1885.2 2636,1901.4 2636,1902.4 2636,1907.4 2640,1902.9 2640,1899.9 2624.1,1882.2 		"/>
		<polygon class="st2" points="1439.9,2452.4 1442.7,2452.4 1439.9,2449.3 		"/>
		<polygon class="st2" points="1447.9,2449.9 1445,2449.9 1439.9,2444.3 1439.9,2449.3 1442.7,2452.4 1447.9,2452.4 		"/>
		<polygon class="st2" points="2244.1,2452.4 2244.1,2449.3 2241.3,2452.4 		"/>
		<polygon class="st2" points="2239,2449.9 2236.1,2449.9 2236.1,2452.4 2241.3,2452.4 2244.1,2449.3 2244.1,2444.3 		"/>
		<polygon class="st2" points="2640,1758.9 2640,1858.5 2624.1,1876.2 2626.8,1879.2 2641.9,1862.3 2644,1860 2644,1857 
			2644,1754.5 2641.9,1756.7 		"/>
		<polygon class="st2" points="1044,1858.5 1044,1758.9 1042,1756.7 1040,1754.5 1040,1857 1040,1860 1042,1862.3 1057.2,1879.2 
			1059.8,1876.2 		"/>
		<polygon class="st2" points="1065.7,1882.7 1065.2,1882.2 1062.5,1885.2 1063,1885.7 		"/>
		<polygon class="st2" points="2618.3,1882.7 2621,1885.7 2621.4,1885.2 2618.7,1882.2 		"/>
		<polygon class="st2" points="1062.5,1879.2 1059.8,1876.2 1057.2,1879.2 1059.8,1882.2 		"/>
		<polygon class="st2" points="2621.4,1879.2 2624.1,1882.2 2626.8,1879.2 2624.1,1876.2 		"/>
		<polygon class="st2" points="1062.5,1879.2 1062.5,1879.2 1059.8,1882.2 1059.8,1882.2 		"/>
		<polygon class="st2" points="2624.1,1882.2 2624.1,1882.2 2621.4,1879.2 2621.4,1879.2 		"/>
		<polygon class="st2" points="1062.5,1879.2 1059.8,1882.2 1062.5,1885.2 1065.2,1882.2 		"/>
		<polygon class="st2" points="2621.4,1885.2 2624.1,1882.2 2621.4,1879.2 2618.7,1882.2 		"/>
		<polygon class="st2" points="2636,1857 2636,1858 2621.9,1873.7 2624.1,1876.2 2640,1858.5 2640,1758.9 2636,1763.4 		"/>
		<polygon class="st2" points="1048,1858 1048,1763.4 1044,1758.9 1044,1858.5 1059.8,1876.2 1062.1,1873.7 		"/>
		<polygon class="st2" points="1067.5,1879.7 1065.2,1882.2 1065.7,1882.7 1067.9,1880.2 		"/>
		<polygon class="st2" points="2618.3,1882.7 2618.7,1882.2 2616.5,1879.7 2616,1880.2 		"/>
		<polygon class="st2" points="1062.1,1873.7 1059.8,1876.2 1062.5,1879.2 1064.8,1876.7 		"/>
		<polygon class="st2" points="2619.2,1876.7 2621.4,1879.2 2624.1,1876.2 2621.9,1873.7 		"/>
		<polygon class="st2" points="2619.2,1876.7 2621.4,1879.2 2621.4,1879.2 		"/>
		<polygon class="st2" points="1064.8,1876.7 1064.8,1876.7 1062.5,1879.2 1062.5,1879.2 		"/>
		<polygon class="st2" points="1067.5,1879.7 1064.8,1876.7 1062.5,1879.2 1065.2,1882.2 		"/>
		<polygon class="st2" points="2618.7,1882.2 2621.4,1879.2 2619.2,1876.7 2616.5,1879.7 		"/>
		<polygon class="st2" points="1048.4,1751.9 1152.5,1636 1152.5,1635 1048,1751.4 		"/>
		<polygon class="st2" points="2635.5,1751.9 2636,1751.4 2531.5,1635 2531.5,1636 		"/>
		<polygon class="st2" points="2644,1751.4 2644,1754.5 2646.7,1751.4 2641.9,1746 2644,1748.3 		"/>
		<polygon class="st2" points="1040,1748.3 1042,1746 1037.2,1751.4 1040,1754.5 1040,1751.4 		"/>
		<polygon class="st2" points="2640,1749.9 2640,1749.9 2641.4,1751.4 2640,1752.9 2640,1758.9 2641.9,1756.7 2644,1754.5 
			2644,1751.4 2644,1748.3 2641.9,1746 2531.5,1623.1 2531.5,1629.1 		"/>
		<polygon class="st2" points="1044,1758.9 1044,1752.9 1042.6,1751.4 1044,1749.9 1044,1749.9 1152.5,1629.1 1152.5,1623.1 
			1042,1746 1040,1748.3 1040,1751.4 1040,1754.5 1042,1756.7 		"/>
		<polygon class="st2" points="1048,1757.4 1044,1752.9 1044,1758.9 1048,1763.4 		"/>
		<polygon class="st2" points="1044,1749.9 1152.5,1629.1 1152.5,1629.1 		"/>
		<polygon class="st2" points="2640,1749.9 2640,1749.9 2531.5,1629.1 2531.5,1629.1 		"/>
		<polygon class="st2" points="2636,1763.4 2640,1758.9 2640,1752.9 2636,1757.4 		"/>
		<polygon class="st2" points="2636,1752.4 2636,1751.4 2635.5,1751.9 		"/>
		<polygon class="st2" points="1048,1751.4 1048,1752.4 1048.4,1751.9 		"/>
		<polygon class="st2" points="2641.4,1751.4 2640,1749.9 2640,1752.9 		"/>
		<polygon class="st2" points="1042.6,1751.4 1044,1752.9 1044,1749.9 		"/>
		<polygon class="st2" points="2531.5,1635 2636,1751.4 2636,1752.4 2636,1757.4 2640,1752.9 2640,1749.9 2531.5,1629.1 		"/>
		<polygon class="st2" points="1048,1752.4 1048,1752.4 1048,1751.4 1152.5,1635 1152.5,1629.1 1044,1749.9 1044,1752.9 
			1048,1757.4 		"/>
		<path class="st2" d="M1487.8,1889.8l-0.1,8.2l11.1,4.1c53.3,19.7,113.5,30,174.6,30c1.7,0,3.4,0,5.1,0
			c53.2-0.5,105.9-8.8,153.6-24.1c-15.1-5.5-29.5-11.6-43.2-18.4c-83.2,21.2-177.5,18.6-257.3-8c3.6-50.5,35.6-96.2,85.6-130.6h-57
			C1513.7,1790.8,1488.3,1839,1487.8,1889.8z"/>
		<path class="st2" d="M1917.6,1922.4c30.8,5.4,62.2,8.1,93.4,8.1c60.7,0,120.8-10.2,175.2-30.3l11.1-4.1l-0.1-8.3
			c-0.8-50.6-26.3-98.2-71.1-136.9h-56.6c50.1,34.6,80.1,79.9,83.9,128.8c-146.5,49-329.3,14.7-412.6-78.9
			c-14-15.7-24.6-32.5-31.6-49.9h-44.7c7.8,22.4,20.8,44,38.6,64C1750.5,1868.2,1826.7,1906.4,1917.6,1922.4z"/>
		<path class="st2" d="M1855.1,1866.3c13.7,5.4,28.2,10.1,43.1,14.1c34-17.9,62.9-39.8,84.9-64.5c18.5-20.8,31.4-42.7,39.1-64.9
			h-44.6c-6.9,17.4-17.5,34.5-32.1,50.9C1922.9,1827.4,1891.9,1849.4,1855.1,1866.3z"/>
		<path class="st2" d="M1843.8,1815.7c43.9,0,79.7-23.2,79.7-51.7c0-4.5-0.9-8.9-2.6-13.1H1874c3.9,3.7,6.1,8.2,6.1,13.1
			c0,13-16.3,23.5-36.3,23.5s-36.3-10.5-36.3-23.5c0-4.8,2.3-9.3,6.1-13.1h-46.9c-1.7,4.2-2.6,8.5-2.6,13.1
			C1764.2,1792.5,1799.9,1815.7,1843.8,1815.7z"/>
	</g>
	<g>
		<rect x="1150" y="679" class="st2" width="4" height="1072"/>
	</g>
	<line class="st6" x1="2531" y1="679" x2="2531" y2="1751"/>
	<g>
		<g>
			<g>
				<g>
					<g>
						<g>
							<polygon class="st1" points="1441.2,1117 1039.7,670.1 1039.7,558.4 1441.2,111.5 2242.3,111.5 2643.8,558.4 2643.8,670.1 
								2242.3,1117 							"/>
						</g>
					</g>
					<g>
						<g>
							<path class="st7" d="M2238.8,119.5l397,442v105.6l-397,442h-794l-397-442V561.5l397-442H2238.8 M2245.9,103.5h-7.1h-794h-7.1
								l-4.8,5.3l-397,442l-4.1,4.6v6.1v105.6v6.1l4.1,4.6l397,442l4.8,5.3h7.1h794h7.1l4.8-5.3l397-442l4.1-4.6v-6.1V561.5v-6.1
								l-4.1-4.6l-397-442L2245.9,103.5L2245.9,103.5z"/>
						</g>
					</g>
				</g>
				<g>
					<path class="st7" d="M2238.8,119.5l397,442v105.6l-397,442h-794l-397-442V561.5l397-442H2238.8 M2242.3,111.5h-3.6h-794h-3.6
						l-2.4,2.7l-397,442l-2,2.3v3.1v105.6v3.1l2,2.3l397,442l2.4,2.7h3.6h794h3.6l2.4-2.7l397-442l2-2.3v-3.1V561.5v-3.1l-2-2.3
						l-397-442L2242.3,111.5L2242.3,111.5z"/>
				</g>
				<g>
					<line class="st8" x1="1841.8" y1="614.3" x2="1841.8" y2="614.3"/>
					<path class="st7" d="M1841.8,614.3"/>
				</g>
				<g>
					<g>
						<line class="st8" x1="1841.8" y1="614.3" x2="1841.8" y2="614.3"/>
						<path class="st7" d="M1841.8,614.3"/>
					</g>
				</g>
				<g>
					<g>
						<path class="st1" d="M1443,1007.4l-400.6-446l400.6-446h797.6l400.6,446l-400.6,446H1443z M2206.6,931.3l332.2-369.8
							l-332.2-369.8h-729.7l-332.2,369.8l332.2,369.8H2206.6z"/>
					</g>
					<g>
						<path class="st7" d="M2238.8,119.5l397,442l-397,442h-794l-397-442l397-442H2238.8 M1475.1,935.3h733.3l335.8-373.8
							l-335.8-373.8h-733.3l-335.8,373.8L1475.1,935.3 M2242.3,111.5h-3.6h-794h-3.6l-2.4,2.7l-397,442l-4.8,5.3l4.8,5.3l397,442
							l2.4,2.7h3.6h794h3.6l2.4-2.7l397-442l4.8-5.3l-4.8-5.3l-397-442L2242.3,111.5L2242.3,111.5z M1478.7,195.6h726.1l328.6,365.8
							l-328.6,365.8h-726.1l-328.6-365.8L1478.7,195.6L1478.7,195.6z"/>
					</g>
				</g>
				<g>
					<g>
						<rect x="1439.6" y="1006.8" class="st7" width="8" height="105.6"/>
					</g>
					<g>
						<rect x="2235.9" y="1006.8" class="st7" width="8" height="105.6"/>
					</g>
				</g>
			</g>
		</g>
		<g>
			<path class="st7" d="M1516.2,614.5c-1.1-3.3-2.3-6.5-3.5-9.7s-2.4-6.5-3.5-9.8h-35.1c-1.1,3.4-2.3,6.7-3.4,9.9
				c-1.2,3.2-2.3,6.5-3.4,9.7h-15.7c3.1-8.9,6.1-17.1,8.9-24.6s5.5-14.6,8.2-21.4s5.3-13.1,8-19.2c2.6-6.1,5.4-12.1,8.2-18h14.4
				c2.8,5.9,5.5,11.9,8.2,18c2.6,6.1,5.3,12.5,8,19.2s5.4,13.8,8.3,21.4c2.8,7.5,5.8,15.7,8.9,24.6h-16.5V614.5z M1491.7,547.4
				c-1.8,4.2-3.9,9.4-6.3,15.5s-4.8,12.7-7.4,19.8h27.4c-2.6-7.1-5-13.8-7.4-19.9C1495.5,556.6,1493.4,551.5,1491.7,547.4z"/>
			<path class="st7" d="M1542.2,553.8c2.8-0.8,6.4-1.6,10.9-2.3s9.4-1.1,14.9-1.1c5.1,0,9.4,0.7,12.8,2.1c3.4,1.4,6.2,3.4,8.2,5.9
				s3.5,5.6,4.3,9.1c0.8,3.6,1.3,7.5,1.3,11.7v35.3h-14.5v-33c0-3.4-0.2-6.2-0.7-8.6c-0.4-2.4-1.2-4.3-2.2-5.8s-2.4-2.6-4.1-3.2
				c-1.7-0.7-3.8-1-6.3-1c-1.8,0-3.8,0.1-5.8,0.4c-2,0.2-3.5,0.4-4.4,0.6v50.6h-14.5L1542.2,553.8L1542.2,553.8z"/>
			<path class="st7" d="M1661.8,551.7c-6.5,23.8-14,45.4-22.5,64.8c-1.6,3.6-3.2,6.7-4.9,9.2c-1.7,2.6-3.6,4.7-5.6,6.4
				c-2.1,1.7-4.4,2.9-7,3.7s-5.5,1.1-8.9,1.1c-2.2,0-4.5-0.2-6.7-0.7s-3.9-1-5-1.6l2.6-11.6c2.9,1.1,5.7,1.7,8.6,1.7
				c3.8,0,6.7-0.9,8.9-2.7c2.1-1.8,4-4.6,5.6-8.3c-4.6-8.8-9-18.4-13.2-28.8c-4.2-10.4-8-21.4-11.3-33.1h15.5c0.8,3.4,1.8,7,3,10.9
				s2.4,7.9,3.8,11.9s2.8,8.1,4.3,12.1s3.1,7.7,4.6,11.2c2.5-7.1,4.9-14.7,7.2-22.7c2.2-8,4.3-15.8,6.1-23.3h14.9V551.7z"/>
			<path class="st7" d="M1754,601.4v13.1h-52.6v-83.2h15.1v70.1L1754,601.4L1754,601.4z"/>
			<path class="st7" d="M1785.7,550.2c4.8,0,8.8,0.6,12.1,1.8c3.3,1.2,5.9,2.9,7.9,5c2,2.2,3.4,4.8,4.2,7.9
				c0.8,3.1,1.3,6.5,1.3,10.1v38c-2.2,0.5-5.6,1.1-10.1,1.7c-4.5,0.7-9.6,1-15.3,1c-3.8,0-7.2-0.4-10.3-1.1c-3.1-0.7-5.8-1.9-8-3.5
				s-3.9-3.7-5.2-6.2c-1.2-2.6-1.9-5.7-1.9-9.5c0-3.6,0.7-6.6,2.1-9.1s3.3-4.5,5.7-6.1c2.4-1.6,5.2-2.7,8.3-3.4c3.2-0.7,6.5-1,9.9-1
				c1.6,0,3.3,0.1,5,0.3c1.8,0.2,3.6,0.5,5.6,1v-2.4c0-1.7-0.2-3.3-0.6-4.8s-1.1-2.9-2.1-4c-1-1.2-2.3-2.1-4-2.7
				c-1.6-0.6-3.7-1-6.2-1c-3.4,0-6.4,0.2-9.2,0.7c-2.8,0.5-5.1,1-6.8,1.7l-1.8-11.8c1.8-0.6,4.5-1.3,8-1.9
				C1778,550.5,1781.7,550.2,1785.7,550.2z M1786.9,604.3c4.5,0,7.9-0.2,10.2-0.7v-16.1c-0.8-0.2-2-0.5-3.5-0.7s-3.2-0.4-5-0.4
				c-1.6,0-3.2,0.1-4.9,0.4c-1.6,0.2-3.1,0.7-4.4,1.3s-2.4,1.5-3.2,2.7c-0.8,1.2-1.2,2.6-1.2,4.4c0,3.4,1.1,5.8,3.2,7.1
				C1780.3,603.6,1783.2,604.3,1786.9,604.3z"/>
			<path class="st7" d="M1828.9,553.8c2.8-0.8,6.4-1.6,10.9-2.3s9.4-1.1,14.9-1.1c5.1,0,9.4,0.7,12.8,2.1c3.4,1.4,6.2,3.4,8.2,5.9
				s3.5,5.6,4.3,9.1c0.8,3.6,1.3,7.5,1.3,11.7v35.3h-14.5v-33c0-3.4-0.2-6.2-0.7-8.6c-0.4-2.4-1.2-4.3-2.2-5.8s-2.4-2.6-4.1-3.2
				c-1.7-0.7-3.8-1-6.3-1c-1.8,0-3.8,0.1-5.8,0.4c-2,0.2-3.5,0.4-4.4,0.6v50.6h-14.5L1828.9,553.8L1828.9,553.8z"/>
			<path class="st7" d="M1951,608.1c0,10-2.5,17.3-7.6,22c-5.1,4.6-12.9,7-23.3,7c-3.8,0-7.6-0.3-11.2-1c-3.6-0.6-6.9-1.5-9.9-2.5
				l2.6-12.4c2.5,1,5.3,1.9,8.5,2.5s6.6,1,10.3,1c5.8,0,10-1.2,12.5-3.6c2.5-2.4,3.7-6,3.7-10.7V608c-1.4,0.7-3.3,1.4-5.7,2.2
				c-2.4,0.7-5.1,1.1-8.1,1.1c-4,0-7.7-0.6-11-1.9c-3.3-1.3-6.2-3.2-8.5-5.6c-2.4-2.5-4.2-5.6-5.5-9.3s-2-8-2-12.9
				c0-4.6,0.7-8.8,2.1-12.6s3.4-7.1,6.1-9.8s5.9-4.8,9.8-6.4c3.8-1.5,8.2-2.3,13.1-2.3c4.7,0,9.2,0.4,13.4,1.1
				c4.2,0.7,7.8,1.5,10.8,2.3v54.2H1951z M1910.5,581.5c0,6.2,1.3,10.7,4,13.5s6.1,4.3,10.4,4.3c2.3,0,4.5-0.3,6.5-1
				c2-0.6,3.7-1.4,5-2.3v-32.5c-1-0.2-2.3-0.5-3.8-0.7s-3.4-0.3-5.8-0.3c-5.3,0-9.3,1.7-12.1,5.2S1910.5,575.8,1910.5,581.5z"/>
			<path class="st7" d="M2020.9,612.6c-2.8,0.7-6.4,1.5-10.9,2.2c-4.5,0.8-9.4,1.1-14.8,1.1c-5,0-9.3-0.7-12.7-2.2
				c-3.4-1.4-6.1-3.4-8.2-6c-2-2.6-3.5-5.6-4.4-9.2c-0.9-3.6-1.3-7.5-1.3-11.7v-35.2h14.5v32.9c0,6.7,1,11.5,2.9,14.4
				c2,2.9,5.4,4.3,10.3,4.3c1.8,0,3.6-0.1,5.6-0.2c2-0.2,3.4-0.4,4.4-0.6v-50.8h14.5L2020.9,612.6L2020.9,612.6z"/>
			<path class="st7" d="M2060.3,550.2c4.8,0,8.8,0.6,12.1,1.8s5.9,2.9,7.9,5c2,2.2,3.4,4.8,4.2,7.9c0.8,3.1,1.3,6.5,1.3,10.1v38
				c-2.2,0.5-5.6,1.1-10.1,1.7c-4.5,0.7-9.6,1-15.3,1c-3.8,0-7.2-0.4-10.3-1.1c-3.1-0.7-5.8-1.9-8-3.5s-3.9-3.7-5.2-6.2
				c-1.2-2.6-1.9-5.7-1.9-9.5c0-3.6,0.7-6.6,2.1-9.1s3.3-4.5,5.7-6.1c2.4-1.6,5.2-2.7,8.3-3.4c3.2-0.7,6.5-1,9.9-1
				c1.6,0,3.3,0.1,5,0.3c1.8,0.2,3.6,0.5,5.6,1v-2.4c0-1.7-0.2-3.3-0.6-4.8c-0.4-1.5-1.1-2.9-2.1-4c-1-1.2-2.3-2.1-4-2.7
				c-1.6-0.6-3.7-1-6.2-1c-3.4,0-6.4,0.2-9.2,0.7s-5.1,1-6.8,1.7l-1.8-11.8c1.8-0.6,4.5-1.3,8-1.9
				C2052.5,550.5,2056.3,550.2,2060.3,550.2z M2061.5,604.3c4.5,0,7.9-0.2,10.2-0.7v-16.1c-0.8-0.2-2-0.5-3.5-0.7s-3.2-0.4-5-0.4
				c-1.6,0-3.2,0.1-4.9,0.4c-1.6,0.2-3.1,0.7-4.4,1.3c-1.3,0.6-2.4,1.5-3.2,2.7s-1.2,2.6-1.2,4.4c0,3.4,1.1,5.8,3.2,7.1
				C2054.9,603.6,2057.8,604.3,2061.5,604.3z"/>
			<path class="st7" d="M2155.3,608.1c0,10-2.5,17.3-7.6,22c-5.1,4.6-12.9,7-23.3,7c-3.8,0-7.6-0.3-11.2-1c-3.6-0.6-6.9-1.5-9.9-2.5
				l2.6-12.4c2.5,1,5.3,1.9,8.5,2.5s6.6,1,10.3,1c5.8,0,10-1.2,12.5-3.6c2.5-2.4,3.7-6,3.7-10.7V608c-1.4,0.7-3.3,1.4-5.7,2.2
				c-2.4,0.7-5.1,1.1-8.1,1.1c-4,0-7.7-0.6-11-1.9c-3.3-1.3-6.2-3.2-8.5-5.6c-2.4-2.5-4.2-5.6-5.5-9.3s-2-8-2-12.9
				c0-4.6,0.7-8.8,2.1-12.6c1.4-3.8,3.4-7.1,6.1-9.8c2.7-2.7,5.9-4.8,9.8-6.4c3.8-1.5,8.2-2.3,13.1-2.3c4.7,0,9.2,0.4,13.4,1.1
				c4.2,0.7,7.8,1.5,10.8,2.3v54.2H2155.3z M2114.9,581.5c0,6.2,1.3,10.7,4,13.5s6.1,4.3,10.4,4.3c2.3,0,4.5-0.3,6.5-1
				c2-0.6,3.7-1.4,5-2.3v-32.5c-1-0.2-2.3-0.5-3.8-0.7s-3.4-0.3-5.8-0.3c-5.3,0-9.3,1.7-12.1,5.2
				C2116.3,571.2,2114.9,575.8,2114.9,581.5z"/>
			<path class="st7" d="M2170.3,583.4c0-5.5,0.8-10.4,2.5-14.5c1.6-4.2,3.8-7.6,6.5-10.4c2.7-2.8,5.8-4.8,9.4-6.2
				c3.5-1.4,7.1-2.1,10.8-2.1c8.6,0,15.4,2.7,20.2,8c4.8,5.4,7.3,13.4,7.3,24c0,0.8,0,1.7-0.1,2.7c0,1-0.1,1.9-0.2,2.7h-41.4
				c0.4,5,2.2,8.9,5.3,11.7c3.2,2.8,7.7,4.1,13.7,4.1c3.5,0,6.7-0.3,9.7-1c2.9-0.6,5.2-1.3,6.9-2l1.9,11.9c-0.8,0.4-1.9,0.8-3.3,1.3
				c-1.4,0.4-3,0.8-4.8,1.2s-3.7,0.7-5.8,0.9s-4.2,0.4-6.4,0.4c-5.5,0-10.3-0.8-14.4-2.5c-4.1-1.6-7.4-3.9-10.1-6.8
				c-2.6-2.9-4.6-6.4-5.9-10.3C2171,592.5,2170.3,588.1,2170.3,583.4z M2212.4,576.9c0-2-0.3-3.9-0.8-5.7c-0.6-1.8-1.4-3.4-2.5-4.7
				s-2.4-2.4-4-3.1c-1.6-0.8-3.4-1.1-5.6-1.1c-2.2,0-4.2,0.4-5.9,1.3c-1.7,0.8-3.1,1.9-4.3,3.3c-1.2,1.4-2.1,2.9-2.7,4.7
				c-0.6,1.8-1.1,3.6-1.3,5.4h27.1V576.9z"/>
		</g>
	</g>
</g>
<g id="Layer_2_1_">
	<g>
		<g>
			<g>
				<line class="st9" x1="2603.1" y1="1842" x2="3052" y2="1842"/>
				<g>
					<circle cx="2603.5" cy="1842" r="7.5"/>
				</g>
			</g>
		</g>
		<text transform="matrix(1 0 0 1 3088 1866)" class="st10 st11">Consensus</text>
		<g>
			<g>
				<line class="st9" x1="2603.1" y1="1986" x2="3052" y2="1986"/>
				<g>
					<circle cx="2603.5" cy="1986" r="7.5"/>
				</g>
			</g>
		</g>
		<text transform="matrix(1 0 0 1 3088 2010)" class="st10 st11">Networking</text>
		<g>
			<g>
				<line class="st9" x1="2603.1" y1="652" x2="3052" y2="652"/>
				<g>
					<circle cx="2603.5" cy="652" r="7.5"/>
				</g>
			</g>
		</g>
		<text transform="matrix(1 0 0 1 3088 676)" class="st10 st11">Java, C++, Go etc.</text>
	</g>
</g>
</svg>
