<?xml version="1.0" encoding="utf-8"?>
<!-- Generator: Adobe Illustrator 22.1.0, SVG Export Plug-In . SVG Version: 6.00 Build 0)  -->
<svg version="1.1" id="Layer_1" xmlns="http://www.w3.org/2000/svg" xmlns:xlink="http://www.w3.org/1999/xlink" x="0px" y="0px"
	 viewBox="0 0 3840 2160" style="enable-background:new 0 0 3840 2160;" xml:space="preserve">
<style type="text/css">
	.st0{fill:#FFFFFF;}
	.st1{fill:#149ADD;}
	.st2{fill:#6FD89E;}
	.st3{fill:#3232CC;}
	.st4{fill-rule:evenodd;clip-rule:evenodd;fill:#FFFFFF;}
	.st5{fill-rule:evenodd;clip-rule:evenodd;fill:#3232CC;}
</style>
<g>
	<g>
		<g>
			<g>
				<g>
					<g>
						<g>
							<polygon class="st0" points="2408.5,1253.2 2007,806.3 2007,694.6 2408.5,247.7 3209.6,247.7 3611,694.6 3611,806.3 
								3209.6,1253.2 							"/>
						</g>
					</g>
				</g>
				<g>
					<g>
						<g>
							<path class="st1" d="M3206,255.7l397,442v105.6l-397,442h-794l-397-442V697.7l397-442H3206 M3213.2,239.7h-7.1h-794h-7.1
								l-4.8,5.3l-397,442l-4.1,4.6v6.1v105.6v6.1l4.1,4.6l397,442l4.8,5.3h7.1h794h7.1l4.8-5.3l397-442l4.1-4.6v-6.1V697.7v-6.1
								l-4.1-4.6l-397-442L3213.2,239.7L3213.2,239.7z"/>
						</g>
					</g>
				</g>
			</g>
			<g>
				<g>
					<path class="st1" d="M3206,255.7l397,442v105.6l-397,442h-794l-397-442V697.7l397-442H3206 M3209.6,247.7h-3.6h-794h-3.6
						l-2.4,2.7l-397,442l-2,2.3v3.1v105.6v3.1l2,2.3l397,442l2.4,2.7h3.6h794h3.6l2.4-2.7l397-442l2-2.3v-3.1V697.7v-3.1l-2-2.3
						l-397-442L3209.6,247.7L3209.6,247.7z"/>
				</g>
			</g>
			<g>
				<g>
					<line class="st0" x1="2809" y1="750.5" x2="2809" y2="750.5"/>
				</g>
				<g>
					<path class="st1" d="M2809,750.5"/>
				</g>
			</g>
			<g>
				<g>
					<g>
						<line class="st2" x1="2809" y1="750.5" x2="2809" y2="750.5"/>
					</g>
					<g>
						<path class="st1" d="M2809,750.5"/>
					</g>
				</g>
			</g>
			<g>
				<g>
					<g>
						<path class="st0" d="M2410.2,1143.6l-400.6-446l400.6-446h797.6l400.6,446l-400.6,446H2410.2z M3173.9,1067.5l332.2-369.8
							l-332.2-369.8h-729.7L2112,697.7l332.2,369.8H3173.9z"/>
					</g>
				</g>
				<g>
					<g>
						<path class="st1" d="M3206,255.7l397,442l-397,442h-794l-397-442l397-442H3206 M2442.4,1071.5h733.3l335.8-373.8l-335.8-373.8
							h-733.3l-335.8,373.8L2442.4,1071.5 M3209.6,247.7h-3.6h-794h-3.6l-2.4,2.7l-397,442l-4.8,5.3l4.8,5.3l397,442l2.4,2.7h3.6
							h794h3.6l2.4-2.7l397-442l4.8-5.3l-4.8-5.3l-397-442L3209.6,247.7L3209.6,247.7z M2446,331.8h726.1l328.6,365.8l-328.6,365.8
							H2446l-328.6-365.8L2446,331.8L2446,331.8z"/>
					</g>
				</g>
			</g>
			<g>
				<g>
					<g>
						<rect x="2406.9" y="1143" class="st1" width="8" height="105.6"/>
					</g>
				</g>
				<g>
					<g>
						<rect x="3203.1" y="1143" class="st1" width="8" height="105.6"/>
					</g>
				</g>
			</g>
		</g>
	</g>
	<g>
		<g>
			<g>
				<polygon class="st0" points="2169.4,909.2 2084.5,815.3 1506.3,1016.1 1506.3,1046.9 1591.2,1140.7 2169.4,940 				"/>
				<path class="st3" d="M1590,1145.4l-87.7-96.9v-35.2l583.5-202.6l87.7,96.9v35.2L1590,1145.4z M1510.3,1045.3l82.1,90.7
					l573.1-199v-26.4l-82.1-90.7l-573.1,199V1045.3z"/>
			</g>
			<g>
				<path class="st3" d="M1588.8,1150l-90.5-100.1v-39.6L2086.9,806l90.5,100.1v39.6L1588.8,1150z M1514.3,1043.8l79.3,87.6
					l567.9-197.1v-22l-79.3-87.6l-567.9,197.1V1043.8z"/>
			</g>
			<g>
				<polygon class="st0" points="2084.5,815.3 1506.3,1016.1 1591.2,1109.9 2169.4,909.2 				"/>
				<path class="st3" d="M1590,1114.6l-90.7-100.3l586.5-203.6l90.7,100.3L1590,1114.6z M1513.3,1017.9l79.1,87.4l570.1-197.9
					l-79.1-87.4L1513.3,1017.9z"/>
			</g>
		</g>
	</g>
	<g>
		<g>
			<g>
				<polygon class="st0" points="2331.4,1091.2 2246.5,997.3 1668.3,1198.1 1668.3,1228.9 1753.2,1322.7 2331.4,1122 				"/>
				<path class="st1" d="M1752,1327.4l-87.7-96.9v-35.2l2.7-0.9l580.8-201.6l87.7,96.9v35.2l-2.7,0.9L1752,1327.4z M1672.3,1227.3
					l82.1,90.7l573.1-199v-26.4l-82.1-90.7l-573.1,199V1227.3z"/>
			</g>
			<g>
				<path class="st1" d="M1750.8,1332l-90.5-100.1v-39.6L2248.9,988l90.5,100.1v39.6L1750.8,1332z M1676.3,1225.8l79.3,87.6
					l567.9-197.1v-22l-79.3-87.6l-567.9,197.1V1225.8z"/>
			</g>
			<g>
				<polygon class="st0" points="2246.5,997.3 1668.3,1198.1 1753.2,1291.9 2331.4,1091.2 				"/>
				<path class="st1" d="M1752,1296.6l-90.7-100.3l586.5-203.6l90.7,100.3L1752,1296.6z M1675.3,1199.9l79.1,87.4l570.1-197.9
					l-79.1-87.4L1675.3,1199.9z"/>
			</g>
		</g>
	</g>
	<g>
		<g>
			<g>
				<g>
					<g>
						<g>
							<polygon class="st0" points="630.4,1908.9 229,1462 229,1350.3 630.4,903.4 1431.5,903.4 1833,1350.3 1833,1462 
								1431.5,1908.9 							"/>
						</g>
					</g>
				</g>
				<g>
					<g>
						<g>
							<path class="st3" d="M1428,911.4l397,442v105.6l-397,442H634h0l-397-442v-105.6l397-442H1428 M1435.1,895.4h-7.1H634h-7.1
								l-4.8,5.3l-397,442l-4.1,4.6v6.1v105.6v6.1l4.1,4.6l397,442l4.8,5.3h7.1h794h7.1l4.8-5.3l397-442l4.1-4.6v-6.1v-105.6v-6.1
								l-4.1-4.6l-397-442L1435.1,895.4L1435.1,895.4z"/>
						</g>
					</g>
				</g>
			</g>
			<g>
				<g>
					<path class="st3" d="M1428,911.4l397,442v105.6l-397,442H634l-397-442v-105.6l397-442H1428 M1431.5,903.4h-3.6H634h-3.6
						L628,906l-397,442l-2,2.3v3.1v105.6v3.1l2,2.3l397,442l2.4,2.7h3.6h794h3.6l2.4-2.7l397-442l2-2.3v-3.1v-105.6v-3.1l-2-2.3
						l-397-442L1431.5,903.4L1431.5,903.4z"/>
				</g>
			</g>
			<g>
				<g>
					<line class="st0" x1="1031" y1="1406.1" x2="1031" y2="1406.1"/>
				</g>
				<g>
					<path class="st3" d="M1031,1406.1"/>
				</g>
			</g>
			<g>
				<g>
					<g>
						<line class="st2" x1="1031" y1="1406.1" x2="1031" y2="1406.1"/>
					</g>
					<g>
						<path class="st3" d="M1031,1406.1"/>
					</g>
				</g>
			</g>
			<g>
				<g>
					<g>
						<path class="st0" d="M632.2,1799.3l-400.6-446l400.6-446h797.6l400.6,446l-400.6,446H632.2z M1395.8,1723.2l332.2-369.8
							l-332.2-369.8H666.1l-332.2,369.8l332.2,369.8H1395.8z"/>
					</g>
				</g>
				<g>
					<g>
						<path class="st3" d="M1428,911.4l397,442l-397,442H634l-397-442l397-442H1428 M664.3,1727.2h733.3l335.8-373.8l-335.8-373.8
							H664.3l-335.8,373.8L664.3,1727.2 M1431.5,903.4h-3.6H634h-3.6L628,906l-397,442l-4.8,5.3l4.8,5.3l397,442l2.4,2.7h3.6h794
							h3.6l2.4-2.7l397-442l4.8-5.3l-4.8-5.3l-397-442L1431.5,903.4L1431.5,903.4z M667.9,987.5H1394l328.6,365.8L1394,1719.2H667.9
							l-328.6-365.8L667.9,987.5L667.9,987.5z"/>
					</g>
				</g>
			</g>
			<g>
				<g>
					<g>
						<rect x="628.9" y="1798.7" class="st3" width="8" height="105.6"/>
					</g>
				</g>
				<g>
					<g>
						<rect x="1425.1" y="1798.7" class="st3" width="8" height="105.6"/>
					</g>
				</g>
			</g>
		</g>
	</g>
	<g>
		<g>
			<g>
				<g>
					<g>
						<path class="st0" d="M1402.7,1250.2c-45.9,0-82.7-20.9-83.9-47.7l0-0.2l-0.1-19.6c0-13.5,9-26.1,25.5-35.3
							c15.7-8.8,36.5-13.7,58.5-13.7s42.8,4.9,58.5,13.7c16.4,9.2,25.5,21.8,25.5,35.3l-0.1,19.7l0,0.1
							C1485.5,1229.3,1448.6,1250.2,1402.7,1250.2z"/>
					</g>
				</g>
				<g>
					<g>
						<path class="st3" d="M1402.7,1137.7c44.2,0,80,20.2,80,45l-0.1,19.6c-1.1,24.3-36.4,43.9-79.9,43.9
							c-43.5,0-78.8-19.5-79.9-43.9l-0.1-19.6C1322.8,1157.9,1358.6,1137.7,1402.7,1137.7 M1402.7,1129.7c-49.3,0-88,23.3-88,53
							l0.1,19.6l0,0.2l0,0.2c0.7,14.7,10.7,28.1,28.2,37.7c16.2,8.9,37.4,13.8,59.7,13.8s43.5-4.9,59.7-13.8
							c17.5-9.6,27.5-23,28.2-37.7l0-0.2l0-0.2l0.1-19.6C1490.7,1153,1452.1,1129.7,1402.7,1129.7L1402.7,1129.7z"/>
					</g>
				</g>
			</g>
			<g>
				<g>
					<g>
						<path class="st0" d="M1402.7,1231.7c-22,0-42.8-4.9-58.5-13.7c-16.4-9.2-25.5-21.8-25.5-35.3s9-26.1,25.5-35.3
							c15.7-8.8,36.5-13.7,58.5-13.7s42.8,4.9,58.5,13.7c16.4,9.2,25.5,21.8,25.5,35.3s-9,26.1-25.5,35.3
							C1445.6,1226.9,1424.8,1231.7,1402.7,1231.7z"/>
					</g>
				</g>
				<g>
					<g>
						<path class="st3" d="M1402.7,1137.7c44.2,0,80,20.2,80,45s-35.8,45-80,45c-44.2,0-80-20.2-80-45S1358.6,1137.7,1402.7,1137.7
							 M1402.7,1129.7c-49.3,0-88,23.3-88,53s38.6,53,88,53c49.3,0,88-23.3,88-53S1452.1,1129.7,1402.7,1129.7L1402.7,1129.7z"/>
					</g>
				</g>
			</g>
		</g>
		<g>
			<g>
				<g>
					<g>
						<path class="st0" d="M1402.7,1212.7c-45.9,0-82.7-20.9-83.9-47.7l0-0.2l-0.1-19.6c0-13.5,9-26.1,25.5-35.3
							c15.7-8.8,36.5-13.7,58.5-13.7s42.8,4.9,58.5,13.7c16.4,9.2,25.5,21.8,25.5,35.3l-0.1,19.7l0,0.1
							C1485.5,1191.7,1448.6,1212.7,1402.7,1212.7z"/>
					</g>
				</g>
				<g>
					<g>
						<path class="st3" d="M1402.7,1100.2c44.2,0,80,20.2,80,45l-0.1,19.6c-1.1,24.3-36.4,43.9-79.9,43.9
							c-43.5,0-78.8-19.5-79.9-43.9l-0.1-19.6C1322.8,1120.3,1358.6,1100.2,1402.7,1100.2 M1402.7,1092.2c-49.3,0-88,23.3-88,53
							l0.1,19.6l0,0.2l0,0.2c0.7,14.7,10.7,28.1,28.2,37.7c16.2,8.9,37.4,13.8,59.7,13.8s43.5-4.9,59.7-13.8
							c17.5-9.6,27.5-23,28.2-37.7l0-0.2l0-0.2l0.1-19.6C1490.7,1115.5,1452.1,1092.2,1402.7,1092.2L1402.7,1092.2z"/>
					</g>
				</g>
			</g>
			<g>
				<g>
					<g>
						<path class="st0" d="M1402.7,1194.2c-22,0-42.8-4.9-58.5-13.7c-16.4-9.2-25.5-21.8-25.5-35.3s9-26.1,25.5-35.3
							c15.7-8.8,36.5-13.7,58.5-13.7s42.8,4.9,58.5,13.7c16.4,9.2,25.5,21.8,25.5,35.3s-9,26.1-25.5,35.3
							C1445.6,1189.3,1424.8,1194.2,1402.7,1194.2z"/>
					</g>
				</g>
				<g>
					<g>
						<path class="st3" d="M1402.7,1100.2c44.2,0,80,20.2,80,45c0,24.9-35.8,45-80,45c-44.2,0-80-20.2-80-45
							C1322.8,1120.3,1358.6,1100.2,1402.7,1100.2 M1402.7,1092.2c-49.3,0-88,23.3-88,53s38.6,53,88,53c49.3,0,88-23.3,88-53
							S1452.1,1092.2,1402.7,1092.2L1402.7,1092.2z"/>
					</g>
				</g>
			</g>
		</g>
		<g>
			<g>
				<g>
					<g>
						<path class="st0" d="M1402.7,1176.8c-45.9,0-82.7-20.9-83.9-47.7l0-0.2l-0.1-19.6c0-13.5,9-26.1,25.5-35.3
							c15.7-8.8,36.5-13.7,58.5-13.7s42.8,4.9,58.5,13.7c16.4,9.2,25.5,21.8,25.5,35.3l-0.1,19.7l0,0.1
							C1485.5,1155.8,1448.6,1176.8,1402.7,1176.8z"/>
					</g>
				</g>
				<g>
					<g>
						<path class="st3" d="M1402.7,1064.3c44.2,0,80,20.2,80,45l-0.1,19.6c-1.1,24.3-36.4,43.9-79.9,43.9
							c-43.5,0-78.8-19.5-79.9-43.9l-0.1-19.6C1322.8,1084.4,1358.6,1064.3,1402.7,1064.3 M1402.7,1056.3c-49.3,0-88,23.3-88,53
							l0.1,19.6l0,0.2l0,0.2c0.7,14.7,10.7,28.1,28.2,37.7c16.2,8.9,37.4,13.8,59.7,13.8s43.5-4.9,59.7-13.8
							c17.5-9.6,27.5-23,28.2-37.7l0-0.2l0-0.2l0.1-19.6C1490.7,1079.6,1452.1,1056.3,1402.7,1056.3L1402.7,1056.3z"/>
					</g>
				</g>
			</g>
			<g>
				<g>
					<g>
						<path class="st0" d="M1402.7,1158.3c-22,0-42.8-4.9-58.5-13.7c-16.4-9.2-25.5-21.8-25.5-35.3s9-26.1,25.5-35.3
							c15.7-8.8,36.5-13.7,58.5-13.7s42.8,4.9,58.5,13.7c16.4,9.2,25.5,21.8,25.5,35.3s-9,26.1-25.5,35.3
							C1445.6,1153.4,1424.8,1158.3,1402.7,1158.3z"/>
					</g>
				</g>
				<g>
					<g>
						<path class="st3" d="M1402.7,1064.3c44.2,0,80,20.2,80,45c0,24.9-35.8,45-80,45c-44.2,0-80-20.2-80-45
							C1322.8,1084.4,1358.6,1064.3,1402.7,1064.3 M1402.7,1056.3c-49.3,0-88,23.3-88,53s38.6,53,88,53c49.3,0,88-23.3,88-53
							S1452.1,1056.3,1402.7,1056.3L1402.7,1056.3z"/>
					</g>
				</g>
			</g>
		</g>
	</g>
	<g>
		<g>
			<path class="st4" d="M1311.4,1359.6h-122.5c-6.3,0-11.4-5.1-11.4-11.4v-84.5c0-6.3,5.1-11.4,11.4-11.4h122.5
				c6.3,0,11.4,5.1,11.4,11.4v84.5C1322.8,1354.5,1317.7,1359.6,1311.4,1359.6z"/>
			<path class="st3" d="M1311.4,1367.6h-122.5c-10.7,0-19.4-8.7-19.4-19.4v-84.5c0-10.7,8.7-19.4,19.4-19.4h122.5
				c10.7,0,19.4,8.7,19.4,19.4v84.5C1330.8,1358.9,1322.1,1367.6,1311.4,1367.6z M1188.9,1260.3c-1.9,0-3.4,1.5-3.4,3.4v84.5
				c0,1.9,1.5,3.4,3.4,3.4h122.5c1.9,0,3.4-1.5,3.4-3.4v-84.5c0-1.9-1.5-3.4-3.4-3.4H1188.9z"/>
		</g>
		<g>
			<path class="st3" d="M1296.9,1242.4h-16v-12.4c0-17-13.8-30.8-30.8-30.8s-30.8,13.8-30.8,30.8v12.4h-16v-12.4
				c0-25.8,21-46.8,46.8-46.8s46.8,21,46.8,46.8V1242.4z"/>
		</g>
		<g>
			<circle class="st5" cx="1250.1" cy="1291.1" r="15.7"/>
		</g>
		<g>
			<rect x="1242.7" y="1296.9" class="st5" width="14.9" height="36.3"/>
		</g>
	</g>
	<g>
		<g>
			<g>
				<g>
					<g>
						<path class="st0" d="M1509.8,1375.5c-45.9,0-82.7-20.9-83.9-47.7l0-0.2l-0.1-19.6c0-13.5,9-26.1,25.5-35.3
							c15.7-8.8,36.5-13.7,58.5-13.7s42.8,4.9,58.5,13.7c16.4,9.2,25.5,21.8,25.5,35.3l-0.1,19.7l0,0.1
							C1592.5,1354.5,1555.6,1375.5,1509.8,1375.5z"/>
					</g>
				</g>
				<g>
					<g>
						<path class="st3" d="M1509.8,1263c44.2,0,80,20.2,80,45l-0.1,19.6c-1.1,24.3-36.4,43.9-79.9,43.9c-43.5,0-78.8-19.5-79.9-43.9
							l-0.1-19.6C1429.8,1283.1,1465.6,1263,1509.8,1263 M1509.8,1255c-49.3,0-88,23.3-88,53l0.1,19.6l0,0.2l0,0.2
							c0.7,14.7,10.7,28.1,28.2,37.7c16.2,8.9,37.4,13.8,59.7,13.8c22.3,0,43.5-4.9,59.7-13.8c17.5-9.6,27.5-23,28.2-37.7l0-0.2
							l0-0.2l0.1-19.6C1597.8,1278.3,1559.1,1255,1509.8,1255L1509.8,1255z"/>
					</g>
				</g>
			</g>
			<g>
				<g>
					<g>
						<path class="st0" d="M1509.8,1357c-22,0-42.8-4.9-58.5-13.7c-16.4-9.2-25.5-21.8-25.5-35.3s9-26.1,25.5-35.3
							c15.7-8.8,36.5-13.7,58.5-13.7s42.8,4.9,58.5,13.7c16.4,9.2,25.5,21.8,25.5,35.3s-9,26.1-25.5,35.3
							C1552.6,1352.1,1531.8,1357,1509.8,1357z"/>
					</g>
				</g>
				<g>
					<g>
						<path class="st3" d="M1509.8,1263c44.2,0,80,20.2,80,45c0,24.9-35.8,45-80,45c-44.2,0-80-20.2-80-45
							C1429.8,1283.1,1465.6,1263,1509.8,1263 M1509.8,1255c-49.3,0-88,23.3-88,53s38.6,53,88,53c49.3,0,88-23.3,88-53
							S1559.1,1255,1509.8,1255L1509.8,1255z"/>
					</g>
				</g>
			</g>
		</g>
		<g>
			<g>
				<g>
					<g>
						<path class="st0" d="M1509.8,1337.9c-45.9,0-82.7-20.9-83.9-47.7l0-0.2l-0.1-19.6c0-13.5,9-26.1,25.5-35.3
							c15.7-8.8,36.5-13.7,58.5-13.7s42.8,4.9,58.5,13.7c16.4,9.2,25.5,21.8,25.5,35.3l-0.1,19.7l0,0.1
							C1592.5,1317,1555.6,1337.9,1509.8,1337.9z"/>
					</g>
				</g>
				<g>
					<g>
						<path class="st3" d="M1509.8,1225.4c44.2,0,80,20.2,80,45l-0.1,19.6c-1.1,24.3-36.4,43.9-79.9,43.9
							c-43.5,0-78.8-19.5-79.9-43.9l-0.1-19.6C1429.8,1245.6,1465.6,1225.4,1509.8,1225.4 M1509.8,1217.4c-49.3,0-88,23.3-88,53
							l0.1,19.6l0,0.2l0,0.2c0.7,14.7,10.7,28.1,28.2,37.7c16.2,8.9,37.4,13.8,59.7,13.8s43.5-4.9,59.7-13.8
							c17.5-9.6,27.5-23,28.2-37.7l0-0.2l0-0.2l0.1-19.6C1597.8,1240.7,1559.1,1217.4,1509.8,1217.4L1509.8,1217.4z"/>
					</g>
				</g>
			</g>
			<g>
				<g>
					<g>
						<path class="st0" d="M1509.8,1319.5c-22,0-42.8-4.9-58.5-13.7c-16.4-9.2-25.5-21.8-25.5-35.3s9-26.1,25.5-35.3
							c15.7-8.8,36.5-13.7,58.5-13.7s42.8,4.9,58.5,13.7c16.4,9.2,25.5,21.8,25.5,35.3s-9,26.1-25.5,35.3
							C1552.6,1314.6,1531.8,1319.5,1509.8,1319.5z"/>
					</g>
				</g>
				<g>
					<g>
						<path class="st3" d="M1509.8,1225.4c44.2,0,80,20.2,80,45c0,24.9-35.8,45-80,45c-44.2,0-80-20.2-80-45
							C1429.8,1245.6,1465.6,1225.4,1509.8,1225.4 M1509.8,1217.4c-49.3,0-88,23.3-88,53s38.6,53,88,53c49.3,0,88-23.3,88-53
							S1559.1,1217.4,1509.8,1217.4L1509.8,1217.4z"/>
					</g>
				</g>
			</g>
		</g>
		<g>
			<g>
				<g>
					<g>
						<path class="st0" d="M1509.8,1302c-45.9,0-82.7-20.9-83.9-47.7l0-0.2l-0.1-19.6c0-13.5,9-26.1,25.5-35.3
							c15.7-8.8,36.5-13.7,58.5-13.7s42.8,4.9,58.5,13.7c16.4,9.2,25.5,21.8,25.5,35.3l-0.1,19.7l0,0.1
							C1592.5,1281.1,1555.6,1302,1509.8,1302z"/>
					</g>
				</g>
				<g>
					<g>
						<path class="st3" d="M1509.8,1189.5c44.2,0,80,20.2,80,45l-0.1,19.6c-1.1,24.3-36.4,43.9-79.9,43.9
							c-43.5,0-78.8-19.5-79.9-43.9l-0.1-19.6C1429.8,1209.7,1465.6,1189.5,1509.8,1189.5 M1509.8,1181.5c-49.3,0-88,23.3-88,53
							l0.1,19.6l0,0.2l0,0.2c0.7,14.7,10.7,28.1,28.2,37.7c16.2,8.9,37.4,13.8,59.7,13.8c22.3,0,43.5-4.9,59.7-13.8
							c17.5-9.6,27.5-23,28.2-37.7l0-0.2l0-0.2l0.1-19.6C1597.8,1204.8,1559.1,1181.5,1509.8,1181.5L1509.8,1181.5z"/>
					</g>
				</g>
			</g>
			<g>
				<g>
					<g>
						<path class="st0" d="M1509.8,1283.6c-22,0-42.8-4.9-58.5-13.7c-16.4-9.2-25.5-21.8-25.5-35.3s9-26.1,25.5-35.3
							c15.7-8.8,36.5-13.7,58.5-13.7s42.8,4.9,58.5,13.7c16.4,9.2,25.5,21.8,25.5,35.3s-9,26.1-25.5,35.3
							C1552.6,1278.7,1531.8,1283.6,1509.8,1283.6z"/>
					</g>
				</g>
				<g>
					<g>
						<path class="st3" d="M1509.8,1189.5c44.2,0,80,20.2,80,45s-35.8,45-80,45c-44.2,0-80-20.2-80-45S1465.6,1189.5,1509.8,1189.5
							 M1509.8,1181.5c-49.3,0-88,23.3-88,53s38.6,53,88,53c49.3,0,88-23.3,88-53S1559.1,1181.5,1509.8,1181.5L1509.8,1181.5z"/>
					</g>
				</g>
			</g>
		</g>
	</g>
	<g>
		<g>
			<g>
				<g>
					<g>
						<path class="st0" d="M2341.7,827.2c-45.9,0-82.7-20.9-83.9-47.7l0-0.2l-0.1-19.6c0-13.5,9-26.1,25.5-35.3
							c15.7-8.8,36.5-13.7,58.5-13.7s42.8,4.9,58.5,13.7c16.4,9.2,25.5,21.8,25.5,35.3l-0.1,19.7l0,0.1
							C2424.5,806.3,2387.6,827.2,2341.7,827.2z"/>
					</g>
				</g>
				<g>
					<g>
						<path class="st1" d="M2341.7,714.7c44.2,0,80,20.2,80,45l-0.1,19.6c-1.1,24.3-36.4,43.9-79.9,43.9
							c-43.5,0-78.8-19.5-79.9-43.9l-0.1-19.6C2261.8,734.9,2297.6,714.7,2341.7,714.7 M2341.7,706.7c-49.3,0-88,23.3-88,53
							l0.1,19.6l0,0.2l0,0.2c0.7,14.7,10.7,28.1,28.2,37.7c16.2,8.9,37.4,13.8,59.7,13.8c22.3,0,43.5-4.9,59.7-13.8
							c17.5-9.6,27.5-23,28.2-37.7l0-0.2l0-0.2l0.1-19.6C2429.7,730,2391.1,706.7,2341.7,706.7L2341.7,706.7z"/>
					</g>
				</g>
			</g>
			<g>
				<g>
					<g>
						<path class="st0" d="M2341.7,808.7c-22,0-42.8-4.9-58.5-13.7c-16.4-9.2-25.5-21.8-25.5-35.3s9-26.1,25.5-35.3
							c15.7-8.8,36.5-13.7,58.5-13.7s42.8,4.9,58.5,13.7c16.4,9.2,25.5,21.8,25.5,35.3c0,13.5-9,26.1-25.5,35.3
							C2384.6,803.9,2363.8,808.7,2341.7,808.7z"/>
					</g>
				</g>
				<g>
					<g>
						<path class="st1" d="M2341.7,714.7c44.2,0,80,20.2,80,45s-35.8,45-80,45c-44.2,0-80-20.2-80-45S2297.6,714.7,2341.7,714.7
							 M2341.7,706.7c-49.3,0-88,23.3-88,53s38.6,53,88,53s88-23.3,88-53S2391.1,706.7,2341.7,706.7L2341.7,706.7z"/>
					</g>
				</g>
			</g>
		</g>
		<g>
			<g>
				<g>
					<g>
						<path class="st0" d="M2341.7,789.7c-45.9,0-82.7-20.9-83.9-47.7l0-0.2l-0.1-19.6c0-13.5,9-26.1,25.5-35.3
							c15.7-8.8,36.5-13.7,58.5-13.7s42.8,4.9,58.5,13.7c16.4,9.2,25.5,21.8,25.5,35.3l-0.1,19.7l0,0.1
							C2424.5,768.7,2387.6,789.7,2341.7,789.7z"/>
					</g>
				</g>
				<g>
					<g>
						<path class="st1" d="M2341.7,677.2c44.2,0,80,20.2,80,45l-0.1,19.6c-1.1,24.3-36.4,43.9-79.9,43.9
							c-43.5,0-78.8-19.5-79.9-43.9l-0.1-19.6C2261.8,697.3,2297.6,677.2,2341.7,677.2 M2341.7,669.2c-49.3,0-88,23.3-88,53
							l0.1,19.6l0,0.2l0,0.2c0.7,14.7,10.7,28.1,28.2,37.7c16.2,8.9,37.4,13.8,59.7,13.8c22.3,0,43.5-4.9,59.7-13.8
							c17.5-9.6,27.5-23,28.2-37.7l0-0.2l0-0.2l0.1-19.6C2429.7,692.5,2391.1,669.2,2341.7,669.2L2341.7,669.2z"/>
					</g>
				</g>
			</g>
			<g>
				<g>
					<g>
						<path class="st0" d="M2341.7,771.2c-22,0-42.8-4.9-58.5-13.7c-16.4-9.2-25.5-21.8-25.5-35.3s9-26.1,25.5-35.3
							c15.7-8.8,36.5-13.7,58.5-13.7s42.8,4.9,58.5,13.7c16.4,9.2,25.5,21.8,25.5,35.3c0,13.5-9,26.1-25.5,35.3
							C2384.6,766.3,2363.8,771.2,2341.7,771.2z"/>
					</g>
				</g>
				<g>
					<g>
						<path class="st1" d="M2341.7,677.2c44.2,0,80,20.2,80,45c0,24.9-35.8,45-80,45c-44.2,0-80-20.2-80-45
							C2261.8,697.3,2297.6,677.2,2341.7,677.2 M2341.7,669.2c-49.3,0-88,23.3-88,53s38.6,53,88,53s88-23.3,88-53
							S2391.1,669.2,2341.7,669.2L2341.7,669.2z"/>
					</g>
				</g>
			</g>
		</g>
		<g>
			<g>
				<g>
					<g>
						<path class="st0" d="M2341.7,753.8c-45.9,0-82.7-20.9-83.9-47.7l0-0.2l-0.1-19.6c0-13.5,9-26.1,25.5-35.3
							c15.7-8.8,36.5-13.7,58.5-13.7s42.8,4.9,58.5,13.7c16.4,9.2,25.5,21.8,25.5,35.3l-0.1,19.7l0,0.1
							C2424.5,732.8,2387.6,753.8,2341.7,753.8z"/>
					</g>
				</g>
				<g>
					<g>
						<path class="st1" d="M2341.7,641.3c44.2,0,80,20.2,80,45l-0.1,19.6c-1.1,24.3-36.4,43.9-79.9,43.9
							c-43.5,0-78.8-19.5-79.9-43.9l-0.1-19.6C2261.8,661.4,2297.6,641.3,2341.7,641.3 M2341.7,633.3c-49.3,0-88,23.3-88,53
							l0.1,19.6l0,0.2l0,0.2c0.7,14.7,10.7,28.1,28.2,37.7c16.2,8.9,37.4,13.8,59.7,13.8c22.3,0,43.5-4.9,59.7-13.8
							c17.5-9.6,27.5-23,28.2-37.7l0-0.2l0-0.2l0.1-19.6C2429.7,656.6,2391.1,633.3,2341.7,633.3L2341.7,633.3z"/>
					</g>
				</g>
			</g>
			<g>
				<g>
					<g>
						<path class="st0" d="M2341.7,735.3c-22,0-42.8-4.9-58.5-13.7c-16.4-9.2-25.5-21.8-25.5-35.3c0-13.5,9-26.1,25.5-35.3
							c15.7-8.8,36.5-13.7,58.5-13.7s42.8,4.9,58.5,13.7c16.4,9.2,25.5,21.8,25.5,35.3c0,13.5-9,26.1-25.5,35.3
							C2384.6,730.4,2363.8,735.3,2341.7,735.3z"/>
					</g>
				</g>
				<g>
					<g>
						<path class="st1" d="M2341.7,641.3c44.2,0,80,20.2,80,45s-35.8,45-80,45c-44.2,0-80-20.2-80-45S2297.6,641.3,2341.7,641.3
							 M2341.7,633.3c-49.3,0-88,23.3-88,53s38.6,53,88,53s88-23.3,88-53S2391.1,633.3,2341.7,633.3L2341.7,633.3z"/>
					</g>
				</g>
			</g>
		</g>
	</g>
	<g>
		<g>
			<g>
				<g>
					<g>
						<path class="st0" d="M2448.8,952.5c-45.9,0-82.7-20.9-83.9-47.7l0-0.2l-0.1-19.6c0-13.5,9-26.1,25.5-35.3
							c15.7-8.8,36.5-13.7,58.5-13.7s42.8,4.9,58.5,13.7c16.4,9.2,25.5,21.8,25.5,35.3l-0.1,19.7l0,0.1
							C2531.5,931.5,2494.6,952.5,2448.8,952.5z"/>
					</g>
				</g>
				<g>
					<g>
						<path class="st1" d="M2448.8,840c44.2,0,80,20.2,80,45l-0.1,19.6c-1.1,24.3-36.4,43.9-79.9,43.9s-78.8-19.5-79.9-43.9
							l-0.1-19.6C2368.8,860.1,2404.6,840,2448.8,840 M2448.8,832c-49.3,0-88,23.3-88,53l0.1,19.6l0,0.2l0,0.2
							c0.7,14.7,10.7,28.1,28.2,37.7c16.2,8.9,37.4,13.8,59.7,13.8s43.5-4.9,59.7-13.8c17.5-9.6,27.5-23,28.2-37.7l0-0.2l0-0.2
							l0.1-19.6C2536.8,855.3,2498.1,832,2448.8,832L2448.8,832z"/>
					</g>
				</g>
			</g>
			<g>
				<g>
					<g>
						<path class="st0" d="M2448.8,934c-22,0-42.8-4.9-58.5-13.7c-16.4-9.2-25.5-21.8-25.5-35.3c0-13.5,9-26.1,25.5-35.3
							c15.7-8.8,36.5-13.7,58.5-13.7s42.8,4.9,58.5,13.7c16.4,9.2,25.5,21.8,25.5,35.3s-9,26.1-25.5,35.3
							C2491.6,929.1,2470.8,934,2448.8,934z"/>
					</g>
				</g>
				<g>
					<g>
						<path class="st1" d="M2448.8,840c44.2,0,80,20.2,80,45s-35.8,45-80,45s-80-20.2-80-45S2404.6,840,2448.8,840 M2448.8,832
							c-49.3,0-88,23.3-88,53s38.6,53,88,53s88-23.3,88-53S2498.1,832,2448.8,832L2448.8,832z"/>
					</g>
				</g>
			</g>
		</g>
		<g>
			<g>
				<g>
					<g>
						<path class="st0" d="M2448.8,914.9c-45.9,0-82.7-20.9-83.9-47.7l0-0.2l-0.1-19.6c0-13.5,9-26.1,25.5-35.3
							c15.7-8.8,36.5-13.7,58.5-13.7s42.8,4.9,58.5,13.7c16.4,9.2,25.5,21.8,25.5,35.3l-0.1,19.7l0,0.1
							C2531.5,894,2494.6,914.9,2448.8,914.9z"/>
					</g>
				</g>
				<g>
					<g>
						<path class="st1" d="M2448.8,802.4c44.2,0,80,20.2,80,45l-0.1,19.6c-1.1,24.3-36.4,43.9-79.9,43.9s-78.8-19.5-79.9-43.9
							l-0.1-19.6C2368.8,822.6,2404.6,802.4,2448.8,802.4 M2448.8,794.4c-49.3,0-88,23.3-88,53l0.1,19.6l0,0.2l0,0.2
							c0.7,14.7,10.7,28.1,28.2,37.7c16.2,8.9,37.4,13.8,59.7,13.8s43.5-4.9,59.7-13.8c17.5-9.6,27.5-23,28.2-37.7l0-0.2l0-0.2
							l0.1-19.6C2536.8,817.7,2498.1,794.4,2448.8,794.4L2448.8,794.4z"/>
					</g>
				</g>
			</g>
			<g>
				<g>
					<g>
						<path class="st0" d="M2448.8,896.5c-22,0-42.8-4.9-58.5-13.7c-16.4-9.2-25.5-21.8-25.5-35.3c0-13.5,9-26.1,25.5-35.3
							c15.7-8.8,36.5-13.7,58.5-13.7s42.8,4.9,58.5,13.7c16.4,9.2,25.5,21.8,25.5,35.3c0,13.5-9,26.1-25.5,35.3
							C2491.6,891.6,2470.8,896.5,2448.8,896.5z"/>
					</g>
				</g>
				<g>
					<g>
						<path class="st1" d="M2448.8,802.4c44.2,0,80,20.2,80,45s-35.8,45-80,45s-80-20.2-80-45S2404.6,802.4,2448.8,802.4
							 M2448.8,794.4c-49.3,0-88,23.3-88,53s38.6,53,88,53s88-23.3,88-53S2498.1,794.4,2448.8,794.4L2448.8,794.4z"/>
					</g>
				</g>
			</g>
		</g>
		<g>
			<g>
				<g>
					<g>
						<path class="st0" d="M2448.8,879c-45.9,0-82.7-20.9-83.9-47.7l0-0.2l-0.1-19.6c0-13.5,9-26.1,25.5-35.3
							c15.7-8.8,36.5-13.7,58.5-13.7s42.8,4.9,58.5,13.7c16.4,9.2,25.5,21.8,25.5,35.3l-0.1,19.7l0,0.1
							C2531.5,858.1,2494.6,879,2448.8,879z"/>
					</g>
				</g>
				<g>
					<g>
						<path class="st1" d="M2448.8,766.5c44.2,0,80,20.2,80,45l-0.1,19.6c-1.1,24.3-36.4,43.9-79.9,43.9s-78.8-19.5-79.9-43.9
							l-0.1-19.6C2368.8,786.7,2404.6,766.5,2448.8,766.5 M2448.8,758.5c-49.3,0-88,23.3-88,53l0.1,19.6l0,0.2l0,0.2
							c0.7,14.7,10.7,28.1,28.2,37.7c16.2,8.9,37.4,13.8,59.7,13.8s43.5-4.9,59.7-13.8c17.5-9.6,27.5-23,28.2-37.7l0-0.2l0-0.2
							l0.1-19.6C2536.8,781.8,2498.1,758.5,2448.8,758.5L2448.8,758.5z"/>
					</g>
				</g>
			</g>
			<g>
				<g>
					<g>
						<path class="st0" d="M2448.8,860.6c-22,0-42.8-4.9-58.5-13.7c-16.4-9.2-25.5-21.8-25.5-35.3c0-13.5,9-26.1,25.5-35.3
							c15.7-8.8,36.5-13.7,58.5-13.7s42.8,4.9,58.5,13.7c16.4,9.2,25.5,21.8,25.5,35.3s-9,26.1-25.5,35.3
							C2491.6,855.7,2470.8,860.6,2448.8,860.6z"/>
					</g>
				</g>
				<g>
					<g>
						<path class="st1" d="M2448.8,766.5c44.2,0,80,20.2,80,45s-35.8,45-80,45s-80-20.2-80-45S2404.6,766.5,2448.8,766.5
							 M2448.8,758.5c-49.3,0-88,23.3-88,53s38.6,53,88,53s88-23.3,88-53S2498.1,758.5,2448.8,758.5L2448.8,758.5z"/>
					</g>
				</g>
			</g>
		</g>
	</g>
	<g>
		<path class="st1" d="M2800,806.7c-8.8,0-17.7-0.3-26.6-0.8c-9-0.6-16.8-1.7-23.5-3.5V640.8c3.5-0.6,7.3-1.2,11.3-1.8
			c4-0.6,8.1-1,12.2-1.3c4.2-0.3,8.3-0.6,12.4-0.7c4.1-0.2,8-0.2,11.6-0.2c10.1,0,19.4,0.8,28.1,2.3c8.6,1.5,16.1,4,22.4,7.6
			c6.3,3.5,11.2,8.2,14.8,13.9c3.5,5.8,5.3,12.9,5.3,21.4c0,7.8-1.9,14.6-5.6,20.2c-3.8,5.6-9,10.1-15.7,13.4
			c10.1,3.4,17.5,8.3,22.3,14.9c4.8,6.6,7.2,14.9,7.2,25c0,17.1-6.2,30-18.7,38.5C2844.9,802.4,2825.8,806.7,2800,806.7z
			 M2779.6,706.1h21.4c11.5,0,20.6-1.6,27.1-4.9c6.6-3.3,9.8-9.2,9.8-17.6c0-8-3.4-13.7-10.2-17c-6.8-3.4-15.6-5-26.5-5
			c-4.6,0-8.8,0.1-12.4,0.2c-3.6,0.2-6.7,0.4-9.2,0.7V706.1z M2779.6,729.9v50.6c3.4,0.3,7,0.6,10.8,0.7c3.8,0.2,7.4,0.2,10.6,0.2
			c6.2,0,12-0.4,17.4-1.2c5.4-0.8,10-2.2,13.9-4.2c3.9-2,7-4.7,9.4-8c2.3-3.4,3.5-7.7,3.5-13c0-9.4-3.4-16-10.3-19.7
			c-6.9-3.7-16.4-5.5-28.6-5.5H2779.6z"/>
	</g>
	<g>
		<path class="st3" d="M1079.2,1443.8c-2.2-6.6-4.6-13-7-19.4c-2.4-6.4-4.7-13-7-19.7H995c-2.2,6.7-4.5,13.3-6.9,19.8
			c-2.3,6.5-4.6,12.9-6.9,19.3h-31.4c6.2-17.8,12.1-34.2,17.7-49.2c5.6-15,11.1-29.3,16.4-42.7s10.7-26.2,15.9-38.4
			c5.3-12.2,10.7-24.2,16.3-36h28.9c5.6,11.8,11,23.8,16.3,36c5.3,12.2,10.6,25,16,38.4s10.9,27.7,16.6,42.7
			c5.7,15,11.6,31.4,17.9,49.2H1079.2z M1030.2,1309.6c-3.7,8.5-7.9,18.8-12.6,31c-4.7,12.2-9.6,25.4-14.8,39.6h54.7
			c-5.1-14.2-10.1-27.5-14.9-39.8C1037.8,1328,1033.7,1317.8,1030.2,1309.6z"/>
	</g>
</g>
</svg>
