<?xml version="1.0" encoding="utf-8"?>
<!-- Generator: Adobe Illustrator 22.1.0, SVG Export Plug-In . SVG Version: 6.00 Build 0)  -->
<svg version="1.1" id="Layer_1" xmlns="http://www.w3.org/2000/svg" xmlns:xlink="http://www.w3.org/1999/xlink" x="0px" y="0px"
	 viewBox="0 0 3840 2160" style="enable-background:new 0 0 3840 2160;" xml:space="preserve">
<style type="text/css">
	.st0{fill:#FFFFFF;}
	.st1{fill:#149ADD;}
	.st2{fill:#6FD89E;}
	.st3{fill:#3232CC;}
	.st4{fill-rule:evenodd;clip-rule:evenodd;fill:#FFFFFF;}
	.st5{fill-rule:evenodd;clip-rule:evenodd;fill:#3232CC;}
</style>
<g>
	<g>
		<g>
			<g>
				<g>
					<g>
						<polygon class="st0" points="2408.5,1254.9 2007,808 2007,696.3 2408.5,249.4 3209.6,249.4 3611,696.3 3611,808 
							3209.6,1254.9 						"/>
					</g>
				</g>
				<g>
					<g>
						<path class="st1" d="M3206,257.4l397,442V805l-397,442h-794h0l-397-442V699.4l397-442H3206 M3213.2,241.4h-7.1h-794h-7.1
							l-4.8,5.3l-397,442l-4.1,4.6v6.1V805v6.1l4.1,4.6l397,442l4.8,5.3h7.1h794h7.1l4.8-5.3l397-442l4.1-4.6V805V699.4v-6.1
							l-4.1-4.6l-397-442L3213.2,241.4L3213.2,241.4z"/>
					</g>
				</g>
			</g>
			<g>
				<path class="st1" d="M3206,257.4l397,442V805l-397,442h-794l-397-442V699.4l397-442H3206 M3209.6,249.4h-3.6h-794h-3.6l-2.4,2.7
					l-397,442l-2,2.3v3.1V805v3.1l2,2.3l397,442l2.4,2.7h3.6h794h3.6l2.4-2.7l397-442l2-2.3V805V699.4v-3.1l-2-2.3l-397-442
					L3209.6,249.4L3209.6,249.4z"/>
			</g>
			<g>
				<line class="st0" x1="2809" y1="752.2" x2="2809" y2="752.2"/>
				<path class="st1" d="M2809,752.2"/>
			</g>
			<g>
				<g>
					<line class="st2" x1="2809" y1="752.2" x2="2809" y2="752.2"/>
					<path class="st1" d="M2809,752.2"/>
				</g>
			</g>
			<g>
				<g>
					<path class="st0" d="M2410.2,1145.3l-400.6-446l400.6-446h797.6l400.6,446l-400.6,446H2410.2z M3173.9,1069.2l332.2-369.8
						l-332.2-369.8h-729.7L2112,699.4l332.2,369.8H3173.9z"/>
				</g>
				<g>
					<path class="st1" d="M3206,257.4l397,442l-397,442h-794l-397-442l397-442H3206 M2442.4,1073.2h733.3l335.8-373.8l-335.8-373.8
						h-733.3l-335.8,373.8L2442.4,1073.2 M3209.6,249.4h-3.6h-794h-3.6l-2.4,2.7l-397,442l-4.8,5.3l4.8,5.3l397,442l2.4,2.7h3.6h794
						h3.6l2.4-2.7l397-442l4.8-5.3l-4.8-5.3l-397-442L3209.6,249.4L3209.6,249.4z M2446,333.5h726.1l328.6,365.8l-328.6,365.8H2446
						l-328.6-365.8L2446,333.5L2446,333.5z"/>
				</g>
			</g>
			<g>
				<g>
					<rect x="2406.9" y="1144.7" class="st1" width="8" height="105.6"/>
				</g>
				<g>
					<rect x="3203.1" y="1144.7" class="st1" width="8" height="105.6"/>
				</g>
			</g>
		</g>
	</g>
	<g>
		<g>
			<g>
				<polygon class="st0" points="2169.4,910.9 2084.5,817 1506.3,1017.8 1506.3,1048.6 1591.2,1142.4 2169.4,941.7 				"/>
				<path class="st3" d="M1590,1147.1l-87.7-96.9v-35.2l2.7-0.9l580.8-201.6l87.7,96.9v35.2l-2.7,0.9L1590,1147.1z M1510.3,1047
					l82.1,90.7l573.1-199v-26.4l-82.1-90.7l-573.1,199V1047z"/>
			</g>
			<g>
				<path class="st3" d="M1588.8,1151.7l-90.5-100.1v-39.6l588.7-204.4l90.5,100.1v39.6L1588.8,1151.7z M1514.3,1045.5l79.3,87.6
					L2161.4,936v-22l-79.3-87.6l-567.9,197.1V1045.5z"/>
			</g>
			<g>
				<polygon class="st0" points="2084.5,817 1506.3,1017.8 1591.2,1111.6 2169.4,910.9 				"/>
				<path class="st3" d="M1590,1116.3l-90.7-100.3l586.5-203.6l90.7,100.3L1590,1116.3z M1513.3,1019.6l79.1,87.4l570.1-197.9
					l-79.1-87.4L1513.3,1019.6z"/>
			</g>
		</g>
	</g>
	<g>
		<g>
			<g>
				<polygon class="st0" points="2331.4,1092.9 2246.5,999 1668.3,1199.8 1668.3,1230.6 1753.2,1324.4 2331.4,1123.7 				"/>
				<path class="st1" d="M1752,1329.1l-87.7-96.9v-35.2l2.7-0.9l580.8-201.6l87.7,96.9v35.2l-2.7,0.9L1752,1329.1z M1672.3,1229
					l82.1,90.7l573.1-199v-26.4l-82.1-90.7l-573.1,199V1229z"/>
			</g>
			<g>
				<path class="st1" d="M1750.8,1333.7l-90.5-100.1v-39.6l588.7-204.4l90.5,100.1v39.6L1750.8,1333.7z M1676.3,1227.5l79.3,87.6
					l567.9-197.1v-22l-79.3-87.6l-567.9,197.1V1227.5z"/>
			</g>
			<g>
				<polygon class="st0" points="2246.5,999 1668.3,1199.8 1753.2,1293.6 2331.4,1092.9 				"/>
				<path class="st1" d="M1752,1298.3l-90.7-100.3l586.5-203.6l90.7,100.3L1752,1298.3z M1675.3,1201.6l79.1,87.4l570.1-197.9
					l-79.1-87.4L1675.3,1201.6z"/>
			</g>
		</g>
	</g>
	<g>
		<g>
			<g>
				<g>
					<g>
						<polygon class="st0" points="630.4,1910.6 229,1463.7 229,1352 630.4,905.1 1431.5,905.1 1833,1352 1833,1463.7 
							1431.5,1910.6 						"/>
					</g>
				</g>
				<g>
					<g>
						<path class="st3" d="M1428,913.1l397,442v105.6l-397,442H634l-397-442V1355l397-442H1428 M1435.1,897.1h-7.1H634h-7.1
							l-4.8,5.3l-397,442l-4.1,4.6v6.1v105.6v6.1l4.1,4.6l397,442l4.8,5.3h7.1h794h7.1l4.8-5.3l397-442l4.1-4.6v-6.1V1355v-6.1
							l-4.1-4.6l-397-442L1435.1,897.1L1435.1,897.1z"/>
					</g>
				</g>
			</g>
			<g>
				<path class="st3" d="M1428,913.1l397,442v105.6l-397,442H634l-397-442V1355l397-442H1428 M1431.5,905.1h-3.6H634h-3.6l-2.4,2.7
					l-397,442l-2,2.3v3.1v105.6v3.1l2,2.3l397,442l2.4,2.7h3.6h794h3.6l2.4-2.7l397-442l2-2.3v-3.1V1355v-3.1l-2-2.3l-397-442
					L1431.5,905.1L1431.5,905.1z"/>
			</g>
			<g>
				<line class="st0" x1="1031" y1="1407.8" x2="1031" y2="1407.8"/>
				<path class="st3" d="M1031,1407.8"/>
			</g>
			<g>
				<g>
					<line class="st2" x1="1031" y1="1407.8" x2="1031" y2="1407.8"/>
					<path class="st3" d="M1031,1407.8"/>
				</g>
			</g>
			<g>
				<g>
					<path class="st0" d="M632.2,1801l-400.6-446l400.6-446h797.6l400.6,446l-400.6,446H632.2z M1395.8,1724.9L1728,1355
						l-332.2-369.8H666.1L333.9,1355l332.2,369.8H1395.8z"/>
				</g>
				<g>
					<path class="st3" d="M1428,913.1l397,442l-397,442H634l-397-442l397-442H1428 M664.3,1728.9h733.3l335.8-373.8l-335.8-373.8
						H664.3L328.5,1355L664.3,1728.9 M1431.5,905.1h-3.6H634h-3.6l-2.4,2.7l-397,442l-4.8,5.3l4.8,5.3l397,442l2.4,2.7h3.6h794h3.6
						l2.4-2.7l397-442l4.8-5.3l-4.8-5.3l-397-442L1431.5,905.1L1431.5,905.1z M667.9,989.2H1394l328.6,365.8L1394,1720.9H667.9
						L339.3,1355L667.9,989.2L667.9,989.2z"/>
				</g>
			</g>
			<g>
				<g>
					<rect x="628.9" y="1800.4" class="st3" width="8" height="105.6"/>
				</g>
				<g>
					<rect x="1425.1" y="1800.4" class="st3" width="8" height="105.6"/>
				</g>
			</g>
		</g>
	</g>
	<g>
		<g>
			
				<rect x="1861" y="1164.9" transform="matrix(0.9461 -0.3238 0.3238 0.9461 -276.8721 685.899)" class="st1" width="123" height="20"/>
		</g>
		<g>
			<g>
				<polygon class="st1" points="1863.2,1169.9 1831.8,1206 1878.7,1215.2 				"/>
			</g>
		</g>
	</g>
	<g>
		<g>
			<g>
				<g>
					<path class="st0" d="M1402.7,1251.9c-45.9,0-82.7-20.9-83.9-47.7l0-0.2l-0.1-19.6c0-13.5,9-26.1,25.5-35.3
						c15.7-8.8,36.5-13.7,58.5-13.7s42.8,4.9,58.5,13.7c16.4,9.2,25.5,21.8,25.5,35.3l-0.1,19.7l0,0.1
						C1485.5,1231,1448.6,1251.9,1402.7,1251.9z"/>
				</g>
				<g>
					<path class="st3" d="M1402.7,1139.4c44.2,0,80,20.2,80,45l-0.1,19.6c-1.1,24.3-36.4,43.9-79.9,43.9
						c-43.5,0-78.8-19.5-79.9-43.9l-0.1-19.6C1322.8,1159.6,1358.6,1139.4,1402.7,1139.4 M1402.7,1131.4c-49.3,0-88,23.3-88,53
						l0.1,19.6l0,0.2l0,0.2c0.7,14.7,10.7,28.1,28.2,37.7c16.2,8.9,37.4,13.8,59.7,13.8c22.3,0,43.5-4.9,59.7-13.8
						c17.5-9.6,27.5-23,28.2-37.7l0-0.2l0-0.2l0.1-19.6C1490.7,1154.7,1452.1,1131.4,1402.7,1131.4L1402.7,1131.4z"/>
				</g>
			</g>
			<g>
				<g>
					<path class="st0" d="M1402.7,1233.5c-22,0-42.8-4.9-58.5-13.7c-16.4-9.2-25.5-21.8-25.5-35.3s9-26.1,25.5-35.3
						c15.7-8.8,36.5-13.7,58.5-13.7s42.8,4.9,58.5,13.7c16.4,9.2,25.5,21.8,25.5,35.3s-9,26.1-25.5,35.3
						C1445.6,1228.6,1424.8,1233.5,1402.7,1233.5z"/>
				</g>
				<g>
					<path class="st3" d="M1402.7,1139.4c44.2,0,80,20.2,80,45c0,24.9-35.8,45-80,45c-44.2,0-80-20.2-80-45
						C1322.8,1159.6,1358.6,1139.4,1402.7,1139.4 M1402.7,1131.4c-49.3,0-88,23.3-88,53s38.6,53,88,53c49.3,0,88-23.3,88-53
						S1452.1,1131.4,1402.7,1131.4L1402.7,1131.4z"/>
				</g>
			</g>
		</g>
		<g>
			<g>
				<g>
					<path class="st0" d="M1402.7,1214.4c-45.9,0-82.7-20.9-83.9-47.7l0-0.2l-0.1-19.6c0-13.5,9-26.1,25.5-35.3
						c15.7-8.8,36.5-13.7,58.5-13.7s42.8,4.9,58.5,13.7c16.4,9.2,25.5,21.8,25.5,35.3l-0.1,19.7l0,0.1
						C1485.5,1193.4,1448.6,1214.4,1402.7,1214.4z"/>
				</g>
				<g>
					<path class="st3" d="M1402.7,1101.9c44.2,0,80,20.2,80,45l-0.1,19.6c-1.1,24.3-36.4,43.9-79.9,43.9
						c-43.5,0-78.8-19.5-79.9-43.9l-0.1-19.6C1322.8,1122,1358.6,1101.9,1402.7,1101.9 M1402.7,1093.9c-49.3,0-88,23.3-88,53
						l0.1,19.6l0,0.2l0,0.2c0.7,14.7,10.7,28.1,28.2,37.7c16.2,8.9,37.4,13.8,59.7,13.8c22.3,0,43.5-4.9,59.7-13.8
						c17.5-9.6,27.5-23,28.2-37.7l0-0.2l0-0.2l0.1-19.6C1490.7,1117.2,1452.1,1093.9,1402.7,1093.9L1402.7,1093.9z"/>
				</g>
			</g>
			<g>
				<g>
					<path class="st0" d="M1402.7,1195.9c-22,0-42.8-4.9-58.5-13.7c-16.4-9.2-25.5-21.8-25.5-35.3s9-26.1,25.5-35.3
						c15.7-8.8,36.5-13.7,58.5-13.7s42.8,4.9,58.5,13.7c16.4,9.2,25.5,21.8,25.5,35.3s-9,26.1-25.5,35.3
						C1445.6,1191,1424.8,1195.9,1402.7,1195.9z"/>
				</g>
				<g>
					<path class="st3" d="M1402.7,1101.9c44.2,0,80,20.2,80,45c0,24.9-35.8,45-80,45c-44.2,0-80-20.2-80-45
						C1322.8,1122,1358.6,1101.9,1402.7,1101.9 M1402.7,1093.9c-49.3,0-88,23.3-88,53s38.6,53,88,53c49.3,0,88-23.3,88-53
						S1452.1,1093.9,1402.7,1093.9L1402.7,1093.9z"/>
				</g>
			</g>
		</g>
		<g>
			<g>
				<g>
					<path class="st0" d="M1402.7,1178.5c-45.9,0-82.7-20.9-83.9-47.7l0-0.2l-0.1-19.6c0-13.5,9-26.1,25.5-35.3
						c15.7-8.8,36.5-13.7,58.5-13.7s42.8,4.9,58.5,13.7c16.4,9.2,25.5,21.8,25.5,35.3l-0.1,19.7l0,0.1
						C1485.5,1157.5,1448.6,1178.5,1402.7,1178.5z"/>
				</g>
				<g>
					<path class="st3" d="M1402.7,1066c44.2,0,80,20.2,80,45l-0.1,19.6c-1.1,24.3-36.4,43.9-79.9,43.9c-43.5,0-78.8-19.5-79.9-43.9
						l-0.1-19.6C1322.8,1086.1,1358.6,1066,1402.7,1066 M1402.7,1058c-49.3,0-88,23.3-88,53l0.1,19.6l0,0.2l0,0.2
						c0.7,14.7,10.7,28.1,28.2,37.7c16.2,8.9,37.4,13.8,59.7,13.8c22.3,0,43.5-4.9,59.7-13.8c17.5-9.6,27.5-23,28.2-37.7l0-0.2
						l0-0.2l0.1-19.6C1490.7,1081.3,1452.1,1058,1402.7,1058L1402.7,1058z"/>
				</g>
			</g>
			<g>
				<g>
					<path class="st0" d="M1402.7,1160c-22,0-42.8-4.9-58.5-13.7c-16.4-9.2-25.5-21.8-25.5-35.3s9-26.1,25.5-35.3
						c15.7-8.8,36.5-13.7,58.5-13.7s42.8,4.9,58.5,13.7c16.4,9.2,25.5,21.8,25.5,35.3s-9,26.1-25.5,35.3
						C1445.6,1155.1,1424.8,1160,1402.7,1160z"/>
				</g>
				<g>
					<path class="st3" d="M1402.7,1066c44.2,0,80,20.2,80,45s-35.8,45-80,45c-44.2,0-80-20.2-80-45S1358.6,1066,1402.7,1066
						 M1402.7,1058c-49.3,0-88,23.3-88,53s38.6,53,88,53c49.3,0,88-23.3,88-53S1452.1,1058,1402.7,1058L1402.7,1058z"/>
				</g>
			</g>
		</g>
	</g>
	<g>
		<g>
			<path class="st4" d="M1311.4,1361.3h-122.5c-6.3,0-11.4-5.1-11.4-11.4v-84.5c0-6.3,5.1-11.4,11.4-11.4h122.5
				c6.3,0,11.4,5.1,11.4,11.4v84.5C1322.8,1356.2,1317.7,1361.3,1311.4,1361.3z"/>
			<path class="st3" d="M1311.4,1369.3h-122.5c-10.7,0-19.4-8.7-19.4-19.4v-84.5c0-10.7,8.7-19.4,19.4-19.4h122.5
				c10.7,0,19.4,8.7,19.4,19.4v84.5C1330.8,1360.6,1322.1,1369.3,1311.4,1369.3z M1188.9,1262c-1.9,0-3.4,1.5-3.4,3.4v84.5
				c0,1.9,1.5,3.4,3.4,3.4h122.5c1.9,0,3.4-1.5,3.4-3.4v-84.5c0-1.9-1.5-3.4-3.4-3.4H1188.9z"/>
		</g>
		<g>
			<path class="st3" d="M1296.9,1244.1h-16v-12.4c0-17-13.8-30.8-30.8-30.8s-30.8,13.8-30.8,30.8v12.4h-16v-12.4
				c0-25.8,21-46.8,46.8-46.8s46.8,21,46.8,46.8V1244.1z"/>
		</g>
		<g>
			<circle class="st5" cx="1250.1" cy="1292.8" r="15.7"/>
		</g>
		<g>
			<rect x="1242.7" y="1298.6" class="st5" width="14.9" height="36.3"/>
		</g>
	</g>
	<g>
		<g>
			<g>
				<g>
					<path class="st0" d="M1509.8,1377.2c-45.9,0-82.7-20.9-83.9-47.7l0-0.2l-0.1-19.6c0-13.5,9-26.1,25.5-35.3
						c15.7-8.8,36.5-13.7,58.5-13.7s42.8,4.9,58.5,13.7c16.4,9.2,25.5,21.8,25.5,35.3l-0.1,19.7l0,0.1
						C1592.5,1356.2,1555.6,1377.2,1509.8,1377.2z"/>
				</g>
				<g>
					<path class="st3" d="M1509.8,1264.7c44.2,0,80,20.2,80,45l-0.1,19.6c-1.1,24.3-36.4,43.9-79.9,43.9s-78.8-19.5-79.9-43.9
						l-0.1-19.6C1429.8,1284.8,1465.6,1264.7,1509.8,1264.7 M1509.8,1256.7c-49.3,0-88,23.3-88,53l0.1,19.6l0,0.2l0,0.2
						c0.7,14.7,10.7,28.1,28.2,37.7c16.2,8.9,37.4,13.8,59.7,13.8c22.3,0,43.5-4.9,59.7-13.8c17.5-9.6,27.5-23,28.2-37.7l0-0.2
						l0-0.2l0.1-19.6C1597.8,1280,1559.1,1256.7,1509.8,1256.7L1509.8,1256.7z"/>
				</g>
			</g>
			<g>
				<g>
					<path class="st0" d="M1509.8,1358.7c-22,0-42.8-4.9-58.5-13.7c-16.4-9.2-25.5-21.8-25.5-35.3s9-26.1,25.5-35.3
						c15.7-8.8,36.5-13.7,58.5-13.7s42.8,4.9,58.5,13.7c16.4,9.2,25.5,21.8,25.5,35.3s-9,26.1-25.5,35.3
						C1552.6,1353.9,1531.8,1358.7,1509.8,1358.7z"/>
				</g>
				<g>
					<path class="st3" d="M1509.8,1264.7c44.2,0,80,20.2,80,45c0,24.9-35.8,45-80,45s-80-20.2-80-45
						C1429.8,1284.8,1465.6,1264.7,1509.8,1264.7 M1509.8,1256.7c-49.3,0-88,23.3-88,53s38.6,53,88,53s88-23.3,88-53
						S1559.1,1256.7,1509.8,1256.7L1509.8,1256.7z"/>
				</g>
			</g>
		</g>
		<g>
			<g>
				<g>
					<path class="st0" d="M1509.8,1339.6c-45.9,0-82.7-20.9-83.9-47.7l0-0.2l-0.1-19.6c0-13.5,9-26.1,25.5-35.3
						c15.7-8.8,36.5-13.7,58.5-13.7s42.8,4.9,58.5,13.7c16.4,9.2,25.5,21.8,25.5,35.3l-0.1,19.7l0,0.1
						C1592.5,1318.7,1555.6,1339.6,1509.8,1339.6z"/>
				</g>
				<g>
					<path class="st3" d="M1509.8,1227.1c44.2,0,80,20.2,80,45l-0.1,19.6c-1.1,24.3-36.4,43.9-79.9,43.9s-78.8-19.5-79.9-43.9
						l-0.1-19.6C1429.8,1247.3,1465.6,1227.1,1509.8,1227.1 M1509.8,1219.1c-49.3,0-88,23.3-88,53l0.1,19.6l0,0.2l0,0.2
						c0.7,14.7,10.7,28.1,28.2,37.7c16.2,8.9,37.4,13.8,59.7,13.8s43.5-4.9,59.7-13.8c17.5-9.6,27.5-23,28.2-37.7l0-0.2l0-0.2
						l0.1-19.6C1597.8,1242.4,1559.1,1219.1,1509.8,1219.1L1509.8,1219.1z"/>
				</g>
			</g>
			<g>
				<g>
					<path class="st0" d="M1509.8,1321.2c-22,0-42.8-4.9-58.5-13.7c-16.4-9.2-25.5-21.8-25.5-35.3s9-26.1,25.5-35.3
						c15.7-8.8,36.5-13.7,58.5-13.7s42.8,4.9,58.5,13.7c16.4,9.2,25.5,21.8,25.5,35.3s-9,26.1-25.5,35.3
						C1552.6,1316.3,1531.8,1321.2,1509.8,1321.2z"/>
				</g>
				<g>
					<path class="st3" d="M1509.8,1227.1c44.2,0,80,20.2,80,45c0,24.9-35.8,45-80,45s-80-20.2-80-45
						C1429.8,1247.3,1465.6,1227.1,1509.8,1227.1 M1509.8,1219.1c-49.3,0-88,23.3-88,53s38.6,53,88,53s88-23.3,88-53
						S1559.1,1219.1,1509.8,1219.1L1509.8,1219.1z"/>
				</g>
			</g>
		</g>
		<g>
			<g>
				<g>
					<path class="st0" d="M1509.8,1303.7c-45.9,0-82.7-20.9-83.9-47.7l0-0.2l-0.1-19.6c0-13.5,9-26.1,25.5-35.3
						c15.7-8.8,36.5-13.7,58.5-13.7s42.8,4.9,58.5,13.7c16.4,9.2,25.5,21.8,25.5,35.3l-0.1,19.7l0,0.1
						C1592.5,1282.8,1555.6,1303.7,1509.8,1303.7z"/>
				</g>
				<g>
					<path class="st3" d="M1509.8,1191.2c44.2,0,80,20.2,80,45l-0.1,19.6c-1.1,24.3-36.4,43.9-79.9,43.9s-78.8-19.5-79.9-43.9
						l-0.1-19.6C1429.8,1211.4,1465.6,1191.2,1509.8,1191.2 M1509.8,1183.2c-49.3,0-88,23.3-88,53l0.1,19.6l0,0.2l0,0.2
						c0.7,14.7,10.7,28.1,28.2,37.7c16.2,8.9,37.4,13.8,59.7,13.8c22.3,0,43.5-4.9,59.7-13.8c17.5-9.6,27.5-23,28.2-37.7l0-0.2
						l0-0.2l0.1-19.6C1597.8,1206.5,1559.1,1183.2,1509.8,1183.2L1509.8,1183.2z"/>
				</g>
			</g>
			<g>
				<g>
					<path class="st0" d="M1509.8,1285.3c-22,0-42.8-4.9-58.5-13.7c-16.4-9.2-25.5-21.8-25.5-35.3s9-26.1,25.5-35.3
						c15.7-8.8,36.5-13.7,58.5-13.7s42.8,4.9,58.5,13.7c16.4,9.2,25.5,21.8,25.5,35.3s-9,26.1-25.5,35.3
						C1552.6,1280.4,1531.8,1285.3,1509.8,1285.3z"/>
				</g>
				<g>
					<path class="st3" d="M1509.8,1191.2c44.2,0,80,20.2,80,45c0,24.9-35.8,45-80,45s-80-20.2-80-45
						C1429.8,1211.4,1465.6,1191.2,1509.8,1191.2 M1509.8,1183.2c-49.3,0-88,23.3-88,53s38.6,53,88,53s88-23.3,88-53
						S1559.1,1183.2,1509.8,1183.2L1509.8,1183.2z"/>
				</g>
			</g>
		</g>
	</g>
	<g>
		<path class="st1" d="M2800,808.4c-8.8,0-17.7-0.3-26.6-0.8c-9-0.6-16.8-1.7-23.5-3.5V642.6c3.5-0.6,7.3-1.2,11.3-1.8
			c4-0.6,8.1-1,12.2-1.3c4.2-0.3,8.3-0.6,12.4-0.7c4.1-0.2,8-0.2,11.6-0.2c10.1,0,19.4,0.8,28.1,2.3c8.6,1.5,16.1,4,22.4,7.6
			c6.3,3.5,11.2,8.2,14.8,13.9c3.5,5.8,5.3,12.9,5.3,21.4c0,7.8-1.9,14.6-5.6,20.2c-3.8,5.6-9,10.1-15.7,13.4
			c10.1,3.4,17.5,8.3,22.3,14.9c4.8,6.6,7.2,14.9,7.2,25c0,17.1-6.2,30-18.7,38.5C2844.9,804.1,2825.8,808.4,2800,808.4z
			 M2779.6,707.8h21.4c11.5,0,20.6-1.6,27.1-4.9c6.6-3.3,9.8-9.2,9.8-17.6c0-8-3.4-13.7-10.2-17c-6.8-3.4-15.6-5-26.5-5
			c-4.6,0-8.8,0.1-12.4,0.2c-3.6,0.2-6.7,0.4-9.2,0.7V707.8z M2779.6,731.6v50.6c3.4,0.3,7,0.6,10.8,0.7c3.8,0.2,7.4,0.2,10.6,0.2
			c6.2,0,12-0.4,17.4-1.2c5.4-0.8,10-2.2,13.9-4.2c3.9-2,7-4.7,9.4-8c2.3-3.4,3.5-7.7,3.5-13c0-9.4-3.4-16-10.3-19.7
			c-6.9-3.7-16.4-5.5-28.6-5.5H2779.6z"/>
	</g>
	<g>
		<path class="st3" d="M1079.2,1445.5c-2.2-6.6-4.6-13-7-19.4c-2.4-6.4-4.7-13-7-19.7H995c-2.2,6.7-4.5,13.3-6.9,19.8
			c-2.3,6.5-4.6,12.9-6.9,19.3h-31.4c6.2-17.8,12.2-34.2,17.7-49.2c5.6-15,11.1-29.3,16.4-42.7c5.4-13.4,10.7-26.2,15.9-38.4
			c5.3-12.2,10.7-24.2,16.3-36h28.9c5.6,11.8,11,23.8,16.3,36c5.3,12.2,10.6,25,16,38.4c5.4,13.4,10.9,27.7,16.6,42.7
			c5.7,15,11.6,31.4,17.9,49.2H1079.2z M1030.2,1311.3c-3.7,8.5-7.9,18.8-12.6,31c-4.7,12.2-9.6,25.4-14.8,39.6h54.7
			c-5.1-14.2-10.1-27.5-14.9-39.8C1037.8,1329.7,1033.7,1319.5,1030.2,1311.3z"/>
	</g>
	<g>
		<g>
			<path class="st0" d="M2183.5,1055.5l-140.9,49.4c-10.1,3.6-13.4,16.3-6.2,24.2l19.9,19.8c8.1,8.9,20.8,12.2,32.2,8.2l140.9-49.4
				c10.1-3.6,13.4-16.3,6.2-24.2l-19.9-19.8C2207.6,1054.7,2194.9,1051.5,2183.5,1055.5z"/>
			<path class="st1" d="M2078.6,1162.8c-9.4,0-18.5-3.9-25.1-11.1l-20-19.9c-4.3-4.7-5.9-11.2-4.3-17.4c1.6-6.2,6.1-11.1,12.1-13.2
				l140.9-49.4c12.9-4.5,27.2-0.9,36.4,9.2l20,19.9c4.3,4.7,5.9,11.2,4.3,17.4c-1.6,6.2-6.1,11.1-12.1,13.2l-140.9,49.4
				C2086.2,1162.1,2082.4,1162.8,2078.6,1162.8z M2039.4,1126.3l20,19.9c7,7.8,18,10.6,27.9,7.1l140.9-49.4c3.5-1.2,6.1-4,7-7.7
				c0.9-3.6,0-7.2-2.4-10l-20-19.9c-7-7.8-18-10.6-27.9-7.1l-140.9,49.4c-3.5,1.2-6.1,4-7,7.7
				C2036,1119.9,2036.9,1123.6,2039.4,1126.3z"/>
		</g>
		<g>
			<path class="st0" d="M2183.5,1038.5l-140.9,49.4c-10.1,3.6-13.4,16.3-6.2,24.2l19.9,19.8c8.1,8.9,20.8,12.2,32.2,8.2l140.9-49.4
				c10.1-3.6,13.4-16.3,6.2-24.2l-19.9-19.8C2207.6,1037.7,2194.9,1034.5,2183.5,1038.5z"/>
			<path class="st1" d="M2078.6,1145.8c-9.4,0-18.5-3.9-25.1-11.1l-20-19.9c-4.3-4.7-5.9-11.2-4.3-17.4c1.6-6.2,6.1-11.1,12.1-13.2
				l140.9-49.4c12.9-4.5,27.2-0.9,36.4,9.2l20,19.9c4.3,4.7,5.9,11.2,4.3,17.4c-1.6,6.2-6.1,11.1-12.1,13.2l-140.9,49.4
				C2086.2,1145.1,2082.4,1145.8,2078.6,1145.8z M2039.4,1109.3l20,19.9c7,7.8,18,10.6,27.9,7.1l140.9-49.4c3.5-1.2,6.1-4,7-7.7
				c0.9-3.6,0-7.2-2.4-10l-20-19.9c-7-7.8-18-10.6-27.9-7.1l-140.9,49.4c-3.5,1.2-6.1,4-7,7.7
				C2036,1102.9,2036.9,1106.6,2039.4,1109.3z"/>
		</g>
		<g>
			<g>
				<polygon class="st1" points="2199.7,1051.4 2083.2,1091.8 2090,1099.4 2206.6,1058.9 				"/>
			</g>
			<g>
				<polygon class="st1" points="2175.7,1079.4 2096.2,1106.8 2103,1114.4 2182.6,1086.9 				"/>
			</g>
			<g>
				<ellipse class="st1" cx="2075.3" cy="1110.5" rx="12.5" ry="8.5"/>
			</g>
		</g>
	</g>
	<g>
		<g>
			<path class="st0" d="M2401.5,711.5l-140.9,49.4c-10.1,3.6-13.4,16.3-6.2,24.2l132.9,146.8c8.1,8.9,20.8,12.2,32.2,8.2l140.9-49.4
				c10.1-3.6,13.4-16.3,6.2-24.2l-132.9-146.8C2425.6,710.7,2412.9,707.5,2401.5,711.5z"/>
			<path class="st1" d="M2409.6,945.8c-9.4,0-18.6-3.9-25.2-11.2l-132.9-146.8c-4.3-4.7-5.9-11.2-4.3-17.4
				c1.6-6.2,6.1-11.1,12.1-13.2l140.9-49.4c12.9-4.5,27.3-0.9,36.5,9.3l132.9,146.8c4.3,4.7,5.9,11.2,4.3,17.4
				c-1.6,6.2-6.1,11.1-12.1,13.2l-140.9,49.4C2417.2,945.1,2413.4,945.8,2409.6,945.8z M2402.9,715.2L2262,764.7
				c-3.5,1.2-6.1,4-7,7.7c-0.9,3.6,0,7.3,2.5,10.1l132.9,146.8c7,7.8,18,10.6,27.9,7.1l140.9-49.4c3.5-1.2,6.1-4,7-7.7
				c0.9-3.6,0-7.3-2.5-10.1l-132.9-146.8C2423.7,714.6,2412.8,711.8,2402.9,715.2L2402.9,715.2z"/>
		</g>
		<g>
			<path class="st0" d="M2401.5,694.5l-140.9,49.4c-10.1,3.6-13.4,16.3-6.2,24.2l132.9,146.8c8.1,8.9,20.8,12.2,32.2,8.2l140.9-49.4
				c10.1-3.6,13.4-16.3,6.2-24.2l-132.9-146.8C2425.6,693.7,2412.9,690.5,2401.5,694.5z"/>
			<path class="st1" d="M2409.6,928.8c-9.4,0-18.6-3.9-25.2-11.2l-132.9-146.8c-4.3-4.7-5.9-11.2-4.3-17.4
				c1.6-6.2,6.1-11.1,12.1-13.2l140.9-49.4c12.9-4.5,27.3-0.9,36.5,9.3l132.9,146.8c4.3,4.7,5.9,11.2,4.3,17.4
				c-1.6,6.2-6.1,11.1-12.1,13.2l-140.9,49.4C2417.2,928.1,2413.4,928.8,2409.6,928.8z M2402.9,698.2L2262,747.7
				c-3.5,1.2-6.1,4-7,7.7c-0.9,3.6,0,7.3,2.5,10.1l132.9,146.8c7,7.8,18,10.6,27.9,7.1l140.9-49.4c3.5-1.2,6.1-4,7-7.7
				c0.9-3.6,0-7.3-2.5-10.1l-132.9-146.8C2423.7,697.6,2412.8,694.8,2402.9,698.2L2402.9,698.2z"/>
		</g>
		<g>
			<g>
				<polygon class="st1" points="2432.7,722.4 2316.2,762.8 2323,770.4 2439.6,729.9 				"/>
			</g>
			<g>
				<polygon class="st1" points="2408.7,750.4 2329.2,777.8 2336,785.4 2415.6,757.9 				"/>
			</g>
			<g>
				<ellipse class="st1" cx="2308.3" cy="781.5" rx="12.5" ry="8.5"/>
			</g>
		</g>
		<g>
			<g>
				<polygon class="st1" points="2465.7,762.4 2349.2,802.8 2356,810.4 2472.6,769.9 				"/>
			</g>
			<g>
				<polygon class="st1" points="2441.7,790.4 2362.2,817.8 2369,825.4 2448.6,797.9 				"/>
			</g>
			<g>
				<ellipse class="st1" cx="2341.3" cy="821.5" rx="12.5" ry="8.5"/>
			</g>
		</g>
		<g>
			<g>
				<polygon class="st1" points="2498.7,802.4 2382.2,842.8 2389,850.4 2505.6,809.9 				"/>
			</g>
			<g>
				<polygon class="st1" points="2474.7,830.4 2395.2,857.8 2402,865.4 2481.6,837.9 				"/>
			</g>
			<g>
				<ellipse class="st1" cx="2374.3" cy="861.5" rx="12.5" ry="8.5"/>
			</g>
		</g>
	</g>
</g>
</svg>
