<?xml version="1.0" encoding="utf-8"?>
<!-- Generator: Adobe Illustrator 22.1.0, SVG Export Plug-In . SVG Version: 6.00 Build 0)  -->
<svg version="1.1" id="Layer_1" xmlns="http://www.w3.org/2000/svg" xmlns:xlink="http://www.w3.org/1999/xlink" x="0px" y="0px"
	 viewBox="0 0 3840 2160" style="enable-background:new 0 0 3840 2160;" xml:space="preserve">
<style type="text/css">
	.st0{fill:#FFFFFF;}
	.st1{fill:#149ADD;}
	.st2{fill:none;}
	.st3{fill:#3232CC;}
</style>
<g>
	<g>
		<g>
			<g>
				<g>
					<g>
						<polygon class="st0" points="1565,269.8 1565,220 1742,22.8 2095.2,22.7 2272.3,219.8 2272.4,269.6 2095.4,466.9 1742.1,467 
													"/>
					</g>
				</g>
				<g>
					<g>
						<path class="st1" d="M2093.3,27.1L2268,221.5V268l-174.6,194.5l-349.3,0.1l0,0l-174.7-194.4v-46.5L1744,27.2L2093.3,27.1
							 M2097.2,18.3h-3.9L1744,18.4h-3.9l-2.6,2.9l-174.6,194.5l-2.3,2.5v3.4v46.5v3.4l2.3,2.5l174.7,194.4l2.6,2.9h3.9l349.3-0.1
							h3.9l2.6-2.9l174.6-194.5l2.3-2.5V268v-46.5v-3.4l-2.3-2.5L2099.8,21.2L2097.2,18.3L2097.2,18.3z"/>
					</g>
				</g>
			</g>
			<g>
				<path class="st1" d="M2093.3,27.1L2268,221.5V268l-174.6,194.5l-349.3,0.1l-174.7-194.4v-46.5L1744,27.2L2093.3,27.1
					 M2095.2,22.7h-2L1744,22.8h-2l-1.3,1.5l-174.6,194.5l-1.1,1.3v1.7v46.5v1.7l1.1,1.3l174.7,194.4l1.3,1.5h2l349.3-0.1h2l1.3-1.5
					L2271.3,271l1.1-1.3V268v-46.5v-1.7l-1.1-1.3L2096.5,24.2L2095.2,22.7L2095.2,22.7z"/>
			</g>
			<g>
				<line class="st2" x1="1918.8" y1="244.9" x2="1918.8" y2="244.9"/>
				<path class="st1" d="M1918.8,244.9"/>
			</g>
			<g>
				<g>
					<line class="st2" x1="1918.8" y1="244.9" x2="1918.8" y2="244.9"/>
					<path class="st1" d="M1918.8,244.9"/>
				</g>
			</g>
			<g>
				<g>
					<path class="st0" d="M1566.5,221.8L1743.1,25l351.3-0.1l176.7,196.6l-176.6,196.7l-351.3,0.1L1566.5,221.8z M1758.5,384.1
						l320.6-0.1l145.8-162.3L2079.1,59.5l-320.6,0.1l-145.8,162.3L1758.5,384.1z"/>
				</g>
				<g>
					<path class="st1" d="M2093.4,27.1l174.7,194.4L2093.5,416l-349.4,0.1l-174.7-194.4L1744,27.2L2093.4,27.1 M1757.5,386.3
						l322.6-0.1l147.7-164.5L2080,57.3l-322.6,0.1l-147.7,164.5L1757.5,386.3 M2095.4,22.7h-2L1744,22.8h-2l-1.3,1.5l-174.6,194.5
						l-2.6,2.9l2.6,2.9l174.7,194.4l1.3,1.5h2l349.4-0.1h2l1.3-1.5l174.6-194.5l2.6-2.9l-2.6-2.9L2096.7,24.2L2095.4,22.7
						L2095.4,22.7z M1759.4,61.8l318.7-0.1l143.8,160.1l-143.8,160.1l-318.7,0.1l-143.8-160.1L1759.4,61.8L1759.4,61.8z"/>
				</g>
			</g>
			<g>
				<g>
					<rect x="1741.4" y="417.7" class="st1" width="4.4" height="46.4"/>
				</g>
				<g>
					<rect x="2091.7" y="417.6" class="st1" width="4.4" height="46.4"/>
				</g>
			</g>
		</g>
	</g>
	<g>
		<path class="st1" d="M1871.5,192.4c-1.4,1.6-3.2,3.6-5.3,6.2c-2.1,2.5-4.2,5.3-6.4,8.2s-4.3,6.1-6.5,9.2c-2.1,3.1-4,6.1-5.7,9
			h24.5v7h-34.6v-5.2c0.9-1.7,1.9-3.4,3.1-5.3c1.2-1.9,2.4-3.9,3.7-5.9c1.3-2,2.7-4.1,4.1-6.2c1.4-2.1,2.9-4.1,4.2-6
			c1.4-1.9,2.8-3.7,4.1-5.5c1.3-1.8,2.6-3.3,3.8-4.7h-22v-7h32.7L1871.5,192.4z"/>
		<path class="st1" d="M1909.8,214.7c0,2.8-0.4,5.2-1.2,7.5c-0.8,2.3-1.9,4.2-3.4,5.7c-1.4,1.6-3.2,2.8-5.2,3.7
			c-2,0.9-4.3,1.3-6.8,1.3s-4.7-0.4-6.7-1.3c-2-0.9-3.7-2.1-5.2-3.7c-1.4-1.6-2.6-3.5-3.4-5.7c-0.8-2.3-1.2-4.7-1.2-7.5
			s0.4-5.2,1.2-7.4s2-4.1,3.4-5.7c1.5-1.6,3.2-2.8,5.2-3.7c2-0.9,4.2-1.3,6.7-1.3c2.4,0,4.7,0.4,6.7,1.3c2,0.9,3.8,2.1,5.2,3.7
			c1.4,1.6,2.6,3.5,3.4,5.7C1909.3,209.5,1909.8,211.9,1909.8,214.7z M1901.6,214.7c0-3.4-0.7-6.2-2.2-8.1s-3.5-3-6.2-3
			c-2.6,0-4.7,1-6.2,3c-1.5,2-2.2,4.7-2.2,8.1c0,3.5,0.7,6.2,2.2,8.2s3.5,3,6.2,3c2.6,0,4.7-1,6.2-3
			C1900.8,220.9,1901.6,218.1,1901.6,214.7z"/>
		<path class="st1" d="M1918,198.6c1.5-0.4,3.5-0.9,6-1.3c2.5-0.4,5.2-0.6,8.2-0.6c2.8,0,5.2,0.4,7,1.2c1.9,0.8,3.4,1.9,4.5,3.2
			c1.1,1.4,1.9,3.1,2.4,5c0.4,2,0.7,4.1,0.7,6.4V232h-8v-18.1c0-1.9-0.1-3.4-0.4-4.7c-0.2-1.3-0.7-2.4-1.2-3.2
			c-0.5-0.8-1.3-1.4-2.3-1.8c-0.9-0.4-2.1-0.6-3.5-0.6c-1,0-2.1,0.1-3.2,0.2c-1.1,0.1-1.9,0.2-2.4,0.3V232h-8L1918,198.6z"/>
		<path class="st1" d="M1954.7,214.8c0-3,0.4-5.7,1.4-8c0.9-2.3,2.1-4.2,3.6-5.7c1.5-1.5,3.2-2.6,5.2-3.4c1.9-0.8,3.9-1.2,5.9-1.2
			c4.7,0,8.5,1.5,11.1,4.4c2.6,3,4,7.4,4,13.2c0,0.4,0,0.9-0.1,1.5c0,0.6-0.1,1-0.1,1.5H1963c0.2,2.8,1.2,4.9,2.9,6.4
			c1.8,1.5,4.2,2.3,7.5,2.3c1.9,0,3.7-0.2,5.3-0.6c1.6-0.3,2.9-0.7,3.8-1.1l1,6.5c-0.4,0.2-1,0.4-1.8,0.7c-0.8,0.2-1.6,0.4-2.6,0.7
			c-1,0.2-2,0.4-3.2,0.5s-2.3,0.2-3.5,0.2c-3,0-5.7-0.4-7.9-1.4c-2.3-0.9-4.1-2.1-5.6-3.7c-1.4-1.6-2.5-3.5-3.2-5.7
			C1955,219.9,1954.7,217.4,1954.7,214.8z M1977.9,211.3c0-1.1-0.2-2.1-0.4-3.1c-0.3-1-0.8-1.9-1.4-2.6c-0.6-0.7-1.3-1.3-2.2-1.7
			c-0.9-0.4-1.9-0.6-3.1-0.6s-2.3,0.2-3.2,0.7c-0.9,0.4-1.7,1-2.4,1.8c-0.7,0.8-1.2,1.6-1.5,2.6s-0.6,2-0.7,3L1977.9,211.3z"/>
	</g>
	<g>
		<g>
			<rect x="1877.8" y="429.5" class="st0" width="84.7" height="398.8"/>
		</g>
		<g>
			<path class="st1" d="M1958.1,433.9v390h-75.9v-390H1958.1 M1966.9,425.1h-8.8h-75.9h-8.8v8.8v390v8.8h8.8h75.9h8.8v-8.8v-390
				V425.1L1966.9,425.1z"/>
		</g>
	</g>
	<g>
		<g>
			<g>
				<g>
					<g>
						<polygon class="st0" points="2578.1,668 2578.1,618.2 2755.1,421 3108.3,420.9 3285.4,618 3285.5,667.8 3108.4,865.1 
							2755.2,865.2 						"/>
					</g>
				</g>
				<g>
					<g>
						<path class="st1" d="M3106.4,425.3l174.7,194.4v46.5l-174.6,194.5l-349.3,0.1l-174.7-194.4v-46.5l174.6-194.5L3106.4,425.3
							 M3110.3,416.5h-3.9l-349.3,0.1h-3.9l-2.6,2.9L2575.9,614l-2.3,2.5v3.4v46.5v3.4l2.3,2.5l174.7,194.4l2.6,2.9h3.9l349.3-0.1
							h3.9l2.6-2.9l174.6-194.5l2.3-2.5v-3.4v-46.5v-3.4l-2.3-2.5l-174.7-194.4L3110.3,416.5L3110.3,416.5z"/>
					</g>
				</g>
			</g>
			<g>
				<path class="st1" d="M3106.4,425.3l174.7,194.4v46.5l-174.6,194.5l-349.3,0.1l-174.7-194.4v-46.5l174.6-194.5L3106.4,425.3
					 M3108.3,420.9h-2l-349.3,0.1h-2l-1.3,1.5L2579.2,617l-1.1,1.3v1.7v46.5v1.7l1.1,1.3l174.7,194.4l1.3,1.5h2l349.3-0.1h2l1.3-1.5
					l174.6-194.5l1.1-1.3v-1.7v-46.5v-1.7l-1.1-1.3l-174.8-194.4L3108.3,420.9L3108.3,420.9z"/>
			</g>
			<g>
				<line class="st2" x1="2931.9" y1="643.1" x2="2931.9" y2="643.1"/>
				<path class="st1" d="M2931.9,643.1"/>
			</g>
			<g>
				<g>
					<line class="st2" x1="2931.9" y1="643.1" x2="2931.9" y2="643.1"/>
					<path class="st1" d="M2931.9,643.1"/>
				</g>
			</g>
			<g>
				<g>
					<path class="st0" d="M2579.6,620l176.6-196.7l351.3-0.1l176.7,196.6l-176.6,196.7l-351.3,0.1L2579.6,620z M2771.6,782.3
						l320.7-0.1L3238,619.9l-145.8-162.2l-320.6,0.1l-145.8,162.3L2771.6,782.3z"/>
				</g>
				<g>
					<path class="st1" d="M3106.5,425.3l174.7,194.4l-174.6,194.5l-349.4,0.1L2582.5,620l174.6-194.5L3106.5,425.3 M2770.6,784.5
						l322.6-0.1l147.7-164.5l-147.8-164.4l-322.6,0.1l-147.7,164.5L2770.6,784.5 M3108.4,420.9h-2l-349.4,0.1h-2l-1.3,1.5
						L2579.2,617l-2.6,2.9l2.6,2.9L2754,817.3l1.3,1.5h2l349.4-0.1h2l1.3-1.5l174.6-194.5l2.6-2.9l-2.6-2.9l-174.7-194.4
						L3108.4,420.9L3108.4,420.9z M2772.5,460l318.7-0.1l143.8,160.1L3091.2,780l-318.7,0.1l-143.8-160L2772.5,460L2772.5,460z"/>
				</g>
			</g>
			<g>
				<g>
					<rect x="2754.5" y="815.9" class="st1" width="4.4" height="46.4"/>
				</g>
				<g>
					<rect x="3104.8" y="815.8" class="st1" width="4.4" height="46.4"/>
				</g>
			</g>
		</g>
	</g>
	<g>
		<g>
			<polygon class="st0" points="2682.2,749.5 2636.9,699.7 2222.1,851.7 2222.1,875 2267.4,924.8 2682.2,772.8 			"/>
			<path class="st1" d="M2266.7,927.4l-46.9-51.5v-25.7l417.7-153l46.9,51.5v25.7L2266.7,927.4z M2224.3,874.1l43.8,48.1l412-150.9
				v-20.9l-43.8-48.1l-412,150.9V874.1z"/>
		</g>
		<g>
			<path class="st1" d="M2266.1,930l-48.5-53.2v-28.1l420.5-154.1l48.5,53.2v28.1L2266.1,930z M2226.5,873.3l42.2,46.4l409.1-149.9
				v-18.5l-42.2-46.4l-409.1,149.9V873.3z"/>
		</g>
		<g>
			<polygon class="st0" points="2636.9,699.7 2222.1,851.7 2267.4,901.5 2682.2,749.5 			"/>
			<path class="st1" d="M2266.7,904.1l-48.5-53.3l419.3-153.6l48.5,53.3L2266.7,904.1z M2225.9,852.6l42.1,46.3l410.4-150.3
				l-42.1-46.3L2225.9,852.6z"/>
		</g>
	</g>
	<g>
		<g>
			<g>
				<g>
					<g>
						<polygon class="st0" points="554.1,669.3 554.1,619.4 731.1,422.2 1084.3,422.1 1261.4,619.2 1261.5,669 1084.5,866.2 
							731.2,866.3 						"/>
					</g>
				</g>
				<g>
					<g>
						<path class="st1" d="M1082.4,426.5L1257,620.9v46.5l-174.6,194.5l-349.3,0.1l0,0L558.4,667.6v-46.5l174.6-194.5L1082.4,426.5
							 M1086.3,417.7h-3.9l-349.3,0.1h-3.9l-2.6,2.9L551.9,615.2l-2.3,2.5v3.4v46.5v3.4l2.3,2.5l174.7,194.4l2.6,2.9h3.9l349.3-0.1
							h3.9l2.6-2.9l174.6-194.5l2.3-2.5v-3.4v-46.5v-3.4l-2.3-2.5l-174.7-194.4L1086.3,417.7L1086.3,417.7z"/>
					</g>
				</g>
			</g>
			<g>
				<path class="st1" d="M1082.4,426.5L1257,620.9v46.5l-174.6,194.5l-349.3,0.1L558.4,667.6v-46.5l174.6-194.5L1082.4,426.5
					 M1084.3,422.1h-2l-349.3,0.1h-2l-1.3,1.5L555.2,618.2l-1.1,1.3v1.7v46.5v1.7l1.1,1.3l174.7,194.4l1.3,1.5h2l349.3-0.1h2
					l1.3-1.5l174.6-194.5l1.1-1.3v-1.7v-46.5v-1.7l-1.1-1.3l-174.8-194.4L1084.3,422.1L1084.3,422.1z"/>
			</g>
			<g>
				<line class="st2" x1="907.9" y1="644.2" x2="907.9" y2="644.2"/>
				<path class="st1" d="M907.9,644.2"/>
			</g>
			<g>
				<g>
					<line class="st2" x1="907.9" y1="644.2" x2="907.9" y2="644.2"/>
					<path class="st1" d="M907.9,644.2"/>
				</g>
			</g>
			<g>
				<g>
					<path class="st0" d="M555.6,621.1l176.6-196.7l351.3-0.1l176.7,196.6l-176.7,196.7l-351.3,0.1L555.6,621.1z M747.6,783.5
						l320.7-0.1L1214,621.1l-145.8-162.2l-320.7,0.1L601.8,621.2L747.6,783.5z"/>
				</g>
				<g>
					<path class="st1" d="M1082.5,426.5l174.7,194.4l-174.6,194.5l-349.4,0.1L558.5,621.1l174.6-194.5L1082.5,426.5 M746.6,785.7
						l322.6-0.1l147.7-164.5l-147.8-164.4l-322.6,0.1L598.8,621.2L746.6,785.7 M1084.5,422.1h-2l-349.4,0.1h-2l-1.3,1.5L555.2,618.2
						l-2.6,2.9l2.6,2.9l174.7,194.4l1.3,1.5h2l349.4-0.1h2l1.3-1.5l174.6-194.5l2.6-2.9l-2.6-2.9l-174.7-194.4L1084.5,422.1
						L1084.5,422.1z M748.5,461.1l318.7-0.1l143.8,160l-143.7,160.1l-318.7,0.1l-143.8-160L748.5,461.1L748.5,461.1z"/>
				</g>
			</g>
			<g>
				<g>
					<rect x="730.5" y="817" class="st1" width="4.4" height="46.4"/>
				</g>
				<g>
					<rect x="1080.8" y="816.9" class="st1" width="4.4" height="46.4"/>
				</g>
			</g>
		</g>
	</g>
	<g>
		<g>
			<polygon class="st0" points="1156.3,749.4 1201.6,699.6 1617.6,852.4 1617.6,875.7 1572.3,925.6 1156.3,772.7 			"/>
			<path class="st1" d="M1572.9,928.1l-1.4-0.5l-417.4-153.4v-25.7l46.9-51.6l1.4,0.5l417.4,153.4v25.7L1572.9,928.1z M1158.5,771.2
				L1571.7,923l43.7-48.1v-21l-413.2-151.8l-43.7,48.1V771.2z"/>
		</g>
		<g>
			<path class="st1" d="M1573.6,930.7l-421.6-154.9v-28.1l48.5-53.3L1622,849.3v28.1L1573.6,930.7z M1160.7,769.6l410.4,150.8
				l42.2-46.4v-18.5l-410.4-150.8l-42.2,46.4L1160.7,769.6z"/>
		</g>
		<g>
			<polygon class="st0" points="1201.6,699.6 1617.6,852.4 1572.3,902.2 1156.3,749.4 			"/>
			<path class="st1" d="M1572.9,904.8l-420.4-154.5L1201,697l1.4,0.5l419,153.9L1572.9,904.8z M1160.1,748.5l411.5,151.2l42.1-46.3
				l-411.5-151.2L1160.1,748.5z"/>
		</g>
	</g>
	<g>
		<path class="st1" d="M866.7,603.9c-1.4,1.6-3.2,3.6-5.3,6.2c-2.1,2.5-4.2,5.3-6.4,8.2c-2.2,3-4.3,6.1-6.5,9.2s-4,6.1-5.7,9h24.5v7
			h-34.6v-5.2c0.9-1.7,1.9-3.4,3.1-5.3c1.2-1.9,2.4-3.9,3.7-5.9c1.3-2,2.7-4.1,4.1-6.2c1.4-2.1,2.9-4.1,4.2-6
			c1.4-1.9,2.8-3.7,4.1-5.5c1.3-1.8,2.6-3.3,3.8-4.7h-22v-7h32.7L866.7,603.9z"/>
		<path class="st1" d="M904.9,626.1c0,2.8-0.4,5.2-1.2,7.5c-0.8,2.3-1.9,4.2-3.4,5.7c-1.4,1.6-3.2,2.8-5.2,3.7
			c-2,0.9-4.3,1.3-6.8,1.3s-4.7-0.4-6.7-1.3c-2-0.9-3.7-2.1-5.2-3.7c-1.4-1.6-2.6-3.5-3.4-5.7c-0.8-2.3-1.2-4.7-1.2-7.5
			s0.4-5.2,1.2-7.4c0.8-2.2,2-4.1,3.4-5.7c1.5-1.6,3.2-2.8,5.2-3.7c2-0.9,4.2-1.3,6.7-1.3s4.7,0.4,6.7,1.3c2,0.9,3.8,2.1,5.2,3.7
			c1.4,1.6,2.6,3.5,3.4,5.7C904.5,620.9,904.9,623.4,904.9,626.1z M896.7,626.1c0-3.4-0.7-6.2-2.2-8.1c-1.5-2-3.5-3-6.2-3
			s-4.7,1-6.2,3c-1.5,2-2.2,4.7-2.2,8.1c0,3.5,0.7,6.2,2.2,8.2c1.5,2,3.5,3,6.2,3s4.7-1,6.2-3C896,632.4,896.7,629.6,896.7,626.1z"
			/>
		<path class="st1" d="M913.2,610c1.5-0.4,3.5-0.9,6-1.3c2.5-0.4,5.2-0.6,8.2-0.6c2.8,0,5.2,0.4,7,1.2c1.9,0.8,3.4,1.9,4.5,3.2
			c1.1,1.4,1.9,3.1,2.4,5c0.4,2,0.7,4.1,0.7,6.4v19.4h-8v-18.2c0-1.9-0.1-3.4-0.4-4.7c-0.2-1.3-0.7-2.4-1.2-3.2s-1.3-1.4-2.3-1.8
			c-0.9-0.4-2.1-0.5-3.5-0.5c-1,0-2.1,0.1-3.2,0.2c-1.1,0.1-1.9,0.2-2.4,0.3v27.8h-8L913.2,610z"/>
		<path class="st1" d="M949.9,626.3c0-3,0.4-5.7,1.4-8c0.9-2.3,2.1-4.2,3.6-5.7s3.2-2.6,5.2-3.4c1.9-0.8,3.9-1.2,5.9-1.2
			c4.7,0,8.5,1.5,11.1,4.4c2.6,3,4,7.4,4,13.2c0,0.4,0,0.9-0.1,1.5c0,0.5-0.1,1-0.1,1.5h-22.8c0.2,2.8,1.2,4.9,2.9,6.4
			c1.8,1.5,4.2,2.3,7.5,2.3c1.9,0,3.7-0.2,5.3-0.5c1.6-0.3,2.9-0.7,3.8-1.1l1,6.5c-0.4,0.2-1,0.4-1.8,0.7c-0.8,0.2-1.7,0.4-2.6,0.7
			c-1,0.2-2,0.4-3.2,0.5s-2.3,0.2-3.5,0.2c-3,0-5.7-0.4-7.9-1.4s-4.1-2.1-5.6-3.7c-1.4-1.6-2.5-3.5-3.2-5.7
			C950.2,631.3,949.9,628.9,949.9,626.3z M973,622.7c0-1.1-0.2-2.1-0.4-3.1c-0.3-1-0.8-1.9-1.4-2.6c-0.6-0.7-1.3-1.3-2.2-1.7
			c-0.9-0.4-1.9-0.6-3.1-0.6s-2.3,0.2-3.2,0.7c-0.9,0.4-1.7,1-2.4,1.8c-0.7,0.8-1.2,1.6-1.5,2.6c-0.3,1-0.6,2-0.7,3L973,622.7z"/>
	</g>
	<g>
		<path class="st1" d="M2884.6,603.2c-1.4,1.6-3.2,3.6-5.3,6.2c-2.1,2.5-4.2,5.3-6.4,8.2c-2.2,3-4.3,6-6.5,9.2s-4,6.1-5.7,9h24.5v7
			h-34.6v-5.2c0.9-1.6,1.9-3.4,3.1-5.3c1.2-1.9,2.4-3.9,3.7-5.9c1.3-2,2.7-4.1,4.1-6.2c1.4-2.1,2.9-4.1,4.2-6
			c1.4-1.9,2.8-3.7,4.1-5.5c1.3-1.8,2.6-3.3,3.8-4.7h-22v-7h32.7L2884.6,603.2z"/>
		<path class="st1" d="M2922.9,625.5c0,2.8-0.4,5.2-1.2,7.5c-0.8,2.3-1.9,4.2-3.4,5.7c-1.4,1.6-3.2,2.8-5.2,3.7
			c-2,0.9-4.3,1.3-6.8,1.3c-2.5,0-4.7-0.4-6.7-1.3c-2-0.9-3.7-2.1-5.2-3.7c-1.4-1.6-2.6-3.5-3.4-5.7c-0.8-2.3-1.2-4.7-1.2-7.5
			s0.4-5.2,1.2-7.4s2-4.1,3.4-5.7c1.5-1.6,3.2-2.8,5.2-3.7c2-0.9,4.2-1.3,6.7-1.3s4.7,0.4,6.7,1.3c2,0.9,3.8,2.1,5.2,3.7
			c1.4,1.6,2.6,3.5,3.4,5.7C2922.4,620.3,2922.9,622.8,2922.9,625.5z M2914.7,625.5c0-3.4-0.7-6.2-2.2-8.1c-1.5-2-3.5-3-6.2-3
			c-2.6,0-4.7,1-6.2,3c-1.5,2-2.2,4.7-2.2,8.1c0,3.5,0.7,6.2,2.2,8.2c1.5,2,3.5,3,6.2,3c2.6,0,4.7-1,6.2-3
			C2913.9,631.7,2914.7,629,2914.7,625.5z"/>
		<path class="st1" d="M2931.1,609.4c1.5-0.4,3.5-0.9,6-1.3s5.2-0.6,8.2-0.6c2.8,0,5.2,0.4,7,1.2c1.9,0.8,3.4,1.9,4.5,3.2
			c1.1,1.4,1.9,3.1,2.4,5c0.4,2,0.7,4.1,0.7,6.4v19.4h-8v-18.2c0-1.9-0.1-3.4-0.4-4.7c-0.2-1.3-0.7-2.4-1.2-3.2
			c-0.6-0.8-1.3-1.4-2.3-1.8c-0.9-0.4-2.1-0.5-3.5-0.5c-1,0-2.1,0.1-3.2,0.2c-1.1,0.1-1.9,0.2-2.4,0.3v27.8h-8L2931.1,609.4z"/>
		<path class="st1" d="M2967.8,625.7c0-3,0.4-5.7,1.4-8c0.9-2.3,2.1-4.2,3.6-5.7c1.5-1.5,3.2-2.6,5.2-3.4c1.9-0.8,3.9-1.2,5.9-1.2
			c4.7,0,8.5,1.5,11.1,4.4c2.6,3,4,7.4,4,13.2c0,0.4,0,0.9-0.1,1.5c0,0.5-0.1,1-0.1,1.5h-22.8c0.2,2.8,1.2,4.9,2.9,6.4
			c1.8,1.5,4.2,2.3,7.5,2.3c1.9,0,3.7-0.2,5.3-0.6c1.6-0.3,2.9-0.7,3.8-1.1l1,6.5c-0.4,0.2-1,0.4-1.8,0.7c-0.8,0.2-1.6,0.4-2.6,0.7
			c-1,0.2-2,0.4-3.2,0.5c-1.2,0.1-2.3,0.2-3.5,0.2c-3,0-5.7-0.4-7.9-1.4c-2.3-0.9-4.1-2.1-5.6-3.7c-1.4-1.6-2.5-3.5-3.2-5.7
			C2968.1,630.7,2967.8,628.3,2967.8,625.7z M2991,622.1c0-1.1-0.2-2.1-0.4-3.1c-0.3-1-0.8-1.9-1.4-2.6s-1.3-1.3-2.2-1.7
			c-0.9-0.4-1.9-0.6-3.1-0.6c-1.2,0-2.3,0.2-3.2,0.7c-0.9,0.4-1.7,1-2.4,1.8c-0.7,0.8-1.2,1.6-1.5,2.6c-0.3,1-0.6,2-0.7,3
			L2991,622.1z"/>
	</g>
	<g>
		<g>
			<g>
				<g>
					<g>
						<g>
							<polygon class="st0" points="1699.6,1363.7 1478.9,1117.9 1478.9,926.7 1699.6,680.9 2140.3,680.9 2361.1,926.7 
								2361.1,1117.9 2140.3,1363.7 							"/>
						</g>
					</g>
					<g>
						<g>
							<path class="st3" d="M2138.3,685.3l218.4,243.1v187.9l-218.4,243.1h-436.7l-218.4-243.1V928.4l218.4-243.1H2138.3
								 M2142.2,676.5h-3.9h-436.7h-3.9l-2.6,2.9l-218.3,243.1l-2.3,2.5v3.4v187.9v3.4l2.3,2.5l218.3,243.1l2.6,2.9h3.9h436.7h3.9
								l2.6-2.9l218.4-243.1l2.3-2.5v-3.4V928.4V925l-2.3-2.5l-218.4-243.1L2142.2,676.5L2142.2,676.5z"/>
						</g>
					</g>
				</g>
				<g>
					<path class="st3" d="M2138.3,685.3l218.4,243.1v187.9l-218.4,243.1h-436.7l-218.4-243.1V928.4l218.4-243.1H2138.3
						 M2140.3,680.9h-2h-436.7h-2l-1.3,1.5L1480,925.4l-1.1,1.3v1.7v187.9v1.7l1.1,1.3l218.3,243.1l1.3,1.5h2h436.7h2l1.3-1.5
						l218.4-243.1l1.1-1.3v-1.7V928.4v-1.7l-1.1-1.3l-218.4-243.1L2140.3,680.9L2140.3,680.9z"/>
				</g>
				<g>
					<line class="st2" x1="1920" y1="957.4" x2="1920" y2="957.4"/>
					<path class="st3" d="M1920,957.4"/>
				</g>
				<g>
					<g>
						<line class="st2" x1="1920" y1="957.4" x2="1920" y2="957.4"/>
						<path class="st3" d="M1920,957.4"/>
					</g>
				</g>
				<g>
					<g>
						<path class="st0" d="M1700.6,1173.6l-220.3-245.3L1700.6,683h438.7l220.3,245.3l-220.3,245.3H1700.6z M2120.6,1131.8
							l182.7-203.4L2120.6,725h-401.3l-182.7,203.4l182.7,203.4H2120.6z"/>
					</g>
					<g>
						<path class="st3" d="M2138.3,685.3l218.4,243.1l-218.4,243.1h-436.7l-218.4-243.1l218.4-243.1H2138.3 M1718.3,1134h403.3
							l184.7-205.6l-184.7-205.6h-403.3l-184.7,205.6L1718.3,1134 M2140.3,680.9h-2h-436.7h-2l-1.3,1.5L1480,925.4l-2.6,2.9l2.6,2.9
							l218.3,243.1l1.3,1.5h2h436.7h2l1.3-1.5L2360,931.3l2.6-2.9l-2.6-2.9l-218.4-243.1L2140.3,680.9L2140.3,680.9z M1720.3,727.1
							h399.4l180.7,201.2l-180.7,201.2h-399.4l-180.7-201.2L1720.3,727.1L1720.3,727.1z"/>
					</g>
				</g>
				<g>
					<g>
						<rect x="2136.7" y="1173.3" class="st3" width="4.4" height="187.9"/>
					</g>
					<g>
						<rect x="1698.8" y="1173.3" class="st3" width="4.4" height="187.9"/>
					</g>
				</g>
			</g>
		</g>
		<g>
			<path class="st3" d="M1875.2,902.9h12.5v68.6h-12.5v-30.4h-29.8v30.4h-12.5v-68.6h12.5v27.4h29.8V902.9z"/>
			<path class="st3" d="M1946,969.9c-2.3,0.6-5.3,1.2-9,1.8c-3.7,0.6-7.8,0.9-12.2,0.9c-4.2,0-7.6-0.6-10.5-1.8
				c-2.8-1.2-5.1-2.9-6.7-5c-1.7-2.1-2.9-4.6-3.6-7.6c-0.7-2.9-1.1-6.2-1.1-9.6v-29h12v27.1c0,5.6,0.8,9.5,2.4,11.9
				c1.6,2.4,4.5,3.6,8.5,3.6c1.4,0,3-0.1,4.6-0.2c1.6-0.1,2.8-0.3,3.6-0.5v-41.9h12L1946,969.9L1946,969.9z"/>
			<path class="st3" d="M2007.9,945.6c0,4.2-0.6,7.9-1.8,11.2c-1.2,3.4-3,6.2-5.2,8.6c-2.3,2.4-5.1,4.2-8.2,5.4
				c-3.2,1.3-6.9,1.9-11,1.9c-4,0-7.8-0.3-11.3-0.9c-3.6-0.6-6.6-1.3-9-2v-73.3l12-2v26.8c1.4-0.7,3.1-1.4,5.1-2
				c2-0.6,4.2-0.9,6.7-0.9c3.6,0,6.9,0.7,9.7,1.9c2.9,1.3,5.3,3.1,7.2,5.5c1.9,2.4,3.4,5.2,4.4,8.6
				C2007.4,937.9,2007.9,941.6,2007.9,945.6z M1995.6,945.5c0-5.1-1-9.1-3-12.1c-2-3-5.2-4.5-9.6-4.5c-2,0-3.8,0.3-5.6,0.9
				c-1.8,0.6-3.1,1.3-4.2,2v29.8c0.9,0.2,2,0.4,3.3,0.5c1.4,0.2,3,0.2,4.9,0.2c4.4,0,7.9-1.5,10.4-4.5
				C1994.4,954.9,1995.6,950.7,1995.6,945.5z"/>
		</g>
	</g>
	<g>
		<g>
			<polygon class="st0" points="2234.2,1144 2279.5,1094.1 2715.9,1255.8 2715.9,1279.1 2670.6,1328.9 2234.2,1167.3 			"/>
			<path class="st1" d="M2671.2,1331.5L2232,1168.8v-25.7l46.9-51.6l439.2,162.7v25.7L2671.2,1331.5z M2236.4,1165.8l433.5,160.6
				l43.7-48.1v-21l-433.5-160.6l-43.7,48.1V1165.8z"/>
		</g>
		<g>
			<path class="st1" d="M2671.9,1334.1l-2.8-1l-439.2-162.7v-28.1l48.5-53.3l2.8,1l439.2,162.7v28.1L2671.9,1334.1z M2238.6,1164.3
				l430.7,159.6l42.2-46.4v-18.5l-430.7-159.6l-42.2,46.4L2238.6,1164.3z"/>
		</g>
		<g>
			<polygon class="st0" points="2279.5,1094.1 2715.9,1255.8 2670.6,1305.7 2234.2,1144 			"/>
			<path class="st1" d="M2671.2,1308.2l-1.4-0.5l-439.4-162.8l48.5-53.3l1.4,0.5l439.4,162.8L2671.2,1308.2z M2238.1,1143.1
				l431.9,160l42.1-46.3l-431.9-160L2238.1,1143.1z"/>
		</g>
	</g>
	<g>
		<g>
			<polygon class="st0" points="1605.6,1144.7 1560.3,1094.9 1133.9,1255.7 1133.9,1279 1179.2,1328.8 1605.6,1168.1 			"/>
			<path class="st1" d="M1178.6,1331.4l-46.9-51.5v-25.7l429.2-161.8l46.9,51.5v25.7L1178.6,1331.4z M1136.1,1278.2l43.8,48.1
				l423.6-159.7v-21l-43.8-48.1l-423.6,159.7V1278.2z"/>
		</g>
		<g>
			<path class="st1" d="M1178,1334l-48.5-53.3v-28.1l2.9-1.1l429.2-161.8l48.5,53.3v28.1l-2.9,1.1L1178,1334z M1138.3,1277.3
				l42.2,46.4l420.7-158.6v-18.6l-42.2-46.4l-420.7,158.6V1277.3z"/>
		</g>
		<g>
			<polygon class="st0" points="1560.3,1094.9 1133.9,1255.7 1179.2,1305.5 1605.6,1144.7 			"/>
			<path class="st1" d="M1178.6,1308.1l-48.5-53.3l3-1.2l427.7-161.3l48.5,53.3l-3,1.2L1178.6,1308.1z M1137.7,1256.6l42.1,46.3
				l422-159.1l-42.1-46.3L1137.7,1256.6z"/>
		</g>
	</g>
	<g>
		<g>
			<g>
				<g>
					<g>
						<polygon class="st0" points="554.3,1421.1 554.3,1371.3 731.3,1174 1084.6,1173.9 1261.7,1371.1 1261.7,1420.9 1084.7,1618.1 
							731.5,1618.2 						"/>
					</g>
				</g>
				<g>
					<g>
						<path class="st1" d="M1082.6,1178.3l174.7,194.4v46.5l-174.6,194.5l-349.3,0.1l-174.7-194.4v-46.5l174.6-194.5L1082.6,1178.3
							 M1086.5,1169.5h-3.9l-349.3,0.1h-3.9l-2.6,2.9L552.2,1367l-2.3,2.5v3.4v46.5v3.4l2.3,2.5l174.7,194.4l2.6,2.9h3.9l349.3-0.1
							h3.9l2.6-2.9l174.6-194.5l2.3-2.5v-3.4v-46.5v-3.4l-2.3-2.5l-174.7-194.4L1086.5,1169.5L1086.5,1169.5z"/>
					</g>
				</g>
			</g>
			<g>
				<path class="st1" d="M1082.6,1178.3l174.7,194.4v46.5l-174.6,194.5l-349.3,0.1l-174.7-194.4v-46.5l174.6-194.5L1082.6,1178.3
					 M1084.6,1173.9h-2l-349.3,0.1h-2l-1.3,1.5L555.4,1370l-1.1,1.3v1.7v46.5v1.7l1.1,1.3l174.7,194.4l1.3,1.5h2l349.3-0.1h2
					l1.3-1.5l174.6-194.5l1.1-1.3v-1.7v-46.5v-1.7l-1.1-1.3l-174.7-194.4L1084.6,1173.9L1084.6,1173.9z"/>
			</g>
			<g>
				<line class="st2" x1="908.1" y1="1396.1" x2="908.1" y2="1396.1"/>
				<path class="st1" d="M908.1,1396.1"/>
			</g>
			<g>
				<g>
					<line class="st2" x1="908.1" y1="1396.1" x2="908.1" y2="1396.1"/>
					<path class="st1" d="M908.1,1396.1"/>
				</g>
			</g>
			<g>
				<g>
					<path class="st0" d="M555.8,1373l176.6-196.7l351.3-0.1l176.7,196.6l-176.6,196.7l-351.3,0.1L555.8,1373z M747.8,1535.3
						l320.7-0.1l145.8-162.3l-145.8-162.2l-320.6,0.1L602,1373.1L747.8,1535.3z"/>
				</g>
				<g>
					<path class="st1" d="M1082.7,1178.3l174.7,194.4l-174.6,194.5l-349.4,0.1l-174.7-194.4l174.6-194.5L1082.7,1178.3
						 M746.9,1537.5l322.6-0.1l147.7-164.5l-147.8-164.4l-322.6,0.1l-147.7,164.5L746.9,1537.5 M1084.7,1173.9h-2l-349.4,0.1h-2
						l-1.3,1.5l-174.6,194.5l-2.6,2.9l2.6,2.9l174.7,194.4l1.3,1.5h2l349.4-0.1h2l1.3-1.5l174.6-194.5l2.6-2.9l-2.6-2.9L1086,1175.4
						L1084.7,1173.9L1084.7,1173.9z M748.7,1213l318.7-0.1l143.8,160.1L1067.4,1533l-318.7,0.1l-143.8-160.1L748.7,1213L748.7,1213z
						"/>
				</g>
			</g>
			<g>
				<g>
					<rect x="730.7" y="1568.9" class="st1" width="4.4" height="46.4"/>
				</g>
				<g>
					<rect x="1081" y="1568.8" class="st1" width="4.4" height="46.4"/>
				</g>
			</g>
		</g>
	</g>
	<g>
		<path class="st1" d="M866.9,1353c-1.4,1.6-3.2,3.6-5.3,6.2c-2.1,2.5-4.2,5.3-6.4,8.2c-2.2,3-4.3,6.1-6.5,9.2c-2.1,3.1-4,6.1-5.7,9
			h24.5v7H833v-5.2c0.9-1.7,1.9-3.4,3.1-5.3c1.2-1.9,2.4-3.9,3.7-5.9c1.3-2,2.7-4.1,4.1-6.2s2.9-4.1,4.2-6c1.4-1.9,2.8-3.7,4.1-5.5
			s2.6-3.3,3.8-4.7h-22v-7h32.7L866.9,1353z"/>
		<path class="st1" d="M905.2,1375.2c0,2.8-0.4,5.2-1.2,7.5c-0.8,2.3-1.9,4.2-3.4,5.7c-1.4,1.6-3.2,2.8-5.2,3.7
			c-2,0.9-4.3,1.3-6.8,1.3c-2.5,0-4.7-0.4-6.7-1.3c-2-0.9-3.7-2.1-5.2-3.7c-1.4-1.6-2.6-3.5-3.4-5.7c-0.8-2.3-1.2-4.7-1.2-7.5
			s0.4-5.2,1.2-7.4c0.8-2.2,2-4.1,3.4-5.7c1.5-1.6,3.2-2.8,5.2-3.7c2-0.9,4.2-1.3,6.7-1.3c2.4,0,4.7,0.4,6.7,1.3
			c2,0.9,3.8,2.1,5.2,3.7c1.4,1.6,2.6,3.5,3.4,5.7C904.7,1370,905.2,1372.5,905.2,1375.2z M897,1375.2c0-3.4-0.7-6.2-2.2-8.1
			c-1.5-2-3.5-3-6.2-3c-2.6,0-4.7,1-6.2,3c-1.5,2-2.2,4.7-2.2,8.1c0,3.5,0.7,6.2,2.2,8.2c1.5,2,3.5,3,6.2,3c2.6,0,4.7-1,6.2-3
			C896.2,1381.5,897,1378.7,897,1375.2z"/>
		<path class="st1" d="M913.4,1359.1c1.5-0.4,3.5-0.9,6-1.3c2.5-0.4,5.2-0.6,8.2-0.6c2.8,0,5.2,0.4,7,1.2s3.4,1.9,4.5,3.2
			c1.1,1.4,1.9,3.1,2.4,5c0.4,2,0.7,4.1,0.7,6.4v19.4h-8v-18.2c0-1.9-0.1-3.4-0.4-4.7c-0.2-1.3-0.7-2.4-1.2-3.2
			c-0.6-0.8-1.3-1.4-2.3-1.8c-0.9-0.4-2.1-0.6-3.5-0.6c-1,0-2.1,0.1-3.2,0.2c-1.1,0.1-1.9,0.2-2.4,0.3v27.8h-8L913.4,1359.1z"/>
		<path class="st1" d="M950.1,1375.4c0-3,0.4-5.7,1.4-8c0.9-2.3,2.1-4.2,3.6-5.7c1.5-1.5,3.2-2.6,5.2-3.4c1.9-0.8,3.9-1.2,5.9-1.2
			c4.7,0,8.5,1.5,11.1,4.4c2.6,3,4,7.4,4,13.2c0,0.4,0,0.9-0.1,1.5c0,0.5-0.1,1-0.1,1.5h-22.8c0.2,2.8,1.2,4.9,2.9,6.4
			c1.8,1.5,4.2,2.3,7.5,2.3c1.9,0,3.7-0.2,5.3-0.6c1.6-0.3,2.9-0.7,3.8-1.1l1,6.5c-0.4,0.2-1,0.4-1.8,0.7c-0.8,0.2-1.6,0.4-2.6,0.7
			c-1,0.2-2,0.4-3.2,0.5c-1.2,0.1-2.3,0.2-3.5,0.2c-3,0-5.7-0.4-7.9-1.4s-4.1-2.1-5.6-3.7c-1.4-1.6-2.5-3.5-3.2-5.7
			C950.4,1380.4,950.1,1378,950.1,1375.4z M973.2,1371.8c0-1.1-0.2-2.1-0.4-3.1c-0.3-1-0.8-1.9-1.4-2.6s-1.3-1.3-2.2-1.7
			c-0.9-0.4-1.9-0.6-3.1-0.6c-1.2,0-2.3,0.2-3.2,0.7c-0.9,0.4-1.7,1-2.4,1.8c-0.7,0.8-1.2,1.6-1.5,2.6s-0.6,2-0.7,3L973.2,1371.8z"
			/>
	</g>
	<g>
		<g>
			<g>
				<g>
					<g>
						<polygon class="st0" points="2578.3,1419.9 2578.3,1370.1 2755.3,1172.9 3108.6,1172.8 3285.7,1369.8 3285.7,1419.7 
							3108.7,1616.9 2755.5,1617 						"/>
					</g>
				</g>
				<g>
					<g>
						<path class="st1" d="M3106.6,1177.2l174.7,194.4v46.5l-174.6,194.5l-349.3,0.1l-174.7-194.4v-46.5l174.6-194.5L3106.6,1177.2
							 M3110.5,1168.4h-3.9l-349.3,0.1h-3.9l-2.6,2.9l-174.6,194.5l-2.3,2.5v3.4v46.5v3.4l2.3,2.5l174.7,194.4l2.6,2.9h3.9
							l349.3-0.1h3.9l2.6-2.9l174.6-194.5l2.3-2.5v-3.4v-46.5v-3.4l-2.3-2.5l-174.7-194.4L3110.5,1168.4L3110.5,1168.4z"/>
					</g>
				</g>
			</g>
			<g>
				<path class="st1" d="M3106.6,1177.2l174.7,194.4v46.5l-174.6,194.5l-349.3,0.1l-174.7-194.4v-46.5l174.6-194.5L3106.6,1177.2
					 M3108.6,1172.8h-2l-349.3,0.1h-2l-1.3,1.5l-174.6,194.5l-1.1,1.3v1.7v46.5v1.7l1.1,1.3l174.7,194.4l1.3,1.5h2l349.3-0.1h2
					l1.3-1.5l174.6-194.5l1.1-1.3v-1.7v-46.5v-1.7l-1.1-1.3l-174.7-194.4L3108.6,1172.8L3108.6,1172.8z"/>
			</g>
			<g>
				<line class="st2" x1="2932.1" y1="1394.9" x2="2932.1" y2="1394.9"/>
				<path class="st1" d="M2932.1,1394.9"/>
			</g>
			<g>
				<g>
					<line class="st2" x1="2932.1" y1="1394.9" x2="2932.1" y2="1394.9"/>
					<path class="st1" d="M2932.1,1394.9"/>
				</g>
			</g>
			<g>
				<g>
					<path class="st0" d="M2579.8,1371.8l176.6-196.7l351.3-0.1l176.7,196.6l-176.6,196.7l-351.3,0.1L2579.8,1371.8z M2771.8,1534.2
						l320.6-0.1l145.7-162.3l-145.8-162.2l-320.6,0.1L2626,1371.9L2771.8,1534.2z"/>
				</g>
				<g>
					<path class="st1" d="M3106.7,1177.2l174.7,194.4l-174.6,194.5l-349.4,0.1l-174.7-194.4l174.6-194.5L3106.7,1177.2
						 M2770.9,1536.4l322.6-0.1l147.7-164.5l-147.8-164.4l-322.6,0.1l-147.7,164.5L2770.9,1536.4 M3108.7,1172.8h-2l-349.4,0.1h-2
						l-1.3,1.5l-174.6,194.5l-2.6,2.9l2.6,2.9l174.7,194.4l1.3,1.5h2l349.4-0.1h2l1.3-1.5l174.6-194.5l2.6-2.9l-2.6-2.9L3110,1174.2
						L3108.7,1172.8L3108.7,1172.8z M2772.7,1211.8l318.7-0.1l143.8,160l-143.8,160.1l-318.7,0.1l-143.8-160L2772.7,1211.8
						L2772.7,1211.8z"/>
				</g>
			</g>
			<g>
				<g>
					<rect x="2754.7" y="1567.7" class="st1" width="4.4" height="46.4"/>
				</g>
				<g>
					<rect x="3105" y="1567.6" class="st1" width="4.4" height="46.4"/>
				</g>
			</g>
		</g>
	</g>
	<g>
		<path class="st1" d="M2884.8,1352.3c-1.4,1.6-3.2,3.6-5.3,6.2c-2.1,2.5-4.2,5.3-6.4,8.2c-2.2,3-4.3,6-6.5,9.2
			c-2.1,3.1-4,6.1-5.7,9h24.5v7h-34.6v-5.2c0.9-1.7,1.9-3.4,3.1-5.3c1.2-1.9,2.4-3.9,3.7-5.9c1.3-2,2.7-4.1,4.1-6.2
			c1.4-2.1,2.9-4.1,4.2-6c1.4-1.9,2.8-3.7,4.1-5.5c1.3-1.8,2.6-3.3,3.8-4.7h-22v-7h32.7L2884.8,1352.3z"/>
		<path class="st1" d="M2923.1,1374.6c0,2.8-0.4,5.2-1.2,7.5c-0.8,2.3-1.9,4.2-3.4,5.7c-1.4,1.6-3.2,2.8-5.2,3.7
			c-2,0.9-4.3,1.3-6.8,1.3s-4.7-0.4-6.7-1.3c-2-0.9-3.7-2.1-5.2-3.7c-1.4-1.6-2.6-3.5-3.4-5.7c-0.8-2.3-1.2-4.7-1.2-7.5
			s0.4-5.2,1.2-7.4c0.8-2.2,2-4.1,3.4-5.7c1.5-1.6,3.2-2.8,5.2-3.7c2-0.9,4.2-1.3,6.7-1.3c2.4,0,4.7,0.4,6.7,1.3
			c2,0.9,3.8,2.1,5.2,3.7c1.4,1.6,2.6,3.5,3.4,5.7C2922.7,1369.4,2923.1,1371.9,2923.1,1374.6z M2914.9,1374.6
			c0-3.4-0.7-6.2-2.2-8.1c-1.5-2-3.5-3-6.2-3c-2.6,0-4.7,1-6.2,3c-1.5,2-2.2,4.7-2.2,8.1c0,3.5,0.7,6.2,2.2,8.2c1.5,2,3.5,3,6.2,3
			c2.6,0,4.7-1,6.2-3C2914.2,1380.8,2914.9,1378.1,2914.9,1374.6z"/>
		<path class="st1" d="M2931.4,1358.5c1.5-0.4,3.5-0.9,6-1.3c2.5-0.4,5.2-0.6,8.2-0.6c2.8,0,5.2,0.4,7,1.2s3.4,1.9,4.5,3.2
			c1.1,1.4,1.9,3.1,2.4,5c0.4,2,0.7,4.1,0.7,6.4v19.4h-8v-18.2c0-1.9-0.1-3.4-0.4-4.7c-0.2-1.3-0.7-2.4-1.2-3.2
			c-0.6-0.8-1.3-1.4-2.3-1.8c-0.9-0.4-2.1-0.5-3.5-0.5c-1,0-2.1,0.1-3.2,0.2c-1.1,0.1-1.9,0.2-2.4,0.3v27.8h-8L2931.4,1358.5z"/>
		<path class="st1" d="M2968,1374.8c0-3,0.4-5.7,1.4-8c0.9-2.3,2.1-4.2,3.6-5.7c1.5-1.5,3.2-2.6,5.2-3.4c1.9-0.8,3.9-1.2,5.9-1.2
			c4.7,0,8.5,1.5,11.1,4.4c2.6,3,4,7.4,4,13.2c0,0.4,0,0.9-0.1,1.5c0,0.5-0.1,1-0.1,1.5h-22.8c0.2,2.8,1.2,4.9,2.9,6.4
			c1.8,1.5,4.2,2.3,7.5,2.3c1.9,0,3.7-0.2,5.3-0.6c1.6-0.3,2.9-0.7,3.8-1.1l1,6.5c-0.4,0.2-1,0.4-1.8,0.7c-0.8,0.2-1.7,0.4-2.6,0.7
			s-2,0.4-3.2,0.5c-1.2,0.1-2.3,0.2-3.5,0.2c-3,0-5.7-0.4-7.9-1.4c-2.3-0.9-4.1-2.1-5.6-3.7c-1.4-1.6-2.5-3.5-3.2-5.7
			C2968.4,1379.8,2968,1377.4,2968,1374.8z M2991.2,1371.2c0-1.1-0.2-2.1-0.4-3.1c-0.3-1-0.8-1.9-1.4-2.6c-0.6-0.7-1.3-1.3-2.2-1.7
			c-0.9-0.4-1.9-0.6-3.1-0.6s-2.3,0.2-3.2,0.7c-0.9,0.4-1.7,1-2.4,1.8c-0.7,0.8-1.2,1.6-1.5,2.6c-0.3,1-0.6,2-0.7,3L2991.2,1371.2z"
			/>
	</g>
	<g>
		<g>
			<rect x="1877.8" y="1250.6" class="st0" width="84.7" height="350.4"/>
		</g>
		<g>
			<path class="st1" d="M1958.1,1255v341.6h-75.9V1255H1958.1 M1966.9,1246.2h-8.8h-75.9h-8.8v8.8v341.6v8.8h8.8h75.9h8.8v-8.8V1255
				V1246.2L1966.9,1246.2z"/>
		</g>
	</g>
	<g>
		<g>
			<g>
				<g>
					<g>
						<g>
							<polygon class="st0" points="1565,1820.8 1565,1771 1742,1573.8 2095.2,1573.7 2272.3,1770.8 2272.4,1820.6 2095.4,2017.9 
								1742.1,2018 							"/>
						</g>
					</g>
					<g>
						<g>
							<path class="st1" d="M2093.3,1578.1l174.7,194.4v46.5l-174.6,194.5l-349.3,0.1l0,0l-174.7-194.4v-46.5l174.6-194.5
								L2093.3,1578.1 M2097.2,1569.3h-3.9l-349.3,0.1h-3.9l-2.6,2.9l-174.6,194.5l-2.3,2.5v3.4v46.5v3.4l2.3,2.5l174.7,194.4
								l2.6,2.9h3.9l349.3-0.1h3.9l2.6-2.9l174.6-194.5l2.3-2.5v-3.4v-46.5v-3.4l-2.3-2.5l-174.7-194.4L2097.2,1569.3L2097.2,1569.3
								z"/>
						</g>
					</g>
				</g>
				<g>
					<path class="st1" d="M2093.3,1578.1l174.7,194.4v46.5l-174.6,194.5l-349.3,0.1l-174.7-194.4v-46.5l174.6-194.5L2093.3,1578.1
						 M2095.2,1573.7h-2l-349.3,0.1h-2l-1.3,1.5l-174.6,194.5l-1.1,1.3v1.7v46.5v1.7l1.1,1.3l174.7,194.4l1.3,1.5h2l349.3-0.1h2
						l1.3-1.5l174.6-194.5l1.1-1.3v-1.7v-46.5v-1.7l-1.1-1.3l-174.8-194.4L2095.2,1573.7L2095.2,1573.7z"/>
				</g>
				<g>
					<line class="st2" x1="1918.8" y1="1795.9" x2="1918.8" y2="1795.9"/>
					<path class="st1" d="M1918.8,1795.9"/>
				</g>
				<g>
					<g>
						<line class="st2" x1="1918.8" y1="1795.9" x2="1918.8" y2="1795.9"/>
						<path class="st1" d="M1918.8,1795.9"/>
					</g>
				</g>
				<g>
					<g>
						<path class="st0" d="M1566.5,1772.8l176.6-196.7l351.3-0.1l176.7,196.6l-176.6,196.7l-351.3,0.1L1566.5,1772.8z
							 M1758.5,1935.1l320.6-0.1l145.8-162.3l-145.8-162.2l-320.6,0.1l-145.8,162.3L1758.5,1935.1z"/>
					</g>
					<g>
						<path class="st1" d="M2093.4,1578.1l174.7,194.4l-174.6,194.5l-349.4,0.1l-174.7-194.4l174.6-194.5L2093.4,1578.1
							 M1757.5,1937.3l322.6-0.1l147.7-164.5L2080,1608.3l-322.6,0.1l-147.7,164.5L1757.5,1937.3 M2095.4,1573.7h-2l-349.4,0.1h-2
							l-1.3,1.5l-174.6,194.5l-2.6,2.9l2.6,2.9l174.7,194.4l1.3,1.5h2l349.4-0.1h2l1.3-1.5l174.6-194.5l2.6-2.9l-2.6-2.9
							l-174.7-194.4L2095.4,1573.7L2095.4,1573.7z M1759.4,1612.8l318.7-0.1l143.8,160.1l-143.8,160.1l-318.7,0.1l-143.8-160
							L1759.4,1612.8L1759.4,1612.8z"/>
					</g>
				</g>
				<g>
					<g>
						<rect x="1741.4" y="1968.7" class="st1" width="4.4" height="46.4"/>
					</g>
					<g>
						<rect x="2091.7" y="1968.6" class="st1" width="4.4" height="46.4"/>
					</g>
				</g>
			</g>
		</g>
		<g>
			<path class="st1" d="M1871.5,1743.4c-1.4,1.6-3.2,3.6-5.3,6.2c-2.1,2.5-4.2,5.3-6.4,8.2c-2.2,3-4.3,6-6.5,9.2s-4,6.1-5.7,9h24.5
				v7h-34.6v-5.2c0.9-1.7,1.9-3.4,3.1-5.3c1.2-1.9,2.4-3.9,3.7-5.9c1.3-2,2.7-4.1,4.1-6.2c1.4-2.1,2.9-4.1,4.2-6
				c1.4-1.9,2.8-3.7,4.1-5.5c1.3-1.8,2.6-3.3,3.8-4.7h-22v-7h32.7L1871.5,1743.4z"/>
			<path class="st1" d="M1909.8,1765.7c0,2.8-0.4,5.2-1.2,7.5c-0.8,2.3-1.9,4.2-3.4,5.7c-1.4,1.6-3.2,2.8-5.2,3.7
				c-2,0.9-4.3,1.3-6.8,1.3s-4.7-0.4-6.7-1.3c-2-0.9-3.7-2.1-5.2-3.7c-1.4-1.6-2.6-3.5-3.4-5.7c-0.8-2.3-1.2-4.7-1.2-7.5
				s0.4-5.2,1.2-7.4c0.8-2.2,2-4.1,3.4-5.7c1.5-1.6,3.2-2.8,5.2-3.7c2-0.9,4.2-1.3,6.7-1.3c2.4,0,4.7,0.4,6.7,1.3
				c2,0.9,3.8,2.1,5.2,3.7c1.4,1.6,2.6,3.5,3.4,5.7C1909.3,1760.5,1909.8,1762.9,1909.8,1765.7z M1901.6,1765.7
				c0-3.4-0.7-6.2-2.2-8.1c-1.5-2-3.5-3-6.2-3c-2.6,0-4.7,1-6.2,3c-1.5,2-2.2,4.7-2.2,8.1c0,3.5,0.7,6.2,2.2,8.2c1.5,2,3.5,3,6.2,3
				c2.6,0,4.7-1,6.2-3C1900.8,1771.9,1901.6,1769.1,1901.6,1765.7z"/>
			<path class="st1" d="M1918,1749.6c1.5-0.4,3.5-0.9,6-1.3c2.5-0.4,5.2-0.6,8.2-0.6c2.8,0,5.2,0.4,7,1.2c1.9,0.8,3.4,1.9,4.5,3.2
				c1.1,1.4,1.9,3.1,2.4,5c0.4,2,0.7,4.1,0.7,6.4v19.4h-8v-18.2c0-1.9-0.1-3.4-0.4-4.7c-0.2-1.3-0.7-2.4-1.2-3.2
				c-0.5-0.8-1.3-1.4-2.3-1.8c-0.9-0.4-2.1-0.5-3.5-0.5c-1,0-2.1,0.1-3.2,0.2c-1.1,0.1-1.9,0.2-2.4,0.3v27.8h-8L1918,1749.6z"/>
			<path class="st1" d="M1954.7,1765.8c0-3,0.4-5.7,1.4-8c0.9-2.3,2.1-4.2,3.6-5.7c1.5-1.5,3.2-2.6,5.2-3.4c1.9-0.8,3.9-1.2,5.9-1.2
				c4.7,0,8.5,1.5,11.1,4.4c2.6,3,4,7.4,4,13.2c0,0.4,0,0.9-0.1,1.5c0,0.6-0.1,1-0.1,1.5H1963c0.2,2.8,1.2,4.9,2.9,6.4
				c1.8,1.5,4.2,2.3,7.5,2.3c1.9,0,3.7-0.2,5.3-0.6c1.6-0.3,2.9-0.7,3.8-1.1l1,6.5c-0.4,0.2-1,0.4-1.8,0.7c-0.8,0.2-1.6,0.4-2.6,0.7
				c-1,0.2-2,0.4-3.2,0.5s-2.3,0.2-3.5,0.2c-3,0-5.7-0.4-7.9-1.4c-2.3-0.9-4.1-2.1-5.6-3.7c-1.4-1.6-2.5-3.5-3.2-5.7
				C1955,1770.9,1954.7,1768.4,1954.7,1765.8z M1977.9,1762.3c0-1.1-0.2-2.1-0.4-3.1c-0.3-1-0.8-1.9-1.4-2.6
				c-0.6-0.7-1.3-1.3-2.2-1.7c-0.9-0.4-1.9-0.6-3.1-0.6s-2.3,0.2-3.2,0.7c-0.9,0.4-1.7,1-2.4,1.8s-1.2,1.6-1.5,2.6
				c-0.3,1-0.6,2-0.7,3L1977.9,1762.3z"/>
		</g>
	</g>
</g>
</svg>
