<?xml version="1.0" encoding="utf-8"?>
<!-- Generator: Adobe Illustrator 22.1.0, SVG Export Plug-In . SVG Version: 6.00 Build 0)  -->
<svg version="1.1" id="Layer_1" xmlns="http://www.w3.org/2000/svg" xmlns:xlink="http://www.w3.org/1999/xlink" x="0px" y="0px"
	 viewBox="0 0 3840 2160" style="enable-background:new 0 0 3840 2160;" xml:space="preserve">
<style type="text/css">
	.st0{fill:#FFFFFF;}
	.st1{fill:#149ADD;}
	.st2{fill:none;}
	.st3{fill:#FFFFFF;stroke:#149ADD;stroke-width:8;stroke-miterlimit:10;}
	.st4{fill:none;stroke:#149ADD;stroke-width:16;stroke-miterlimit:10;}
	.st5{fill:#3232CC;}
	.st6{fill:none;stroke:#0BA833;stroke-width:8;stroke-miterlimit:10;}
	.st7{fill:none;stroke:#0BA833;stroke-miterlimit:10;}
	.st8{fill:#FFFFFF;stroke:#E58800;stroke-width:8;stroke-miterlimit:10;}
	.st9{fill:none;stroke:#E58800;stroke-width:16;stroke-miterlimit:10;}
	.st10{fill:#E58800;}
	.st11{font-family:sans-serif;}
	.st12{font-size:72px;}
	.st13{fill:none;stroke:#000000;stroke-width:2;stroke-miterlimit:10;}
</style>
<g id="Layer_1_1_">
	<g>
		<g>
			<g>
				<g>
					<g>
						<g>
							<g>
								<polygon class="st0" points="2798.9,965.9 2538,675.4 2538,602.8 2798.9,312.3 3319.7,312.3 3580.6,602.8 3580.6,675.4 
									3319.7,965.9 								"/>
							</g>
						</g>
						<g>
							<g>
								<path class="st1" d="M3317.3,317.5l258,287.3v68.6l-258,287.3h-516.1l-258.1-287.3v-68.6l258.1-287.3H3317.3 M3321.9,307.1
									h-4.6h-516.1h-4.6l-3.1,3.4l-258.1,287.3l-2.7,3v4v68.6v4l2.7,3l258.1,287.3l3.1,3.4h4.6h516.1h4.6l3.1-3.4l258.1-287.3
									l2.7-3v-4v-68.6v-4l-2.7-3l-258.1-287.3L3321.9,307.1L3321.9,307.1z"/>
							</g>
						</g>
					</g>
					<g>
						<path class="st1" d="M3317.3,317.5l258,287.3v68.6l-258,287.3h-516.1l-258.1-287.3v-68.6l258.1-287.3H3317.3 M3319.7,312.3
							h-2.3h-516.1h-2.3l-1.6,1.8l-258.1,287.3l-1.3,1.5v2v68.6v2l1.3,1.5l258.1,287.3l1.6,1.8h2.3h516.1h2.3l1.6-1.8L3579.3,677
							l1.3-1.5v-2v-68.7v-2l-1.3-1.5L3321.2,314L3319.7,312.3L3319.7,312.3z"/>
					</g>
					<g>
						<line class="st2" x1="3059.3" y1="639.1" x2="3059.3" y2="639.1"/>
						<path class="st1" d="M3059.3,639.1"/>
					</g>
					<g>
						<g>
							<line class="st2" x1="3059.3" y1="639.1" x2="3059.3" y2="639.1"/>
							<path class="st1" d="M3059.3,639.1"/>
						</g>
					</g>
					<g>
						<g>
							<path class="st0" d="M2800.1,894.7l-260.4-289.9l260.4-289.9h518.4l260.4,289.9l-260.4,289.9H2800.1z M3296.4,845.1
								l216-240.4l-216-240.4h-474.3l-215.9,240.4l215.9,240.4H3296.4z"/>
						</g>
						<g>
							<path class="st1" d="M3317.3,317.5l258,287.3l-258,287.3h-516.1l-258.1-287.3l258.1-287.3H3317.3 M2821,847.7h476.6
								l218.2-243l-218.3-243h-476.6l-218.2,243L2821,847.7 M3319.7,312.3h-2.3h-516.1h-2.3l-1.6,1.8l-258.1,287.3l-3.1,3.4l3.1,3.4
								l258.1,287.3l1.6,1.8h2.3h516.1h2.3l1.6-1.8l258.1-287.3l3.1-3.4l-3.1-3.4L3321.2,314L3319.7,312.3L3319.7,312.3z
								 M2823.3,366.9h472l213.7,237.8l-213.6,237.8h-472l-213.7-237.8L2823.3,366.9L2823.3,366.9z"/>
						</g>
					</g>
					<g>
						<g>
							<rect x="2797.9" y="894.3" class="st1" width="5.2" height="68.6"/>
						</g>
						<g>
							<rect x="3315.4" y="894.3" class="st1" width="5.2" height="68.6"/>
						</g>
					</g>
				</g>
			</g>
			<g>
				<polygon class="st1" points="3059.7,650.9 2869.5,609.2 3059.9,729.6 3249.9,609.2 				"/>
				<polygon class="st1" points="3058.8,633.8 3248.5,592.2 3058.8,467.8 2869,592.2 				"/>
			</g>
		</g>
		<g>
			<g>
				<polygon class="st3" points="2674.3,775.7 2635.3,732.8 2519.5,774.9 2519.5,795 2558.4,837.7 2674.3,795.7 				"/>
				<polygon class="st4" points="2674.3,775.7 2635.3,732.8 2519.5,774.9 2519.5,795 2558.4,837.7 2674.3,795.7 				"/>
				<polygon class="st3" points="2635.3,732.8 2519.5,774.9 2558.4,817.7 2674.3,775.7 				"/>
			</g>
			<g>
				<g>
					<g>
						<polygon class="st0" points="2325,855.7 2325,758.8 2500.4,694.8 2607,816.1 2607,912.9 2431.6,977 						"/>
					</g>
					<g>
						<path class="st1" d="M2498.8,700.9l103,117.1v91.3l-168.7,61.6l-103-117.1v-91.3L2498.8,700.9 M2502,688.7l-6.7,2.5
							l-168.7,61.6l-6.8,2.5v7.3v91.3v3.9l2.6,2.9l103,117.1l4.7,5.3l6.7-2.5l168.7-61.6l6.8-2.5v-7.3V818v-3.9l-2.6-2.9l-103-117.1
							L2502,688.7L2502,688.7z"/>
					</g>
				</g>
				<g>
					<polygon class="st0" points="2499,700.8 2330.2,762.4 2433.1,879.6 2601.8,818 					"/>
					<path class="st1" d="M2432.4,882.7l-106.5-121.4l173.9-63.5l106.5,121.4L2432.4,882.7z M2334.7,763.6l99.2,113l163.5-59.7
						l-99.2-113L2334.7,763.6z"/>
				</g>
				<g>
					<line class="st2" x1="2433.1" y1="879.5" x2="2433.1" y2="970.7"/>
					<rect x="2430.5" y="879.5" class="st1" width="5.2" height="91.3"/>
				</g>
			</g>
			<g>
				<polygon class="st3" points="2394.3,878.9 2355.4,836.1 2267.6,867.1 2267.6,887.1 2306.5,929.9 2394.3,898.9 				"/>
				<polygon class="st4" points="2394.3,878.9 2355.4,836.1 2267.6,867.1 2267.6,887.1 2306.5,929.9 2394.3,898.9 				"/>
				<polygon class="st3" points="2355.4,836.1 2267.6,867.1 2306.5,909.9 2394.3,878.9 				"/>
			</g>
		</g>
		<g>
			<g>
				<g>
					<g>
						<g>
							<g>
								<polygon class="st0" points="1660,1398.4 1399,1107.9 1399,1035.3 1660,744.9 2180.7,744.9 2441.6,1035.3 2441.6,1107.9 
									2180.7,1398.4 								"/>
							</g>
						</g>
						<g>
							<g>
								<path class="st5" d="M2178.4,750.1l258.1,287.3v68.6l-258.1,287.3h-516.1L1404.2,1106v-68.6l258.1-287.3H2178.4 M2183,739.7
									h-4.6h-516.1h-4.6l-3.1,3.4l-258.1,287.3l-2.7,3v4v68.6v4l2.7,3l258.1,287.3l3.1,3.4h4.6h516.1h4.6l3.1-3.4l258.1-287.3
									l2.7-3v-4v-68.6v-4l-2.7-3l-258.1-287.3L2183,739.7L2183,739.7z"/>
							</g>
						</g>
					</g>
					<g>
						<path class="st5" d="M2178.4,750.1l258.1,287.3v68.6l-258.1,287.3h-516.1L1404.2,1106v-68.6l258.1-287.3H2178.4 M2180.7,744.9
							h-2.3h-516.1h-2.3l-1.6,1.8l-258.1,287.3l-1.3,1.5v2v68.6v2l1.3,1.5l258.1,287.3l1.6,1.8h2.3h516.1h2.3l1.6-1.8l258.1-287.3
							l1.3-1.5v-2v-68.6v-2l-1.3-1.5l-258.1-287.3L2180.7,744.9L2180.7,744.9z"/>
					</g>
					<g>
						<line class="st2" x1="1920.3" y1="1071.7" x2="1920.3" y2="1071.7"/>
						<path class="st5" d="M1920.3,1071.7"/>
					</g>
					<g>
						<g>
							<line class="st2" x1="1920.3" y1="1071.7" x2="1920.3" y2="1071.7"/>
							<path class="st5" d="M1920.3,1071.7"/>
						</g>
					</g>
					<g>
						<g>
							<path class="st0" d="M1661.1,1327.2l-260.4-289.9l260.4-289.9h518.4l260.4,289.9l-260.4,289.9H1661.1z M2157.5,1277.7
								l215.9-240.4L2157.5,797h-474.3l-215.9,240.4l215.9,240.4H2157.5z"/>
						</g>
						<g>
							<path class="st5" d="M2178.4,750.1l258.1,287.3l-258.1,287.3h-516.1l-258.1-287.3l258.1-287.3H2178.4 M1682,1280.3h476.6
								l218.3-243l-218.3-243H1682l-218.3,243L1682,1280.3 M2180.7,744.9h-2.3h-516.1h-2.3l-1.6,1.8l-258.1,287.3l-3.1,3.4l3.1,3.4
								l258.1,287.3l1.6,1.8h2.3h516.1h2.3l1.6-1.8l258.1-287.3l3.1-3.4l-3.1-3.4l-258.1-287.3L2180.7,744.9L2180.7,744.9z
								 M1684.3,799.5h472l213.6,237.8l-213.6,237.8h-472l-213.6-237.8L1684.3,799.5L1684.3,799.5z"/>
						</g>
					</g>
					<g>
						<g>
							<rect x="1658.9" y="1326.8" class="st5" width="5.2" height="68.6"/>
						</g>
						<g>
							<rect x="2176.5" y="1326.8" class="st5" width="5.2" height="68.6"/>
						</g>
					</g>
				</g>
			</g>
			<g>
				<path class="st5" d="M2001.8,1109.5c22.1-4.6,41.2-10.8,57.3-18.7c16.1-7.9,28.7-17,37.6-27.4s13.3-21.6,13.3-33.3
					c0-11.7-4.4-22.8-13.3-33.3c-5.3-6.2-11.8-12-19.5-17.2l107.3-51.6l-42.6-20.5l-107.6,51.7c-9.7-3.2-20.2-5.9-31.5-8.2
					c-22.1-4.5-46.5-6.8-73.1-6.8c-26.7,0-51.1,2.3-73.1,6.9c-22.1,4.6-41.2,10.8-57.3,18.7s-28.7,17-37.6,27.4
					c-8.9,10.5-13.3,21.6-13.3,33.3c0,11.7,4.4,22.8,13.3,33.3c5.3,6.2,11.8,12,19.5,17.2l-107.3,51.6l42.6,20.5l107.6-51.7
					c9.7,3.2,20.2,5.9,31.5,8.2c22.1,4.5,46.5,6.8,73.1,6.8S1979.7,1114.1,2001.8,1109.5z M1976.8,1084.9
					c-14.4,3.1-30.1,4.6-47.2,4.6c-17.2,0-33-1.6-47.4-4.7c-5.4-1.2-10.5-2.5-15.3-4l165-79.3c2.1,2,4,4,5.8,6.2
					c5.8,7.2,8.6,14.9,8.6,22.9c0,8.1-2.9,15.7-8.6,22.9c-5.8,7.2-13.8,13.5-24,18.8C2003.4,1077.7,1991.1,1081.8,1976.8,1084.9z
					 M1991.4,980l-165,79.4c-2.1-2-4-4-5.8-6.2c-5.8-7.2-8.6-14.9-8.6-22.9c0-8.1,2.9-15.7,8.6-22.9s13.8-13.5,24-18.8
					c10.2-5.3,22.5-9.5,36.8-12.6c14.4-3.1,30.1-4.6,47.2-4.6c17.2,0,33,1.6,47.5,4.7C1981.4,977.2,1986.6,978.5,1991.4,980z"/>
			</g>
		</g>
		<line class="st6" x1="1817.8" y1="1330.4" x2="1817.8" y2="1330.4"/>
		<g>
			<line class="st7" x1="1817.8" y1="1330.4" x2="1817.8" y2="1330.4"/>
		</g>
		<g>
			<g>
				<polygon class="st8" points="1539.7,1213.8 1500.8,1171 1384.9,1213.1 1384.9,1233.1 1423.8,1275.9 1539.7,1233.8 				"/>
				<polygon class="st9" points="1539.7,1213.8 1500.8,1171 1384.9,1213.1 1384.9,1233.1 1423.8,1275.9 1539.7,1233.8 				"/>
				<polygon class="st8" points="1500.8,1171 1384.9,1213.1 1423.8,1255.9 1539.7,1213.8 				"/>
			</g>
			<g>
				<g>
					<g>
						<polygon class="st0" points="1190.4,1293.9 1190.4,1197 1365.8,1133 1472.4,1254.3 1472.4,1351.1 1297,1415.1 						"/>
					</g>
					<g>
						<path class="st10" d="M1364.3,1139.1l103,117.1v91.3l-168.7,61.6l-103-117.1v-91.3L1364.3,1139.1 M1367.4,1126.9l-6.7,2.5
							l-168.7,61.6l-6.8,2.5v7.3v91.3v3.9l2.6,2.9l103,117.1l4.7,5.3l6.7-2.5l168.7-61.6l6.8-2.5v-7.3v-91.3v-3.9l-2.6-2.9
							l-103-117.1L1367.4,1126.9L1367.4,1126.9z"/>
					</g>
				</g>
				<g>
					<polygon class="st0" points="1364.4,1139 1195.7,1200.6 1298.6,1317.8 1467.2,1256.2 					"/>
					<path class="st10" d="M1297.8,1320.8l-106.5-121.4l173.9-63.5l106.5,121.4L1297.8,1320.8z M1200.1,1201.7l99.2,113l163.5-59.7
						l-99.2-113L1200.1,1201.7z"/>
				</g>
				<g>
					<line class="st2" x1="1298.5" y1="1317.6" x2="1298.5" y2="1408.9"/>
					<rect x="1295.9" y="1317.6" class="st10" width="5.2" height="91.3"/>
				</g>
			</g>
			<g>
				<polygon class="st8" points="1259.8,1317.1 1220.9,1274.3 1133,1305.2 1133,1325.2 1171.9,1368.1 1259.8,1337.1 				"/>
				<polygon class="st9" points="1259.8,1317.1 1220.9,1274.3 1133,1305.2 1133,1325.2 1171.9,1368.1 1259.8,1337.1 				"/>
				<polygon class="st8" points="1220.9,1274.3 1133,1305.2 1171.9,1348.1 1259.8,1317.1 				"/>
			</g>
		</g>
		<g>
			<g>
				<g>
					<g>
						<g>
							<g>
								<polygon class="st0" points="519.3,1847.3 258.4,1556.8 258.4,1484.2 519.3,1193.7 1040.1,1193.7 1301,1484.2 1301,1556.8 
									1040.1,1847.3 								"/>
							</g>
						</g>
						<g>
							<g>
								<path class="st10" d="M1037.8,1198.9l258,287.3v68.6l-258,287.3H521.7l-258.1-287.3v-68.6l258.1-287.3H1037.8
									 M1042.4,1188.5h-4.6H521.7h-4.6l-3.1,3.4l-258,287.3l-2.7,3v4v68.6v4l2.7,3l258,287.3l3.1,3.4h4.6h516.1h4.6l3.1-3.4
									l258.1-287.3l2.7-3v-4v-68.6v-4l-2.7-3l-258.1-287.3L1042.4,1188.5L1042.4,1188.5z"/>
							</g>
						</g>
					</g>
					<g>
						<path class="st10" d="M1037.8,1198.9l258,287.3v68.6l-258,287.3H521.7l-258.1-287.3v-68.6l258.1-287.3H1037.8 M1040.1,1193.7
							h-2.3H521.7h-2.3l-1.6,1.8l-258,287.3l-1.3,1.5v2v68.6v2l1.3,1.5l258,287.3l1.6,1.8h2.3h516.1h2.3l1.6-1.8l258.1-287.3
							l1.3-1.5v-2v-68.7v-2l-1.3-1.5l-258.1-287.3L1040.1,1193.7L1040.1,1193.7z"/>
					</g>
					<g>
						<line class="st2" x1="779.7" y1="1520.5" x2="779.7" y2="1520.5"/>
						<path class="st10" d="M779.7,1520.5"/>
					</g>
					<g>
						<g>
							<line class="st2" x1="779.7" y1="1520.5" x2="779.7" y2="1520.5"/>
							<path class="st10" d="M779.7,1520.5"/>
						</g>
					</g>
					<g>
						<g>
							<path class="st0" d="M520.5,1776.1l-260.4-289.9l260.4-289.9h518.4l260.4,289.9l-260.4,289.9H520.5z M1016.8,1726.6
								l216-240.4l-215.9-240.4H542.6l-216,240.4l215.9,240.4H1016.8z"/>
						</g>
						<g>
							<path class="st10" d="M1037.8,1198.9l258,287.3l-258,287.3H521.7l-258.1-287.3l258.1-287.3H1037.8 M541.4,1729.2h476.6
								l218.2-243l-218.3-243H541.4l-218.2,243L541.4,1729.2 M1040.1,1193.7h-2.3H521.7h-2.3l-1.6,1.8l-258,287.3l-3.1,3.4l3.1,3.4
								l258,287.3l1.6,1.8h2.3h516.1h2.3l1.6-1.8l258.1-287.3l3.1-3.4l-3.1-3.4l-258.1-287.3L1040.1,1193.7L1040.1,1193.7z
								 M543.7,1248.3h472l213.7,237.8l-213.6,237.8h-472l-213.7-237.8L543.7,1248.3L543.7,1248.3z"/>
						</g>
					</g>
					<g>
						<g>
							<rect x="518.4" y="1775.7" class="st10" width="5.2" height="68.6"/>
						</g>
						<g>
							<rect x="1035.9" y="1775.7" class="st10" width="5.2" height="68.6"/>
						</g>
					</g>
				</g>
			</g>
			<g>
				<path class="st10" d="M910.6,1471c21.5,11,35.1,26.7,35.2,44.1v3.4c0.3,33.1-48,60.1-107.7,60.1h-2.7l0.1,17.7h-69.4l-0.1-17.7
					h-28.5l0.1,17.7h-69.6l-0.1-17.7h-16.2h-34.4l-0.3-38.6h34.5l-0.4-46.3l-0.3-38.6l-0.4-41.8H616l-0.3-38.6h34.5h16.2l-0.2-21.7
					h69.5l0.2,21.7h28.5l-0.2-21.7h69.5l0.2,21.9c54.5,1.8,98.2,27,98.4,57.7v3.2C932.3,1449,924.2,1461.2,910.6,1471z
					 M876.4,1518.4v-3.4c-0.1-11.9-17.5-21.5-38.9-21.5h-9H720.6l0.4,46.3h14.8h102C859.2,1539.9,876.5,1530.3,876.4,1518.4
					 M719.9,1413.2l0.4,41.8h107.8c19.2,0,34.7-8.6,34.6-19.3v-3.2c-0.1-10.7-15.8-19.3-34.9-19.3h-93.1L719.9,1413.2"/>
			</g>
		</g>
	</g>
</g>
<g id="Layer_2_1_">
	<g>
		<text transform="matrix(1 0 0 1 3316.0144 1225.5356)" class="st11 st12">Peg Zone</text>
		<g>
			<g>
				<polyline class="st13" points="3280,1201.5 2824,1201.5 2481.9,813.7 				"/>
				<g>
					<path d="M2487.8,809c-2.7-3.1-7.5-3.4-10.6-0.7s-3.4,7.5-0.7,10.6s7.5,3.4,10.6,0.7S2490.5,812.1,2487.8,809z"/>
				</g>
			</g>
		</g>
		<text transform="matrix(1 0 0 1 2184.5051 1664.5005)" class="st11 st12">Peg Zone</text>
		<g>
			<g>
				<polyline class="st13" points="2148.5,1640.5 1692.5,1640.5 1350.4,1252.7 				"/>
				<g>
					<path d="M1356.3,1248c-2.7-3.1-7.5-3.4-10.6-0.7c-3.1,2.7-3.4,7.5-0.7,10.6c2.7,3.1,7.5,3.4,10.6,0.7S1359,1251.1,1356.3,1248z
						"/>
				</g>
			</g>
		</g>
	</g>
</g>
</svg>
