<?xml version="1.0" encoding="utf-8"?>
<!-- Generator: Adobe Illustrator 22.1.0, SVG Export Plug-In . SVG Version: 6.00 Build 0)  -->
<svg version="1.1" id="Layer_1" xmlns="http://www.w3.org/2000/svg" xmlns:xlink="http://www.w3.org/1999/xlink" x="0px" y="0px"
	 viewBox="0 0 3840 2160" style="enable-background:new 0 0 3840 2160;" xml:space="preserve">
<style type="text/css">
	.st0{fill:#FFFFFF;}
	.st1{fill:#149ADD;}
	.st2{fill:none;}
	.st3{fill:#3232CC;}
</style>
<g id="Layer_1_1_">
	<g>
		<g>
			<g>
				<g>
					<g>
						<g>
							<g>
								<polygon class="st0" points="2783.5,653.5 2542.7,385.4 2542.7,318.3 2783.5,50.3 3264.1,50.3 3505,318.3 3505,385.4 
									3264.1,653.5 								"/>
							</g>
						</g>
						<g>
							<g>
								<path class="st1" d="M3262,55.1l238.1,265.1v63.4L3262,648.7h-476.3l-238.1-265.1v-63.4l238.1-265.1H3262 M3266.3,45.5h-4.3
									h-476.3h-4.3l-2.9,3.2l-238.1,265.1l-2.5,2.8v3.7v63.4v3.7l2.5,2.8l238.1,265.1l2.9,3.2h4.3H3262h4.3l2.9-3.2l238.1-265.1
									l2.5-2.8v-3.7v-63.4v-3.7l-2.5-2.8L3269.2,48.6L3266.3,45.5L3266.3,45.5z"/>
							</g>
						</g>
					</g>
					<g>
						<path class="st1" d="M3262,55.1l238.1,265.1v63.4L3262,648.7h-476.3l-238.1-265.1v-63.4l238.1-265.1H3262 M3264.1,50.3h-2.2
							h-476.3h-2.2l-1.4,1.6L2543.9,317l-1.2,1.4v1.9v63.4v1.9l1.2,1.4L2782.1,652l1.4,1.6h2.2H3262h2.2l1.4-1.6l238.1-265.1
							l1.2-1.4v-1.9v-63.4v-1.9l-1.2-1.4L3265.6,51.9L3264.1,50.3L3264.1,50.3z"/>
					</g>
					<g>
						<line class="st2" x1="3024" y1="351.9" x2="3024" y2="351.9"/>
						<path class="st1" d="M3024,351.9"/>
					</g>
					<g>
						<g>
							<line class="st2" x1="3024" y1="351.9" x2="3024" y2="351.9"/>
							<path class="st1" d="M3024,351.9"/>
						</g>
					</g>
					<g>
						<g>
							<path class="st0" d="M2784.7,587.8l-240.4-267.5l240.4-267.5h478.6l240.4,267.5l-240.4,267.5H2784.7z M3242.9,542.3
								l199.3-221.9L3242.9,98.6h-437.8l-199.3,221.9l199.3,221.9H3242.9z"/>
						</g>
						<g>
							<path class="st1" d="M3262.2,55.1l238.2,265.1l-238.2,265.1h-476.4l-238.2-265.1l238.2-265.1H3262.2 M2804,544.7h439.9
								l201.5-224.3L3243.9,96.2H2804l-201.5,224.3L2804,544.7 M3264.3,50.3h-2.2h-476.4h-2.2l-1.4,1.6L2543.9,317l-2.9,3.2l2.9,3.2
								l238.2,265.1l1.4,1.6h2.2h476.4h2.2l1.4-1.6l238.2-265.1l2.9-3.2l-2.9-3.2L3265.7,51.9L3264.3,50.3L3264.3,50.3z M2806.1,101
								h435.7L3439,320.4l-197.2,219.5h-435.7L2609,320.4L2806.1,101L2806.1,101z"/>
						</g>
					</g>
					<g>
						<g>
							<rect x="2782.6" y="587.4" class="st1" width="4.8" height="63.2"/>
						</g>
						<g>
							<rect x="3260.3" y="587.4" class="st1" width="4.8" height="63.2"/>
						</g>
					</g>
				</g>
			</g>
			<g>
				<g>
					<polygon class="st0" points="2680.7,494 2631.3,439.6 2249.5,579.5 2249.5,604.9 2299,659.2 2680.7,519.4 					"/>
					<path class="st1" d="M2298.3,662l-51.1-56.2v-28l384.8-141l51.1,56.2v28L2298.3,662z M2251.9,603.9l47.7,52.5l378.7-138.7
						v-22.8l-47.7-52.5L2252,581.1L2251.9,603.9L2251.9,603.9z"/>
				</g>
				<g>
					<path class="st1" d="M2297.6,664.8l-52.9-58.1V576l388-142.1l52.9,58.1v30.7L2297.6,664.8z M2254.3,603l46,50.6L2675.9,516
						v-20.2l-46-50.6l-375.6,137.6V603z"/>
				</g>
				<g>
					<polygon class="st0" points="2631.3,439.6 2249.5,579.5 2299,633.8 2680.7,494 					"/>
					<path class="st1" d="M2298.3,636.6l-52.9-58.2L2632,436.8l52.9,58.2L2298.3,636.6z M2253.7,580.5l46,50.5l376.9-138.1l-46-50.5
						L2253.7,580.5z"/>
				</g>
			</g>
			<g>
				<g>
					<g>
						<g>
							<g>
								<g>
									<polygon class="st0" points="575.5,654.1 334.7,386 334.7,318.9 575.5,50.9 1056.1,50.9 1297,318.9 1297,386 1056.1,654.1 
																			"/>
								</g>
							</g>
							<g>
								<g>
									<path class="st1" d="M1054,55.7l238.1,265.1v63.4L1054,649.3H577.7L339.5,384.2v-63.4L577.7,55.7H1054 M1058.3,46.1h-4.3
										H577.7h-4.3l-2.9,3.2L332.4,314.4l-2.5,2.8v3.7v63.4v3.7l2.5,2.8l238.1,265.1l2.9,3.2h4.3H1054h4.3l2.9-3.2l238.1-265.1
										l2.5-2.8v-3.7v-63.4v-3.7l-2.5-2.8L1061.2,49.2L1058.3,46.1L1058.3,46.1z"/>
								</g>
							</g>
						</g>
						<g>
							<path class="st1" d="M1054,55.7l238.1,265.1v63.4L1054,649.3H577.7L339.5,384.2v-63.4L577.7,55.7H1054 M1056.1,50.9h-2.2
								H577.6h-2.2l-1.4,1.6L335.9,317.6l-1.2,1.4v1.9v63.4v1.9l1.2,1.4l238.1,265.1l1.4,1.6h2.2H1054h2.2l1.4-1.6l238.1-265.3
								l1.2-1.4v-1.9v-63.4v-1.9l-1.2-1.4l-238.1-265L1056.1,50.9L1056.1,50.9z"/>
						</g>
						<g>
							<line class="st2" x1="816" y1="352.5" x2="816" y2="352.5"/>
							<path class="st1" d="M816,352.5"/>
						</g>
						<g>
							<g>
								<line class="st2" x1="816" y1="352.5" x2="816" y2="352.5"/>
								<path class="st1" d="M816,352.5"/>
							</g>
						</g>
						<g>
							<g>
								<path class="st0" d="M576.7,588.4L336.4,320.9L576.7,53.3h478.6l240.4,267.5l-240.4,267.5H576.7z M1034.9,542.9L1234.2,321
									L1034.9,99.2H597.1L397.7,321l199.3,221.9H1034.9z"/>
							</g>
							<g>
								<path class="st1" d="M1054.2,55.7l238.2,265.1l-238.2,265.1H577.8L339.6,320.8L577.8,55.7H1054.2 M596,545.3h439.9
									L1237.4,321L1036,96.8H596L394.6,321L596,545.3 M1056.3,50.9h-2.2H577.7h-2.2l-1.4,1.6L335.9,317.6l-2.9,3.2l2.9,3.2
									l238.2,265.1l1.4,1.6h2.2h476.4h2.2l1.4-1.6L1295.9,324l2.9-3.2l-2.9-3.2L1057.7,52.5L1056.3,50.9L1056.3,50.9z
									 M598.1,101.6h435.7L1231,321l-197.2,219.5H598.1L401,321L598.1,101.6L598.1,101.6z"/>
							</g>
						</g>
						<g>
							<g>
								<rect x="574.6" y="588" class="st1" width="4.8" height="63.2"/>
							</g>
							<g>
								<rect x="1052.3" y="588" class="st1" width="4.8" height="63.2"/>
							</g>
						</g>
					</g>
				</g>
				<g>
					<g>
						<polygon class="st0" points="1159,494.6 1208.4,440.2 1590.1,580.1 1590.1,605.5 1540.7,659.8 1159,520 						"/>
						<path class="st1" d="M1541.4,662.6l-384.8-141v-28l51.1-56.2l384.8,141v28L1541.4,662.6z M1161.4,518.3L1540,657l47.7-52.5
							v-22.8L1209.1,443l-47.7,52.5V518.3z"/>
					</g>
					<g>
						<path class="st1" d="M1542.1,665.4l-387.9-142.1v-30.7l52.9-58.1l388,142.1v30.7L1542.1,665.4z M1163.8,516.6l375.6,137.6
							l46-50.6v-20.2l-375.6-137.6l-46,50.6V516.6L1163.8,516.6z"/>
					</g>
					<g>
						<polygon class="st0" points="1208.4,440.2 1590.1,580.1 1540.7,634.4 1159,494.6 						"/>
						<path class="st1" d="M1541.4,637.2l-386.6-141.6l52.9-58.2L1594.3,579L1541.4,637.2z M1163.1,493.5L1540,631.6l46-50.5
							L1209.1,443L1163.1,493.5z"/>
					</g>
				</g>
			</g>
			<g>
				<path class="st1" d="M652.7,338v-49.9h32v7.7h-23v12.3h20.5v7.6h-20.5v14.6h24.7v7.7L652.7,338L652.7,338z"/>
				<path class="st1" d="M693.2,290.4l8.7-1.4v11.4h13.4v7.3h-13.3V323c0,3,0.5,5.2,1.4,6.5c1,1.3,2.6,1.9,4.9,1.9
					c1.6,0,3-0.2,4.2-0.5c1.2-0.4,2.2-0.7,2.9-1l1.4,6.9c-1,0.4-2.3,0.9-4,1.3c-1.6,0.5-3.5,0.7-5.8,0.7c-2.7,0-4.9-0.4-6.7-1.1
					c-1.8-0.7-3.2-1.7-4.3-3.1c-1.1-1.4-1.8-3-2.2-5c-0.4-2-0.7-4.1-0.7-6.7v-32.6H693.2z"/>
				<path class="st1" d="M723.7,338v-54.4l8.7-1.4v18.7c1-0.4,2.1-0.6,3.4-0.8c1.3-0.2,2.5-0.4,3.8-0.4c3,0,5.5,0.4,7.5,1.3
					c2,0.8,3.6,2,4.8,3.5s2,3.3,2.6,5.5c0.5,2.1,0.8,4.4,0.8,7.1v21.2h-8.7v-19.8c0-2-0.1-3.7-0.4-5.2c-0.2-1.4-0.7-2.6-1.3-3.5
					c-0.6-0.9-1.4-1.6-2.4-1.9c-1-0.4-2.3-0.6-3.7-0.6c-1.1,0-2.3,0.1-3.5,0.4c-1.2,0.2-2.1,0.5-2.6,0.7v29.9h-8.8V338z"/>
				<path class="st1" d="M763.6,319.4c0-3.3,0.5-6.2,1.5-8.7c1-2.5,2.3-4.6,3.9-6.2s3.5-2.9,5.6-3.7c2.1-0.8,4.3-1.3,6.5-1.3
					c5.2,0,9.2,1.6,12.1,4.8c2.9,3.2,4.4,8,4.4,14.4c0,0.5,0,1-0.1,1.6c0,0.6-0.1,1.1-0.1,1.6h-24.8c0.2,3,1.3,5.3,3.2,7
					c1.9,1.7,4.6,2.5,8.2,2.5c2.1,0,4-0.2,5.8-0.6c1.7-0.4,3.1-0.8,4.1-1.2l1.1,7.1c-0.5,0.2-1.1,0.5-2,0.8
					c-0.8,0.2-1.8,0.5-2.9,0.7c-1.1,0.2-2.2,0.4-3.5,0.5s-2.5,0.2-3.8,0.2c-3.3,0-6.2-0.5-8.6-1.5c-2.5-1-4.4-2.3-6.1-4.1
					c-1.6-1.7-2.8-3.8-3.5-6.2C763.9,324.8,763.6,322.2,763.6,319.4z M788.8,315.5c0-1.2-0.2-2.3-0.5-3.4c-0.4-1.1-0.8-2-1.5-2.8
					c-0.7-0.8-1.4-1.4-2.4-1.9c-1-0.5-2-0.7-3.4-0.7s-2.5,0.2-3.5,0.8c-1,0.5-1.9,1.1-2.6,2c-0.7,0.8-1.3,1.7-1.6,2.8
					c-0.4,1.1-0.7,2.2-0.8,3.2L788.8,315.5L788.8,315.5z"/>
				<path class="st1" d="M828.2,308.3c-0.7-0.2-1.7-0.5-3-0.8c-1.3-0.2-2.8-0.4-4.4-0.4c-1,0-2,0.1-3.1,0.3
					c-1.1,0.2-1.9,0.4-2.3,0.5V338h-8.6v-35.9c1.7-0.6,3.8-1.2,6.3-1.7c2.5-0.5,5.3-0.8,8.4-0.8c0.6,0,1.3,0.1,2,0.1
					c0.8,0.1,1.6,0.2,2.3,0.3c0.8,0.1,1.5,0.2,2.2,0.4c0.7,0.2,1.3,0.3,1.7,0.5L828.2,308.3z"/>
				<path class="st1" d="M857.2,318.2c0-4-0.5-6.8-1.5-8.5c-1-1.7-2.8-2.6-5.5-2.6c-1,0-2,0.1-3.2,0.2s-2,0.2-2.6,0.4V338h-8.7
					v-36.4c1.7-0.5,3.9-1,6.6-1.4c2.7-0.4,5.6-0.7,8.6-0.7c2.6,0,4.7,0.4,6.4,1c1.7,0.7,3.1,1.6,4.1,2.6c0.5-0.4,1.2-0.8,2-1.2
					c0.8-0.4,1.7-0.8,2.8-1.2s2.1-0.7,3.2-0.9c1.1-0.2,2.3-0.4,3.4-0.4c2.9,0,5.3,0.4,7.3,1.3c1.9,0.8,3.4,2,4.4,3.5
					c1.1,1.5,1.8,3.4,2.2,5.5c0.4,2.2,0.6,4.5,0.6,7V338h-8.7v-19.8c0-4-0.5-6.8-1.4-8.5c-1-1.7-2.8-2.6-5.5-2.6
					c-1.4,0-2.7,0.2-4,0.7c-1.3,0.5-2.2,0.9-2.8,1.3c0.4,1.2,0.7,2.5,0.8,3.8c0.1,1.3,0.2,2.8,0.2,4.3V338h-8.7V318.2z"/>
				<path class="st1" d="M907.7,289.4c0,1.6-0.5,2.9-1.6,3.9c-1.1,1-2.3,1.4-3.7,1.4c-1.5,0-2.8-0.5-3.8-1.4c-1.1-1-1.6-2.3-1.6-3.9
					c0-1.7,0.5-3,1.6-4c1.1-1,2.3-1.4,3.8-1.4c1.4,0,2.7,0.5,3.7,1.4C907.3,286.4,907.7,287.7,907.7,289.4z M906.8,338h-8.7v-37.7
					h8.7V338z"/>
				<path class="st1" d="M917.9,301.6c1.7-0.5,3.8-1,6.5-1.4c2.7-0.4,5.6-0.7,8.9-0.7c3.1,0,5.6,0.4,7.7,1.3s3.7,2,4.9,3.5
					s2.1,3.4,2.6,5.5c0.5,2.2,0.8,4.5,0.8,7V338h-8.7v-19.8c0-2-0.1-3.7-0.4-5.2c-0.2-1.4-0.7-2.6-1.3-3.5s-1.4-1.6-2.5-1.9
					c-1-0.4-2.3-0.6-3.8-0.6c-1.1,0-2.3,0.1-3.5,0.2c-1.2,0.1-2.1,0.2-2.6,0.4V338h-8.6V301.6z"/>
				<path class="st1" d="M959.6,290.4l8.7-1.4v11.4h13.4v7.3h-13.3V323c0,3,0.5,5.2,1.4,6.5s2.6,1.9,4.9,1.9c1.6,0,3-0.2,4.2-0.5
					c1.2-0.4,2.2-0.7,2.9-1l1.4,6.9c-1,0.4-2.3,0.9-4,1.3c-1.6,0.5-3.5,0.7-5.8,0.7c-2.7,0-4.9-0.4-6.7-1.1s-3.2-1.7-4.3-3.1
					c-1.1-1.4-1.8-3-2.2-5c-0.4-2-0.7-4.1-0.7-6.7v-32.6H959.6z"/>
			</g>
			<g>
				<path class="st1" d="M2854.1,338v-49.9h32v7.7h-23v12.3h20.5v7.6h-20.5v14.6h24.7v7.7L2854.1,338L2854.1,338z"/>
				<path class="st1" d="M2894.6,290.4l8.7-1.4v11.4h13.4v7.3h-13.3V323c0,3,0.5,5.2,1.4,6.5s2.6,1.9,4.9,1.9c1.6,0,3-0.2,4.2-0.5
					c1.2-0.4,2.2-0.7,2.9-1l1.4,6.9c-1,0.4-2.3,0.9-4,1.3c-1.6,0.5-3.5,0.7-5.8,0.7c-2.7,0-4.9-0.4-6.7-1.1
					c-1.8-0.7-3.2-1.7-4.3-3.1c-1.1-1.4-1.8-3-2.2-5c-0.4-1.9-0.7-4.1-0.7-6.7v-32.6H2894.6z"/>
				<path class="st1" d="M2925.1,338v-54.4l8.7-1.4v18.7c1-0.4,2.1-0.6,3.4-0.8c1.3-0.2,2.5-0.4,3.8-0.4c3,0,5.5,0.4,7.5,1.3
					c2,0.8,3.6,2,4.8,3.5c1.2,1.5,2,3.3,2.6,5.5c0.5,2.1,0.8,4.4,0.8,7.1v21.2h-8.7v-19.8c0-2-0.1-3.7-0.4-5.2
					c-0.2-1.4-0.7-2.6-1.3-3.5c-0.6-0.9-1.4-1.6-2.4-1.9c-1-0.4-2.3-0.6-3.7-0.6c-1.1,0-2.3,0.1-3.5,0.4c-1.2,0.2-2.1,0.5-2.6,0.7
					v29.9h-8.8V338z"/>
				<path class="st1" d="M2965,319.4c0-3.3,0.5-6.2,1.5-8.7c1-2.5,2.3-4.6,3.9-6.2c1.6-1.7,3.5-2.9,5.6-3.7c2.1-0.8,4.3-1.3,6.5-1.3
					c5.2,0,9.2,1.6,12.1,4.8c2.9,3.2,4.4,8,4.4,14.4c0,0.5,0,1-0.1,1.6c0,0.6-0.1,1.1-0.1,1.6H2974c0.2,3,1.3,5.3,3.2,7
					c1.9,1.7,4.6,2.5,8.2,2.5c2.1,0,4-0.2,5.8-0.6c1.7-0.4,3.1-0.8,4.1-1.2l1.1,7.1c-0.5,0.2-1.1,0.5-2,0.8
					c-0.8,0.2-1.8,0.5-2.9,0.7s-2.2,0.4-3.5,0.5c-1.3,0.1-2.5,0.2-3.8,0.2c-3.3,0-6.2-0.5-8.6-1.5c-2.5-1-4.4-2.3-6.1-4.1
					c-1.6-1.7-2.8-3.8-3.5-6.2C2965.3,324.8,2965,322.2,2965,319.4z M2990.2,315.5c0-1.2-0.2-2.3-0.5-3.4c-0.4-1.1-0.8-2-1.5-2.8
					c-0.7-0.8-1.4-1.4-2.4-1.9c-1-0.5-2-0.7-3.4-0.7s-2.5,0.2-3.5,0.8c-1,0.5-1.9,1.1-2.6,2s-1.3,1.7-1.6,2.8
					c-0.4,1.1-0.7,2.2-0.8,3.2L2990.2,315.5L2990.2,315.5z"/>
				<path class="st1" d="M3029.6,308.3c-0.7-0.2-1.7-0.5-3-0.8c-1.3-0.2-2.8-0.4-4.4-0.4c-1,0-2,0.1-3.1,0.3
					c-1.1,0.2-1.9,0.4-2.3,0.5V338h-8.7v-35.9c1.7-0.6,3.8-1.2,6.3-1.7c2.5-0.5,5.3-0.8,8.4-0.8c0.6,0,1.3,0.1,2,0.1
					c0.8,0.1,1.6,0.2,2.3,0.3c0.8,0.1,1.5,0.2,2.2,0.4c0.7,0.2,1.3,0.3,1.7,0.5L3029.6,308.3z"/>
				<path class="st1" d="M3058.6,318.2c0-4-0.5-6.8-1.5-8.5c-1-1.7-2.8-2.6-5.5-2.6c-1,0-2,0.1-3.2,0.2c-1.1,0.2-2,0.2-2.6,0.4V338
					h-8.7v-36.4c1.7-0.5,3.9-1,6.6-1.4c2.7-0.4,5.6-0.7,8.6-0.7c2.6,0,4.7,0.4,6.4,1c1.7,0.7,3.1,1.6,4.1,2.6c0.5-0.4,1.2-0.8,2-1.2
					c0.8-0.4,1.7-0.8,2.8-1.2c1-0.4,2.1-0.7,3.2-0.9c1.1-0.2,2.3-0.4,3.4-0.4c2.9,0,5.3,0.4,7.3,1.3c1.9,0.8,3.4,2,4.4,3.5
					c1.1,1.5,1.8,3.4,2.2,5.5c0.4,2.2,0.6,4.5,0.6,7V338h-8.7v-19.8c0-4-0.5-6.8-1.4-8.5s-2.8-2.6-5.5-2.6c-1.4,0-2.7,0.2-4,0.7
					c-1.3,0.5-2.2,0.9-2.8,1.3c0.4,1.2,0.7,2.5,0.8,3.8c0.1,1.3,0.2,2.8,0.2,4.3V338h-8.7V318.2z"/>
				<path class="st1" d="M3109.1,289.4c0,1.6-0.5,2.9-1.6,3.9c-1.1,1-2.3,1.4-3.7,1.4c-1.5,0-2.8-0.5-3.8-1.4
					c-1.1-1-1.6-2.3-1.6-3.9c0-1.7,0.5-3,1.6-4c1.1-1,2.3-1.4,3.8-1.4c1.4,0,2.7,0.5,3.7,1.4
					C3108.7,286.4,3109.1,287.7,3109.1,289.4z M3108.2,338h-8.7v-37.7h8.7V338z"/>
				<path class="st1" d="M3119.3,301.6c1.7-0.5,3.8-1,6.5-1.4c2.7-0.4,5.6-0.7,8.9-0.7c3.1,0,5.6,0.4,7.7,1.3c2,0.8,3.7,2,4.9,3.5
					s2.1,3.4,2.6,5.5c0.5,2.2,0.8,4.5,0.8,7V338h-8.7v-19.8c0-2-0.1-3.7-0.4-5.2c-0.2-1.4-0.7-2.6-1.3-3.5c-0.6-0.9-1.4-1.6-2.5-1.9
					c-1-0.4-2.3-0.6-3.8-0.6c-1.1,0-2.3,0.1-3.5,0.2c-1.2,0.1-2.1,0.2-2.6,0.4V338h-8.6V301.6z"/>
				<path class="st1" d="M3161,290.4l8.7-1.4v11.4h13.4v7.3h-13.3V323c0,3,0.5,5.2,1.4,6.5c1,1.3,2.6,1.9,4.9,1.9
					c1.6,0,3-0.2,4.2-0.5c1.2-0.4,2.2-0.7,2.9-1l1.4,6.9c-1,0.4-2.3,0.9-4,1.3c-1.6,0.5-3.5,0.7-5.8,0.7c-2.7,0-4.9-0.4-6.7-1.1
					s-3.2-1.7-4.3-3.1c-1.1-1.4-1.8-3-2.2-5c-0.4-1.9-0.7-4.1-0.7-6.7v-32.6H3161z"/>
			</g>
			<g>
				<g>
					<g>
						<g>
							<g>
								<g>
									<polygon class="st0" points="1679.6,1141.5 1438.7,873.4 1438.7,661.7 1679.6,393.6 2160.3,393.6 2401.1,661.7 
										2401.1,873.4 2160.3,1141.5 									"/>
								</g>
							</g>
							<g>
								<g>
									<path class="st1" d="M2158.1,398.4l238.2,265.2v208l-238.2,265.2h-476.4l-238.2-265.2v-208l238.2-265.2H2158.1
										 M2162.4,388.8h-4.3h-476.4h-4.3l-2.9,3.2l-238.2,265.2l-2.5,2.8v3.7v208v3.7l2.5,2.8l238.2,265.2l2.9,3.2h4.3h476.4h4.3
										l2.9-3.2L2403.5,878l2.5-2.8v-3.7v-208v-3.7l-2.5-2.8L2165.3,392L2162.4,388.8L2162.4,388.8z"/>
								</g>
							</g>
						</g>
						<g>
							<path class="st1" d="M2158.1,398.4l238.2,265.2v208l-238.2,265.2h-476.4l-238.2-265.2v-208l238.2-265.2H2158.1 M2160.3,393.6
								h-2.2h-476.4h-2.2l-1.4,1.6l-238.2,265.2l-1.2,1.4v1.9v208v1.9l1.2,1.4l238.2,265.2l1.4,1.6h2.2h476.4h2.2l1.4-1.6
								l238.2-265.2l1.2-1.4v-1.9v-208v-1.9l-1.2-1.4l-238.2-265.2L2160.3,393.6L2160.3,393.6z"/>
						</g>
						<g>
							<line class="st2" x1="1919.9" y1="695.3" x2="1919.9" y2="695.3"/>
							<path class="st1" d="M1919.9,695.3"/>
						</g>
						<g>
							<g>
								<line class="st2" x1="1919.9" y1="695.3" x2="1919.9" y2="695.3"/>
								<path class="st1" d="M1919.9,695.3"/>
							</g>
						</g>
						<g>
							<g>
								<path class="st0" d="M1680.7,931.2l-240.4-267.6L1680.7,396h478.6l240.4,267.6l-240.4,267.6H1680.7z M2138.8,885.5
									l199.3-221.9l-199.3-221.9H1701l-199.3,221.9l199.4,221.9H2138.8z"/>
							</g>
							<g>
								<path class="st1" d="M2158.1,398.4l238.2,265.2l-238.2,265.2h-476.4l-238.2-265.2l238.2-265.2H2158.1 M1700,887.9h440
									l201.5-224.3l-201.5-224.3h-440l-201.5,224.3L1700,887.9 M2160.3,393.6h-2.2h-476.4h-2.2l-1.4,1.6l-238.2,265.2l-2.9,3.2
									l2.9,3.2L1678.1,932l1.4,1.6h2.2h476.4h2.2l1.4-1.6l238.2-265.2l2.9-3.2l-2.9-3.2l-238.2-265.2L2160.3,393.6L2160.3,393.6z
									 M1702.1,444.1h435.7l197.2,219.5l-197.1,219.5h-435.7L1505,663.6L1702.1,444.1L1702.1,444.1z"/>
							</g>
						</g>
						<g>
							<g>
								<rect x="1678.7" y="930.8" class="st1" width="4.8" height="208"/>
							</g>
							<g>
								<rect x="2156.4" y="930.8" class="st1" width="4.8" height="208"/>
							</g>
						</g>
					</g>
				</g>
			</g>
			<g>
				<g>
					<polygon class="st0" points="2262.7,898.4 2312.2,844 2680.7,980.3 2680.7,1005.7 2631.3,1060 2262.7,923.8 					"/>
					<path class="st1" d="M2632,1062.8l-371.6-137.4v-28l51.2-56.2l371.6,137.4v28L2632,1062.8z M2265.1,922.1l365.5,135.1
						l47.7-52.4v-22.9l-365.5-135.1l-47.7,52.4L2265.1,922.1L2265.1,922.1z"/>
				</g>
				<g>
					<path class="st1" d="M2632.7,1065.6l-3.1-1.1l-371.7-137.4v-30.7l52.9-58.1l3.1,1.1l371.7,137.4v30.7L2632.7,1065.6z
						 M2267.5,920.4l362.4,134l46-50.6v-20.2l-362.4-134l-46,50.6V920.4z"/>
				</g>
				<g>
					<polygon class="st0" points="2312.2,844 2680.7,980.3 2631.3,1034.6 2262.7,898.4 					"/>
					<path class="st1" d="M2632,1037.4l-373.4-138.1l52.9-58.2l373.4,138.1L2632,1037.4z M2266.9,897.3l363.7,134.5l46-50.5
						l-363.7-134.5L2266.9,897.3z"/>
				</g>
			</g>
			<g>
				<g>
					<g>
						<polygon class="st0" points="1576.9,899 1527.5,844.6 1159,980.9 1159,1006.3 1208.4,1060.6 1576.9,924.4 						"/>
						<path class="st1" d="M1207.7,1063.4l-51.2-56.2v-28l1.6-0.6l370.1-136.8l51.2,56.2v28l-1.6,0.6L1207.7,1063.4z M1161.4,1005.3
							l47.7,52.4l365.5-135.1v-22.9l-47.7-52.4l-365.5,135.1V1005.3z"/>
					</g>
					<g>
						<path class="st1" d="M1207,1066.2l-52.9-58.1v-30.7l374.8-138.5l52.9,58.1v30.7L1207,1066.2z M1163.8,1004.4l46,50.6
							l362.4-134v-20.2l-46-50.6l-362.4,134L1163.8,1004.4L1163.8,1004.4z"/>
					</g>
					<g>
						<polygon class="st0" points="1527.5,844.6 1159,980.9 1208.4,1035.2 1576.9,899 						"/>
						<path class="st1" d="M1207.7,1038l-52.9-58.2l373.4-138.1l52.9,58.2L1207.7,1038z M1163.1,981.9l46,50.5l363.7-134.5l-46-50.5
							L1163.1,981.9z"/>
					</g>
				</g>
				<g>
					<g>
						<g>
							<g>
								<g>
									<polygon class="st0" points="575.5,1442.5 334.7,1174.4 334.7,1107.3 575.5,839.3 1056.1,839.3 1297,1107.3 1297,1174.4 
										1056.1,1442.5 									"/>
								</g>
							</g>
							<g>
								<g>
									<path class="st1" d="M1054,844.1l238.1,265.1v63.4L1054,1437.7H577.7l-238.1-265.1v-63.4l238.1-265.1H1054 M1058.3,834.5
										h-4.3H577.7h-4.3l-2.9,3.2l-238.1,265.1l-2.5,2.8v3.7v63.4v3.7l2.5,2.8l238.1,265.1l2.9,3.2h4.3H1054h4.3l2.9-3.2
										l238.1-265.1l2.5-2.8v-3.7v-63.4v-3.7l-2.5-2.8l-238.1-265.1L1058.3,834.5L1058.3,834.5z"/>
								</g>
							</g>
						</g>
						<g>
							<path class="st1" d="M1054,844.1l238.1,265.1v63.4L1054,1437.7H577.7l-238.1-265.1v-63.4l238.1-265.1H1054 M1056.1,839.3
								h-2.2H577.6h-2.2l-1.4,1.6L335.9,1106l-1.2,1.4v1.9v63.4v1.9l1.2,1.4L574.1,1441l1.4,1.6h2.2H1054h2.2l1.4-1.6l238.1-265.1
								l1.2-1.4v-1.9v-63.4v-1.9l-1.2-1.4l-238.2-265.1L1056.1,839.3L1056.1,839.3z"/>
						</g>
						<g>
							<line class="st2" x1="816" y1="1140.9" x2="816" y2="1140.9"/>
							<path class="st1" d="M816,1140.9"/>
						</g>
						<g>
							<g>
								<line class="st2" x1="816" y1="1140.9" x2="816" y2="1140.9"/>
								<path class="st1" d="M816,1140.9"/>
							</g>
						</g>
						<g>
							<g>
								<path class="st0" d="M576.7,1376.8l-240.4-267.5l240.4-267.6h478.6l240.4,267.6l-240.4,267.5H576.7z M1034.9,1331.3
									l199.3-221.9l-199.3-221.9H597.1l-199.3,221.9l199.3,221.9H1034.9z"/>
							</g>
							<g>
								<path class="st1" d="M1054.2,844.1l238.2,265.1l-238.2,265.1H577.8l-238.2-265.1l238.2-265.1H1054.2 M596,1333.7h439.9
									l201.5-224.3L1036,885.2H596l-201.5,224.3L596,1333.7 M1056.3,839.3h-2.2H577.7h-2.2l-1.4,1.6L335.9,1106l-2.9,3.2l2.9,3.2
									l238.2,265.2l1.4,1.6h2.2h476.4h2.2l1.4-1.6l238.2-265.2l2.9-3.2l-2.9-3.2l-238.2-265.1L1056.3,839.3L1056.3,839.3z
									 M598.1,890h435.7l197.2,219.5l-197.2,219.5H598.1L401,1109.4L598.1,890L598.1,890z"/>
							</g>
						</g>
						<g>
							<g>
								<rect x="574.6" y="1376.4" class="st1" width="4.8" height="63.2"/>
							</g>
							<g>
								<rect x="1052.3" y="1376.4" class="st1" width="4.8" height="63.2"/>
							</g>
						</g>
					</g>
				</g>
			</g>
			<g>
				<path class="st1" d="M652.7,1137.2v-49.9h32v7.7h-23v12.3h20.5v7.6h-20.5v14.6h24.7v7.7L652.7,1137.2L652.7,1137.2z"/>
				<path class="st1" d="M693.2,1089.6l8.7-1.4v11.4h13.4v7.3h-13.3v15.4c0,3,0.5,5.2,1.4,6.5c1,1.3,2.6,1.9,4.9,1.9
					c1.6,0,3-0.2,4.2-0.5c1.2-0.4,2.2-0.7,2.9-1l1.4,6.9c-1,0.4-2.3,0.9-4,1.3c-1.6,0.5-3.5,0.7-5.8,0.7c-2.7,0-4.9-0.4-6.7-1.1
					c-1.8-0.7-3.2-1.7-4.3-3.1c-1.1-1.4-1.8-3-2.2-5c-0.4-1.9-0.7-4.1-0.7-6.7v-32.6H693.2z"/>
				<path class="st1" d="M723.7,1137.2v-54.4l8.7-1.4v18.7c1-0.4,2.1-0.6,3.4-0.8s2.5-0.4,3.8-0.4c3,0,5.5,0.4,7.5,1.3
					c2,0.8,3.6,2,4.8,3.5s2,3.3,2.6,5.5c0.5,2.1,0.8,4.4,0.8,7.1v21.2h-8.7v-19.8c0-2-0.1-3.7-0.4-5.2c-0.2-1.4-0.7-2.6-1.3-3.5
					c-0.6-0.9-1.4-1.6-2.4-1.9c-1-0.4-2.3-0.6-3.7-0.6c-1.1,0-2.3,0.1-3.5,0.4c-1.2,0.2-2.1,0.5-2.6,0.7v29.9h-8.8V1137.2z"/>
				<path class="st1" d="M763.6,1118.6c0-3.3,0.5-6.2,1.5-8.7c1-2.5,2.3-4.6,3.9-6.2s3.5-2.9,5.6-3.7c2.1-0.8,4.3-1.3,6.5-1.3
					c5.2,0,9.2,1.6,12.1,4.8c2.9,3.2,4.4,8,4.4,14.4c0,0.5,0,1-0.1,1.6c0,0.6-0.1,1.1-0.1,1.6h-24.8c0.2,3,1.3,5.3,3.2,7
					c1.9,1.7,4.6,2.5,8.2,2.5c2.1,0,4-0.2,5.8-0.6c1.7-0.4,3.1-0.8,4.1-1.2l1.1,7.1c-0.5,0.2-1.1,0.5-2,0.8
					c-0.8,0.2-1.8,0.5-2.9,0.7c-1.1,0.2-2.2,0.4-3.5,0.5s-2.5,0.2-3.8,0.2c-3.3,0-6.2-0.5-8.6-1.5c-2.5-1-4.4-2.3-6.1-4.1
					c-1.6-1.7-2.8-3.8-3.5-6.2C763.9,1124,763.6,1121.4,763.6,1118.6z M788.8,1114.7c0-1.2-0.2-2.3-0.5-3.4c-0.4-1.1-0.8-2-1.5-2.8
					c-0.7-0.8-1.4-1.4-2.4-1.9c-1-0.5-2-0.7-3.4-0.7s-2.5,0.2-3.5,0.8c-1,0.5-1.9,1.1-2.6,2c-0.7,0.8-1.3,1.7-1.6,2.8
					c-0.4,1.1-0.7,2.2-0.8,3.2L788.8,1114.7L788.8,1114.7z"/>
				<path class="st1" d="M828.2,1107.5c-0.7-0.2-1.7-0.5-3-0.8c-1.3-0.2-2.8-0.4-4.4-0.4c-1,0-2,0.1-3.1,0.3
					c-1.1,0.2-1.9,0.4-2.3,0.5v30.2h-8.6v-35.9c1.7-0.6,3.8-1.2,6.3-1.7c2.5-0.5,5.3-0.8,8.4-0.8c0.6,0,1.3,0.1,2,0.1
					c0.8,0.1,1.6,0.2,2.3,0.3c0.8,0.1,1.5,0.2,2.2,0.4c0.7,0.2,1.3,0.3,1.7,0.5L828.2,1107.5z"/>
				<path class="st1" d="M857.2,1117.4c0-4-0.5-6.8-1.5-8.5c-1-1.7-2.8-2.6-5.5-2.6c-1,0-2,0.1-3.2,0.2c-1.1,0.2-2,0.2-2.6,0.4v30.4
					h-8.7v-36.4c1.7-0.5,3.9-1,6.6-1.4c2.7-0.4,5.6-0.7,8.6-0.7c2.6,0,4.7,0.4,6.4,1c1.7,0.7,3.1,1.6,4.1,2.6c0.5-0.4,1.2-0.8,2-1.2
					c0.8-0.4,1.7-0.8,2.8-1.2s2.1-0.7,3.2-0.9c1.1-0.2,2.3-0.4,3.4-0.4c2.9,0,5.3,0.4,7.3,1.3c1.9,0.8,3.4,2,4.4,3.5
					c1.1,1.5,1.8,3.4,2.2,5.5c0.4,2.2,0.6,4.5,0.6,7v21.2h-8.7v-19.8c0-4-0.5-6.8-1.4-8.5c-1-1.7-2.8-2.6-5.5-2.6
					c-1.4,0-2.7,0.2-4,0.7c-1.3,0.5-2.2,0.9-2.8,1.3c0.4,1.2,0.7,2.5,0.8,3.8c0.1,1.3,0.2,2.8,0.2,4.3v20.8h-8.7V1117.4z"/>
				<path class="st1" d="M907.7,1088.6c0,1.6-0.5,2.9-1.6,3.9c-1.1,1-2.3,1.4-3.7,1.4c-1.5,0-2.8-0.5-3.8-1.4
					c-1.1-1-1.6-2.3-1.6-3.9c0-1.7,0.5-3,1.6-4c1.1-1,2.3-1.4,3.8-1.4c1.4,0,2.7,0.5,3.7,1.4
					C907.3,1085.6,907.7,1086.9,907.7,1088.6z M906.8,1137.2h-8.7v-37.7h8.7V1137.2z"/>
				<path class="st1" d="M917.9,1100.8c1.7-0.5,3.8-1,6.5-1.4c2.7-0.4,5.6-0.7,8.9-0.7c3.1,0,5.6,0.4,7.7,1.3c2,0.8,3.7,2,4.9,3.5
					s2.1,3.4,2.6,5.5c0.5,2.2,0.8,4.5,0.8,7v21.2h-8.7v-19.8c0-2-0.1-3.7-0.4-5.2c-0.2-1.4-0.7-2.6-1.3-3.5s-1.4-1.6-2.5-1.9
					c-1-0.4-2.3-0.6-3.8-0.6c-1.1,0-2.3,0.1-3.5,0.2c-1.2,0.1-2.1,0.2-2.6,0.4v30.4h-8.6V1100.8z"/>
				<path class="st1" d="M959.6,1089.6l8.7-1.4v11.4h13.4v7.3h-13.3v15.4c0,3,0.5,5.2,1.4,6.5c1,1.3,2.6,1.9,4.9,1.9
					c1.6,0,3-0.2,4.2-0.5c1.2-0.4,2.2-0.7,2.9-1l1.4,6.9c-1,0.4-2.3,0.9-4,1.3c-1.6,0.5-3.5,0.7-5.8,0.7c-2.7,0-4.9-0.4-6.7-1.1
					c-1.8-0.7-3.2-1.7-4.3-3.1c-1.1-1.4-1.8-3-2.2-5c-0.4-1.9-0.7-4.1-0.7-6.7v-32.6H959.6z"/>
			</g>
			<g>
				<g>
					<g>
						<g>
							<g>
								<polygon class="st0" points="2783.5,1441.9 2542.7,1173.8 2542.7,1106.7 2783.5,838.7 3264.1,838.7 3505,1106.7 
									3505,1173.8 3264.1,1441.9 								"/>
							</g>
						</g>
						<g>
							<g>
								<path class="st1" d="M3262,843.5l238.1,265.1v63.4L3262,1437.1h-476.3L2547.5,1172v-63.4l238.1-265.1H3262 M3266.3,833.9
									h-4.3h-476.3h-4.3l-2.9,3.2l-238.1,265.1l-2.5,2.8v3.7v63.4v3.7l2.5,2.8l238.1,265.1l2.9,3.2h4.3H3262h4.3l2.9-3.2
									l238.1-265.1l2.5-2.8v-3.7v-63.4v-3.7l-2.5-2.8L3269.2,837L3266.3,833.9L3266.3,833.9z"/>
							</g>
						</g>
					</g>
					<g>
						<path class="st1" d="M3262,843.5l238.1,265.1v63.4L3262,1437.1h-476.3L2547.5,1172v-63.4l238.1-265.1H3262 M3264.1,838.7h-2.2
							h-476.3h-2.2l-1.4,1.6l-238.1,265.1l-1.2,1.4v1.9v63.4v1.9l1.2,1.4l238.1,265.1l1.4,1.6h2.2H3262h2.2l1.4-1.6l238.1-265.1
							l1.2-1.4v-1.9v-63.4v-1.9l-1.2-1.4l-238.1-265.1L3264.1,838.7L3264.1,838.7z"/>
					</g>
					<g>
						<line class="st2" x1="3024" y1="1140.3" x2="3024" y2="1140.3"/>
						<path class="st1" d="M3024,1140.3"/>
					</g>
					<g>
						<g>
							<line class="st2" x1="3024" y1="1140.3" x2="3024" y2="1140.3"/>
							<path class="st1" d="M3024,1140.3"/>
						</g>
					</g>
					<g>
						<g>
							<path class="st0" d="M2784.7,1376.2l-240.4-267.5l240.4-267.6h478.6l240.4,267.6l-240.4,267.5H2784.7z M3242.9,1330.7
								l199.3-221.9L3242.9,887h-437.8l-199.3,221.9l199.3,221.9H3242.9z"/>
						</g>
						<g>
							<path class="st1" d="M3262.2,843.5l238.2,265.1l-238.2,265.1h-476.4l-238.2-265.1l238.2-265.1H3262.2 M2804,1333.1h439.9
								l201.5-224.3l-201.5-224.3H2804l-201.5,224.3L2804,1333.1 M3264.3,838.7h-2.2h-476.4h-2.2l-1.4,1.6l-238.2,265.1l-2.9,3.2
								l2.9,3.2l238.2,265.2l1.4,1.6h2.2h476.4h2.2l1.4-1.6l238.2-265.2l2.9-3.2l-2.9-3.2l-238.2-265.1L3264.3,838.7L3264.3,838.7z
								 M2806.1,889.4h435.7l197.2,219.5l-197.2,219.5h-435.7L2609,1108.8L2806.1,889.4L2806.1,889.4z"/>
						</g>
					</g>
					<g>
						<g>
							<rect x="2782.6" y="1375.8" class="st1" width="4.8" height="63.2"/>
						</g>
						<g>
							<rect x="3260.3" y="1375.8" class="st1" width="4.8" height="63.2"/>
						</g>
					</g>
				</g>
			</g>
			<g>
				<path class="st1" d="M2854.1,1137.2v-49.9h32v7.7h-23v12.3h20.5v7.6h-20.5v14.6h24.7v7.7L2854.1,1137.2L2854.1,1137.2z"/>
				<path class="st1" d="M2894.6,1089.6l8.7-1.4v11.4h13.4v7.3h-13.3v15.4c0,3,0.5,5.2,1.4,6.5c1,1.3,2.6,1.9,4.9,1.9
					c1.6,0,3-0.2,4.2-0.5c1.2-0.4,2.2-0.7,2.9-1l1.4,6.9c-1,0.4-2.3,0.9-4,1.3c-1.6,0.5-3.5,0.7-5.8,0.7c-2.7,0-4.9-0.4-6.7-1.1
					c-1.8-0.7-3.2-1.7-4.3-3.1c-1.1-1.4-1.8-3-2.2-5c-0.4-1.9-0.7-4.1-0.7-6.7v-32.6H2894.6z"/>
				<path class="st1" d="M2925.1,1137.2v-54.4l8.7-1.4v18.7c1-0.4,2.1-0.6,3.4-0.8s2.5-0.4,3.8-0.4c3,0,5.5,0.4,7.5,1.3
					c2,0.8,3.6,2,4.8,3.5c1.2,1.5,2,3.3,2.6,5.5c0.5,2.1,0.8,4.4,0.8,7.1v21.2h-8.7v-19.8c0-2-0.1-3.7-0.4-5.2
					c-0.2-1.4-0.7-2.6-1.3-3.5c-0.6-0.9-1.4-1.6-2.4-1.9c-1-0.4-2.3-0.6-3.7-0.6c-1.1,0-2.3,0.1-3.5,0.4c-1.2,0.2-2.1,0.5-2.6,0.7
					v29.9h-8.8V1137.2z"/>
				<path class="st1" d="M2965,1118.6c0-3.3,0.5-6.2,1.5-8.7c1-2.5,2.3-4.6,3.9-6.2c1.6-1.7,3.5-2.9,5.6-3.7
					c2.1-0.8,4.3-1.3,6.5-1.3c5.2,0,9.2,1.6,12.1,4.8c2.9,3.2,4.4,8,4.4,14.4c0,0.5,0,1-0.1,1.6c0,0.6-0.1,1.1-0.1,1.6H2974
					c0.2,3,1.3,5.3,3.2,7c1.9,1.7,4.6,2.5,8.2,2.5c2.1,0,4-0.2,5.8-0.6c1.7-0.4,3.1-0.8,4.1-1.2l1.1,7.1c-0.5,0.2-1.1,0.5-2,0.8
					c-0.8,0.2-1.8,0.5-2.9,0.7c-1.1,0.2-2.2,0.4-3.5,0.5c-1.3,0.1-2.5,0.2-3.8,0.2c-3.3,0-6.2-0.5-8.6-1.5c-2.5-1-4.4-2.3-6.1-4.1
					c-1.6-1.7-2.8-3.8-3.5-6.2C2965.3,1124,2965,1121.4,2965,1118.6z M2990.2,1114.7c0-1.2-0.2-2.3-0.5-3.4c-0.4-1.1-0.8-2-1.5-2.8
					c-0.7-0.8-1.4-1.4-2.4-1.9c-1-0.5-2-0.7-3.4-0.7s-2.5,0.2-3.5,0.8c-1,0.5-1.9,1.1-2.6,2c-0.7,0.8-1.3,1.7-1.6,2.8
					c-0.4,1.1-0.7,2.2-0.8,3.2L2990.2,1114.7L2990.2,1114.7z"/>
				<path class="st1" d="M3029.6,1107.5c-0.7-0.2-1.7-0.5-3-0.8c-1.3-0.2-2.8-0.4-4.4-0.4c-1,0-2,0.1-3.1,0.3
					c-1.1,0.2-1.9,0.4-2.3,0.5v30.2h-8.7v-35.9c1.7-0.6,3.8-1.2,6.3-1.7s5.3-0.8,8.4-0.8c0.6,0,1.3,0.1,2,0.1
					c0.8,0.1,1.6,0.2,2.3,0.3c0.8,0.1,1.5,0.2,2.2,0.4c0.7,0.2,1.3,0.3,1.7,0.5L3029.6,1107.5z"/>
				<path class="st1" d="M3058.6,1117.4c0-4-0.5-6.8-1.5-8.5c-1-1.7-2.8-2.6-5.5-2.6c-1,0-2,0.1-3.2,0.2c-1.1,0.2-2,0.2-2.6,0.4
					v30.4h-8.7v-36.4c1.7-0.5,3.9-1,6.6-1.4c2.7-0.4,5.6-0.7,8.6-0.7c2.6,0,4.7,0.4,6.4,1c1.7,0.7,3.1,1.6,4.1,2.6
					c0.5-0.4,1.2-0.8,2-1.2c0.8-0.4,1.7-0.8,2.8-1.2c1-0.4,2.1-0.7,3.2-0.9c1.1-0.2,2.3-0.4,3.4-0.4c2.9,0,5.3,0.4,7.3,1.3
					c1.9,0.8,3.4,2,4.4,3.5c1.1,1.5,1.8,3.4,2.2,5.5c0.4,2.2,0.6,4.5,0.6,7v21.2h-8.7v-19.8c0-4-0.5-6.8-1.4-8.5s-2.8-2.6-5.5-2.6
					c-1.4,0-2.7,0.2-4,0.7c-1.3,0.5-2.2,0.9-2.8,1.3c0.4,1.2,0.7,2.5,0.8,3.8c0.1,1.3,0.2,2.8,0.2,4.3v20.8h-8.7V1117.4z"/>
				<path class="st1" d="M3109.1,1088.6c0,1.6-0.5,2.9-1.6,3.9c-1.1,1-2.3,1.4-3.7,1.4c-1.5,0-2.8-0.5-3.8-1.4
					c-1.1-1-1.6-2.3-1.6-3.9c0-1.7,0.5-3,1.6-4c1.1-1,2.3-1.4,3.8-1.4c1.4,0,2.7,0.5,3.7,1.4
					C3108.7,1085.6,3109.1,1086.9,3109.1,1088.6z M3108.2,1137.2h-8.7v-37.7h8.7V1137.2z"/>
				<path class="st1" d="M3119.3,1100.8c1.7-0.5,3.8-1,6.5-1.4c2.7-0.4,5.6-0.7,8.9-0.7c3.1,0,5.6,0.4,7.7,1.3c2,0.8,3.7,2,4.9,3.5
					s2.1,3.4,2.6,5.5c0.5,2.2,0.8,4.5,0.8,7v21.2h-8.7v-19.8c0-2-0.1-3.7-0.4-5.2c-0.2-1.4-0.7-2.6-1.3-3.5
					c-0.6-0.9-1.4-1.6-2.5-1.9c-1-0.4-2.3-0.6-3.8-0.6c-1.1,0-2.3,0.1-3.5,0.2c-1.2,0.1-2.1,0.2-2.6,0.4v30.4h-8.6V1100.8z"/>
				<path class="st1" d="M3161,1089.6l8.7-1.4v11.4h13.4v7.3h-13.3v15.4c0,3,0.5,5.2,1.4,6.5c1,1.3,2.6,1.9,4.9,1.9
					c1.6,0,3-0.2,4.2-0.5c1.2-0.4,2.2-0.7,2.9-1l1.4,6.9c-1,0.4-2.3,0.9-4,1.3c-1.6,0.5-3.5,0.7-5.8,0.7c-2.7,0-4.9-0.4-6.7-1.1
					c-1.8-0.7-3.2-1.7-4.3-3.1c-1.1-1.4-1.8-3-2.2-5c-0.4-1.9-0.7-4.1-0.7-6.7v-32.6H3161z"/>
			</g>
			<g>
				<path class="st1" d="M1750.1,663.2v-49.9h32v7.7h-23v12.3h20.5v7.6h-20.5v14.6h24.7v7.7L1750.1,663.2L1750.1,663.2z"/>
				<path class="st1" d="M1790.6,615.6l8.7-1.4v11.4h13.4v7.3h-13.3v15.4c0,3,0.5,5.2,1.4,6.5s2.6,1.9,4.9,1.9c1.6,0,3-0.2,4.2-0.5
					c1.2-0.4,2.2-0.7,2.9-1l1.4,6.9c-1,0.4-2.3,0.9-4,1.3c-1.6,0.5-3.5,0.7-5.8,0.7c-2.7,0-4.9-0.4-6.7-1.1
					c-1.8-0.7-3.2-1.7-4.3-3.1c-1.1-1.4-1.8-3-2.2-5c-0.4-1.9-0.7-4.1-0.7-6.7v-32.6H1790.6z"/>
				<path class="st1" d="M1821.1,663.2v-54.4l8.7-1.4V626c1-0.4,2.1-0.6,3.4-0.8s2.5-0.4,3.8-0.4c3,0,5.5,0.4,7.5,1.3
					c2,0.8,3.6,2,4.8,3.5c1.2,1.5,2,3.3,2.6,5.5c0.5,2.1,0.8,4.4,0.8,7.1v21.2h-8.7v-19.8c0-2-0.1-3.7-0.4-5.2
					c-0.2-1.4-0.7-2.6-1.3-3.5c-0.6-0.9-1.4-1.6-2.4-1.9c-1-0.4-2.3-0.6-3.7-0.6c-1.1,0-2.3,0.1-3.5,0.4c-1.2,0.2-2.1,0.5-2.6,0.7
					v29.9h-8.8V663.2z"/>
				<path class="st1" d="M1861,644.6c0-3.3,0.5-6.2,1.5-8.7c1-2.5,2.3-4.6,3.9-6.2s3.5-2.9,5.6-3.7c2.1-0.8,4.3-1.3,6.5-1.3
					c5.2,0,9.2,1.6,12.1,4.8c2.9,3.2,4.4,8,4.4,14.4c0,0.5,0,1-0.1,1.6c0,0.6-0.1,1.1-0.1,1.6H1870c0.2,3,1.3,5.3,3.2,7
					c1.9,1.7,4.6,2.5,8.2,2.5c2.1,0,4-0.2,5.8-0.6c1.7-0.4,3.1-0.8,4.1-1.2l1.1,7.1c-0.5,0.2-1.1,0.5-2,0.8
					c-0.8,0.2-1.8,0.5-2.9,0.7c-1.1,0.2-2.2,0.4-3.5,0.5s-2.5,0.2-3.8,0.2c-3.3,0-6.2-0.5-8.6-1.5c-2.5-1-4.4-2.3-6.1-4.1
					c-1.6-1.7-2.8-3.8-3.5-6.2C1861.3,650,1861,647.4,1861,644.6z M1886.2,640.7c0-1.2-0.2-2.3-0.5-3.4c-0.4-1.1-0.8-2-1.5-2.8
					c-0.7-0.8-1.4-1.4-2.4-1.9c-1-0.5-2-0.7-3.4-0.7c-1.3,0-2.5,0.2-3.5,0.8c-1,0.5-1.9,1.1-2.6,2c-0.7,0.8-1.3,1.7-1.6,2.8
					c-0.4,1.1-0.7,2.2-0.8,3.2L1886.2,640.7L1886.2,640.7z"/>
				<path class="st1" d="M1925.6,633.5c-0.7-0.2-1.7-0.5-3-0.8c-1.3-0.2-2.8-0.4-4.4-0.4c-1,0-2,0.1-3.1,0.3
					c-1.1,0.2-1.9,0.4-2.3,0.5v30.2h-8.7v-35.9c1.7-0.6,3.8-1.2,6.3-1.7s5.3-0.8,8.4-0.8c0.6,0,1.3,0.1,2,0.1s1.6,0.2,2.3,0.3
					c0.8,0.1,1.5,0.2,2.2,0.4s1.3,0.3,1.7,0.5L1925.6,633.5z"/>
				<path class="st1" d="M1954.6,643.4c0-4-0.5-6.8-1.5-8.5c-1-1.7-2.8-2.6-5.5-2.6c-1,0-2,0.1-3.2,0.2c-1.1,0.1-2,0.2-2.6,0.4v30.4
					h-8.7v-36.4c1.7-0.5,3.9-1,6.6-1.4c2.7-0.4,5.6-0.7,8.6-0.7c2.6,0,4.7,0.4,6.4,1c1.7,0.7,3.1,1.6,4.1,2.6c0.5-0.4,1.2-0.8,2-1.2
					c0.8-0.4,1.7-0.8,2.8-1.2c1-0.4,2.1-0.7,3.2-0.9c1.1-0.2,2.3-0.4,3.4-0.4c2.9,0,5.3,0.4,7.3,1.3c1.9,0.8,3.4,2,4.4,3.5
					c1.1,1.5,1.8,3.4,2.2,5.5c0.4,2.2,0.6,4.5,0.6,7v21.2h-8.7v-19.8c0-4-0.5-6.8-1.4-8.5c-1-1.7-2.8-2.6-5.5-2.6
					c-1.4,0-2.7,0.2-4,0.7c-1.3,0.5-2.2,0.9-2.8,1.3c0.4,1.2,0.7,2.5,0.8,3.8c0.1,1.3,0.2,2.8,0.2,4.3v20.8h-8.7V643.4L1954.6,643.4
					z"/>
				<path class="st1" d="M2005.1,614.6c0,1.6-0.5,2.9-1.6,3.9c-1.1,1-2.3,1.4-3.7,1.4c-1.5,0-2.8-0.5-3.8-1.4
					c-1.1-1-1.6-2.3-1.6-3.9c0-1.7,0.5-3,1.6-4c1.1-1,2.3-1.4,3.8-1.4c1.4,0,2.7,0.5,3.7,1.4
					C2004.7,611.6,2005.1,612.9,2005.1,614.6z M2004.2,663.2h-8.7v-37.7h8.7V663.2z"/>
				<path class="st1" d="M2015.3,626.8c1.7-0.5,3.8-1,6.5-1.4c2.7-0.4,5.6-0.7,8.9-0.7c3.1,0,5.6,0.4,7.7,1.3c2,0.8,3.7,2,4.9,3.5
					s2.1,3.4,2.6,5.5c0.5,2.2,0.8,4.5,0.8,7v21.2h-8.7v-19.8c0-2-0.1-3.7-0.4-5.2c-0.2-1.4-0.7-2.6-1.3-3.5
					c-0.6-0.9-1.4-1.6-2.5-1.9c-1-0.4-2.3-0.6-3.8-0.6c-1.1,0-2.3,0.1-3.5,0.2c-1.2,0.1-2.1,0.2-2.6,0.4v30.4h-8.6V626.8z"/>
				<path class="st1" d="M2057,615.6l8.7-1.4v11.4h13.4v7.3h-13.3v15.4c0,3,0.5,5.2,1.4,6.5c1,1.3,2.6,1.9,4.9,1.9
					c1.6,0,3-0.2,4.2-0.5c1.2-0.4,2.2-0.7,2.9-1l1.4,6.9c-1,0.4-2.3,0.9-4,1.3c-1.6,0.5-3.5,0.7-5.8,0.7c-2.7,0-4.9-0.4-6.7-1.1
					c-1.8-0.7-3.2-1.7-4.3-3.1c-1.1-1.4-1.8-3-2.2-5c-0.4-1.9-0.7-4.1-0.7-6.7v-32.6H2057z"/>
				<path class="st1" d="M1881.5,699.8h9.1v49.9h-9.1v-22.1h-21.7v22.1h-9.1v-49.9h9.1v19.9h21.7V699.8z"/>
				<path class="st1" d="M1933,748.5c-1.7,0.4-3.8,0.9-6.5,1.3c-2.7,0.5-5.6,0.7-8.9,0.7c-3,0-5.6-0.4-7.6-1.3c-2-0.8-3.7-2-4.9-3.6
					c-1.2-1.6-2.1-3.4-2.6-5.5s-0.8-4.5-0.8-7v-21.1h8.7v19.7c0,4,0.6,6.9,1.7,8.6c1.2,1.7,3.2,2.6,6.2,2.6c1.1,0,2.2-0.1,3.4-0.1
					c1.2-0.1,2-0.2,2.6-0.4v-30.5h8.7L1933,748.5L1933,748.5z"/>
				<path class="st1" d="M1978,730.8c0,3-0.4,5.8-1.3,8.2c-0.9,2.4-2.2,4.5-3.8,6.2s-3.7,3.1-6,4c-2.3,0.9-5,1.4-8,1.4
					c-2.9,0-5.6-0.2-8.2-0.7c-2.6-0.4-4.8-0.9-6.5-1.4v-53.3l8.7-1.4v19.5c1-0.5,2.2-1,3.7-1.4c1.4-0.4,3.1-0.7,4.9-0.7
					c2.6,0,5,0.5,7.1,1.4c2.1,1,3.8,2.3,5.2,4c1.4,1.7,2.5,3.8,3.2,6.2C1977.6,725.3,1978,727.9,1978,730.8z M1969,730.7
					c0-3.7-0.7-6.6-2.2-8.8c-1.4-2.2-3.8-3.2-7-3.2c-1.4,0-2.8,0.2-4.1,0.7c-1.3,0.4-2.3,0.9-3.1,1.4v21.7c0.6,0.1,1.4,0.3,2.4,0.4
					s2.2,0.2,3.5,0.2c3.2,0,5.8-1.1,7.6-3.3C1968.1,737.6,1969,734.6,1969,730.7z"/>
			</g>
		</g>
		<g>
			<g>
				<rect x="1864.4" y="1029.5" class="st0" width="92.4" height="382.2"/>
			</g>
			<g>
				<path class="st1" d="M1952,1034.3v372.6h-82.8v-372.6H1952 M1961.6,1024.7h-9.6h-82.8h-9.6v9.6v372.6v9.6h9.6h82.8h9.6v-9.6
					v-372.6V1024.7L1961.6,1024.7z"/>
			</g>
		</g>
		<g>
			<g>
				<g>
					<g>
						<g>
							<polygon class="st0" points="1679.6,2106.3 1438.7,1838.2 1438.7,1629.5 1679.6,1361.4 2160.3,1361.4 2401.1,1629.5 
								2401.1,1838.2 2160.3,2106.3 							"/>
						</g>
					</g>
					<g>
						<g>
							<path class="st3" d="M2158.1,1366.2l238.2,265.2v205l-238.2,265.2h-476.4l-238.2-265.2v-205l238.2-265.2H2158.1
								 M2162.4,1356.6h-4.3h-476.4h-4.3l-2.9,3.2L1436.4,1625l-2.5,2.8v3.7v205v3.7l2.5,2.8l238.2,265.2l2.9,3.2h4.3h476.4h4.3
								l2.9-3.2l238.2-265.2l2.5-2.8v-3.7v-205v-3.7l-2.5-2.8l-238.2-265.2L2162.4,1356.6L2162.4,1356.6z"/>
						</g>
					</g>
				</g>
				<g>
					<path class="st3" d="M2158.1,1366.2l238.2,265.2v205l-238.2,265.2h-476.4l-238.2-265.2v-205l238.2-265.2H2158.1 M2160.3,1361.4
						h-2.2h-476.4h-2.2l-1.4,1.6l-238.2,265.2l-1.2,1.4v1.9v205v1.9l1.2,1.4l238.2,265.2l1.4,1.6h2.2h476.4h2.2l1.4-1.6l238.2-265.2
						l1.2-1.4v-1.9v-205v-1.9l-1.2-1.4L2161.7,1363L2160.3,1361.4L2160.3,1361.4z"/>
				</g>
				<g>
					<line class="st2" x1="1919.9" y1="1663.1" x2="1919.9" y2="1663.1"/>
					<path class="st3" d="M1919.9,1663.1"/>
				</g>
				<g>
					<g>
						<line class="st2" x1="1919.9" y1="1663.1" x2="1919.9" y2="1663.1"/>
						<path class="st3" d="M1919.9,1663.1"/>
					</g>
				</g>
				<g>
					<g>
						<path class="st0" d="M1680.7,1899l-240.4-267.6l240.4-267.6h478.6l240.4,267.6L2159.2,1899H1680.7z M2138.8,1853.3
							l199.3-221.9l-199.3-221.9H1701l-199.3,221.9l199.3,221.9H2138.8z"/>
					</g>
					<g>
						<path class="st3" d="M2158.1,1366.2l238.2,265.2l-238.2,265.2h-476.4l-238.2-265.2l238.2-265.2H2158.1 M1700,1855.7h440
							l201.5-224.3L2140,1407.2h-440l-201.5,224.3L1700,1855.7 M2160.3,1361.4h-2.2h-476.4h-2.2l-1.4,1.6l-238.2,265.2l-2.9,3.2
							l2.9,3.2l238.2,265.2l1.4,1.6h2.2h476.4h2.2l1.4-1.6l238.2-265.2l2.9-3.2l-2.9-3.2L2161.7,1363L2160.3,1361.4L2160.3,1361.4z
							 M1702.1,1411.9h435.7l197.2,219.5l-197.1,219.5h-435.7L1505,1631.4L1702.1,1411.9L1702.1,1411.9z"/>
					</g>
				</g>
				<g>
					<g>
						<rect x="2156.4" y="1898.6" class="st3" width="4.8" height="205"/>
					</g>
					<g>
						<rect x="1678.7" y="1898.6" class="st3" width="4.8" height="205"/>
					</g>
				</g>
			</g>
		</g>
		<g>
			<path class="st3" d="M1871.2,1596.4h13.6v74.8h-13.6V1638h-32.5v33.2H1825v-74.8h13.6v29.9h32.5V1596.4z"/>
			<path class="st3" d="M1948.4,1669.5c-2.5,0.7-5.8,1.3-9.8,2s-8.5,1-13.3,1c-4.6,0-8.3-0.7-11.4-1.9c-3.1-1.3-5.5-3.1-7.3-5.4
				c-1.9-2.3-3.2-5-4-8.3c-0.8-3.2-1.2-6.7-1.2-10.5v-31.6h13.1v29.6c0,6.1,0.9,10.4,2.6,13s4.9,3.9,9.2,3.9c1.6,0,3.2-0.1,5-0.2
				c1.7-0.1,3.1-0.3,4-0.5v-45.7h13.1L1948.4,1669.5L1948.4,1669.5z"/>
			<path class="st3" d="M2015.9,1643.1c0,4.6-0.7,8.6-2,12.2c-1.3,3.7-3.2,6.7-5.7,9.4c-2.5,2.6-5.5,4.6-9,5.9c-3.5,1.4-7.5,2-12,2
				c-4.3,0-8.5-0.3-12.4-1s-7.2-1.4-9.8-2.2v-79.9l13.1-2.2v29.3c1.5-0.8,3.4-1.5,5.6-2.2s4.6-1,7.3-1c4,0,7.5,0.7,10.6,2.1
				s5.8,3.4,7.8,6c2.1,2.6,3.7,5.7,4.8,9.4C2015.3,1634.6,2015.9,1638.6,2015.9,1643.1z M2002.5,1642.8c0-5.5-1.1-10-3.3-13.2
				s-5.7-4.9-10.4-4.9c-2.2,0-4.2,0.3-6.1,1c-1.9,0.7-3.4,1.4-4.6,2.2v32.5c1,0.2,2.2,0.4,3.6,0.6c1.5,0.2,3.2,0.3,5.3,0.3
				c4.8,0,8.6-1.6,11.3-4.9C2001.1,1653.1,2002.5,1648.6,2002.5,1642.8z"/>
		</g>
	</g>
</g>
<g id="Layer_2_1_">
</g>
</svg>
