<svg width="254" height="256" viewBox="0 0 254 256" fill="none" xmlns="http://www.w3.org/2000/svg">
<path opacity="0.3" fill-rule="evenodd" clip-rule="evenodd" d="M7.44907 229.498C7.85483 229.1 8.51046 229.1 8.91423 229.498C9.31999 229.895 9.31999 230.538 8.91423 230.936C8.51046 231.333 7.85483 231.333 7.44907 230.936C7.0453 230.538 7.0453 229.895 7.44907 229.498Z" fill="#8B9DC2"/>
<path opacity="0.3" fill-rule="evenodd" clip-rule="evenodd" d="M56.997 207.159C57.4007 206.761 58.0583 206.761 58.4621 207.159C58.8679 207.556 58.8679 208.199 58.4621 208.597C58.0583 208.994 57.4007 208.994 56.997 208.597C56.5912 208.199 56.5912 207.556 56.997 207.159Z" fill="#8B9DC2"/>
<path opacity="0.3" fill-rule="evenodd" clip-rule="evenodd" d="M55.653 231.697C56.0587 231.299 56.7144 231.299 57.1181 231.697C57.5239 232.094 57.5239 232.737 57.1181 233.135C56.7144 233.532 56.0587 233.532 55.653 233.135C55.2472 232.737 55.2472 232.094 55.653 231.697Z" fill="#8B9DC2"/>
<path opacity="0.3" fill-rule="evenodd" clip-rule="evenodd" d="M72.4508 253.709C72.8566 253.311 73.5122 253.311 73.916 253.709C74.3217 254.106 74.3217 254.749 73.916 255.147C73.5122 255.544 72.8566 255.544 72.4508 255.147C72.045 254.749 72.045 254.106 72.4508 253.709Z" fill="#8B9DC2"/>
<path opacity="0.3" fill-rule="evenodd" clip-rule="evenodd" d="M118.038 222.358C118.444 221.96 119.099 221.96 119.503 222.358C119.909 222.755 119.909 223.398 119.503 223.796C119.099 224.193 118.444 224.193 118.038 223.796C117.632 223.398 117.632 222.755 118.038 222.358Z" fill="#8B9DC2"/>
<path opacity="0.3" fill-rule="evenodd" clip-rule="evenodd" d="M137.434 243.9C137.84 243.502 138.496 243.502 138.899 243.9C139.305 244.297 139.305 244.94 138.899 245.338C138.496 245.735 137.84 245.735 137.434 245.338C137.028 244.94 137.028 244.297 137.434 243.9Z" fill="#8B9DC2"/>
<path opacity="0.3" fill-rule="evenodd" clip-rule="evenodd" d="M143.735 183.746C144.139 183.349 144.797 183.349 145.2 183.746C145.606 184.144 145.606 184.787 145.2 185.184C144.797 185.582 144.139 185.582 143.735 185.184C143.329 184.787 143.329 184.144 143.735 183.746Z" fill="#8B9DC2"/>
<path opacity="0.3" fill-rule="evenodd" clip-rule="evenodd" d="M123.864 127.87C124.268 127.472 124.925 127.472 125.329 127.87C125.735 128.267 125.735 128.91 125.329 129.308C124.925 129.705 124.268 129.705 123.864 129.308C123.458 128.91 123.458 128.267 123.864 127.87Z" fill="#8B9DC2"/>
<path opacity="0.3" fill-rule="evenodd" clip-rule="evenodd" d="M116.003 169.522C116.409 169.125 117.064 169.125 117.468 169.522C117.874 169.92 117.874 170.563 117.468 170.961C117.064 171.358 116.409 171.358 116.003 170.961C115.597 170.563 115.597 169.92 116.003 169.522Z" fill="#8B9DC2"/>
<path opacity="0.3" fill-rule="evenodd" clip-rule="evenodd" d="M34.5136 217.067C34.9193 216.67 35.5749 216.67 35.9787 217.067C36.3845 217.465 36.3845 218.108 35.9787 218.505C35.5749 218.903 34.9193 218.903 34.5136 218.505C34.1078 218.108 34.1078 217.465 34.5136 217.067Z" fill="#8B9DC2"/>
<path opacity="0.3" fill-rule="evenodd" clip-rule="evenodd" d="M73.9198 59.8647C74.3256 59.4673 74.9812 59.4673 75.385 59.8647C75.7907 60.2622 75.7907 60.9053 75.385 61.3028C74.9812 61.7003 74.3256 61.7003 73.9198 61.3028C73.514 60.9053 73.514 60.2622 73.9198 59.8647Z" fill="#8B9DC2"/>
<path opacity="0.3" fill-rule="evenodd" clip-rule="evenodd" d="M93.0729 34.0093C93.4766 33.6118 94.1343 33.6118 94.538 34.0093C94.9438 34.4067 94.9438 35.0499 94.538 35.4473C94.1343 35.8448 93.4766 35.8448 93.0729 35.4473C92.6671 35.0499 92.6671 34.4067 93.0729 34.0093Z" fill="#8B9DC2"/>
<path opacity="0.3" fill-rule="evenodd" clip-rule="evenodd" d="M4.63025 155.667C5.03602 155.27 5.69164 155.27 6.09541 155.667C6.50118 156.065 6.50118 156.708 6.09541 157.105C5.69164 157.503 5.03602 157.503 4.63025 157.105C4.22449 156.708 4.22449 156.065 4.63025 155.667Z" fill="#8B9DC2"/>
<path opacity="0.3" fill-rule="evenodd" clip-rule="evenodd" d="M27.3019 137.509C27.7077 137.112 28.3633 137.112 28.767 137.509C29.1728 137.907 29.1728 138.55 28.767 138.947C28.3633 139.345 27.7077 139.345 27.3019 138.947C26.8961 138.55 26.8961 137.907 27.3019 137.509Z" fill="#8B9DC2"/>
<path opacity="0.3" fill-rule="evenodd" clip-rule="evenodd" d="M28.4586 154.07C28.8624 153.672 29.52 153.672 29.9238 154.07C30.3296 154.467 30.3296 155.11 29.9238 155.508C29.52 155.905 28.8624 155.905 28.4586 155.508C28.0529 155.11 28.0529 154.467 28.4586 154.07Z" fill="#8B9DC2"/>
<path opacity="0.3" fill-rule="evenodd" clip-rule="evenodd" d="M45.5804 137.267C45.9862 136.87 46.6418 136.87 47.0456 137.267C47.4513 137.665 47.4513 138.308 47.0456 138.705C46.6418 139.103 45.9862 139.103 45.5804 138.705C45.1766 138.308 45.1766 137.665 45.5804 137.267Z" fill="#8B9DC2"/>
<path opacity="0.3" fill-rule="evenodd" clip-rule="evenodd" d="M14.567 125.917C14.9728 125.519 15.6284 125.519 16.0322 125.917C16.4379 126.314 16.4379 126.957 16.0322 127.355C15.6284 127.752 14.9728 127.752 14.567 127.355C14.1613 126.957 14.1613 126.314 14.567 125.917Z" fill="#8B9DC2"/>
<path opacity="0.3" fill-rule="evenodd" clip-rule="evenodd" d="M70.7372 145.615C71.143 145.217 71.7986 145.217 72.2024 145.615C72.6081 146.012 72.6081 146.655 72.2024 147.053C71.7986 147.45 71.143 147.45 70.7372 147.053C70.3314 146.655 70.3314 146.012 70.7372 145.615Z" fill="#8B9DC2"/>
<path opacity="0.3" fill-rule="evenodd" clip-rule="evenodd" d="M87.493 121.899C87.8968 121.502 88.5544 121.502 88.9582 121.899C89.364 122.297 89.364 122.94 88.9582 123.337C88.5544 123.735 87.8968 123.735 87.493 123.337C87.0873 122.94 87.0873 122.297 87.493 121.899Z" fill="#8B9DC2"/>
<path opacity="0.3" fill-rule="evenodd" clip-rule="evenodd" d="M88.5294 133.6C88.9352 133.202 89.5908 133.202 89.9946 133.6C90.4003 133.997 90.4003 134.64 89.9946 135.038C89.5908 135.435 88.9352 135.435 88.5294 135.038C88.1237 134.64 88.1237 133.997 88.5294 133.6Z" fill="#8B9DC2"/>
<path opacity="0.5" fill-rule="evenodd" clip-rule="evenodd" d="M19.4782 102.788C19.8819 102.39 20.5395 102.39 20.9433 102.788C21.3491 103.185 21.3491 103.828 20.9433 104.226C20.5395 104.623 19.8819 104.623 19.4782 104.226C19.0724 103.828 19.0724 103.185 19.4782 102.788Z" fill="#5BC75B"/>
<path opacity="0.3" fill-rule="evenodd" clip-rule="evenodd" d="M89.4323 55.5337C89.838 55.1362 90.4937 55.1362 90.8974 55.5337C91.3032 55.9312 91.3032 56.5743 90.8974 56.9717C90.4937 57.3692 89.838 57.3692 89.4323 56.9717C89.0265 56.5743 89.0265 55.9312 89.4323 55.5337Z" fill="#8B9DC2"/>
<path opacity="0.3" fill-rule="evenodd" clip-rule="evenodd" d="M135.398 54.1978C135.804 53.8003 136.46 53.8003 136.863 54.1978C137.269 54.5952 137.269 55.2383 136.863 55.6358C136.46 56.0333 135.804 56.0333 135.398 55.6358C134.993 55.2383 134.993 54.5952 135.398 54.1978Z" fill="#8B9DC2"/>
<path opacity="0.3" fill-rule="evenodd" clip-rule="evenodd" d="M84.6637 11.447C85.0695 11.0496 85.7251 11.0496 86.1289 11.447C86.5346 11.8445 86.5346 12.4876 86.1289 12.8851C85.7251 13.2825 85.0695 13.2825 84.6637 12.8851C84.2579 12.4876 84.2579 11.8445 84.6637 11.447Z" fill="#8B9DC2"/>
<path opacity="0.3" fill-rule="evenodd" clip-rule="evenodd" d="M24.6874 31.7283C25.0912 31.3308 25.7488 31.3308 26.1525 31.7283C26.5583 32.1257 26.5583 32.7689 26.1525 33.1663C25.7488 33.5638 25.0912 33.5638 24.6874 33.1663C24.2816 32.7689 24.2816 32.1257 24.6874 31.7283Z" fill="#8B9DC2"/>
<path opacity="0.3" fill-rule="evenodd" clip-rule="evenodd" d="M35.5502 46.6328C35.9559 46.2354 36.6116 46.2354 37.0153 46.6328C37.4211 47.0303 37.4211 47.6734 37.0153 48.0709C36.6116 48.4683 35.9559 48.4683 35.5502 48.0709C35.1444 47.6734 35.1444 47.0303 35.5502 46.6328Z" fill="#8B9DC2"/>
<path fill-rule="evenodd" clip-rule="evenodd" d="M17.8131 11.488C18.2189 11.0906 18.8745 11.0906 19.2783 11.488C19.684 11.8855 19.684 12.5286 19.2783 12.9261C18.8745 13.3235 18.2189 13.3235 17.8131 12.9261C17.4073 12.5286 17.4073 11.8855 17.8131 11.488Z" fill="#5BC75B"/>
<path opacity="0.3" fill-rule="evenodd" clip-rule="evenodd" d="M0.67664 6.31616C1.08041 5.9187 1.73803 5.9187 2.1418 6.31616C2.54757 6.71362 2.54757 7.35675 2.1418 7.75421C1.73803 8.15167 1.08041 8.15167 0.67664 7.75421C0.270873 7.35675 0.270873 6.71362 0.67664 6.31616Z" fill="#8B9DC2"/>
<path opacity="0.3" fill-rule="evenodd" clip-rule="evenodd" d="M9.50647 71.9734C9.91224 71.5759 10.5679 71.5759 10.9716 71.9734C11.3774 72.3708 11.3774 73.014 10.9716 73.4114C10.5679 73.8089 9.91224 73.8089 9.50647 73.4114C9.10071 73.014 9.10071 72.3708 9.50647 71.9734Z" fill="#C6D5DE"/>
<path opacity="0.3" fill-rule="evenodd" clip-rule="evenodd" d="M15.8955 37.5844C16.1394 37.3407 16.5352 37.3407 16.779 37.5844C17.0229 37.828 17.0229 38.2235 16.779 38.4672C16.5352 38.7108 16.1394 38.7108 15.8955 38.4672C15.6517 38.2235 15.6517 37.828 15.8955 37.5844Z" fill="#9FA0CC"/>
<path opacity="0.3" fill-rule="evenodd" clip-rule="evenodd" d="M131.832 120.729C132.076 120.486 132.471 120.486 132.715 120.729C132.959 120.973 132.959 121.369 132.715 121.612C132.471 121.856 132.076 121.856 131.832 121.612C131.588 121.369 131.588 120.973 131.832 120.729Z" fill="#9FA0CC"/>
<path opacity="0.3" fill-rule="evenodd" clip-rule="evenodd" d="M122.015 180.579C122.259 180.335 122.655 180.335 122.899 180.579C123.143 180.822 123.143 181.218 122.899 181.461C122.655 181.705 122.259 181.705 122.015 181.461C121.771 181.218 121.771 180.822 122.015 180.579Z" fill="#9FA0CC"/>
<path opacity="0.3" fill-rule="evenodd" clip-rule="evenodd" d="M101.939 176.041C102.183 175.797 102.578 175.797 102.822 176.041C103.066 176.285 103.066 176.68 102.822 176.924C102.578 177.167 102.183 177.167 101.939 176.924C101.695 176.68 101.695 176.285 101.939 176.041Z" fill="#9FA0CC"/>
<path opacity="0.3" fill-rule="evenodd" clip-rule="evenodd" d="M118.655 245.143C118.899 244.9 119.294 244.9 119.538 245.143C119.782 245.387 119.782 245.782 119.538 246.026C119.294 246.27 118.899 246.27 118.655 246.026C118.411 245.782 118.411 245.387 118.655 245.143Z" fill="#9FA0CC"/>
<path opacity="0.3" fill-rule="evenodd" clip-rule="evenodd" d="M6.39505 249.78C6.63891 249.536 7.03469 249.536 7.27855 249.78C7.52241 250.023 7.52241 250.419 7.27855 250.662C7.03469 250.906 6.63891 250.906 6.39505 250.662C6.15119 250.419 6.15119 250.023 6.39505 249.78Z" fill="#B3BEC8"/>
<path fill-rule="evenodd" clip-rule="evenodd" d="M51.3555 220.067C51.5994 219.823 51.9951 219.823 52.239 220.067C52.4829 220.311 52.4829 220.706 52.239 220.95C51.9951 221.193 51.5994 221.193 51.3555 220.95C51.1116 220.706 51.1116 220.311 51.3555 220.067Z" fill="#5BC75B"/>
<path opacity="0.3" fill-rule="evenodd" clip-rule="evenodd" d="M15.8955 201.568C16.1394 201.324 16.5352 201.324 16.779 201.568C17.0229 201.811 17.0229 202.207 16.779 202.451C16.5352 202.694 16.1394 202.694 15.8955 202.451C15.6517 202.207 15.6517 201.811 15.8955 201.568Z" fill="#B3BEC8"/>
<path opacity="0.3" fill-rule="evenodd" clip-rule="evenodd" d="M98.1958 213.025C98.4397 212.781 98.8355 212.781 99.0793 213.025C99.3232 213.269 99.3232 213.664 99.0793 213.908C98.8355 214.152 98.4397 214.152 98.1958 213.908C97.952 213.664 97.952 213.269 98.1958 213.025Z" fill="#B3BEC8"/>
<path opacity="0.3" fill-rule="evenodd" clip-rule="evenodd" d="M80.8973 216.72C81.1411 216.476 81.5369 216.476 81.7807 216.72C82.0246 216.966 82.0246 217.359 81.7807 217.603C81.5369 217.847 81.1411 217.847 80.8973 217.603C80.6534 217.359 80.6534 216.966 80.8973 216.72Z" fill="#B3BEC8"/>
<path opacity="0.3" fill-rule="evenodd" clip-rule="evenodd" d="M204.482 9.22572C204.726 8.98205 205.121 8.98205 205.365 9.22572C205.609 9.46939 205.609 9.86485 205.365 10.1085C205.121 10.3522 204.726 10.3522 204.482 10.1085C204.238 9.86485 204.238 9.46939 204.482 9.22572Z" fill="#B3BEC8"/>
<path opacity="0.3" fill-rule="evenodd" clip-rule="evenodd" d="M92.6328 113.902C92.8767 113.659 93.2725 113.659 93.5163 113.902C93.7602 114.146 93.7602 114.542 93.5163 114.785C93.2725 115.029 92.8767 115.029 92.6328 114.785C92.389 114.542 92.389 114.146 92.6328 113.902Z" fill="#B3BEC8"/>
<path opacity="0.3" fill-rule="evenodd" clip-rule="evenodd" d="M95.2347 87.7877C95.4785 87.5441 95.8743 87.5441 96.1181 87.7877C96.362 88.0314 96.362 88.4269 96.1181 88.6705C95.8743 88.9142 95.4785 88.9142 95.2347 88.6705C94.9908 88.4269 94.9908 88.0314 95.2347 87.7877Z" fill="#B3BEC8"/>
<path opacity="0.3" fill-rule="evenodd" clip-rule="evenodd" d="M112.284 13.3019C112.528 13.0582 112.924 13.0582 113.168 13.3019C113.412 13.5456 113.412 13.941 113.168 14.1847C112.924 14.4284 112.528 14.4284 112.284 14.1847C112.041 13.941 112.041 13.5456 112.284 13.3019Z" fill="#B3BEC8"/>
<path opacity="0.3" fill-rule="evenodd" clip-rule="evenodd" d="M46.8387 170.425C47.0825 170.181 47.4783 170.181 47.7221 170.425C47.966 170.668 47.966 171.064 47.7221 171.307C47.4783 171.551 47.0825 171.551 46.8387 171.307C46.5948 171.064 46.5948 170.668 46.8387 170.425Z" fill="#B3BEC8"/>
<path opacity="0.3" fill-rule="evenodd" clip-rule="evenodd" d="M122.015 155.007C122.259 154.763 122.655 154.763 122.899 155.007C123.143 155.251 123.143 155.646 122.899 155.89C122.655 156.133 122.259 156.133 122.015 155.89C121.771 155.646 121.771 155.251 122.015 155.007Z" fill="#B3BEC8"/>
<path opacity="0.3" fill-rule="evenodd" clip-rule="evenodd" d="M106.152 151.293C106.396 151.049 106.792 151.049 107.036 151.293C107.28 151.537 107.28 151.932 107.036 152.176C106.792 152.42 106.396 152.42 106.152 152.176C105.909 151.932 105.909 151.537 106.152 151.293Z" fill="#B3BEC8"/>
<path opacity="0.3" fill-rule="evenodd" clip-rule="evenodd" d="M130.187 26.1994C130.431 25.9557 130.827 25.9557 131.071 26.1994C131.315 26.443 131.315 26.8385 131.071 27.0822C130.827 27.3258 130.431 27.3258 130.187 27.0822C129.943 26.8385 129.943 26.443 130.187 26.1994Z" fill="#B3BEC8"/>
<path opacity="0.3" fill-rule="evenodd" clip-rule="evenodd" d="M113.788 34.9113C114.031 34.6676 114.427 34.6676 114.671 34.9113C114.915 35.1549 114.915 35.5504 114.671 35.7941C114.427 36.0377 114.031 36.0377 113.788 35.7941C113.544 35.5504 113.544 35.1549 113.788 34.9113Z" fill="#B3BEC8"/>
<path opacity="0.3" fill-rule="evenodd" clip-rule="evenodd" d="M55.0634 9.48569C55.6731 8.87652 56.6625 8.87652 57.2722 9.48569C57.8818 10.0949 57.8818 11.0835 57.2722 11.6927C56.6625 12.3019 55.6731 12.3019 55.0634 11.6927C54.4538 11.0835 54.4538 10.0949 55.0634 9.48569Z" fill="#81B0D4"/>
<path opacity="0.3" fill-rule="evenodd" clip-rule="evenodd" d="M7.9526 94.9012C8.56225 94.292 9.55168 94.292 10.1613 94.9012C10.771 95.5104 10.771 96.499 10.1613 97.1082C9.55168 97.7174 8.56225 97.7174 7.9526 97.1082C7.34295 96.499 7.34295 95.5104 7.9526 94.9012Z" fill="#81B0D4"/>
<path opacity="0.3" fill-rule="evenodd" clip-rule="evenodd" d="M64.4145 33.6251C65.0242 33.0159 66.0136 33.0159 66.6232 33.6251C67.2329 34.2343 67.2329 35.2229 66.6232 35.8321C66.0136 36.4413 65.0242 36.4413 64.4145 35.8321C63.8049 35.2229 63.8049 34.2343 64.4145 33.6251Z" fill="#81B0D4"/>
<path opacity="0.3" fill-rule="evenodd" clip-rule="evenodd" d="M114.87 77.6725C115.48 77.0633 116.469 77.0633 117.077 77.6725C117.688 78.2816 117.688 79.2703 117.077 79.8795C116.469 80.4886 115.48 80.4886 114.87 79.8795C114.26 79.2703 114.26 78.2816 114.87 77.6725Z" fill="#81B0D4"/>
<path opacity="0.3" fill-rule="evenodd" clip-rule="evenodd" d="M113.454 104.167C114.063 103.558 115.053 103.558 115.663 104.167C116.272 104.776 116.272 105.765 115.663 106.374C115.053 106.983 114.063 106.983 113.454 106.374C112.844 105.765 112.844 104.776 113.454 104.167Z" fill="#81B0D4"/>
<path opacity="0.3" fill-rule="evenodd" clip-rule="evenodd" d="M62.5874 81.4984C63.197 80.8892 64.1864 80.8892 64.7961 81.4984C65.4057 82.1076 65.4057 83.0962 64.7961 83.7054C64.1864 84.3146 63.197 84.3146 62.5874 83.7054C61.9777 83.0962 61.9777 82.1076 62.5874 81.4984Z" fill="#81B0D4"/>
<path opacity="0.3" fill-rule="evenodd" clip-rule="evenodd" d="M71.9355 237.067C72.5452 236.458 73.5346 236.458 74.1422 237.067C74.7539 237.677 74.7539 238.665 74.1422 239.274C73.5346 239.884 72.5452 239.884 71.9355 239.274C71.3259 238.665 71.3259 237.677 71.9355 237.067Z" fill="#81B0D4"/>
<path opacity="0.3" fill-rule="evenodd" clip-rule="evenodd" d="M10.5908 238.628C11.2004 238.019 12.1899 238.019 12.7975 238.628C13.4092 239.237 13.4092 240.226 12.7975 240.835C12.1899 241.444 11.2004 241.444 10.5908 240.835C9.98113 240.226 9.98113 239.237 10.5908 238.628Z" fill="#81B0D4"/>
<path opacity="0.3" fill-rule="evenodd" clip-rule="evenodd" d="M32.7509 192.387C33.3606 191.778 34.35 191.778 34.9597 192.387C35.5693 192.996 35.5693 193.985 34.9597 194.594C34.35 195.203 33.3606 195.203 32.7509 194.594C32.1413 193.985 32.1413 192.996 32.7509 192.387Z" fill="#81B0D4"/>
<path opacity="0.3" fill-rule="evenodd" clip-rule="evenodd" d="M128.494 213.709C129.104 213.1 130.093 213.1 130.703 213.709C131.312 214.318 131.312 215.307 130.703 215.916C130.093 216.525 129.104 216.525 128.494 215.916C127.884 215.307 127.884 214.318 128.494 213.709Z" fill="#81B0D4"/>
<path opacity="0.3" fill-rule="evenodd" clip-rule="evenodd" d="M234.955 0.83656C235.199 0.592891 235.595 0.592891 235.839 0.83656C236.083 1.08023 236.083 1.47569 235.839 1.71936C235.595 1.96303 235.199 1.96303 234.955 1.71936C234.711 1.47569 234.711 1.08023 234.955 0.83656Z" fill="#C3CCD9"/>
<path opacity="0.3" fill-rule="evenodd" clip-rule="evenodd" d="M230.319 28.8209C230.563 28.5773 230.959 28.5773 231.203 28.8209C231.447 29.0646 231.447 29.4601 231.203 29.7037C230.959 29.9454 230.563 29.9454 230.319 29.7037C230.076 29.4601 230.076 29.0646 230.319 28.8209Z" fill="#C3CCD9"/>
<path opacity="0.3" fill-rule="evenodd" clip-rule="evenodd" d="M242.646 47.015C242.89 46.7714 243.286 46.7714 243.53 47.015C243.772 47.2587 243.772 47.6542 243.53 47.8978C243.286 48.1415 242.89 48.1415 242.646 47.8978C242.402 47.6542 242.402 47.2587 242.646 47.015Z" fill="#C3CCD9"/>
<path opacity="0.3" fill-rule="evenodd" clip-rule="evenodd" d="M216.38 42.9403C216.624 42.6967 217.02 42.6967 217.264 42.9403C217.508 43.184 217.508 43.5795 217.264 43.8231C217.02 44.0668 216.624 44.0668 216.38 43.8231C216.136 43.5795 216.136 43.184 216.38 42.9403Z" fill="#C3CCD9"/>
<path opacity="0.3" fill-rule="evenodd" clip-rule="evenodd" d="M194.772 69.8746C195.016 69.631 195.412 69.631 195.656 69.8746C195.9 70.1183 195.9 70.5138 195.656 70.7575C195.412 71.0011 195.016 71.0011 194.772 70.7575C194.529 70.5138 194.529 70.1183 194.772 69.8746Z" fill="#C3CCD9"/>
<path opacity="0.3" fill-rule="evenodd" clip-rule="evenodd" d="M217.577 92.8405C217.821 92.5968 218.216 92.5968 218.46 92.8405C218.704 93.0841 218.704 93.4796 218.46 93.7233C218.216 93.9669 217.821 93.9669 217.577 93.7233C217.333 93.4796 217.333 93.0841 217.577 92.8405Z" fill="#C3CCD9"/>
<path opacity="0.3" fill-rule="evenodd" clip-rule="evenodd" d="M189.978 111.982C190.222 111.739 190.618 111.739 190.862 111.982C191.106 112.226 191.106 112.621 190.862 112.865C190.618 113.109 190.222 113.109 189.978 112.865C189.734 112.621 189.734 112.226 189.978 111.982Z" fill="#C3CCD9"/>
<path opacity="0.3" fill-rule="evenodd" clip-rule="evenodd" d="M199.355 153.759C199.599 153.515 199.994 153.515 200.238 153.759C200.482 154.002 200.482 154.398 200.238 154.641C199.994 154.885 199.599 154.885 199.355 154.641C199.111 154.398 199.111 154.002 199.355 153.759Z" fill="#C3CCD9"/>
<path opacity="0.3" fill-rule="evenodd" clip-rule="evenodd" d="M187.678 184.592C187.922 184.348 188.317 184.348 188.561 184.592C188.803 184.835 188.803 185.231 188.561 185.474C188.317 185.718 187.922 185.718 187.678 185.474C187.434 185.231 187.434 184.835 187.678 184.592Z" fill="#C3CCD9"/>
<path opacity="0.3" fill-rule="evenodd" clip-rule="evenodd" d="M230.702 220.067C230.946 219.823 231.342 219.823 231.585 220.067C231.829 220.311 231.829 220.706 231.585 220.95C231.342 221.193 230.946 221.193 230.702 220.95C230.458 220.706 230.458 220.311 230.702 220.067Z" fill="#C3CCD9"/>
<path opacity="0.3" fill-rule="evenodd" clip-rule="evenodd" d="M185.679 228.441C185.923 228.198 186.319 228.198 186.562 228.441C186.804 228.685 186.804 229.08 186.562 229.324C186.319 229.568 185.923 229.568 185.679 229.324C185.435 229.08 185.435 228.685 185.679 228.441Z" fill="#C3CCD9"/>
<path opacity="0.3" fill-rule="evenodd" clip-rule="evenodd" d="M205.168 240.641C205.412 240.397 205.807 240.397 206.051 240.641C206.293 240.884 206.293 241.28 206.051 241.523C205.807 241.767 205.412 241.767 205.168 241.523C204.924 241.28 204.924 240.884 205.168 240.641Z" fill="#C3CCD9"/>
<path opacity="0.5" fill-rule="evenodd" clip-rule="evenodd" d="M104.759 253.802L103.967 255.231L103.204 253.816L101.786 253.052L103.218 252.261L104.009 250.833L104.773 252.247L106.19 253.012L104.759 253.802Z" fill="#66A1FF"/>
<path opacity="0.5" fill-rule="evenodd" clip-rule="evenodd" d="M132.571 71.7383L131.779 73.1683L131.014 71.7523L129.598 70.9893L131.03 70.1984L131.821 68.7683L132.585 70.1844L134.002 70.9473L132.571 71.7383Z" fill="#66A1FF"/>
<path opacity="0.3" fill-rule="evenodd" clip-rule="evenodd" d="M123.166 49.3691L122.375 50.7972L121.611 49.3831L120.194 48.6182L121.625 47.8272L122.417 46.3992L123.18 47.8132L124.597 48.5782L123.166 49.3691Z" fill="#BDCADC"/>
<path opacity="0.3" fill-rule="evenodd" clip-rule="evenodd" d="M141.14 44.5388L140.348 45.9669L139.583 44.5528L138.168 43.7878L139.597 42.9989L140.388 41.5688L141.154 42.9849L142.569 43.7479L141.14 44.5388Z" fill="#BDCADC"/>
<path opacity="0.3" fill-rule="evenodd" clip-rule="evenodd" d="M62.0192 103.403L61.2276 104.831L60.4621 103.417L59.0469 102.652L60.4781 101.861L61.2676 100.433L62.0332 101.847L63.4484 102.612L62.0192 103.403Z" fill="#BDCADC"/>
<path opacity="0.3" fill-rule="evenodd" clip-rule="evenodd" d="M66.6827 113.667L65.8912 115.095L65.1256 113.681L63.7104 112.916L65.1396 112.125L65.9312 110.697L66.6967 112.111L68.1119 112.876L66.6827 113.667Z" fill="#BDCADC"/>
<path fill-rule="evenodd" clip-rule="evenodd" d="M83.9142 127.161L83.1227 128.589L82.3571 127.175L80.9419 126.41L82.3711 125.619L83.1626 124.191L83.9282 125.605L85.3434 126.37L83.9142 127.161Z" fill="#5BC75B"/>
<path opacity="0.3" fill-rule="evenodd" clip-rule="evenodd" d="M94.7633 147.181L93.9718 148.609L93.2062 147.195L91.791 146.43L93.2222 145.639L94.0117 144.211L94.7773 145.625L96.1925 146.39L94.7633 147.181Z" fill="#BDCADC"/>
<path opacity="0.3" fill-rule="evenodd" clip-rule="evenodd" d="M74.401 167.876L73.6095 169.304L72.8459 167.89L71.4287 167.125L72.8599 166.336L73.6514 164.906L74.415 166.32L75.8322 167.085L74.401 167.876Z" fill="#BDCADC"/>
<path opacity="0.3" fill-rule="evenodd" clip-rule="evenodd" d="M54.9774 164.793L54.1859 166.222L53.4203 164.807L52.0051 164.042L53.4363 163.254L54.2259 161.823L54.9914 163.238L56.4066 164.003L54.9774 164.793Z" fill="#BDCADC"/>
<path opacity="0.5" fill-rule="evenodd" clip-rule="evenodd" d="M51.4728 179.015L50.6812 180.443L49.9177 179.029L48.5005 178.264L49.9317 177.473L50.7232 176.045L51.4868 177.459L52.904 178.224L51.4728 179.015Z" fill="#E6900A"/>
<path fill-rule="evenodd" clip-rule="evenodd" d="M81.806 186.906L81.0145 188.336L80.2489 186.92L78.8337 186.157L80.2629 185.366L81.0545 183.936L81.82 185.352L83.2352 186.115L81.806 186.906Z" fill="#BA3FD9"/>
<path opacity="0.3" fill-rule="evenodd" clip-rule="evenodd" d="M94.9078 186.13L94.1163 187.558L93.3507 186.144L91.9355 185.379L93.3667 184.588L94.1583 183.16L94.9218 184.574L96.339 185.339L94.9078 186.13Z" fill="#BDCADC"/>
<path opacity="0.3" fill-rule="evenodd" clip-rule="evenodd" d="M47.5795 70.3672L46.7879 71.7952L46.0224 70.3812L44.6072 69.6162L46.0364 68.8273L46.8279 67.3972L47.5935 68.8113L49.0087 69.5763L47.5795 70.3672Z" fill="#BDCADC"/>
<path opacity="0.5" fill-rule="evenodd" clip-rule="evenodd" d="M41.7391 66.541L40.9476 67.9691L40.182 66.555L38.7668 65.79L40.196 65.0011L40.9876 63.571L41.7531 64.9871L43.1683 65.7501L41.7391 66.541Z" fill="#BA3FD9"/>
<path opacity="0.5" fill-rule="evenodd" clip-rule="evenodd" d="M26.6051 75.8889L25.8136 77.317L25.048 75.9029L23.6328 75.1399L25.064 74.349L25.8535 72.9189L26.6191 74.335L28.0343 75.098L26.6051 75.8889Z" fill="#66A1FF"/>
<path opacity="0.3" fill-rule="evenodd" clip-rule="evenodd" d="M245.49 54.8909L244.699 56.3189L243.933 54.9048L242.518 54.1399L243.949 53.351L244.739 51.9209L245.504 53.335L246.92 54.0999L245.49 54.8909Z" fill="#BDCADC"/>
<path opacity="0.5" fill-rule="evenodd" clip-rule="evenodd" d="M231.533 45.6545L230.741 47.0826L229.975 45.6685L228.56 44.9036L229.989 44.1126L230.781 42.6846L231.547 44.0986L232.962 44.8636L231.533 45.6545Z" fill="#BA3FD9"/>
<path opacity="0.5" fill-rule="evenodd" clip-rule="evenodd" d="M233.734 23.4807L232.942 24.9088L232.178 23.4947L230.761 22.7297L232.192 21.9408L232.984 20.5107L233.748 21.9248L235.163 22.6898L233.734 23.4807Z" fill="#66A1FF"/>
<path fill-rule="evenodd" clip-rule="evenodd" d="M251.664 21.2815L250.872 22.7095L250.107 21.2955L248.691 20.5305L250.121 19.7416L250.912 18.3115L251.678 19.7256L253.093 20.4906L251.664 21.2815Z" fill="#E6900A"/>
<path opacity="0.3" fill-rule="evenodd" clip-rule="evenodd" d="M173.787 24.7288L172.996 26.1568L172.23 24.7427L170.815 23.9778L172.244 23.1888L173.036 21.7588L173.801 23.1729L175.217 23.9378L173.787 24.7288Z" fill="#BDCADC"/>
<path fill-rule="evenodd" clip-rule="evenodd" d="M162.511 17.3376L161.719 18.7657L160.954 17.3516L159.538 16.5867L160.968 15.7977L161.759 14.3677L162.525 15.7818L163.94 16.5467L162.511 17.3376Z" fill="#BA3FD9"/>
<path opacity="0.3" fill-rule="evenodd" clip-rule="evenodd" d="M157.013 30.0325L156.221 31.4605L155.456 30.0464L154.041 29.2815L155.47 28.4926L156.261 27.0625L157.027 28.4786L158.442 29.2415L157.013 30.0325Z" fill="#BDCADC"/>
<path opacity="0.3" fill-rule="evenodd" clip-rule="evenodd" d="M173.787 79.9409L172.996 81.369L172.23 79.9549L170.815 79.1899L172.244 78.401L173.036 76.9709L173.801 78.385L175.217 79.15L173.787 79.9409Z" fill="#BDCADC"/>
<path opacity="0.5" fill-rule="evenodd" clip-rule="evenodd" d="M170.974 98.3359L170.183 99.764L169.417 98.3499L168.002 97.585L169.433 96.796L170.223 95.366L170.988 96.78L172.404 97.545L170.974 98.3359Z" fill="#66A1FF"/>
<path opacity="0.3" fill-rule="evenodd" clip-rule="evenodd" d="M161.414 117.168L160.623 118.596L159.859 117.182L158.442 116.417L159.873 115.626L160.663 114.198L161.428 115.612L162.844 116.377L161.414 117.168Z" fill="#BDCADC"/>
<path opacity="0.5" fill-rule="evenodd" clip-rule="evenodd" d="M177.237 117.168L176.446 118.596L175.68 117.182L174.265 116.417L175.696 115.626L176.486 114.198L177.251 115.612L178.667 116.377L177.237 117.168Z" fill="#E6900A"/>
<path opacity="0.3" fill-rule="evenodd" clip-rule="evenodd" d="M188.89 106.041L188.098 107.469L187.335 106.055L185.918 105.29L187.349 104.501L188.138 103.071L188.904 104.485L190.319 105.25L188.89 106.041Z" fill="#BDCADC"/>
<path opacity="0.3" fill-rule="evenodd" clip-rule="evenodd" d="M227.079 117.168L226.287 118.596L225.522 117.182L224.107 116.417L225.538 115.626L226.327 114.198L227.093 115.612L228.508 116.377L227.079 117.168Z" fill="#BDCADC"/>
<path opacity="0.3" fill-rule="evenodd" clip-rule="evenodd" d="M249.462 121.941L248.67 123.369L247.905 121.955L246.49 121.19L247.921 120.401L248.712 118.971L249.476 120.386L250.893 121.15L249.462 121.941Z" fill="#BDCADC"/>
<path fill-rule="evenodd" clip-rule="evenodd" d="M198.367 170.792L197.575 172.22L196.81 170.806L195.395 170.041L196.824 169.25L197.615 167.822L198.381 169.236L199.796 170.001L198.367 170.792Z" fill="#66A1FF"/>
<path opacity="0.3" fill-rule="evenodd" clip-rule="evenodd" d="M218.165 184.047L217.374 185.477L216.608 184.061L215.193 183.298L216.622 182.507L217.414 181.077L218.179 182.493L219.594 183.256L218.165 184.047Z" fill="#BDCADC"/>
<path opacity="0.3" fill-rule="evenodd" clip-rule="evenodd" d="M207.957 200.083L207.166 201.511L206.4 200.096L204.985 199.332L206.414 198.543L207.206 197.113L207.971 198.527L209.386 199.292L207.957 200.083Z" fill="#BDCADC"/>
<path opacity="0.5" fill-rule="evenodd" clip-rule="evenodd" d="M195.361 196.46L194.569 197.889L193.804 196.474L192.389 195.709L193.818 194.921L194.609 193.49L195.375 194.905L196.79 195.67L195.361 196.46Z" fill="#E6900A"/>
<path opacity="0.5" fill-rule="evenodd" clip-rule="evenodd" d="M239.08 246.573L238.288 248.001L237.523 246.587L236.108 245.822L237.537 245.031L238.328 243.603L239.094 245.017L240.509 245.782L239.08 246.573Z" fill="#E6900A"/>
<path opacity="0.5" fill-rule="evenodd" clip-rule="evenodd" d="M236.878 233.187L236.087 234.615L235.321 233.201L233.906 232.436L235.337 231.645L236.126 230.217L236.892 231.631L238.307 232.396L236.878 233.187Z" fill="#BA3FD9"/>
<path opacity="0.3" fill-rule="evenodd" clip-rule="evenodd" d="M242.979 72.9545C243.385 72.549 244.041 72.549 244.444 72.9545C244.85 73.3599 244.85 74.015 244.444 74.4185C244.041 74.8239 243.385 74.8239 242.979 74.4185C242.573 74.015 242.573 73.3599 242.979 72.9545Z" fill="#C6D5DE"/>
<path opacity="0.3" fill-rule="evenodd" clip-rule="evenodd" d="M202.05 34.3895C202.454 33.9841 203.112 33.9841 203.516 34.3895C203.921 34.795 203.921 35.4501 203.516 35.8535C203.112 36.259 202.454 36.259 202.05 35.8535C201.645 35.4501 201.645 34.795 202.05 34.3895Z" fill="#C6D5DE"/>
<path opacity="0.5" fill-rule="evenodd" clip-rule="evenodd" d="M176.023 48.5333C176.429 48.1279 177.085 48.1279 177.49 48.5333C177.896 48.9388 177.896 49.5939 177.49 49.9973C177.085 50.4028 176.429 50.4028 176.023 49.9973C175.618 49.5939 175.618 48.9388 176.023 48.5333Z" fill="#5BC75B"/>
<path opacity="0.3" fill-rule="evenodd" clip-rule="evenodd" d="M218.211 62.7914C218.617 62.3859 219.272 62.3859 219.678 62.7914C220.084 63.1968 220.084 63.8519 219.678 64.2574C219.272 64.6608 218.617 64.6608 218.211 64.2574C217.805 63.8519 217.805 63.1968 218.211 62.7914Z" fill="#C6D5DE"/>
<path opacity="0.3" fill-rule="evenodd" clip-rule="evenodd" d="M198.439 92.3488C198.845 91.9433 199.501 91.9433 199.904 92.3488C200.31 92.7542 200.31 93.4093 199.904 93.8148C199.501 94.2182 198.845 94.2182 198.439 93.8148C198.034 93.4093 198.034 92.7542 198.439 92.3488Z" fill="#C6D5DE"/>
<path opacity="0.3" fill-rule="evenodd" clip-rule="evenodd" d="M135.398 94.3832C135.804 93.9777 136.46 93.9777 136.863 94.3832C137.269 94.7886 137.269 95.4438 136.863 95.8492C136.46 96.2546 135.804 96.2546 135.398 95.8492C134.993 95.4438 134.993 94.7886 135.398 94.3832Z" fill="#C6D5DE"/>
<path opacity="0.3" fill-rule="evenodd" clip-rule="evenodd" d="M143.734 150.589C144.14 150.184 144.796 150.184 145.201 150.589C145.607 150.995 145.607 151.65 145.201 152.053C144.796 152.459 144.14 152.459 143.734 152.053C143.328 151.65 143.328 150.995 143.734 150.589Z" fill="#C6D5DE"/>
<path opacity="0.3" fill-rule="evenodd" clip-rule="evenodd" d="M169.471 143.478C169.874 143.072 170.532 143.072 170.936 143.478C171.342 143.883 171.342 144.538 170.936 144.942C170.532 145.347 169.874 145.347 169.471 144.942C169.065 144.538 169.065 143.883 169.471 143.478Z" fill="#C6D5DE"/>
<path opacity="0.3" fill-rule="evenodd" clip-rule="evenodd" d="M195.105 130.149C195.511 129.744 196.167 129.744 196.572 130.149C196.978 130.553 196.978 131.21 196.572 131.613C196.167 132.019 195.511 132.019 195.105 131.613C194.699 131.21 194.699 130.553 195.105 130.149Z" fill="#C6D5DE"/>
<path opacity="0.5" fill-rule="evenodd" clip-rule="evenodd" d="M234.039 141.077C234.445 140.671 235.1 140.671 235.506 141.077C235.912 141.48 235.912 142.137 235.506 142.541C235.1 142.946 234.445 142.946 234.039 142.541C233.633 142.137 233.633 141.48 234.039 141.077Z" fill="#5BC75B"/>
<path opacity="0.3" fill-rule="evenodd" clip-rule="evenodd" d="M251.304 185.304C251.71 184.899 252.366 184.899 252.769 185.304C253.175 185.71 253.175 186.365 252.769 186.768C252.366 187.174 251.71 187.174 251.304 186.768C250.899 186.365 250.899 185.71 251.304 185.304Z" fill="#C6D5DE"/>
<path opacity="0.3" fill-rule="evenodd" clip-rule="evenodd" d="M250.159 204.409C250.564 204.003 251.22 204.003 251.626 204.409C252.032 204.814 252.032 205.469 251.626 205.873C251.22 206.278 250.564 206.278 250.159 205.873C249.753 205.469 249.753 204.814 250.159 204.409Z" fill="#C6D5DE"/>
<path opacity="0.3" fill-rule="evenodd" clip-rule="evenodd" d="M168.433 218.231C168.839 217.825 169.494 217.825 169.9 218.231C170.306 218.634 170.306 219.291 169.9 219.695C169.494 220.1 168.839 220.1 168.433 219.695C168.027 219.291 168.027 218.634 168.433 218.231Z" fill="#C6D5DE"/>
<path opacity="0.3" fill-rule="evenodd" clip-rule="evenodd" d="M160.021 201.901C160.427 201.496 161.082 201.496 161.486 201.901C161.892 202.305 161.892 202.962 161.486 203.365C161.082 203.771 160.427 203.771 160.021 203.365C159.615 202.962 159.615 202.305 160.021 201.901Z" fill="#C6D5DE"/>
<path opacity="0.3" fill-rule="evenodd" clip-rule="evenodd" d="M148.991 219.151C149.397 218.746 150.052 218.746 150.458 219.151C150.864 219.557 150.864 220.212 150.458 220.615C150.052 221.021 149.397 221.021 148.991 220.615C148.585 220.212 148.585 219.557 148.991 219.151Z" fill="#C6D5DE"/>
<path fill-rule="evenodd" clip-rule="evenodd" d="M169.471 249.488C169.874 249.082 170.532 249.082 170.936 249.488C171.342 249.893 171.342 250.548 170.936 250.954C170.532 251.359 169.874 251.359 169.471 250.954C169.065 250.548 169.065 249.893 169.471 249.488Z" fill="#5BC75B"/>
<path opacity="0.3" fill-rule="evenodd" clip-rule="evenodd" d="M208.654 253.87C209.058 253.464 209.715 253.464 210.119 253.87C210.525 254.275 210.525 254.93 210.119 255.334C209.715 255.739 209.058 255.739 208.654 255.334C208.248 254.93 208.248 254.275 208.654 253.87Z" fill="#C6D5DE"/>
<path opacity="0.3" fill-rule="evenodd" clip-rule="evenodd" d="M190.848 250.697C191.481 250.064 192.511 250.064 193.144 250.697C193.778 251.33 193.778 252.359 193.144 252.992C192.511 253.625 191.481 253.625 190.848 252.992C190.214 252.359 190.214 251.33 190.848 250.697Z" fill="#C6D5DE"/>
<path opacity="0.3" fill-rule="evenodd" clip-rule="evenodd" d="M162.792 184.51C163.425 183.877 164.455 183.877 165.088 184.51C165.722 185.143 165.722 186.172 165.088 186.805C164.455 187.438 163.425 187.438 162.792 186.805C162.158 186.172 162.158 185.143 162.792 184.51Z" fill="#C6D5DE"/>
<path opacity="0.3" fill-rule="evenodd" clip-rule="evenodd" d="M183.395 148.723C184.029 148.09 185.058 148.09 185.692 148.723C186.325 149.357 186.325 150.385 185.692 151.018C185.058 151.651 184.029 151.651 183.395 151.018C182.762 150.385 182.762 149.357 183.395 148.723Z" fill="#C6D5DE"/>
<path opacity="0.3" fill-rule="evenodd" clip-rule="evenodd" d="M239.361 164.065C239.995 163.432 241.024 163.432 241.658 164.065C242.291 164.698 242.291 165.727 241.658 166.36C241.024 166.995 239.995 166.995 239.361 166.36C238.727 165.727 238.727 164.698 239.361 164.065Z" fill="#C6D5DE"/>
<path opacity="0.3" fill-rule="evenodd" clip-rule="evenodd" d="M196.447 41.5371C197.081 40.904 198.11 40.904 198.744 41.5371C199.377 42.1703 199.377 43.1989 198.744 43.832C198.11 44.4651 197.081 44.4651 196.447 43.832C195.814 43.1989 195.814 42.1703 196.447 41.5371Z" fill="#C6D5DE"/>
<path opacity="0.3" fill-rule="evenodd" clip-rule="evenodd" d="M181.771 0.75464C182.405 0.1215 183.434 0.1215 184.068 0.75464C184.701 1.38778 184.701 2.41638 184.068 3.04952C183.434 3.68266 182.405 3.68266 181.771 3.04952C181.137 2.41638 181.137 1.38778 181.771 0.75464Z" fill="#C6D5DE"/>
</svg>
