<svg width="702" height="68" viewBox="0 0 702 68" fill="none" xmlns="http://www.w3.org/2000/svg">
<path fill-rule="evenodd" clip-rule="evenodd" d="M59 3.00101L59 66.001H68V39.001H94V66.001H103V3.00101L59 3.00101ZM68 12.001V30.001H94V12.001H68Z" fill="white"/>
<path d="M12 12.001L12 57.001H39V39.001H30V30.001H48V66.001H3L3 3.00101L48 3.00101V12.001H12Z" fill="white"/>
<path d="M171 3.00101V66.001H215V57.001H180V39.001H206V30.001H180V12.001H215V3.00101L171 3.00101Z" fill="white"/>
<path d="M699 3.00101V12.001H664V30.001H699V66.001H655V57.001H690V39.001H655V3.00101H699Z" fill="white"/>
<path d="M643 3.00101H599V66.001H643V57.001H608V39.001H634V30.001H608V12.001H643V3.00101Z" fill="white"/>
<path d="M373 3.00101V12.001H338V30.001H364V39.001H338V66.001H329V3.00101L373 3.00101Z" fill="white"/>
<path fill-rule="evenodd" clip-rule="evenodd" d="M273 3.00101V66.001H318V3.00101L273 3.00101ZM309 12.001H282V57.001H309V12.001Z" fill="white"/>
<path fill-rule="evenodd" clip-rule="evenodd" d="M487 3.00101V66.001H532V3.00101H487ZM523 12.001H496V57.001H523V12.001Z" fill="white"/>
<path d="M441 53.4638V57.001H476V66.001H432V49.7359L467 14.7359V12.001H432V3.00101L476 3.00101V18.4638L441 53.4638Z" fill="white"/>
<path d="M160 66.001H151V18.366L144.635 12.001H142V66.001H133V12.001H124V66.001H115V3.00097L148.363 3.00097L160 14.6381V66.001Z" fill="white"/>
<path d="M579 18.366L572.635 12.001H552V66.001H543V3.00099L576.363 3.00099L588 14.6381V66.001H579V18.366Z" fill="white"/>
</svg>
