<?xml version="1.0" encoding="UTF-8"?>
<svg width="92px" height="104px" viewBox="0 0 92 104" version="1.1" xmlns="http://www.w3.org/2000/svg" xmlns:xlink="http://www.w3.org/1999/xlink">
    <!-- Generator: Sketch 53.2 (72643) - https://sketchapp.com -->
    <title>ecosystem icon</title>
    <desc>Created with Sketch.</desc>
    <g id="/Ecosystem" stroke="none" stroke-width="1" fill="none" fill-rule="evenodd">
        <g id="Cosmos_website_ecosystem_1366px" transform="translate(-204.000000, -2740.000000)">
            <g id="Join-the-ecosystem" transform="translate(151.000000, 2687.000000)">
                <g id="ecosystem-icon" transform="translate(52.000000, 53.000000)">
                    <polygon id="Polygon-Copy-6" stroke="#FFFFFF" stroke-width="2" points="47 6 87.703194 29.5 87.703194 76.5 47 100 6.29680602 76.5 6.29680602 29.5"></polygon>
                    <ellipse id="Oval-Copy-7" fill="#FFFFFF" cx="5.88230294" cy="27.8746978" rx="4.88230294" ry="4.87469784"></ellipse>
                    <ellipse id="Oval-Copy-9" fill="#FFFFFF" cx="87.8823029" cy="27.8746978" rx="4.88230294" ry="4.87469784"></ellipse>
                    <ellipse id="Oval-Copy-11" fill="#FFFFFF" cx="46.8823029" cy="4.87469784" rx="4.88230294" ry="4.87469784"></ellipse>
                    <ellipse id="Oval-Copy-13" fill="#FFFFFF" cx="46.8823029" cy="52.8746978" rx="4.88230294" ry="4.87469784"></ellipse>
                    <path d="M5.88230294,27.8746978 L87.8823029,77.8746978" id="Line" stroke="#FFFFFF" stroke-width="2" stroke-linecap="square"></path>
                    <path d="M88,27.6672213 L5.88230294,78" id="Line-3" stroke="#FFFFFF" stroke-width="2" stroke-linecap="square"></path>
                    <path d="M47,4.87469784 L47,97" id="Line-2" stroke="#FFFFFF" stroke-width="2" stroke-linecap="square"></path>
                    <ellipse id="Oval-Copy-12" fill="#FFFFFF" cx="46.8823029" cy="98.8746978" rx="4.88230294" ry="4.87469784"></ellipse>
                    <ellipse id="Oval-Copy-8" fill="#FFFFFF" cx="5.88230294" cy="77.8746978" rx="4.88230294" ry="4.87469784"></ellipse>
                    <ellipse id="Oval-Copy-10" fill="#FFFFFF" cx="87.8823029" cy="77.8746978" rx="4.88230294" ry="4.87469784"></ellipse>
                </g>
            </g>
        </g>
    </g>
</svg>