<svg width="120" height="120" viewBox="0 0 120 120" fill="none" xmlns="http://www.w3.org/2000/svg">
<g clip-path="url(#clip0)">
<path d="M84.3744 48.0438C78.7224 46.8684 73.9015 46.2806 69.9118 46.2806C65.9222 46.2806 62.9715 46.3908 61.0598 46.6112L60.4364 49.8069L66.6702 50.4681C80.0523 52.0108 86.7433 56.8962 86.7433 65.1241C86.7433 66.0791 86.4939 67.879 85.9952 70.5237C85.4965 73.0949 84.6653 75.5927 83.5016 78.017C82.338 80.4413 80.8419 82.4248 79.0133 83.9675C77.2678 85.4368 75.5223 86.649 73.7768 87.604C72.1145 88.4855 69.9534 89.11 67.2936 89.4773C63.1377 90.065 57.5688 90.3589 50.5869 90.3589C43.6881 90.3589 36.7062 89.514 29.6411 87.8244L35.7503 71.5154C42.2335 73.1316 47.8855 73.9397 52.7064 73.9397C57.6104 73.9397 61.0598 73.8295 63.0546 73.6091L63.678 70.0829L55.8233 69.3115C49.0908 68.6503 44.3115 67.2545 41.4854 65.1241C38.6594 62.9936 37.2464 59.9449 37.2464 55.9779C37.2464 54.5086 37.4542 52.672 37.8698 50.4681C39.5322 42.6075 42.5244 37.1711 46.8466 34.1591C51.1687 31.1471 57.735 29.6411 66.5456 29.6411C75.4392 29.6411 83.377 30.4125 90.3589 31.9552L84.3744 48.0438Z" fill="white"/>
<mask id="mask0" mask-type="alpha" maskUnits="userSpaceOnUse" x="0" y="0" width="120" height="120">
<path fill-rule="evenodd" clip-rule="evenodd" d="M120 59.9999C120 93.137 93.1371 120 60 120C26.8629 120 0 93.137 0 59.9999C0 26.8629 26.8629 -6.10352e-05 60 -6.10352e-05C93.1371 -6.10352e-05 120 26.8629 120 59.9999ZM84.3744 48.0437C78.7224 46.8683 73.9015 46.2806 69.9118 46.2806C65.9222 46.2806 62.9715 46.3908 61.0598 46.6112L60.4364 49.8069L66.6702 50.468C80.0523 52.0108 86.7433 56.8961 86.7433 65.124C86.7433 66.0791 86.4939 67.8789 85.9952 70.5236C85.5295 72.9244 84.774 75.2612 83.7287 77.5339L80.5729 73.2584L76.2376 79.3999L52.0316 65.8519L37.576 52.1905C37.6584 51.6437 37.7564 51.0696 37.8698 50.468C39.5322 42.6074 42.5244 37.1711 46.8466 34.1591C51.1687 31.1471 57.735 29.6411 66.5456 29.6411C75.4392 29.6411 83.377 30.4124 90.3589 31.9552L84.3744 48.0437ZM53.0186 73.993C53.8606 74.756 54.2271 75.243 54.1057 75.4941C53.7952 76.1361 50.2944 75.2351 43.394 73.4592C41.1939 72.893 38.6483 72.2378 35.7503 71.5154L29.6411 87.8243C36.7062 89.514 43.6881 90.3588 50.5869 90.3588C57.5688 90.3588 63.1377 90.065 67.2936 89.4773C69.9534 89.1099 72.1145 88.4855 73.7768 87.6039C73.7988 87.5919 73.8207 87.5799 73.8427 87.5678L53.0186 73.993Z" fill="black"/>
</mask>
<g mask="url(#mask0)">
<path fill-rule="evenodd" clip-rule="evenodd" d="M23.7622 46.9315C12.0088 32.8277 16.989 25.667 34.9383 30.9719C52.8875 36.2769 76.9577 52.0236 88.7112 66.1274C100.465 80.2312 95.4844 87.3919 77.5352 82.087C64.217 78.1507 46.3644 66.4696 37.6497 56.0122C30.2358 47.1158 33.3725 42.5919 44.7082 45.9422C46.9401 46.6018 49.354 47.5728 51.8179 48.7684C52.1618 48.6354 52.5129 48.5167 52.87 48.4122C49.6406 46.7511 46.4545 45.4132 43.5526 44.5555C31.2893 40.9311 27.848 45.816 35.9187 55.5006C45.2904 66.7463 64.4448 79.2632 78.6907 83.4736C97.5677 89.0527 102.852 81.531 90.4421 66.6389C78.0318 51.7469 52.6597 35.1645 33.7827 29.5853C14.9057 24.0062 9.62092 31.5279 22.0313 46.4199C22.3504 46.8028 22.9965 47.2278 23.4745 47.369C23.9525 47.5103 24.0813 47.3144 23.7622 46.9315ZM73.6276 63.8917C73.6165 64.3887 73.576 64.8829 73.5054 65.372C77.1958 70.5165 74.8801 72.9908 67.8059 70.9C63.8681 69.7362 59.016 67.0006 55.1549 63.9485C50.8062 60.8585 48.3342 58.2981 47.3099 56.1708C47.3914 56.9388 47.926 57.9654 48.9537 59.1986C53.3442 64.4672 62.3068 70.3198 68.9615 72.2866C77.5062 74.812 79.911 71.4097 74.2802 64.653C74.0694 64.4 73.8518 64.1462 73.6276 63.8917Z" fill="url(#paint0_radial)"/>
<ellipse rx="0.911059" ry="0.910129" transform="matrix(1.00009 1.69821e-08 0.000308847 -0.999906 81.6435 22.1564)" fill="white"/>
<ellipse rx="0.911062" ry="0.910134" transform="matrix(1.00009 1.69821e-08 0.000308847 -0.999906 76.6199 76.8403)" fill="black"/>
<ellipse rx="0.911059" ry="0.910129" transform="matrix(1.00009 1.69821e-08 0.000308847 -0.999906 67.4297 16.2292)" fill="#FFA78B"/>
<ellipse rx="0.911056" ry="0.910129" transform="matrix(1.00009 1.69821e-08 0.000308847 -0.999906 54.0213 17.1631)" fill="#B6AAFF"/>
<ellipse rx="0.911065" ry="0.910128" transform="matrix(1.00009 1.69821e-08 0.000308847 -0.999906 48.3469 18.8238)" fill="white"/>
<ellipse rx="0.911059" ry="0.910128" transform="matrix(1.00009 1.69821e-08 0.000308847 -0.999906 45.352 48.4308)" fill="black"/>
<ellipse rx="0.91106" ry="0.910127" transform="matrix(1.00009 1.69821e-08 0.000308847 -0.999906 36.3277 37.7173)" fill="#96FCBF"/>
<ellipse rx="0.911059" ry="0.910128" transform="matrix(1.00009 1.69821e-08 0.000308847 -0.999906 76.2939 103.833)" fill="#96FCBF"/>
<ellipse rx="0.911062" ry="0.910128" transform="matrix(1.00009 1.69821e-08 0.000308847 -0.999906 42.0156 102.851)" fill="#FFA78B"/>
<ellipse rx="0.91106" ry="0.910134" transform="matrix(1.00009 1.69821e-08 0.000308847 -0.999906 29.7034 96.1225)" fill="#96FCBF"/>
<ellipse rx="0.911061" ry="0.910131" transform="matrix(1.00009 1.69821e-08 0.000308847 -0.999906 7.80791 79.6694)" fill="#B6AAFF"/>
<ellipse rx="0.911059" ry="0.910128" transform="matrix(1.00009 1.69821e-08 0.000308847 -0.999906 108.681 34.5385)" fill="#FFA78B"/>
<ellipse rx="1.59436" ry="1.59272" transform="matrix(1.00009 1.69821e-08 0.000308847 -0.999906 90.1255 28.9927)" fill="#B6AAFF"/>
<ellipse rx="1.59436" ry="1.59273" transform="matrix(1.00009 1.69821e-08 0.000308847 -0.999906 72.1399 16.6924)" fill="#96FCBF"/>
<ellipse rx="1.59436" ry="1.59273" transform="matrix(1.00009 1.69821e-08 0.000308847 -0.999906 85.5384 97.4266)" fill="#B6AAFF"/>
<ellipse rx="1.59436" ry="1.59272" transform="matrix(1.00009 1.69821e-08 0.000308847 -0.999906 20.5907 76.988)" fill="#FFA78B"/>
<ellipse rx="1.59436" ry="1.59272" transform="matrix(1.00009 1.69821e-08 0.000308847 -0.999906 23.6643 88.6678)" fill="white"/>
<path fill-rule="evenodd" clip-rule="evenodd" d="M97.663 43.1918L97.0177 48.8199L96.3759 43.1919C95.3569 42.9508 94.555 42.1495 94.3141 41.1317L88.6791 40.4888L94.3149 39.8459C94.5569 38.8289 95.3589 38.0284 96.3773 37.7873L97.0228 32.1577L97.6649 37.7874C98.683 38.0286 99.4842 38.829 99.7256 39.8459L105.361 40.4888L99.7256 41.1317C99.4841 42.1494 98.6819 42.9506 97.663 43.1918Z" fill="white"/>
<path fill-rule="evenodd" clip-rule="evenodd" d="M38.1273 27.8938L37.5444 32.9769L36.9648 27.8938C36.045 27.6761 35.3212 26.953 35.1035 26.0343L30.0145 25.4538L35.1038 24.8732C35.322 23.9544 36.0463 23.2312 36.9663 23.0135L37.5491 17.9306L38.1288 23.0135C39.0485 23.2313 39.7724 23.9545 39.9901 24.8732L45.079 25.4538L39.9897 26.0343C39.7713 26.9529 39.0471 27.676 38.1273 27.8938Z" fill="#96FCBF"/>
<path fill-rule="evenodd" clip-rule="evenodd" d="M88.0206 86.3864L87.5007 90.921L86.9835 86.3864C86.1629 86.1922 85.5171 85.547 85.3229 84.7273L80.783 84.2094L85.3232 83.6914C85.518 82.8718 86.1642 82.2267 86.9849 82.0324L87.5048 77.4977L88.022 82.0325C88.8425 82.2268 89.4882 82.8719 89.6824 83.6914L94.2226 84.2094L89.6821 84.7273C89.4874 85.5469 88.8413 86.1921 88.0206 86.3864Z" fill="#FFA78B"/>
<path fill-rule="evenodd" clip-rule="evenodd" d="M59.8371 107.47L59.152 113.445L58.4706 107.47C57.39 107.214 56.5396 106.365 56.2835 105.285L50.302 104.603L56.2835 103.921C56.5399 102.841 57.3912 101.99 58.4725 101.734L59.1574 95.7611L59.8386 101.734C60.9201 101.99 61.771 102.84 62.0267 103.921L68.0074 104.603L62.026 105.285C61.7692 106.365 60.918 107.214 59.8371 107.47Z" fill="#B6AAFF"/>
</g>
</g>
<defs>
<radialGradient id="paint0_radial" cx="0" cy="0" r="1" gradientUnits="userSpaceOnUse" gradientTransform="translate(59.6345 59.2434) rotate(123.67) scale(15.8019 49.434)">
<stop offset="0.359375" stop-color="white"/>
<stop offset="0.75" stop-color="#B6AAFF"/>
<stop offset="0.875" stop-color="#FFA78B"/>
<stop offset="1" stop-color="#96FCBF"/>
</radialGradient>
<clipPath id="clip0">
<rect width="120" height="120" fill="white"/>
</clipPath>
</defs>
</svg>
