<svg width="304" height="120" fill="none" xmlns="http://www.w3.org/2000/svg"><g clip-path="url(#clip0)"><path d="M21.043 54.788c-2.174-.512-4.027-.769-5.56-.769-1.535 0-2.669.048-3.404.145l-.24 1.392 2.397.288c5.145.672 7.717 2.8 7.717 6.386 0 .416-.096 1.2-.287 2.353a14.708 14.708 0 0 1-.959 3.265c-.447 1.056-1.023 1.92-1.726 2.592a12.442 12.442 0 0 1-2.013 1.585c-.639.384-1.47.656-2.492.816-1.598.256-3.74.384-6.423.384-2.653 0-5.337-.368-8.053-1.104l2.349-7.106c2.492.704 4.665 1.056 6.519 1.056 1.885 0 3.211-.048 3.978-.144l.24-1.536-3.02-.337c-2.588-.288-4.426-.896-5.512-1.824-1.087-.928-1.63-2.257-1.63-3.985 0-.64.08-1.44.24-2.401.639-3.425 1.79-5.794 3.45-7.106 1.662-1.313 4.187-1.969 7.574-1.969 3.42 0 6.471.336 9.155 1.009l-2.3 7.01zm25.153 11.139c.863 0 1.454-.096 1.774-.288.351-.224.591-.736.719-1.536l3.02-16.854h8.052L57.27 61.558c-.767 4.481-2.013 7.554-3.739 9.218-1.694 1.633-4.602 2.45-8.724 2.45-3.291 0-5.592-.48-6.902-1.441-1.31-.992-1.965-2.705-1.965-5.138 0-1.344.175-3.04.527-5.09l2.54-14.308h8.053L43.8 65.927h2.397zm37.75.768h-4.649l-1.055 5.954H70.19l4.41-25.4h12.175c4.633 0 6.95 2.193 6.95 6.578 0 1.985-.288 3.81-.863 5.474-.575 1.664-1.198 2.977-1.87 3.937-.67.96-1.63 1.777-2.875 2.449-1.215.672-2.605 1.008-4.17 1.008zm1.055-11.14c0-.031.016-.127.048-.287 0-.672-.687-1.008-2.061-1.008h-1.534l-1.007 5.953h1.486c.735 0 1.31-.08 1.726-.24.415-.192.67-.576.767-1.152L85 55.556zm36.252 6.77h-7.142l-.575 3.266h8.868l-1.247 7.058h-16.92l4.41-25.4h16.872l-2.253 7.203h-7.813l-.575 3.265h7.19l-.815 4.609zm31.744-15.076c4.665 0 6.998 2.113 6.998 6.338 0 1.92-.384 3.921-1.151 6.002-.767 2.049-2.061 3.585-3.882 4.61l2.732 8.45h-8.963l-1.822-7.394h-1.15l-1.294 7.394h-8.053l4.41-25.4h12.175zm-1.774 8.307c0-.032.016-.192.048-.48 0-.544-.847-.816-2.54-.816h-1.055l-.767 4.417h1.534c1.47 0 2.301-.48 2.493-1.44l.287-1.681zm35.312 17.093l-4.937-9.507h-.191l-1.678 9.507h-8.053l4.41-25.4h6.519l4.985 9.46h.287l1.63-9.46h8.005l-4.458 25.4h-6.519z" fill="#fff"/><g clip-path="url(#clip1)"><path fill-rule="evenodd" clip-rule="evenodd" d="M228.994 50.445c-6.013-3.91-13.325-3.721-17.918.027-.639.522-1.124 1.095-1.428 1.726.122-.147.264-.287.427-.42 4.628-3.76 11.999-3.947 18.062-.02 6.11 3.958 8.952 10.836 7.333 16.627a3.119 3.119 0 0 1-.249.632c.473-.533.817-1.21 1.041-2.011 1.607-5.77-1.209-12.62-7.268-16.56z" fill="#fff"/><path fill-rule="evenodd" clip-rule="evenodd" d="M185.963 46.68c-11.944-14.355-6.886-21.643 11.355-16.24 18.241 5.4 42.701 21.43 54.644 35.785 11.944 14.354 6.886 21.642-11.355 16.24-13.518-4.003-31.638-15.88-40.483-26.51-7.518-9.035-4.339-13.63 7.158-10.226 2.232.66 4.644 1.63 7.106 2.822.395-.155.799-.292 1.211-.41-3.343-1.728-6.643-3.12-9.646-4.01-12.567-3.72-16.094 1.292-7.821 11.234 9.599 11.537 29.216 24.378 43.804 28.698 19.31 5.718 24.717-1.987 12.018-17.248-12.698-15.261-38.655-32.255-57.965-37.973-19.31-5.718-24.717 1.987-12.018 17.248.367.44 1.11.93 1.66 1.093.55.163.699-.062.332-.503zM236.7 63.883a12.67 12.67 0 0 1-.142 1.71c3.578 5.107 1.213 7.545-5.873 5.446-3.701-1.096-8.202-3.57-11.949-6.397-5.216-3.593-8.022-6.508-9.023-8.879-.017.816.534 1.967 1.71 3.38 4.52 5.433 13.744 11.466 20.591 13.494 8.775 2.598 11.245-.9 5.461-7.853-.249-.3-.508-.6-.775-.901z" fill="url(#paint0_radial)"/><path d="M210.08 51.78c4.629-3.764 11.998-3.953 18.058-.027 6.107 3.957 8.946 10.838 7.326 16.631-1.288 4.603-10.001.911-16.271-3.152-6.152-3.986-12.693-10.54-9.113-13.452z" fill="#fff" filter="url(#filter0_d)"/><ellipse rx=".929" ry=".929" transform="matrix(.9998 .0004 -.0001 -1.0002 244.87 21.342)" fill="#fff"/><ellipse rx=".93" ry=".929" transform="matrix(.9998 .0004 -.0001 -1.0002 239.748 77.2)" fill="#fff"/><ellipse rx=".929" ry=".929" transform="matrix(.9998 .0004 -.0001 -1.0002 230.376 15.288)" fill="#FFA78B"/><ellipse rx=".929" ry=".929" transform="matrix(.9998 .0004 -.0001 -1.0002 216.704 16.241)" fill="#B6AAFF"/><ellipse rx=".929" ry=".929" transform="matrix(.9998 .0004 -.0001 -1.0002 210.917 17.938)" fill="#fff"/><ellipse rx=".929" ry=".929" transform="matrix(.9998 .0004 -.0001 -1.0002 207.863 48.18)" fill="#B6AAFF"/><ellipse rx=".929" ry=".929" transform="matrix(.9998 .0004 -.0001 -1.0002 198.661 37.237)" fill="#96FCBF"/><ellipse rx=".929" ry=".929" transform="matrix(.9998 .0004 -.0001 -1.0002 239.415 104.771)" fill="#96FCBF"/><ellipse rx=".929" ry=".929" transform="matrix(.9998 .0004 -.0001 -1.0002 204.461 103.768)" fill="#FFA78B"/><ellipse rx=".929" ry=".929" transform="matrix(.9998 .0004 -.0001 -1.0002 191.906 96.895)" fill="#96FCBF"/><ellipse rx=".929" ry=".929" transform="matrix(.9998 .0004 -.0001 -1.0002 169.579 80.09)" fill="#B6AAFF"/><ellipse rx=".929" ry=".929" transform="matrix(.9998 .0004 -.0001 -1.0002 272.441 33.99)" fill="#FFA78B"/><ellipse rx="1.627" ry="1.626" transform="matrix(.9998 .0004 -.0001 -1.0002 253.52 28.325)" fill="#B6AAFF"/><ellipse rx="1.627" ry="1.626" transform="matrix(.9998 .0004 -.0001 -1.0002 235.179 15.76)" fill="#96FCBF"/><ellipse rx="1.627" ry="1.626" transform="matrix(.9998 .0004 -.0001 -1.0002 248.842 98.227)" fill="#B6AAFF"/><ellipse rx="1.627" ry="1.626" transform="matrix(.9998 .0004 -.0001 -1.0002 182.614 77.35)" fill="#FFA78B"/><ellipse rx="1.627" ry="1.626" transform="matrix(.9998 .0004 -.0001 -1.0002 185.748 89.28)" fill="#fff"/><path fill-rule="evenodd" clip-rule="evenodd" d="M261.207 42.828l-.656 5.746-.657-5.746a2.842 2.842 0 0 1-2.103-2.105l-5.748-.659 5.748-.654a2.837 2.837 0 0 1 2.102-2.1l.656-5.749.658 5.749a2.84 2.84 0 0 1 2.102 2.102l5.749.66-5.748.653a2.839 2.839 0 0 1-2.103 2.103z" fill="#fff"/><path fill-rule="evenodd" clip-rule="evenodd" d="M200.497 27.202l-.592 5.19-.593-5.19a2.567 2.567 0 0 1-1.9-1.9l-5.19-.595 5.19-.59a2.564 2.564 0 0 1 1.899-1.898l.592-5.19.594 5.19a2.567 2.567 0 0 1 1.899 1.9l5.191.594-5.191.59a2.563 2.563 0 0 1-1.899 1.9z" fill="#96FCBF"/><path fill-rule="evenodd" clip-rule="evenodd" d="M251.374 86.95l-.528 4.63-.529-4.63a2.288 2.288 0 0 1-1.695-1.696l-4.631-.53 4.631-.527a2.286 2.286 0 0 1 1.694-1.693l.529-4.63.529 4.63a2.288 2.288 0 0 1 1.694 1.695l4.631.53-4.631.527a2.286 2.286 0 0 1-1.694 1.694z" fill="#FFA78B"/><path fill-rule="evenodd" clip-rule="evenodd" d="M222.635 108.486l-.696 6.1-.697-6.101a3.017 3.017 0 0 1-2.232-2.232l-6.101-.699 6.101-.694a3.013 3.013 0 0 1 2.231-2.232l.696-6.098.698 6.099a3.015 3.015 0 0 1 2.232 2.233l6.1.699-6.1.694a3.011 3.011 0 0 1-2.232 2.231z" fill="#B6AAFF"/></g><path d="M258.297 47.297v14.5h.192l5.56-14.5h8.676l-10.257 25.4H250.82l-1.39-25.4h8.867zm37.212 25.4l-.191-3.89h-6.04l-1.486 3.89H279.5l10.641-25.4h11.887l1.87 25.4h-8.389zm-.191-10.755v-7.298h-.671l-2.828 7.298h3.499z" fill="#fff"/></g><defs><filter id="filter0_d" x="190.062" y="17.882" width="74.85" height="69.634" filterUnits="userSpaceOnUse" color-interpolation-filters="sRGB"><feFlood flood-opacity="0" result="BackgroundImageFix"/><feColorMatrix in="SourceAlpha" values="0 0 0 0 0 0 0 0 0 0 0 0 0 0 0 0 0 0 127 0"/><feOffset dx="5" dy="-7"/><feGaussianBlur stdDeviation="12"/><feColorMatrix values="0 0 0 0 1 0 0 0 0 1 0 0 0 0 1 0 0 0 1 0"/><feBlend in2="BackgroundImageFix" result="effect1_dropShadow"/><feBlend in="SourceGraphic" in2="effect1_dropShadow" result="shape"/></filter><radialGradient id="paint0_radial" cx="0" cy="0" r="1" gradientUnits="userSpaceOnUse" gradientTransform="rotate(123.626 95.348 89.22) scale(16.1856 50.5988)"><stop offset=".359" stop-color="#fff"/><stop offset=".75" stop-color="#B6AAFF"/><stop offset=".875" stop-color="#FFA78B"/><stop offset="1" stop-color="#96FCBF"/></radialGradient><clipPath id="clip0"><path fill="#fff" d="M0 0H303.75V120H0z"/></clipPath><clipPath id="clip1"><path fill="#fff" transform="translate(160.145 -2.764)" d="M0 0H125.309V125.523H0z"/></clipPath></defs></svg>