<svg width="1024" height="192" viewBox="0 0 1024 192" fill="none" xmlns="http://www.w3.org/2000/svg">
<g id="wordmark/light">
<g id="text">
<path id="Fill 3" fill-rule="evenodd" clip-rule="evenodd" d="M113.778 138.81L99.7342 124.588C94.3999 129.565 89.0079 133.507 83.5536 136.412C78.1041 139.314 71.5848 140.765 64.0006 140.765C58.0738 140.765 52.5931 139.611 47.5561 137.299C42.5192 134.987 38.1634 131.819 34.4888 127.787C30.8142 123.758 27.9719 119.048 25.9547 113.656C23.94 108.264 22.935 102.484 22.935 96.325C22.935 90.1611 23.94 84.4121 25.9547 79.0781C27.9719 73.7464 30.8142 69.0959 34.4888 65.1241C38.1634 61.1548 42.5192 58.0153 47.5561 55.7032C52.5931 53.3935 58.0738 52.2375 64.0006 52.2375C71.1099 52.2375 77.4517 53.6597 83.0211 56.5043C88.593 59.3464 93.8674 63.0807 98.842 67.7024L112.888 51.5276C109.926 48.6831 106.786 46.076 103.466 43.704C100.149 41.3343 96.5346 39.2885 92.6225 37.5712C88.7105 35.8516 84.4147 34.5205 79.7327 33.5731C75.0507 32.6233 69.8651 32.1484 64.1781 32.1484C54.6966 32.1484 46.045 33.8393 38.2233 37.2163C30.3993 40.5932 23.6449 45.215 17.9556 51.0815C12.2662 56.948 7.85286 63.7906 4.71076 71.6142C1.56865 79.4354 0 87.7915 0 96.68C0 105.686 1.59983 114.1 4.79951 121.923C7.99918 129.742 12.4149 136.527 18.0443 142.276C23.6737 148.023 30.3393 152.556 38.0435 155.875C45.7476 159.194 54.1641 160.852 63.2882 160.852C69.0975 160.852 74.4007 160.348 79.2002 159.341C83.9997 158.333 88.4155 156.854 92.445 154.899C96.4746 152.942 100.238 150.63 103.735 147.965C107.23 145.298 110.578 142.245 113.778 138.81Z" fill="black"/>
<path id="Fill 4" fill-rule="evenodd" clip-rule="evenodd" d="M395.869 67.3844C395.869 63.2447 397.637 59.7271 401.175 56.8317C404.71 53.9315 409.662 52.4838 416.027 52.4838C421.685 52.4838 427.284 53.5797 432.823 55.7668C438.365 57.954 443.963 61.1174 449.619 65.2547L461.289 48.7604C454.927 43.6754 448.119 39.8037 440.869 37.1452C433.617 34.4843 425.457 33.1538 416.38 33.1538C410.251 33.1538 404.593 34.0105 399.436 35.7262C394.249 37.4395 389.832 39.8923 386.146 43.0844C382.463 46.2789 379.574 50.0908 377.453 54.5249C375.361 58.959 374.3 63.8956 374.3 69.3347C374.3 75.1279 375.213 80.0358 377.04 84.0559C378.868 88.0759 381.549 91.505 385.027 94.343C388.503 97.181 392.835 99.5452 397.961 101.438C403.119 103.331 408.985 105.042 415.614 106.58C421.392 107.999 426.074 109.359 429.7 110.658C433.295 111.96 436.125 113.35 438.217 114.826C440.278 116.305 441.695 117.93 442.46 119.703C443.226 121.479 443.608 123.486 443.608 125.733C443.608 130.584 441.635 134.427 437.687 137.262C433.737 140.103 428.403 141.519 421.685 141.519C413.906 141.519 406.95 140.129 400.822 137.351C394.691 134.573 388.622 130.584 382.608 125.379L369.526 140.988C376.952 147.726 385.027 152.723 393.749 155.975C402.472 159.227 411.606 160.852 421.153 160.852C427.637 160.852 433.591 160.024 439.013 158.37C444.405 156.712 449.061 154.288 452.892 151.096C456.752 147.904 459.758 144.003 461.938 139.392C464.09 134.781 465.18 129.519 465.18 123.606C465.18 118.404 464.326 113.881 462.616 110.038C460.905 106.195 458.372 102.828 455.073 99.928C451.771 97.0326 447.587 94.5775 442.577 92.5674C437.57 90.5598 431.792 88.7268 425.309 87.0709C419.386 85.6519 414.524 84.2904 410.664 82.991C406.833 81.6917 403.827 80.2727 401.616 78.734C399.436 77.1978 397.935 75.5419 397.107 73.7687C396.284 71.9932 395.869 69.8659 395.869 67.3844Z" fill="black"/>
<path id="Fill 5" fill-rule="evenodd" clip-rule="evenodd" d="M637.905 69.1414V157.835H659.509V34.1593H636.309L598.591 92.6408L560.873 34.1593H537.676V157.835H559.279V69.4942L598.058 127.447H598.768L637.905 69.1414Z" fill="black"/>
<path id="Fill 6" fill-rule="evenodd" clip-rule="evenodd" d="M841.016 96.68C841.016 102.724 839.981 108.442 837.911 113.836C835.842 119.227 832.974 123.907 829.304 127.876C825.639 131.845 821.231 134.987 816.086 137.299C810.939 139.612 805.291 140.765 799.141 140.765C792.988 140.765 787.31 139.58 782.105 137.211C776.9 134.839 772.433 131.639 768.708 127.612C764.982 123.581 762.083 118.87 760.012 113.478C757.944 108.087 756.907 102.367 756.907 96.3251C756.907 90.2787 757.944 84.5609 760.012 79.1693C762.083 73.7752 764.951 69.096 768.619 65.1242C772.287 61.1548 776.694 58.0153 781.839 55.7032C786.984 53.3936 792.634 52.2375 798.784 52.2375C804.937 52.2375 810.616 53.4224 815.82 55.7944C821.023 58.164 825.49 61.3635 829.215 65.3928C832.943 69.4197 835.842 74.1326 837.911 79.5242C839.981 84.9158 841.016 90.636 841.016 96.68ZM863.906 96.325C863.906 87.554 862.309 79.2579 859.115 71.4343C855.924 63.6155 851.485 56.7993 845.809 50.9927C840.13 45.1838 833.328 40.5932 825.399 37.2163C817.475 33.8393 808.722 32.1484 799.141 32.1484C789.558 32.1484 780.805 33.8681 772.878 37.305C764.951 40.7419 758.09 45.3924 752.294 51.2589C746.495 57.1254 742.004 63.9705 738.808 71.7917C735.614 79.6129 734.018 87.909 734.018 96.68C734.018 105.449 735.614 113.742 738.808 121.566C742.004 129.389 746.438 136.203 752.117 142.01C757.793 147.816 764.597 152.409 772.524 155.786C780.448 159.163 789.201 160.852 798.784 160.852C808.365 160.852 817.121 159.132 825.045 155.698C832.974 152.261 839.833 147.61 845.632 141.741C851.428 135.877 855.924 129.032 859.115 121.211C862.309 113.39 863.906 105.094 863.906 96.325Z" fill="black"/>
<path id="Fill 7" fill-rule="evenodd" clip-rule="evenodd" d="M954.689 67.3844C954.689 63.2447 956.457 59.7271 959.992 56.8317C963.53 53.9315 968.48 52.4838 974.847 52.4838C980.503 52.4838 986.104 53.5797 991.643 55.7668C997.182 57.954 1002.78 61.1174 1008.44 65.2547L1020.11 48.7604C1013.74 43.6754 1006.94 39.8037 999.687 37.1452C992.44 34.4843 984.277 33.1538 975.2 33.1538C969.071 33.1538 963.413 34.0105 958.256 35.7262C953.07 37.4395 948.652 39.8923 944.966 43.0844C941.283 46.2789 938.396 50.0908 936.271 54.5249C934.181 58.959 933.12 63.8956 933.12 69.3347C933.12 75.1279 934.033 80.0358 935.861 84.0559C937.688 88.0759 940.369 91.505 943.845 94.343C947.323 97.181 951.655 99.5452 956.784 101.438C961.939 103.331 967.805 105.042 974.434 106.58C980.209 107.999 984.895 109.359 988.52 110.658C992.113 111.96 994.945 113.35 997.037 114.826C999.098 116.305 1000.51 117.93 1001.28 119.703C1002.05 121.479 1002.43 123.486 1002.43 125.733C1002.43 130.584 1000.45 134.427 996.507 137.262C992.557 140.103 987.223 141.519 980.503 141.519C972.724 141.519 965.768 140.129 959.642 137.351C953.513 134.573 947.442 130.584 941.428 125.379L928.346 140.988C935.77 147.726 943.845 152.723 952.569 155.975C961.29 159.227 970.424 160.852 979.973 160.852C986.457 160.852 992.409 160.024 997.833 158.37C1003.22 156.712 1007.88 154.288 1011.71 151.096C1015.57 147.904 1018.58 144.003 1020.76 139.392C1022.91 134.781 1024 129.519 1024 123.606C1024 118.404 1023.14 113.881 1021.44 110.038C1019.73 106.195 1017.19 102.828 1013.89 99.928C1010.59 97.0326 1006.41 94.5775 1001.4 92.5674C996.388 90.5598 990.61 88.7268 984.129 87.0709C978.206 85.6519 973.344 84.2904 969.484 82.991C965.653 81.6917 962.647 80.2727 960.436 78.734C958.256 77.1978 956.753 75.5419 955.927 73.7687C955.104 71.9932 954.689 69.8659 954.689 67.3844Z" fill="black"/>
<path id="Fill 8" fill-rule="evenodd" clip-rule="evenodd" d="M261.973 58.918L202.779 118.033C202.016 116.554 201.327 115.013 200.71 113.414C198.643 108.043 197.609 102.344 197.609 96.3256C197.609 90.3021 198.643 84.6059 200.71 79.2346C202.779 73.861 205.646 69.1994 209.311 65.2426C212.977 61.2882 217.382 58.1606 222.523 55.8573C227.668 53.5563 233.312 52.4047 239.459 52.4047C245.608 52.4047 251.283 53.585 256.482 55.9481C258.416 56.825 260.246 57.8141 261.973 58.918ZM256.75 137.145C251.606 139.448 245.962 140.598 239.815 140.598C233.666 140.598 227.991 139.417 222.789 137.057C220.858 136.177 219.028 135.188 217.303 134.082L276.494 74.9719C277.258 76.4485 277.947 77.9873 278.564 79.5881C280.631 84.9594 281.665 90.658 281.665 96.6791C281.665 102.7 280.631 108.396 278.564 113.77C276.494 119.141 273.628 123.803 269.962 127.757C266.297 131.712 261.894 134.842 256.75 137.145ZM265.706 155.474C273.628 152.05 280.485 147.417 286.278 141.57C292.07 135.728 296.561 128.909 299.753 121.117C302.947 113.326 304.543 105.061 304.543 96.3256C304.543 87.5877 302.947 79.323 299.753 71.529C297.861 66.908 295.53 62.6406 292.764 58.7244L331.264 20.2775L315.966 5L277.349 43.564C273.882 41.2034 270.118 39.1629 266.06 37.4402C258.138 34.076 249.39 32.3915 239.815 32.3915C230.237 32.3915 221.49 34.1046 213.568 37.5286C205.646 40.9525 198.788 45.5854 192.996 51.4298C187.203 57.2741 182.71 64.0933 179.518 71.885C176.326 79.6766 174.73 87.9414 174.73 96.6792C174.73 105.415 176.326 113.677 179.518 121.471C181.413 126.094 183.743 130.362 186.509 134.28L148.012 172.723L163.31 188L201.925 149.438C205.392 151.799 209.156 153.84 213.214 155.562C221.136 158.926 229.883 160.609 239.459 160.609C249.036 160.609 257.784 158.895 265.706 155.474Z" fill="black"/>
</g>
</g>
</svg>
