<svg width="151" height="40" viewBox="0 0 151 40" fill="none" xmlns="http://www.w3.org/2000/svg">
<path fill-rule="evenodd" clip-rule="evenodd" d="M10.3076 40C7.66756 40.0006 5.02866 38.9954 3.0189 36.9862C1.07229 35.0396 0 32.4513 0 29.6987C0 26.946 1.07229 24.3577 3.0189 22.4111L3.09285 22.3371L16.7305 8.69946L18.953 10.9214L5.24368 24.6307C3.88811 25.9863 3.14291 27.785 3.14291 29.6987C3.14291 31.6123 3.88811 33.411 5.24141 34.7637C8.03447 37.5568 12.579 37.5568 15.3721 34.7637C15.4096 34.7262 16.689 33.4468 16.689 33.4468L18.9109 35.6699C18.9109 35.6699 17.6162 36.9646 17.5918 36.9885C15.5843 38.996 12.9459 40 10.3076 40Z" fill="#DF542A"/>
<path fill-rule="evenodd" clip-rule="evenodd" d="M29.0832 18.9525L15.3738 5.24311C14.0188 3.88811 12.2195 3.14234 10.3059 3.14234C8.39285 3.14234 6.59357 3.88811 5.24084 5.24084C3.88754 6.59357 3.14234 8.39285 3.14234 10.3065C3.14234 12.2201 3.88754 14.0188 5.24084 15.3715C5.26245 15.3937 6.55716 16.6884 6.55716 16.6884L4.33522 18.9109L3.02061 17.5957C1.07172 15.6469 0 13.0591 0 10.3065C0 7.55322 1.07172 4.96551 3.01833 3.01833C4.96494 1.07172 7.55322 0 10.3059 0C13.0591 0 15.6474 1.07172 17.594 3.0189L17.6657 3.09001L31.3057 16.7305L29.0832 18.9525Z" fill="#F3B229"/>
<path fill-rule="evenodd" clip-rule="evenodd" d="M23.27 31.3051L21.0475 29.0832L34.7592 15.371C36.1119 14.0182 36.8576 12.2195 36.8576 10.3059C36.8576 8.39285 36.1119 6.59357 34.7592 5.24084C31.9661 2.44777 27.4215 2.44777 24.6285 5.24084L23.3116 6.55716L21.0891 4.33522L22.406 3.01833C24.3526 1.07229 26.9408 0 29.6941 0C32.4468 0 35.035 1.07229 36.9817 3.01833C38.9277 4.96494 40 7.55322 40 10.3059C40 13.0591 38.9277 15.6474 36.9817 17.5935L23.27 31.3051Z" fill="#6CC0B1"/>
<path fill-rule="evenodd" clip-rule="evenodd" d="M29.6991 39.9999C26.9458 39.9999 24.3576 38.9277 22.4109 36.9816L8.69933 23.27L10.9218 21.0475L24.6335 34.7591C25.9868 36.1124 27.7855 36.8576 29.6991 36.8576C31.6121 36.8576 33.4108 36.1124 34.7641 34.7591C37.5566 31.966 37.5566 27.4215 34.7641 24.6284C34.7442 24.6085 33.4473 23.3115 33.4473 23.3115L35.6698 21.0896C35.6698 21.0896 36.9389 22.3587 36.9832 22.4025C41.005 26.4243 41.005 32.9632 36.9867 36.981C35.04 38.9277 32.4518 39.9999 29.6991 39.9999Z" fill="#35A0CD"/>
<path d="M56 15.4844H57.7266V4.09375H56V15.4844Z" fill="#3C3C3B"/>
<path d="M60.765 15.4844H62.4916V7.39062H62.5228L67.6712 15.4844H69.3041V4.09375H67.5775V12.1875H67.5462L62.39 4.09375H60.765V15.4844Z" fill="#3C3C3B"/>
<path d="M74.2878 15.4844H76.0222V5.63281H79.1394V4.09375H71.1706V5.63281H74.2878V15.4844Z" fill="#3C3C3B"/>
<path d="M80.9981 15.4844H88.2716V13.8516H82.7247V10.5078H87.4591V8.97656H82.7247V5.72656H88.2716V4.09375H80.9981V15.4844Z" fill="#3C3C3B"/>
<path d="M92.2709 5.63281H94.9741C95.5261 5.63281 95.948 5.75 96.2397 5.98438C96.6095 6.25 96.7996 6.67969 96.81 7.27344C96.81 7.76823 96.6511 8.1849 96.3334 8.52344C96.0105 8.88802 95.5261 9.07552 94.8803 9.08594H92.2709V5.63281ZM90.5444 15.4844H92.2709V10.6172H94.4741L96.8256 15.4844H98.8803L96.2397 10.4297C97.6876 9.8724 98.422 8.82031 98.4428 7.27344C98.4116 6.22135 98.034 5.41146 97.31 4.84375C96.711 4.34375 95.9376 4.09375 94.9897 4.09375H90.5444V15.4844Z" fill="#3C3C3B"/>
<path d="M106.802 12.2969C106.322 13.3333 105.598 13.8516 104.63 13.8516C104.223 13.8516 103.874 13.7656 103.583 13.5938C103.286 13.4479 103.046 13.2578 102.864 13.0234C102.64 12.7786 102.492 12.4583 102.419 12.0625C102.335 11.6667 102.294 10.9089 102.294 9.78906C102.294 8.66927 102.335 7.90625 102.419 7.5C102.492 7.11458 102.64 6.79948 102.864 6.55469C103.046 6.32031 103.286 6.125 103.583 5.96875C103.874 5.81771 104.223 5.73698 104.63 5.72656C105.182 5.73698 105.651 5.89583 106.036 6.20312C106.406 6.52604 106.661 6.91667 106.802 7.375H108.63C108.447 6.42188 108.01 5.6224 107.317 4.97656C106.624 4.33594 105.729 4.01042 104.63 4C103.734 4.01042 102.986 4.22396 102.388 4.64062C101.778 5.05208 101.335 5.52083 101.059 6.04688C100.888 6.32292 100.76 6.6849 100.677 7.13281C100.598 7.58073 100.559 8.46615 100.559 9.78906C100.559 11.0911 100.598 11.9714 100.677 12.4297C100.718 12.6745 100.77 12.8776 100.833 13.0391C100.901 13.1953 100.976 13.3594 101.059 13.5312C101.335 14.0573 101.778 14.5208 102.388 14.9219C102.986 15.3385 103.734 15.5573 104.63 15.5781C105.619 15.5781 106.476 15.2969 107.2 14.7344C107.903 14.1667 108.38 13.3542 108.63 12.2969H106.802Z" fill="#3C3C3B"/>
<path d="M116.731 15.4844H118.457V4.09375H116.731V8.97656H112.223V4.09375H110.496V15.4844H112.223V10.5078H116.731V15.4844Z" fill="#3C3C3B"/>
<path d="M123.527 11.4062L125.175 6.42969H125.207L126.855 11.4062H123.527ZM128.23 15.4844H130.05L125.91 4.09375H124.464L120.324 15.4844H122.152L123.027 12.9375H127.347L128.23 15.4844Z" fill="#3C3C3B"/>
<path d="M131.917 15.4844H133.643V4.09375H131.917V15.4844Z" fill="#3C3C3B"/>
<path d="M136.682 15.4844H138.408V7.39062H138.44L143.588 15.4844H145.221V4.09375H143.494V12.1875H143.463L138.307 4.09375H136.682V15.4844Z" fill="#3C3C3B"/>
<path d="M56 35.4844H57.7266V30.6172H62.4609V29.0859H57.7266V25.7266H63.2734V24.0938H56V35.4844Z" fill="#3C3C3B"/>
<path d="M64.8431 29.7891C64.8431 31.0911 64.8822 31.9714 64.9603 32.4297C65.002 32.6745 65.0541 32.8776 65.1166 33.0391C65.1843 33.1953 65.2598 33.3594 65.3431 33.5312C65.6192 34.0573 66.0619 34.5208 66.6712 34.9219C67.2702 35.3385 68.0176 35.5573 68.9134 35.5781C69.8197 35.5573 70.5749 35.3385 71.1791 34.9219C71.778 34.5208 72.2103 34.0573 72.4759 33.5312C72.6686 33.2552 72.8015 32.888 72.8744 32.4297C72.9421 31.9714 72.9759 31.0911 72.9759 29.7891C72.9759 28.4661 72.9421 27.5807 72.8744 27.1328C72.8015 26.6849 72.6686 26.3229 72.4759 26.0469C72.2103 25.5208 71.778 25.0521 71.1791 24.6406C70.5749 24.224 69.8197 24.0104 68.9134 24C68.0176 24.0104 67.2702 24.224 66.6712 24.6406C66.0619 25.0521 65.6192 25.5208 65.3431 26.0469C65.1712 26.3229 65.0436 26.6849 64.9603 27.1328C64.8822 27.5807 64.8431 28.4661 64.8431 29.7891ZM66.5775 29.7891C66.5775 28.6693 66.6192 27.9062 66.7025 27.5C66.7754 27.1146 66.9239 26.7995 67.1478 26.5547C67.3301 26.3203 67.5697 26.125 67.8666 25.9688C68.1582 25.8177 68.5072 25.737 68.9134 25.7266C69.3249 25.737 69.6817 25.8177 69.9837 25.9688C70.2702 26.125 70.4994 26.3203 70.6712 26.5547C70.8952 26.7995 71.0489 27.1146 71.1322 27.5C71.2103 27.9062 71.2494 28.6693 71.2494 29.7891C71.2494 30.9089 71.2103 31.6667 71.1322 32.0625C71.0489 32.4583 70.8952 32.7786 70.6712 33.0234C70.4994 33.2578 70.2702 33.4479 69.9837 33.5938C69.6817 33.7656 69.3249 33.8516 68.9134 33.8516C68.5072 33.8516 68.1582 33.7656 67.8666 33.5938C67.5697 33.4479 67.3301 33.2578 67.1478 33.0234C66.9239 32.7786 66.7754 32.4583 66.7025 32.0625C66.6192 31.6667 66.5775 30.9089 66.5775 29.7891Z" fill="#3C3C3B"/>
<path d="M75.4284 31.625C75.4389 32.8229 75.8347 33.7734 76.6159 34.4766C77.3816 35.2005 78.3347 35.5677 79.4753 35.5781C80.6368 35.5677 81.5977 35.2005 82.3581 34.4766C83.1133 33.7734 83.5014 32.8229 83.5222 31.625V24.0938H81.7956V31.4375C81.7852 32.2135 81.5665 32.8047 81.1394 33.2109C80.7019 33.638 80.1472 33.8516 79.4753 33.8516C78.8034 33.8516 78.254 33.638 77.8269 33.2109C77.3894 32.8047 77.1654 32.2135 77.155 31.4375V24.0938H75.4284V31.625Z" fill="#3C3C3B"/>
<path d="M86.3575 35.4844H88.0841V27.3906H88.1153L93.2637 35.4844H94.8966V24.0938H93.17V32.1875H93.1387L87.9825 24.0938H86.3575V35.4844Z" fill="#3C3C3B"/>
<path d="M97.9506 35.4844H101.818C102.672 35.4844 103.393 35.2969 103.982 34.9219C104.576 34.5729 105.039 34.1302 105.372 33.5938C105.497 33.3906 105.604 33.1953 105.693 33.0078C105.776 32.8151 105.839 32.5964 105.88 32.3516C105.969 31.8672 106.013 31.013 106.013 29.7891C106.013 28.638 105.984 27.8281 105.927 27.3594C105.854 26.8906 105.68 26.4427 105.404 26.0156C104.633 24.7448 103.477 24.1042 101.935 24.0938H97.9506V35.4844ZM99.6772 25.7266H101.74C102.615 25.7057 103.292 26.026 103.771 26.6875C104.005 26.9531 104.154 27.2995 104.216 27.7266C104.263 28.1536 104.287 28.862 104.287 29.8516C104.287 30.8672 104.263 31.5599 104.216 31.9297C104.164 32.3047 104.042 32.6146 103.849 32.8594C103.412 33.5208 102.708 33.8516 101.74 33.8516H99.6772V25.7266Z" fill="#3C3C3B"/>
<path d="M110.387 31.4062L112.036 26.4297H112.067L113.716 31.4062H110.387ZM115.091 35.4844H116.911L112.77 24.0938H111.325L107.184 35.4844H109.013L109.887 32.9375H114.208L115.091 35.4844Z" fill="#3C3C3B"/>
<path d="M119.52 35.4844H121.254V25.6328H124.371V24.0938H116.402V25.6328H119.52V35.4844Z" fill="#3C3C3B"/>
<path d="M126.23 35.4844H127.957V24.0938H126.23V35.4844Z" fill="#3C3C3B"/>
<path d="M130.604 29.7891C130.604 31.0911 130.643 31.9714 130.722 32.4297C130.763 32.6745 130.815 32.8776 130.878 33.0391C130.946 33.1953 131.021 33.3594 131.104 33.5312C131.38 34.0573 131.823 34.5208 132.432 34.9219C133.031 35.3385 133.779 35.5573 134.675 35.5781C135.581 35.5573 136.336 35.3385 136.94 34.9219C137.539 34.5208 137.972 34.0573 138.237 33.5312C138.43 33.2552 138.563 32.888 138.636 32.4297C138.703 31.9714 138.737 31.0911 138.737 29.7891C138.737 28.4661 138.703 27.5807 138.636 27.1328C138.563 26.6849 138.43 26.3229 138.237 26.0469C137.972 25.5208 137.539 25.0521 136.94 24.6406C136.336 24.224 135.581 24.0104 134.675 24C133.779 24.0104 133.031 24.224 132.432 24.6406C131.823 25.0521 131.38 25.5208 131.104 26.0469C130.932 26.3229 130.805 26.6849 130.722 27.1328C130.643 27.5807 130.604 28.4661 130.604 29.7891ZM132.339 29.7891C132.339 28.6693 132.38 27.9062 132.464 27.5C132.537 27.1146 132.685 26.7995 132.909 26.5547C133.091 26.3203 133.331 26.125 133.628 25.9688C133.919 25.8177 134.268 25.737 134.675 25.7266C135.086 25.737 135.443 25.8177 135.745 25.9688C136.031 26.125 136.261 26.3203 136.432 26.5547C136.656 26.7995 136.81 27.1146 136.893 27.5C136.972 27.9062 137.011 28.6693 137.011 29.7891C137.011 30.9089 136.972 31.6667 136.893 32.0625C136.81 32.4583 136.656 32.7786 136.432 33.0234C136.261 33.2578 136.031 33.4479 135.745 33.5938C135.443 33.7656 135.086 33.8516 134.675 33.8516C134.268 33.8516 133.919 33.7656 133.628 33.5938C133.331 33.4479 133.091 33.2578 132.909 33.0234C132.685 32.7786 132.537 32.4583 132.464 32.0625C132.38 31.6667 132.339 30.9089 132.339 29.7891Z" fill="#3C3C3B"/>
<path d="M141.401 35.4844H143.127V27.3906H143.158L148.307 35.4844H149.94V24.0938H148.213V32.1875H148.182L143.026 24.0938H141.401V35.4844Z" fill="#3C3C3B"/>
</svg>
