<svg width="50" height="59" viewBox="0 0 50 59" fill="none" xmlns="http://www.w3.org/2000/svg">
<path d="M43 40.9531L49.0469 47V49.9531H0.953125V47L7 40.9531V26.0469C7 21.3594 8.17188 17.2813 10.5156 13.8125C12.9531 10.3437 16.2812 8.09375 20.5 7.0625V4.95312C20.5 3.73437 20.9219 2.70312 21.7656 1.85938C22.6094 0.921875 23.6875 0.453125 25 0.453125C26.3125 0.453125 27.3906 0.921875 28.2344 1.85938C29.0781 2.70312 29.5 3.73437 29.5 4.95312V7.0625C33.7188 8.09375 37 10.3437 39.3438 13.8125C41.7812 17.2813 43 21.3594 43 26.0469V40.9531ZM25 58.9531C23.3125 58.9531 21.8594 58.3906 20.6406 57.2656C19.5156 56.1406 18.9531 54.7344 18.9531 53.0469H31.0469C31.0469 54.6406 30.4375 56.0469 29.2188 57.2656C28 58.3906 26.5938 58.9531 25 58.9531Z" fill="white"/>
</svg>
