<svg width="60" height="60" viewBox="0 0 60 60" fill="none" xmlns="http://www.w3.org/2000/svg">
<path d="M48 18.0469V12H12V18.0469H48ZM36.0469 36.0469V30H12V36.0469H36.0469ZM12 21V27.0469H48V21H12ZM54.0469 0.046875C55.6406 0.046875 57 0.65625 58.125 1.875C59.3438 3 59.9531 4.35938 59.9531 5.95312V41.9531C59.9531 43.5469 59.3438 44.9531 58.125 46.1719C57 47.3906 55.6406 48 54.0469 48H12L0.046875 59.9531V5.95312C0.046875 4.35938 0.609375 3 1.73438 1.875C2.95312 0.65625 4.35938 0.046875 5.95312 0.046875H54.0469Z" fill="white"/>
</svg>
