<svg width="68" height="52" viewBox="0 0 68 52" fill="none" xmlns="http://www.w3.org/2000/svg">
<path d="M61 42.5469V7.95312C57.9062 7.01562 54.3906 6.54688 50.4531 6.54688C44.3594 6.54688 38.875 8.04688 34 11.0469V45.5C38.875 42.5 44.3594 41 50.4531 41C54.1094 41 57.625 41.5156 61 42.5469ZM50.4531 0.5C57.5781 0.5 63.1094 2 67.0469 5V48.7344C67.0469 49.1094 66.8594 49.4844 66.4844 49.8594C66.2031 50.1406 65.875 50.2812 65.5 50.2812C65.2188 50.2812 64.9844 50.2344 64.7969 50.1406C60.9531 48.0781 56.1719 47.0469 50.4531 47.0469C44.3594 47.0469 38.875 48.5469 34 51.5469C29.9688 48.5469 24.4844 47.0469 17.5469 47.0469C12.4844 47.0469 7.70312 48.125 3.20312 50.2812C3.10938 50.2812 2.96875 50.3281 2.78125 50.4219C2.6875 50.4219 2.59375 50.4219 2.5 50.4219C2.125 50.4219 1.75 50.2812 1.375 50C1.09375 49.7188 0.953125 49.3906 0.953125 49.0156V5C4.98438 2 10.5156 0.5 17.5469 0.5C24.4844 0.5 29.9688 2 34 5C38.0312 2 43.5156 0.5 50.4531 0.5Z" fill="white"/>
</svg>
