<svg width="64" height="45" viewBox="0 0 64 45" fill="none" xmlns="http://www.w3.org/2000/svg">
<path d="M62.6406 6.90404C62.2698 5.5754 61.5625 4.36489 60.5871 3.3895C59.6117 2.41412 58.4012 1.70684 57.0726 1.33604C52.0859 3.83059e-05 32.0166 3.78282e-05 32.0166 3.78282e-05C32.0166 3.78282e-05 11.9979 -0.0266283 6.96058 1.33604C5.63194 1.70684 4.42143 2.41412 3.44604 3.3895C2.47065 4.36489 1.76338 5.5754 1.39258 6.90404C0.447298 12.0094 -0.0187292 17.1919 0.00057598 22.384C-0.0150797 27.5565 0.450932 32.7193 1.39258 37.8054C1.76338 39.134 2.47065 40.3445 3.44604 41.3199C4.42143 42.2953 5.63194 43.0026 6.96058 43.3734C11.9419 44.712 32.0166 44.712 32.0166 44.712C32.0166 44.712 52.0326 44.712 57.0726 43.3734C58.4012 43.0026 59.6117 42.2953 60.5871 41.3199C61.5625 40.3445 62.2698 39.134 62.6406 37.8054C63.5626 32.7174 64.0089 27.5547 63.9739 22.384C64.0126 17.1938 63.5662 12.0112 62.6406 6.90404ZM25.6112 31.96V12.7787L42.3152 22.384L25.6112 31.96Z" fill="white"/>
</svg>
