<svg width="72" height="72" viewBox="0 0 72 72" fill="none" xmlns="http://www.w3.org/2000/svg">
<path d="M50.0469 38.9531V33.0469H37.9531V20.9531H32.0469V33.0469H19.9531V38.9531H32.0469V51.0469H37.9531V38.9531H50.0469ZM13.7656 14.9062C19.6719 9 26.75 6.04688 35 6.04688C43.25 6.04688 50.2812 9 56.0938 14.9062C62 20.7187 64.9531 27.75 64.9531 36C64.9531 44.25 62 51.3281 56.0938 57.2344C50.2812 63.0469 43.25 65.9531 35 65.9531C26.75 65.9531 19.6719 63.0469 13.7656 57.2344C7.95312 51.3281 5.04688 44.25 5.04688 36C5.04688 27.75 7.95312 20.7187 13.7656 14.9062Z" fill="white"/>
</svg>
