<svg width="180" height="40" viewBox="0 0 180 40" fill="none" xmlns="http://www.w3.org/2000/svg">
<path d="M52.6332 29.1555H55.7591V14.2627H61.4265V11.3655H46.9658V14.2627H52.6332V29.1555Z" fill="black"/>
<path d="M66.3373 29.4605C68.8025 29.4605 70.5561 28.4693 71.8268 26.9445L70.0224 25.3434C68.955 26.3854 67.8875 26.9445 66.3881 26.9445C64.4058 26.9445 62.8555 25.7246 62.5251 23.5389H72.3859C72.4113 23.234 72.4367 22.9544 72.4367 22.6749C72.4367 18.8119 70.2765 15.4572 66.0069 15.4572C62.1693 15.4572 59.45 18.6086 59.45 22.4461V22.497C59.45 26.6395 62.4489 29.4605 66.3373 29.4605ZM62.4997 21.5058C62.7793 19.4218 64.1008 17.9732 65.9815 17.9732C68.0146 17.9732 69.1837 19.5235 69.387 21.5058H62.4997Z" fill="black"/>
<path d="M74.2288 29.1555H77.3294V21.582C77.3294 19.4981 78.5747 18.2528 80.3537 18.2528C82.1835 18.2528 83.2255 19.4472 83.2255 21.5312V29.1555H86.3007V20.5909C86.3007 17.4903 84.5471 15.4572 81.5228 15.4572C79.4388 15.4572 78.1935 16.55 77.3294 17.7953V15.7367H74.2288V29.1555Z" fill="black"/>
<path d="M94.2837 29.4351C96.4694 29.4351 97.8672 28.3169 98.8583 26.9191V29.1555H101.933V10.603H98.8583V17.8207C97.8926 16.55 96.4948 15.4572 94.2837 15.4572C91.0815 15.4572 88.0572 17.9732 88.0572 22.4207V22.4715C88.0572 26.9191 91.1324 29.4351 94.2837 29.4351ZM95.0208 26.7666C92.9368 26.7666 91.1578 25.0638 91.1578 22.4715V22.4207C91.1578 19.7776 92.9114 18.1257 95.0208 18.1257C97.0793 18.1257 98.9092 19.8284 98.9092 22.4207V22.4715C98.9092 25.0384 97.0793 26.7666 95.0208 26.7666Z" fill="black"/>
<path d="M110.673 29.4605C113.139 29.4605 114.892 28.4693 116.163 26.9445L114.359 25.3434C113.291 26.3854 112.224 26.9445 110.724 26.9445C108.742 26.9445 107.192 25.7246 106.861 23.5389H116.722C116.747 23.234 116.773 22.9544 116.773 22.6749C116.773 18.8119 114.613 15.4572 110.343 15.4572C106.505 15.4572 103.786 18.6086 103.786 22.4461V22.497C103.786 26.6395 106.785 29.4605 110.673 29.4605ZM106.836 21.5058C107.115 19.4218 108.437 17.9732 110.318 17.9732C112.351 17.9732 113.52 19.5235 113.723 21.5058H106.836Z" fill="black"/>
<path d="M118.565 29.1555H121.666V24.0472C121.666 20.4892 123.546 18.7356 126.24 18.7356H126.418V15.4826C124.055 15.3809 122.504 16.7533 121.666 18.761V15.7367H118.565V29.1555Z" fill="black"/>
<path d="M127.793 29.1555H130.893V21.582C130.893 19.5235 132.062 18.2528 133.765 18.2528C135.468 18.2528 136.484 19.4218 136.484 21.5058V29.1555H139.559V21.582C139.559 19.4218 140.754 18.2528 142.431 18.2528C144.159 18.2528 145.151 19.3964 145.151 21.5312V29.1555H148.226V20.5909C148.226 17.3124 146.447 15.4572 143.524 15.4572C141.491 15.4572 140.068 16.3975 139 17.8207C138.289 16.3975 136.916 15.4572 134.985 15.4572C132.926 15.4572 131.757 16.5754 130.893 17.7699V15.7367H127.793V29.1555Z" fill="black"/>
<path d="M150.722 13.6782H154.026V10.7555H150.722V13.6782ZM150.824 29.1555H153.924V15.7367H150.824V29.1555Z" fill="black"/>
<path d="M156.647 29.1555H159.747V21.582C159.747 19.4981 160.993 18.2528 162.772 18.2528C164.602 18.2528 165.644 19.4472 165.644 21.5312V29.1555H168.719V20.5909C168.719 17.4903 166.965 15.4572 163.941 15.4572C161.857 15.4572 160.611 16.55 159.747 17.7953V15.7367H156.647V29.1555Z" fill="black"/>
<path d="M175.66 29.3843C176.829 29.3843 177.668 29.1301 178.43 28.6981V26.182C177.82 26.487 177.21 26.6395 176.524 26.6395C175.482 26.6395 174.872 26.1566 174.872 24.9622V18.3798H178.481V15.7367H174.872V12.0516H171.797V15.7367H170.094V18.3798H171.797V25.445C171.797 28.3931 173.398 29.3843 175.66 29.3843Z" fill="black"/>
<ellipse cx="20" cy="20" rx="20" ry="20" fill="#00BB00"/>
<path fill-rule="evenodd" clip-rule="evenodd" d="M24.2362 15.5957C22.8973 15.0702 21.4554 14.7958 19.9992 14.7958C16.9385 14.7958 14.0596 15.992 11.8928 18.1639C9.73549 20.3263 8.53692 23.1987 8.51763 26.2519L8.51508 26.662L8.87296 26.8646C10.5978 27.8415 12.5484 28.3555 14.5251 28.3555C14.5794 28.3555 14.6342 28.3552 14.6887 28.3543C16.4117 28.3296 18.1163 27.9172 19.6616 27.156C19.1744 26.8846 18.7074 26.5791 18.2635 26.2422C15.5699 27.2986 12.5171 27.1683 9.93365 25.8453C10.185 20.4873 14.6163 16.1954 19.9992 16.1954C21.4963 16.1954 22.9751 16.5251 24.3106 17.1516C24.3278 16.6329 24.3031 16.113 24.2362 15.5957Z" fill="white"/>
<path fill-rule="evenodd" clip-rule="evenodd" d="M31.4807 26.1568C31.4397 22.3608 29.5828 18.8974 26.4875 16.7877C26.4898 17.3432 26.4525 17.8983 26.3759 18.4502C28.5753 20.2379 29.9162 22.8704 30.0629 25.7545C25.3185 28.1881 19.4017 26.4837 16.7065 21.8333C15.9786 20.5771 15.5322 19.1726 15.4011 17.7376C14.9432 17.9861 14.5058 18.2721 14.093 18.5927C14.3107 19.9738 14.7838 21.315 15.4898 22.5331C17.0229 25.1785 19.4877 27.0751 22.43 27.8733C23.4283 28.1442 24.4432 28.2782 25.4526 28.2782C27.4192 28.2782 29.3648 27.7695 31.1253 26.7728L31.485 26.569L31.4807 26.1568Z" fill="white"/>
<path fill-rule="evenodd" clip-rule="evenodd" d="M20.405 6.8869L20.0501 6.67969L19.6952 6.88658C17.9416 7.90819 16.4847 9.37292 15.4819 11.1223C14.616 12.6331 14.1038 14.3254 13.9837 16.0529C14.4638 15.7688 14.9639 15.5191 15.481 15.3056C15.9264 12.4579 17.59 9.88424 20.0495 8.31148C24.5668 11.2029 26.0524 17.1979 23.339 21.8797C22.6042 23.1476 21.5994 24.2439 20.4091 25.0856C20.8537 25.3555 21.3205 25.5898 21.8056 25.7857C22.9061 24.8976 23.8429 23.8096 24.5558 22.5795C27.7238 17.1133 25.8617 10.0736 20.405 6.8869Z" fill="white"/>
<path fill-rule="evenodd" clip-rule="evenodd" d="M20 18.8284C19.354 18.8284 18.8285 19.3541 18.8285 20.0001C18.8285 20.6461 19.354 21.1717 20 21.1717C20.6461 21.1717 21.1717 20.6461 21.1717 20.0001C21.1717 19.3541 20.6461 18.8284 20 18.8284ZM20.0001 22.5786C18.5782 22.5786 17.4215 21.422 17.4215 20.0001C17.4215 18.5782 18.5782 17.4215 20.0001 17.4215C21.422 17.4215 22.5788 18.5782 22.5788 20.0001C22.5788 21.422 21.422 22.5786 20.0001 22.5786Z" fill="white"/>
</svg>
