<svg width="91" height="90" viewBox="0 0 91 90" fill="none" xmlns="http://www.w3.org/2000/svg">
<path fill-rule="evenodd" clip-rule="evenodd" d="M9.25769 9.29785V86.0006H77.6659V9.29785H9.25769Z" fill="white" stroke="#5064FB" stroke-width="2"/>
<path fill-rule="evenodd" clip-rule="evenodd" d="M13.0842 4.00049V80.7032H81.4924V4.00049H13.0842Z" fill="white" stroke="#5064FB" stroke-width="2"/>
<path fill-rule="evenodd" clip-rule="evenodd" d="M65.6548 34.9711C64.6587 32.5657 63.2723 30.469 61.4983 28.6822C59.7254 26.8953 57.6019 25.4825 55.125 24.4438C52.65 23.4051 49.916 22.8843 46.9241 22.8843C43.9311 22.8843 41.1972 23.4137 38.7212 24.4716C36.2453 25.5286 34.1024 26.9586 32.2924 28.7637C30.4814 30.5688 29.0794 32.674 28.0805 35.0805C27.0835 37.4869 26.585 40.0392 26.585 42.7381C26.585 45.4352 27.0835 47.9864 28.0805 50.3938C29.0794 52.8012 30.4629 54.8969 32.2369 56.6838C34.0099 58.4697 36.1353 59.8834 38.6112 60.9221C41.0862 61.9609 43.8192 62.4807 46.8121 62.4807C49.805 62.4807 52.539 61.9513 55.014 60.8943C57.4909 59.8374 59.6329 58.4064 61.4438 56.6013C63.2538 54.7962 64.6587 52.6909 65.6548 50.2845C66.6517 47.8781 67.1512 45.3258 67.1512 42.6278C67.1512 39.9298 66.6517 37.3785 65.6548 34.9711Z" stroke="#5064FB"/>
<path fill-rule="evenodd" clip-rule="evenodd" d="M46.8675 27.9233C48.7077 27.9233 50.1993 34.5317 50.1993 42.6833C50.1993 50.8349 48.7077 57.4423 46.8675 57.4423C45.0274 57.4423 43.5367 50.8349 43.5367 42.6833C43.5367 34.5317 45.0274 27.9233 46.8675 27.9233Z" stroke="#5064FB"/>
<path fill-rule="evenodd" clip-rule="evenodd" d="M59.8514 35.3031C60.7715 36.8722 55.7047 41.4472 48.534 45.5225C41.3632 49.5988 34.8048 51.6312 33.8847 50.063C32.9647 48.4939 38.0314 43.9179 45.2022 39.8416C52.373 35.7663 58.9313 33.7339 59.8514 35.3031Z" stroke="#5064FB"/>
<path fill-rule="evenodd" clip-rule="evenodd" d="M59.8514 50.0625C58.9313 51.6316 52.373 49.5992 45.2022 45.523C38.0314 41.4476 32.9647 36.8717 33.8847 35.3025C34.8048 33.7344 41.3632 35.7668 48.534 39.8421C55.7047 43.9183 60.7715 48.4934 59.8514 50.0625Z" stroke="#5064FB"/>
<path fill-rule="evenodd" clip-rule="evenodd" d="M36.6487 38.3335C37.3259 38.3335 37.8752 38.8734 37.8752 39.5417C37.8752 40.2088 37.3259 40.7488 36.6487 40.7488C35.9715 40.7488 35.4233 40.2088 35.4233 39.5417C35.4233 38.8734 35.9715 38.3335 36.6487 38.3335Z" fill="#5064FB"/>
<path fill-rule="evenodd" clip-rule="evenodd" d="M44.5161 51.7534C45.1933 51.7534 45.7426 52.2934 45.7426 52.9616C45.7426 53.6287 45.1933 54.1687 44.5161 54.1687C43.8389 54.1687 43.2908 53.6287 43.2908 52.9616C43.2908 52.2934 43.8389 51.7534 44.5161 51.7534Z" fill="#5064FB"/>
<path fill-rule="evenodd" clip-rule="evenodd" d="M54.5197 34.3247C55.1969 34.3247 55.7461 34.8647 55.7461 35.5329C55.7461 36.2 55.1969 36.74 54.5197 36.74C53.8424 36.74 53.2943 36.2 53.2943 35.5329C53.2943 34.8647 53.8424 34.3247 54.5197 34.3247Z" fill="#5064FB"/>
<path fill-rule="evenodd" clip-rule="evenodd" d="M46.868 40.8594C47.8786 40.8594 48.6984 41.6749 48.6984 42.6825C48.6984 43.689 47.8786 44.5056 46.868 44.5056C45.8574 44.5056 45.0376 43.689 45.0376 42.6825C45.0376 41.6749 45.8574 40.8594 46.868 40.8594Z" fill="#5064FB"/>
</svg>
