<?xml version="1.0" encoding="UTF-8"?>
<svg width="111px" height="105px" viewBox="0 0 111 105" version="1.1" xmlns="http://www.w3.org/2000/svg" xmlns:xlink="http://www.w3.org/1999/xlink">
    <!-- Generator: Sketch 52.5 (67469) - http://www.bohemiancoding.com/sketch -->
    <title>Interoperability Copy 4</title>
    <desc>Created with Sketch.</desc>
    <g id="/SDK-(NEW)" stroke="none" stroke-width="1" fill="none" fill-rule="evenodd">
        <g id="Cosmos_website_SDK_1920px" transform="translate(-1509.000000, -2170.000000)">
            <g id="SDk-Features" transform="translate(-1.000000, 1423.000000)">
                <g id="Interoperability-Copy-4" transform="translate(1511.000000, 748.000000)">
                    <path d="M65.4997474,21.8150347 C63.8299347,17.6599586 61.5055817,14.0383492 58.531585,10.9518632 C55.5592205,7.86537725 51.9992387,5.42501556 47.8467428,3.63077815 C43.6975114,1.83654074 39.1140961,0.936936937 34.0981291,0.936936937 C29.0805298,0.936936937 24.4971144,1.8514513 20.3462508,3.67882329 C16.1953871,5.50453855 12.6027599,7.97472135 9.5683692,11.0926852 C6.53234622,14.210649 4.18187681,17.8471689 2.50716736,22.0039018 C0.835722455,26.1606346 0,30.5691903 0,35.2312254 C0,39.8899471 0.835722455,44.296846 2.50716736,48.4552356 C4.18187681,52.6136252 6.50133308,56.2335778 9.47532978,59.3200638 C12.4476942,62.404893 16.0109405,64.8469114 20.1618042,66.6411489 C24.3110356,68.4353863 28.8928187,69.3333333 33.910418,69.3333333 C38.9280172,69.3333333 43.5114326,68.418819 47.660664,66.5931037 C51.8131599,64.7673885 55.4041548,62.2955489 58.4401778,59.1775851 C61.4745685,56.0596213 63.8299347,52.4231013 65.4997474,48.2663685 C67.1711923,44.1096357 68.008547,39.70108 68.008547,35.0407016 C68.008547,30.3803232 67.1711923,25.9734243 65.4997474,21.8150347 Z" id="Stroke-7" stroke="#FFFFFF" stroke-width="2"></path>
                    <path d="M106.4912,21.8150347 C104.821388,17.6599586 102.497035,14.0383492 99.5230379,10.9518632 C96.5506735,7.86537725 92.9906917,5.42501556 88.8381958,3.63077815 C84.6889644,1.83654074 80.105549,0.936936937 75.089582,0.936936937 C70.0719828,0.936936937 65.4885674,1.8514513 61.3377038,3.67882329 C57.1868401,5.50453855 53.5942129,7.97472135 50.5598222,11.0926852 C47.5237992,14.210649 45.1733298,17.8471689 43.4986204,22.0039018 C41.8271754,26.1606346 40.991453,30.5691903 40.991453,35.2312254 C40.991453,39.8899471 41.8271754,44.296846 43.4986204,48.4552356 C45.1733298,52.6136252 47.4927861,56.2335778 50.4667828,59.3200638 C53.4391472,62.404893 57.0023935,64.8469114 61.1532572,66.6411489 C65.3024886,68.4353863 69.8842717,69.3333333 74.9018709,69.3333333 C79.9194702,69.3333333 84.5028856,68.418819 88.652117,66.5931037 C92.8046129,64.7673885 96.3956078,62.2955489 99.4316308,59.1775851 C102.466022,56.0596213 104.821388,52.4231013 106.4912,48.2663685 C108.162645,44.1096357 109,39.70108 109,35.0407016 C109,30.3803232 108.162645,25.9734243 106.4912,21.8150347 Z" id="Stroke-7" stroke="#FFFFFF" stroke-width="2"></path>
                    <path d="M85.0638499,52.7339536 C83.3940373,48.5788775 81.0696842,44.9572681 78.0956875,41.8707821 C75.1233231,38.7842962 71.5633413,36.3439345 67.4108454,34.5496971 C63.261614,32.7554597 58.6781986,31.8558559 53.6622316,31.8558559 C48.6446323,31.8558559 44.061217,32.7703702 39.9103533,34.5977422 C35.7594897,36.4234575 32.1668625,38.8936403 29.1324718,42.0116041 C26.0964488,45.1295679 23.7459794,48.7660879 22.0712699,52.9228207 C20.399825,57.0795535 19.5641026,61.4881092 19.5641026,66.1501443 C19.5641026,70.808866 20.399825,75.2157649 22.0712699,79.3741545 C23.7459794,83.5325441 26.0654356,87.1524967 29.0394323,90.2389827 C32.0117968,93.3238119 35.5750431,95.7658304 39.7259068,97.5600678 C43.8751382,99.3543052 48.4569213,100.252252 53.4745205,100.252252 C58.4921198,100.252252 63.0755351,99.3377379 67.2247665,97.5120226 C71.3772625,95.6863074 74.9682574,93.2144678 78.0042804,90.096504 C81.0386711,86.9785402 83.3940373,83.3420202 85.0638499,79.1852874 C86.7352948,75.0285546 87.5726496,70.6199989 87.5726496,65.9596205 C87.5726496,61.2992421 86.7352948,56.8923432 85.0638499,52.7339536 Z" id="Stroke-7" stroke="#FFFFFF" stroke-width="2"></path>
                    <ellipse id="Oval-Copy-2" fill="#FFFFFF" cx="54.965812" cy="62.7747748" rx="4.65811966" ry="4.68468468"></ellipse>
                    <ellipse id="Oval-Copy-3" fill="#FFFFFF" cx="54.965812" cy="8.68468468" rx="4.65811966" ry="4.68468468"></ellipse>
                    <ellipse id="Oval-Copy-4" fill="#FFFFFF" cx="42.8547009" cy="33.7297297" rx="4.65811966" ry="4.68468468"></ellipse>
                    <ellipse id="Oval-Copy-5" fill="#FFFFFF" cx="67.0769231" cy="33.7297297" rx="4.65811966" ry="4.68468468"></ellipse>
                    <ellipse id="Oval-Copy-6" fill="#FFFFFF" cx="9.31623932" cy="12.1801802" rx="4.65811966" ry="4.68468468"></ellipse>
                    <ellipse id="Oval-Copy-7" fill="#FFFFFF" cx="100.615385" cy="12.1801802" rx="4.65811966" ry="4.68468468"></ellipse>
                    <ellipse id="Oval-Copy-8" fill="#FFFFFF" cx="54.965812" cy="99.3153153" rx="4.65811966" ry="4.68468468"></ellipse>
                </g>
            </g>
        </g>
    </g>
</svg>