<svg width="128" height="72" viewBox="0 0 128 72" fill="none" xmlns="http://www.w3.org/2000/svg">
<path fill-rule="evenodd" clip-rule="evenodd" d="M22.5 10.0852C22.5 5.64983 27.2344 1.75 33.5009 1.75C39.7674 1.75 44.5018 5.64983 44.5018 10.0852C44.5018 14.5206 39.7674 18.4204 33.5009 18.4204C27.2344 18.4204 22.5 14.5206 22.5 10.0852ZM33.5009 0.25C26.7877 0.25 21 4.48534 21 10.0852C21 10.309 21.0092 10.5307 21.0274 10.75H21V14.25C21 14.4179 21.0054 14.5845 21.016 14.75H21V18.25C21 21.0175 22.4665 23.4714 24.7357 25.2094C27.0042 26.9468 30.1057 28 33.5009 28C36.8961 28 39.9976 26.9468 42.266 25.2094C44.5353 23.4714 46.0018 21.0175 46.0018 18.25V15.9763C46.0918 15.8259 46.1298 15.6435 46.0961 15.4575C46.0795 15.3659 46.0469 15.2812 46.0018 15.2058V14.25V13.75V13V10.0852V9.75V9H46V9.91613C45.8849 4.40031 40.1463 0.25 33.5009 0.25ZM46 10.2543C45.9965 10.4208 45.9879 10.5861 45.9743 10.75H46V10.2543ZM44.4759 14.8172C42.3217 17.9053 38.1315 19.9204 33.5009 19.9204C28.8703 19.9204 24.68 17.9053 22.5258 14.8172C22.7072 16.8026 23.8354 18.6304 25.6478 20.0185C27.6323 21.5385 30.4063 22.5 33.5009 22.5C36.5955 22.5 39.3695 21.5385 41.354 20.0185C43.1664 18.6304 44.2945 16.8026 44.4759 14.8172ZM25.6478 24.0185C23.8756 22.6612 22.7576 20.8835 22.5393 18.949C23.1323 19.7906 23.8765 20.5513 24.7357 21.2094C27.0042 22.9468 30.1057 24 33.5009 24C36.8961 24 39.9976 22.9468 42.266 21.2094C43.1253 20.5513 43.8694 19.7906 44.4625 18.949C44.2442 20.8835 43.1262 22.6612 41.354 24.0185C39.3695 25.5385 36.5955 26.5 33.5009 26.5C30.4063 26.5 27.6323 25.5385 25.6478 24.0185ZM46 14.75H45.9857C45.9929 14.6392 45.9976 14.5279 46 14.416V14.75ZM17.5009 41.75C11.2344 41.75 6.5 45.6498 6.5 50.0852C6.5 54.5206 11.2344 58.4204 17.5009 58.4204C23.7674 58.4204 28.5018 54.5206 28.5018 50.0852C28.5018 45.6498 23.7674 41.75 17.5009 41.75ZM5 50.0852C5 44.4853 10.7877 40.25 17.5009 40.25C24.1463 40.25 29.8849 44.4003 30 49.9161V49H30.0018V49.75V50.0852V51.6054C30.3288 51.4757 30.7125 51.5912 30.9093 51.8986C31.1326 52.2475 31.0308 52.7113 30.682 52.9347L30.597 52.9891C30.4133 53.1071 30.1975 53.1348 30.0018 53.0835V53.75V54.25V57V57.75V58.25V62.25C30.0018 65.0175 28.5353 67.4714 26.266 69.2094C23.9976 70.9468 20.8961 72 17.5009 72C14.1057 72 11.0042 70.9468 8.73572 69.2094C6.4665 67.4714 5 65.0175 5 62.25V58.75H5.01603C5.00539 58.5845 5 58.4179 5 58.25V54.75H5.01603C5.00539 54.5845 5 54.4179 5 54.25V50.75H5.02743C5.00925 50.5307 5 50.309 5 50.0852ZM29.9743 50.75C29.9879 50.5861 29.9965 50.4208 30 50.2543V50.75H29.9743ZM17.5009 59.9204C22.1315 59.9204 26.3217 57.9053 28.4759 54.8172C28.2945 56.8026 27.1664 58.6304 25.354 60.0185C23.3695 61.5385 20.5955 62.5 17.5009 62.5C14.4063 62.5 11.6323 61.5385 9.64779 60.0185C7.83538 58.6304 6.70722 56.8026 6.52584 54.8172C8.68003 57.9053 12.8703 59.9204 17.5009 59.9204ZM6.5393 58.949C6.7576 60.8835 7.87558 62.6612 9.64779 64.0185C11.6323 65.5385 14.4063 66.5 17.5009 66.5C20.5955 66.5 23.3695 65.5385 25.354 64.0185C27.1262 62.6612 28.2442 60.8835 28.4625 58.949C27.8694 59.7906 27.1253 60.5513 26.266 61.2094C23.9976 62.9468 20.8961 64 17.5009 64C14.1057 64 11.0042 62.9468 8.73572 61.2094C7.87648 60.5513 7.13233 59.7906 6.5393 58.949ZM29.9857 54.75H30V54.416C29.9976 54.5279 29.9929 54.6392 29.9857 54.75ZM9.64779 68.0185C7.87558 66.6612 6.7576 64.8835 6.5393 62.949C7.13233 63.7906 7.87648 64.5513 8.73572 65.2094C11.0042 66.9468 14.1057 68 17.5009 68C20.8961 68 23.9976 66.9468 26.266 65.2094C27.1253 64.5513 27.8694 63.7906 28.4625 62.949C28.2442 64.8835 27.1262 66.6612 25.354 68.0185C23.3695 69.5385 20.5955 70.5 17.5009 70.5C14.4063 70.5 11.6323 69.5385 9.64779 68.0185ZM30 58.75H29.9857C29.9929 58.6392 29.9976 58.5279 30 58.416V58.75ZM56 35.75V39.25C56 39.7689 56.0516 40.2768 56.1503 40.771C56.1383 40.711 56.127 40.6508 56.1164 40.5903C56.0905 40.7075 56.0924 40.8326 56.1274 40.9561C56.1534 41.0477 56.1953 41.1304 56.2492 41.2022C56.7584 43.1655 58.0168 44.8928 59.7357 46.2094C62.0042 47.9468 65.1057 49 68.5009 49C71.8961 49 74.9976 47.9468 77.266 46.2094C79.5353 44.4714 81.0018 42.0175 81.0018 39.25V36.8393C81.138 36.9273 81.3037 36.9719 81.4777 36.9557L81.5784 36.9464C81.9909 36.9083 82.2943 36.543 82.2563 36.1306C82.2182 35.7181 81.8529 35.4146 81.4405 35.4527L81.3386 35.4622C81.2143 35.4738 81.0999 35.5151 81.0018 35.5784V35.25V34.75V34V31.0852V30.75V30H81V30.9161C80.8849 25.4003 75.1463 21.25 68.5009 21.25C61.7877 21.25 56 25.4853 56 31.0852C56 31.309 56.0092 31.5307 56.0274 31.75H56V35.25C56 35.4179 56.0054 35.5845 56.016 35.75H56ZM80.9743 31.75C80.9879 31.5861 80.9965 31.4208 81 31.2543V31.75H80.9743ZM68.5009 40.9204C73.1315 40.9204 77.3217 38.9053 79.4759 35.8171C79.2945 37.8026 78.1664 39.6304 76.354 41.0185C74.3695 42.5385 71.5955 43.5 68.5009 43.5C65.4063 43.5 62.6323 42.5385 60.6478 41.0185C58.8354 39.6304 57.7072 37.8026 57.5258 35.8171C59.68 38.9053 63.8703 40.9204 68.5009 40.9204ZM57.5393 39.949C57.7576 41.8834 58.8756 43.6612 60.6478 45.0185C62.6323 46.5385 65.4063 47.5 68.5009 47.5C71.5955 47.5 74.3695 46.5385 76.354 45.0185C78.1262 43.6612 79.2442 41.8834 79.4625 39.949C78.8694 40.7906 78.1253 41.5513 77.266 42.2094C74.9976 43.9468 71.8961 45 68.5009 45C65.1057 45 62.0042 43.9468 59.7357 42.2094C58.8765 41.5513 58.1323 40.7906 57.5393 39.949ZM80.9857 35.75H81V35.416C80.9988 35.4719 80.997 35.5275 80.9947 35.5831L80.9999 35.5796V35.7499H80.9857C80.9857 35.7499 80.9857 35.75 80.9857 35.75ZM68.5009 22.75C62.2344 22.75 57.5 26.6498 57.5 31.0852C57.5 35.5206 62.2344 39.4204 68.5009 39.4204C74.7674 39.4204 79.5018 35.5206 79.5018 31.0852C79.5018 26.6498 74.7674 22.75 68.5009 22.75ZM92 62.25V58.75H92.0274C92.0092 58.5307 92 58.309 92 58.0852C92 52.4853 97.7877 48.25 104.501 48.25C111.146 48.25 116.885 52.4003 117 57.9161V57H117.002V57.75V58.0852V62.25C117.002 65.0175 115.535 67.4714 113.266 69.2094C110.998 70.9468 107.896 72 104.501 72C101.106 72 98.0042 70.9468 95.7357 69.2094C93.4665 67.4714 92 65.0175 92 62.25ZM96.6478 68.0185C94.8354 66.6304 93.7072 64.8026 93.5258 62.8171C95.68 65.9053 99.8703 67.9204 104.501 67.9204C109.131 67.9204 113.322 65.9053 115.476 62.8171C115.295 64.8026 114.166 66.6304 112.354 68.0185C110.369 69.5385 107.595 70.5 104.501 70.5C101.406 70.5 98.6323 69.5385 96.6478 68.0185ZM117 58.75H116.974C116.988 58.5861 116.997 58.4208 117 58.2543V58.75ZM104.501 49.75C98.2344 49.75 93.5 53.6498 93.5 58.0852C93.5 62.5206 98.2344 66.4204 104.501 66.4204C110.767 66.4204 115.502 62.5206 115.502 58.0852C115.502 53.6498 110.767 49.75 104.501 49.75ZM58.1709 14.2967C58.1808 14.7107 57.8531 15.0544 57.439 15.0642L57.3429 15.0666C56.9288 15.077 56.5847 14.7498 56.5742 14.3357C56.5638 13.9216 56.891 13.5775 57.3051 13.5671L57.4033 13.5647C57.8174 13.5548 58.1611 13.8826 58.1709 14.2967ZM60.6205 14.312C60.6362 13.8981 60.9845 13.5753 61.3984 13.591L61.5 13.595C61.9139 13.6114 62.2362 13.9602 62.2198 14.3741C62.2034 14.788 61.8546 15.1102 61.4407 15.0938L61.3415 15.09C60.9276 15.0742 60.6048 14.726 60.6205 14.312ZM54.1299 14.4673C54.1634 14.8802 53.8558 15.242 53.4429 15.2754L53.3468 15.2833C52.9339 15.3173 52.5717 15.0102 52.5377 14.5974C52.5037 14.1846 52.8108 13.8224 53.2236 13.7884L53.3218 13.7803C53.7346 13.7469 54.0964 14.0544 54.1299 14.4673ZM64.672 14.5532C64.7166 14.1414 65.0867 13.8437 65.4985 13.8884L65.5989 13.8994C66.0106 13.9448 66.3076 14.3153 66.2622 14.727C66.2168 15.1388 65.8462 15.4357 65.4345 15.3903L65.3368 15.3797C64.925 15.335 64.6273 14.965 64.672 14.5532ZM50.1017 14.8616C50.1564 15.2722 49.868 15.6494 49.4574 15.7042L49.3615 15.717C48.951 15.7722 48.5734 15.4842 48.5182 15.0737C48.463 14.6632 48.751 14.2856 49.1615 14.2304L49.2591 14.2173C49.6697 14.1626 50.0469 14.451 50.1017 14.8616ZM68.6899 15.0853C68.7661 14.6782 69.158 14.4099 69.5651 14.4861L69.6637 14.5047C70.0706 14.5817 70.3381 14.9741 70.2611 15.3811C70.1841 15.7881 69.7917 16.0555 69.3847 15.9785L69.2891 15.9605C68.8819 15.8843 68.6137 15.4924 68.6899 15.0853ZM72.6453 15.9324C72.7556 15.5332 73.1686 15.2988 73.5679 15.409L73.6638 15.4356C74.0628 15.5467 74.2963 15.9602 74.1852 16.3593C74.0741 16.7583 73.6606 16.9918 73.2616 16.8807L73.1687 16.855C72.7695 16.7448 72.5351 16.3317 72.6453 15.9324ZM76.5144 17.1187C76.6606 16.7311 77.0932 16.5354 77.4808 16.6816L77.5756 16.7175C77.9629 16.8645 78.1575 17.2977 78.0105 17.6849C77.8634 18.0721 77.4303 18.2668 77.0431 18.1197L76.9515 18.0851C76.564 17.9389 76.3683 17.5063 76.5144 17.1187ZM80.2618 18.6632C80.4451 18.2917 80.8948 18.1392 81.2663 18.3224L81.3564 18.367C81.7274 18.5512 81.8788 19.0013 81.6947 19.3723C81.5105 19.7433 81.0604 19.8947 80.6894 19.7106L80.6026 19.6676C80.2311 19.4844 80.0786 19.0347 80.2618 18.6632ZM83.8295 20.5669C84.0498 20.2161 84.5127 20.1102 84.8635 20.3304L84.9484 20.3839C85.2986 20.605 85.4033 21.0682 85.1822 21.4184C84.9611 21.7687 84.4979 21.8734 84.1477 21.6523L84.066 21.6009C83.7152 21.3807 83.6093 20.9177 83.8295 20.5669ZM87.1888 22.8335C87.4447 22.5078 87.9161 22.4511 88.2419 22.707L88.3211 22.7693C88.6461 23.026 88.7016 23.4976 88.4449 23.8227C88.1882 24.1478 87.7166 24.2033 87.3915 23.9466L87.3154 23.8866C86.9896 23.6308 86.933 23.1593 87.1888 22.8335ZM90.2871 25.4383C90.5759 25.1413 91.0507 25.1346 91.3477 25.4233L91.4197 25.4935C91.716 25.783 91.7214 26.2578 91.4319 26.5541C91.1424 26.8503 90.6676 26.8558 90.3713 26.5663L90.3021 26.4988C90.0051 26.2101 89.9984 25.7353 90.2871 25.4383ZM93.096 28.3547C93.4139 28.0892 93.8869 28.1316 94.1524 28.4495L94.2168 28.5269C94.4816 28.8454 94.4379 29.3183 94.1193 29.583C93.8008 29.8478 93.3279 29.8041 93.0632 29.4856L93.0011 29.4111C92.7356 29.0932 92.7781 28.6202 93.096 28.3547ZM95.5921 31.5444C95.9349 31.3118 96.4013 31.4012 96.6338 31.744L96.6903 31.8275C96.922 32.1709 96.8315 32.637 96.4882 32.8688C96.1448 33.1005 95.6787 33.0099 95.447 32.6666L95.3925 32.5861C95.1599 32.2433 95.2493 31.7769 95.5921 31.5444ZM97.762 34.9612C98.1252 34.7621 98.5811 34.8951 98.7802 35.2583L98.8283 35.3464C99.0267 35.71 98.8926 36.1656 98.529 36.3639C98.3814 36.4444 98.2187 36.4701 98.0642 36.448L98.0336 36.4469C97.6196 36.4324 97.2958 36.0851 97.3103 35.6711C97.3168 35.486 97.3898 35.3189 97.5056 35.1921C97.5698 35.0991 97.6561 35.0192 97.762 34.9612ZM93.1446 35.623C93.1449 35.2088 93.481 34.8733 93.8952 34.8736L93.9971 34.8737C94.4113 34.8744 94.7466 35.2107 94.7459 35.6249C94.7453 36.0391 94.4089 36.3744 93.9947 36.3737L93.894 36.3736C93.4798 36.3733 93.1443 36.0373 93.1446 35.623ZM89.806 34.9356C90.22 34.9228 90.566 35.2481 90.5788 35.6621C90.5915 36.0761 90.2662 36.4221 89.8522 36.4349L89.7514 36.438C89.3373 36.4511 88.9911 36.1261 88.978 35.7121C88.965 35.2981 89.29 34.9518 89.704 34.9388L89.806 34.9356ZM85.6191 35.1301C86.0326 35.1045 86.3885 35.4189 86.4141 35.8323C86.4397 36.2457 86.1253 36.6017 85.7119 36.6273L85.611 36.6336C85.1976 36.6595 84.8415 36.3454 84.8156 35.932C84.7896 35.5186 85.1037 35.1624 85.5171 35.1365L85.6191 35.1301ZM101.469 35.8648C101.498 35.4517 101.857 35.1408 102.271 35.1706L102.371 35.1779C102.785 35.208 103.095 35.5673 103.065 35.9804C103.035 36.3935 102.676 36.704 102.262 36.6739L102.163 36.6667C101.75 36.637 101.439 36.2779 101.469 35.8648ZM105.626 36.2168C105.672 35.8052 106.044 35.5092 106.455 35.5556L106.558 35.5673C106.97 35.6142 107.265 35.9858 107.218 36.3973C107.171 36.8089 106.8 37.1045 106.388 37.0576L106.287 37.0462C105.875 36.9997 105.579 36.6284 105.626 36.2168ZM109.766 36.7432C109.832 36.3341 110.216 36.0553 110.625 36.1204L110.727 36.1367C111.136 36.2023 111.414 36.587 111.348 36.996C111.283 37.405 110.898 37.6834 110.489 37.6177L110.389 37.6018C109.98 37.5367 109.701 37.1523 109.766 36.7432ZM113.871 37.4644C113.958 37.0593 114.356 36.801 114.761 36.8874L114.861 36.9087C115.266 36.9957 115.524 37.3945 115.437 37.7995C115.35 38.2045 114.951 38.4623 114.546 38.3753L114.448 38.3544C114.043 38.268 113.785 37.8695 113.871 37.4644ZM117.917 38.4073C118.028 38.0083 118.442 37.7751 118.841 37.8864L118.942 37.9147C119.341 38.0267 119.573 38.4407 119.461 38.8395C119.349 39.2383 118.935 39.4708 118.537 39.3589L118.438 39.3312C118.039 39.2199 117.806 38.8063 117.917 38.4073ZM99.6078 38.5675C99.9872 38.4013 100.43 38.5741 100.596 38.9535L100.636 39.0459C100.802 39.4256 100.628 39.8676 100.248 40.033C99.8683 40.1984 99.4263 40.0247 99.2609 39.6449L99.2218 39.5554C99.0556 39.176 99.2284 38.7337 99.6078 38.5675ZM121.919 39.6242C122.061 39.2349 122.491 39.034 122.881 39.1755L122.978 39.2109C123.367 39.3532 123.567 39.7839 123.424 40.1729C123.282 40.5619 122.851 40.7619 122.462 40.6196L122.368 40.5852C121.979 40.4437 121.778 40.0135 121.919 39.6242ZM125.779 41.1548C125.957 40.7812 126.405 40.6231 126.779 40.8019L126.824 40.8237C127.198 41.003 127.355 41.451 127.176 41.8244C126.997 42.1978 126.549 42.3553 126.175 42.176L126.132 42.155C125.758 41.9763 125.6 41.5285 125.779 41.1548ZM53.6702 41.6962C53.7963 42.0907 53.5787 42.5128 53.1841 42.6389L53.0881 42.6696C52.6936 42.796 52.2714 42.5788 52.145 42.1843C52.0185 41.7899 52.2358 41.3676 52.6303 41.2412L52.7275 41.2101C53.122 41.084 53.5441 41.3016 53.6702 41.6962ZM101.134 42.3174C101.526 42.1829 101.952 42.3915 102.087 42.7833L102.119 42.8779C102.253 43.2699 102.043 43.6961 101.651 43.8298C101.259 43.9635 100.833 43.7541 100.699 43.362L100.668 43.2702C100.533 42.8784 100.742 42.4518 101.134 42.3174ZM49.7153 43.0094C49.8554 43.3992 49.653 43.8288 49.2632 43.9689L49.1685 44.003C48.7788 44.1435 48.3491 43.9415 48.2086 43.5518C48.0681 43.1622 48.2701 42.7324 48.6598 42.5919L48.7558 42.5574C49.1455 42.4172 49.5751 42.6196 49.7153 43.0094ZM45.8114 44.4659C45.9663 44.8501 45.7804 45.2871 45.3962 45.442L45.303 45.4796C44.919 45.6348 44.4818 45.4494 44.3266 45.0654C44.1713 44.6813 44.3568 44.2442 44.7408 44.0889L44.8353 44.0508C45.2195 43.8959 45.6565 44.0818 45.8114 44.4659ZM41.9671 46.0735C42.1375 46.451 41.9697 46.8952 41.5922 47.0657L41.4997 47.1075C41.1224 47.2783 40.678 47.1109 40.5071 46.7336C40.3363 46.3563 40.5037 45.9119 40.881 45.741L40.9749 45.6986C41.3524 45.5281 41.7966 45.696 41.9671 46.0735ZM102.354 46.1786C102.755 46.0744 103.164 46.3149 103.269 46.7157L103.294 46.813C103.397 47.214 103.156 47.6231 102.755 47.7266C102.354 47.8301 101.945 47.5889 101.841 47.1878L101.817 47.0932C101.713 46.6923 101.953 46.2828 102.354 46.1786ZM38.1914 47.8418C38.3784 48.2114 38.2303 48.6626 37.8607 48.8496L37.7704 48.8954C37.401 49.0828 36.9496 48.9353 36.7622 48.5659C36.5748 48.1965 36.7223 47.7451 37.0917 47.5577L37.1836 47.5111C37.5532 47.3241 38.0044 47.4722 38.1914 47.8418ZM34.4999 49.7799C34.7044 50.1401 34.5783 50.5979 34.2182 50.8025L34.1303 50.8525C33.7703 51.0575 33.3124 50.932 33.1073 50.5721C32.9023 50.2122 33.0278 49.7542 33.3878 49.5491L33.4773 49.4982C33.8374 49.2936 34.2953 49.4197 34.4999 49.7799ZM60.9542 54.0002L61.0535 54C61.4677 53.9994 61.804 54.3347 61.8046 54.7489C61.8052 55.1631 61.4699 55.4994 61.0557 55.5L60.958 55.5002C60.5438 55.5012 60.2072 55.1663 60.2061 54.7521C60.2051 54.3379 60.54 54.0012 60.9542 54.0002ZM64.2451 54.798C64.2623 54.3842 64.6117 54.0626 65.0256 54.0798L65.1249 54.084C65.5387 54.1016 65.8599 54.4514 65.8423 54.8652C65.8246 55.2791 65.4749 55.6003 65.061 55.5826L64.9633 55.5785C64.5495 55.5613 64.2279 55.2119 64.2451 54.798ZM57.7657 54.8108C57.7844 55.2246 57.4642 55.5753 57.0504 55.594L56.9526 55.5985C56.5389 55.6177 56.1879 55.2979 56.1687 54.8841C56.1494 54.4703 56.4693 54.1193 56.8831 54.1001L56.9825 54.0956C57.3962 54.0768 57.7469 54.397 57.7657 54.8108ZM68.2789 55.0207C68.3137 54.6079 68.6766 54.3016 69.0893 54.3364L69.188 54.3448C69.6007 54.3801 69.9067 54.7433 69.8714 55.156C69.8361 55.5687 69.473 55.8747 69.0602 55.8394L68.9631 55.8311C68.5503 55.7963 68.244 55.4334 68.2789 55.0207ZM53.7338 55.0481C53.77 55.4607 53.4648 55.8245 53.0522 55.8607L52.9549 55.8693C52.5423 55.9059 52.1782 55.6011 52.1416 55.1885C52.105 54.7759 52.4098 54.4117 52.8224 54.3752L52.9212 54.3664C53.3338 54.3303 53.6977 54.6354 53.7338 55.0481ZM72.3005 55.4124C72.3519 55.0014 72.7267 54.7098 73.1377 54.7611L73.2367 54.7735C73.6477 54.8252 73.9389 55.2003 73.8872 55.6113C73.8355 56.0222 73.4604 56.3135 73.0495 56.2618L72.9518 56.2495C72.5408 56.1982 72.2492 55.8234 72.3005 55.4124ZM49.7102 55.452C49.7625 55.8629 49.4718 56.2384 49.0609 56.2907L48.9635 56.3032C48.5527 56.3559 48.1769 56.0655 48.1242 55.6546C48.0716 55.2438 48.3619 54.868 48.7728 54.8154L48.8715 54.8027C49.2824 54.7504 49.6579 55.0411 49.7102 55.452ZM76.3002 55.9595C76.3664 55.5506 76.7515 55.2727 77.1604 55.3389L77.2582 55.3548C77.667 55.4213 77.9445 55.8066 77.878 56.2155C77.8115 56.6243 77.4262 56.9018 77.0173 56.8353L76.9208 56.8196C76.5119 56.7535 76.234 56.3684 76.3002 55.9595ZM45.7141 56.007C45.7808 56.4158 45.5035 56.8013 45.0947 56.8681L44.9979 56.8839C44.5892 56.951 44.2035 56.674 44.1364 56.2652C44.0694 55.8565 44.3464 55.4707 44.7551 55.4037L44.8531 55.3877C45.2619 55.3209 45.6474 55.5982 45.7141 56.007ZM80.2874 56.6476C80.3666 56.241 80.7604 55.9757 81.167 56.0549L81.2654 56.0741C81.6719 56.1537 81.9369 56.5477 81.8574 56.9542C81.7778 57.3607 81.3838 57.6257 80.9773 57.5462L80.88 57.5272C80.4735 57.4479 80.2081 57.0541 80.2874 56.6476ZM41.7279 56.6992C41.8072 57.1057 41.542 57.4996 41.1355 57.579L41.0403 57.5976C40.6338 57.6772 40.2397 57.4123 40.1601 57.0058C40.0804 56.5993 40.3454 56.2052 40.7519 56.1256L40.8481 56.1068C41.2546 56.0274 41.6485 56.2926 41.7279 56.6992ZM84.2385 57.4548C84.3289 57.0506 84.73 56.7963 85.1342 56.8867L85.2307 56.9083C85.6348 56.999 85.8889 57.4002 85.7982 57.8044C85.7075 58.2085 85.3064 58.4626 84.9022 58.3719L84.8066 58.3505C84.4024 58.2601 84.148 57.8591 84.2385 57.4548ZM37.7765 57.5064C37.8667 57.9107 37.612 58.3115 37.2078 58.4017L37.1119 58.4231C36.7077 58.5135 36.3067 58.2591 36.2163 57.8548C36.1259 57.4506 36.3803 57.0496 36.7845 56.9592L36.8812 56.9376C37.2855 56.8475 37.6863 57.1021 37.7765 57.5064ZM88.179 58.3687C88.279 57.9667 88.6859 57.7219 89.0878 57.8218L89.1849 57.846C89.5868 57.9462 89.8315 58.3532 89.7313 58.7551C89.6311 59.157 89.2241 59.4017 88.8222 59.3015L88.7259 59.2775C88.3239 59.1776 88.0791 58.7707 88.179 58.3687ZM33.8325 58.4169C33.9318 58.8191 33.6863 59.2256 33.2842 59.3249L33.1876 59.3487C32.7855 59.4482 32.3789 59.203 32.2794 58.8009C32.1799 58.3988 32.4252 57.9922 32.8272 57.8927L32.9246 57.8686C33.3267 57.7693 33.7332 58.0148 33.8325 58.4169Z" fill="white"/>
</svg>
