<svg width="128" height="72" viewBox="0 0 128 72" fill="none" xmlns="http://www.w3.org/2000/svg">
<path d="M99.25 36C99.25 55.468 83.4681 71.25 64.0001 71.25C44.5321 71.25 28.7501 55.468 28.7501 36C28.7501 16.532 44.5321 0.75 64.0001 0.75C83.4681 0.75 99.25 16.532 99.25 36Z" stroke="white" stroke-width="1.5"/>
<mask id="mask0" mask-type="alpha" maskUnits="userSpaceOnUse" x="28" y="0" width="72" height="72">
<path d="M63.9999 72C83.8822 72 99.9999 55.8823 99.9999 36C99.9999 16.1178 83.8822 0 63.9999 0C44.1177 0 28 16.1178 28 36C28 55.8823 44.1177 72 63.9999 72Z" fill="#66A1FF"/>
</mask>
<g mask="url(#mask0)">
<path d="M48.7732 53.6627C46.4084 54.8952 44.1399 56.0184 42.0212 57.0421C39.2926 55.6009 36.4998 54.0901 33.6749 52.5594C33.0329 49.9751 32.5514 47.2615 32.2303 44.4784C34.6807 43.226 37.2274 41.8743 39.8383 40.4529C42.5669 41.9836 45.3062 43.5441 48.0455 45.1046C48.2061 48.0766 48.4522 50.9591 48.7732 53.6627Z" stroke="white" stroke-width="1.5"/>
<path d="M48.0455 26.8953C45.3169 28.4558 42.5669 30.0163 39.8383 31.547C37.2381 30.1257 34.6914 28.7739 32.2303 27.5215C32.5514 24.7384 33.0329 22.0249 33.6749 19.4405C36.4891 17.9098 39.2819 16.399 42.0212 14.9578C44.1506 15.9815 46.4084 17.1147 48.7732 18.3372C48.4522 21.0408 48.2061 23.9233 48.0455 26.8953Z" stroke="white" stroke-width="1.5"/>
<path d="M39.8383 40.453C37.2381 41.8744 34.6914 43.2262 32.2303 44.4786C29.4589 42.9479 26.6982 41.447 23.9803 40.0256C23.7877 37.3519 23.7877 34.6582 23.9803 31.9845C26.6982 30.5631 29.4589 29.0622 32.2303 27.5315C34.6807 28.7839 37.2274 30.1357 39.8383 31.5571C39.7206 34.4992 39.7206 37.501 39.8383 40.453Z" stroke="white" stroke-width="1.5"/>
<path d="M104.009 40.0156C101.291 41.437 98.53 42.9379 95.7586 44.4686C93.3082 43.2162 90.7615 41.8644 88.1506 40.443C88.2683 37.491 88.2683 34.4991 88.1506 31.547C90.7508 30.1257 93.2975 28.7739 95.7586 27.5215C98.53 29.0522 101.291 30.5531 104.009 31.9744C104.201 34.6482 104.201 37.3518 104.009 40.0156Z" stroke="white" stroke-width="1.5"/>
<path d="M63.9997 54.0305C61.4638 55.4022 59.0027 56.6943 56.6593 57.8772C54.1126 56.5552 51.4696 55.1338 48.7838 53.6627C48.4628 50.9592 48.2167 48.0767 48.0562 45.1047C50.6242 43.6833 53.2672 42.2023 55.9316 40.6716C58.6388 42.2322 61.3461 43.8026 64.0105 45.3134C63.9998 48.345 63.9997 51.2872 63.9997 54.0305Z" stroke="white" stroke-width="1.5"/>
<path d="M63.9997 26.6865C61.3353 28.2073 58.6281 29.7678 55.9209 31.3283C53.2458 29.7976 50.6135 28.3067 48.0454 26.8952C48.2059 23.9233 48.452 21.0408 48.773 18.3372C51.4695 16.8661 54.1018 15.4448 56.6485 14.1228C58.9919 15.3056 61.453 16.5978 63.989 17.9694C63.9997 20.7128 63.9997 23.6549 63.9997 26.6865Z" stroke="white" stroke-width="1.5"/>
<path d="M79.2157 53.6627C76.5192 55.1338 73.8869 56.5552 71.3402 57.8772C68.9968 56.6943 66.5357 55.4022 63.9997 54.0305C63.9997 51.2872 63.9997 48.355 63.9997 45.3134C66.6641 43.7927 69.3606 42.2322 72.0785 40.6716C74.7429 42.2023 77.3859 43.6933 79.954 45.1047C79.7828 48.0767 79.5474 50.9592 79.2157 53.6627Z" stroke="white" stroke-width="1.5"/>
<path d="M79.954 26.8952C77.3859 28.3166 74.7429 29.7976 72.0785 31.3283C69.3713 29.7678 66.6641 28.1973 63.9997 26.6865C63.9997 23.645 63.9997 20.7128 63.9997 17.9694C66.5357 16.5978 68.9968 15.3056 71.3402 14.1228C73.8869 15.4448 76.5299 16.8661 79.2157 18.3372C79.5474 21.0408 79.7828 23.9233 79.954 26.8952Z" stroke="white" stroke-width="1.5"/>
<path d="M72.0785 40.6617C69.3713 42.2222 66.6641 43.7927 63.9997 45.3035C61.3353 43.7827 58.6281 42.2222 55.9209 40.6617C55.8781 37.5704 55.8781 34.4295 55.9209 31.3283C58.6281 29.7678 61.3353 28.1973 63.9997 26.6865C66.6641 28.2073 69.3606 29.7678 72.0785 31.3283C72.1106 34.4295 72.1106 37.5704 72.0785 40.6617Z" stroke="white" stroke-width="1.5"/>
<path d="M42.0211 14.9577C39.2925 16.399 36.4997 17.9098 33.6748 19.4405C31.4919 18.3968 29.4482 17.4625 27.5542 16.6276C28.5493 14.262 29.7371 12.0454 31.1388 10.0674C33.9958 8.71563 36.7887 7.46323 39.4638 6.36987C40.8548 6.91655 42.4385 7.55269 44.204 8.3081C43.348 10.2463 42.6204 12.5026 42.0211 14.9577Z" stroke="white" stroke-width="1.5"/>
<path d="M100.445 16.6278C98.5514 17.4627 96.4969 18.397 94.3247 19.4407C91.5105 17.91 88.7177 16.3992 85.9784 14.9579C85.3685 12.4929 84.6516 10.2465 83.7955 8.29834C85.5611 7.54293 87.1555 6.90679 88.5358 6.36011C91.2109 7.46341 93.993 8.70586 96.8607 10.0577C98.2518 12.0456 99.4502 14.2621 100.445 16.6278Z" stroke="white" stroke-width="1.5"/>
<path d="M71.3402 14.1229C68.9968 15.3057 66.5357 16.5979 63.9997 17.9696C61.4637 16.5979 59.0026 15.3057 56.6592 14.1229C56.8625 11.6082 57.1087 9.34194 57.3869 7.41365C59.7303 6.37993 61.9452 5.46548 63.9997 4.69019C66.0542 5.46548 68.2692 6.37993 70.6126 7.41365C70.8908 9.35188 71.1369 11.6181 71.3402 14.1229Z" stroke="white" stroke-width="1.5"/>
<path d="M44.1934 63.692C42.4278 64.4474 40.8334 65.0835 39.4531 65.6302C36.778 64.5269 33.9959 63.2845 31.1282 61.9327C29.7264 59.9547 28.5387 57.7381 27.5435 55.3725C29.4375 54.5376 31.492 53.6032 33.6642 52.5596C36.4784 54.0903 39.2712 55.6011 42.0105 57.0424C42.6204 59.4974 43.348 61.7537 44.1934 63.692Z" stroke="white" stroke-width="1.5"/>
<path d="M33.6748 52.5595C31.492 53.6032 29.4482 54.5375 27.5542 55.3725C24.6651 53.8417 21.7439 52.2713 18.8334 50.7207C17.8917 48.3451 17.1855 45.9 16.7254 43.4349C19.0474 42.4112 21.4764 41.2681 23.991 40.0256C26.7089 41.447 29.4696 42.9479 32.241 44.4786C32.5513 47.2617 33.0328 49.9752 33.6748 52.5595Z" stroke="white" stroke-width="1.5"/>
<path d="M32.241 27.5215C29.4696 29.0522 26.7089 30.5531 23.991 31.9745C21.4764 30.732 19.0367 29.589 16.7254 28.5652C17.1962 26.1002 17.8917 23.665 18.8334 21.2794C21.7546 19.7189 24.6651 18.1485 27.5542 16.6277C29.4482 17.4626 31.5027 18.3969 33.6748 19.4406C33.0328 22.0249 32.5513 24.7384 32.241 27.5215Z" stroke="white" stroke-width="1.5"/>
<path d="M96.8607 61.9326C94.0037 63.2844 91.2109 64.5368 88.5358 65.6301C87.1448 65.0835 85.5611 64.4473 83.7955 63.6919C84.6409 61.7537 85.3685 59.4974 85.9784 57.0323C88.707 55.5911 91.4998 54.0803 94.3247 52.5496C96.5076 53.5932 98.5514 54.5275 100.445 55.3625C99.4502 57.7381 98.2518 59.9546 96.8607 61.9326Z" stroke="white" stroke-width="1.5"/>
<path d="M70.6126 64.5764C68.2692 65.6101 66.0542 66.5246 63.9997 67.2999C61.9452 66.5246 59.7303 65.6101 57.3869 64.5764C57.098 62.6481 56.8625 60.3819 56.6592 57.8672C59.0026 56.6843 61.4637 55.3922 63.9997 54.0205C66.5357 55.3922 68.9968 56.6843 71.3402 57.8672C71.1369 60.3819 70.8908 62.6481 70.6126 64.5764Z" stroke="white" stroke-width="1.5"/>
<path d="M83.7956 63.6919C81.1847 64.8846 78.6701 65.9581 76.3053 66.8825C74.5825 66.2364 72.6778 65.4611 70.6127 64.5765C70.9016 62.6482 71.137 60.382 71.3403 57.8672C73.887 56.5453 76.53 55.1239 79.2158 53.6528C81.5806 54.8853 83.8491 56.0085 85.9678 57.0323C85.3685 59.4973 84.6409 61.7536 83.7956 63.6919Z" stroke="white" stroke-width="1.5"/>
<path d="M57.387 64.5765C55.3218 65.4611 53.4172 66.2364 51.6944 66.8825C49.3189 65.9581 46.815 64.8846 44.2041 63.6919C43.3588 61.7536 42.6312 59.4973 42.0212 57.0323C44.1506 56.0085 46.4084 54.8853 48.7732 53.6528C51.4697 55.1239 54.102 56.5453 56.6487 57.8672C56.852 60.382 57.0981 62.6482 57.387 64.5765Z" stroke="white" stroke-width="1.5"/>
<path d="M85.9784 14.9579C83.8491 15.9816 81.5913 17.1148 79.2265 18.3373C76.53 16.8663 73.8977 15.4449 71.351 14.1229C71.1477 11.6082 70.9016 9.34196 70.6234 7.41366C72.6885 6.52904 74.5932 5.75374 76.316 5.10767C78.6915 6.03205 81.1954 7.10553 83.8063 8.29829C84.6409 10.2465 85.3685 12.5028 85.9784 14.9579Z" stroke="white" stroke-width="1.5"/>
<path d="M56.6487 14.1229C54.102 15.4449 51.459 16.8663 48.7732 18.3373C46.4084 17.1148 44.1399 15.9816 42.0212 14.9579C42.6312 12.4928 43.3588 10.2465 44.2041 8.29829C46.815 7.10553 49.3296 6.03205 51.6944 5.10767C53.4172 5.75374 55.3218 6.52904 57.387 7.41366C57.0981 9.35189 56.852 11.6181 56.6487 14.1229Z" stroke="white" stroke-width="1.5"/>
<path d="M94.314 52.5594C91.4998 54.0901 88.707 55.6009 85.9677 57.0421C83.8383 56.0184 81.5805 54.8852 79.2157 53.6627C79.5367 50.9591 79.7828 48.0766 79.9433 45.1046C82.6719 43.5441 85.4219 41.9836 88.1505 40.4529C90.7507 41.8743 93.2974 43.226 95.7585 44.4784C95.4375 47.2615 94.956 49.9751 94.314 52.5594Z" stroke="white" stroke-width="1.5"/>
<path d="M95.7585 27.5215C93.3081 28.7739 90.7614 30.1257 88.1505 31.547C85.4219 30.0163 82.6826 28.4558 79.9433 26.8953C79.7828 23.9233 79.5367 21.0408 79.2157 18.3372C81.5805 17.1047 83.849 15.9815 85.9677 14.9578C88.6963 16.399 91.4891 17.9098 94.314 19.4405C94.956 22.0249 95.4375 24.7384 95.7585 27.5215Z" stroke="white" stroke-width="1.5"/>
<path d="M51.6944 5.11757C49.3189 6.04196 46.815 7.11544 44.2041 8.3082C42.4385 7.55278 40.8442 6.91665 39.4638 6.36997C40.7479 4.71998 42.2031 3.41789 43.8189 2.58296C46.2907 1.94682 48.6234 1.50948 50.7634 1.26099C51.566 1.26099 52.6146 1.3902 53.888 1.63869C53.0747 2.34441 52.3471 3.53717 51.6944 5.11757Z" stroke="white" stroke-width="1.5"/>
<path d="M63.9997 4.70009C61.9452 5.47538 59.7302 6.38983 57.3868 7.42355C55.3217 6.53892 53.417 5.76363 51.6942 5.11755C52.3469 3.53715 53.0746 2.34439 53.8878 1.63867C55.9744 1.18145 57.8897 0.893202 59.5804 0.773926C60.8324 0.813684 62.309 0.992598 63.9997 1.32061C63.9997 1.98656 63.9997 3.1495 63.9997 4.70009Z" stroke="white" stroke-width="1.5"/>
<path d="M76.3052 5.11738C74.5824 5.76345 72.6777 6.53875 70.6125 7.42338C68.2692 6.38965 66.0542 5.4752 63.9997 4.69991C63.9997 3.14933 63.9997 1.98639 63.9997 1.33037C65.6904 1.00236 67.167 0.82345 68.419 0.783691C70.1096 0.902967 72.025 1.19122 74.1116 1.64844C74.9248 2.34422 75.6524 3.53697 76.3052 5.11738Z" stroke="white" stroke-width="1.5"/>
<path d="M88.5358 6.36997C87.1447 6.91665 85.5611 7.55278 83.7955 8.3082C81.1846 7.11544 78.67 6.04196 76.3052 5.11757C75.6525 3.53717 74.9249 2.34441 74.1116 1.63869C75.385 1.3902 76.4443 1.27093 77.2361 1.26099C79.3762 1.50948 81.6982 1.94682 84.1807 2.57302C85.7965 3.41789 87.2517 4.71998 88.5358 6.36997Z" stroke="white" stroke-width="1.5"/>
<path d="M53.888 70.3615C52.6146 70.61 51.5553 70.7292 50.7634 70.7392C48.6234 70.4907 46.3014 70.0533 43.8189 69.4271C42.2031 68.5922 40.7479 67.2802 39.4638 65.6401C40.8549 65.0935 42.4385 64.4573 44.2041 63.7019C46.815 64.8947 49.3296 65.9681 51.6944 66.8925C52.3471 68.463 53.0747 69.6558 53.888 70.3615Z" stroke="white" stroke-width="1.5"/>
<path d="M63.9997 70.6696C62.309 70.9976 60.8324 71.1865 59.5804 71.2163C57.8897 71.097 55.9744 70.8087 53.8878 70.3515C53.0746 69.6458 52.3469 68.4531 51.6942 66.8726C53.417 66.2266 55.3217 65.4513 57.3868 64.5667C59.7302 65.6004 61.9452 66.5148 63.9997 67.2901C63.9997 68.8506 63.9997 70.0136 63.9997 70.6696Z" stroke="white" stroke-width="1.5"/>
<path d="M74.1116 70.3614C72.025 70.8186 70.1096 71.1068 68.419 71.2261C67.167 71.1864 65.6904 71.0074 63.9997 70.6794C63.9997 70.0135 63.9997 68.8605 63.9997 67.3099C66.0542 66.5346 68.2692 65.6201 70.6125 64.5864C72.6777 65.4711 74.5824 66.2463 76.3052 66.8924C75.6524 68.4629 74.9248 69.6556 74.1116 70.3614Z" stroke="white" stroke-width="1.5"/>
<path d="M84.1807 69.4271C81.6982 70.0533 79.3762 70.4906 77.2361 70.7391C76.4336 70.7391 75.385 70.6099 74.1116 70.3614C74.9249 69.6557 75.6525 68.4629 76.3052 66.8825C78.6807 65.9581 81.1846 64.8847 83.7955 63.6919C85.5611 64.4473 87.1554 65.0834 88.5358 65.6301C87.2517 67.2801 85.7965 68.5822 84.1807 69.4271Z" stroke="white" stroke-width="1.5"/>
<path d="M109.166 50.7107C106.245 52.2712 103.334 53.8417 100.445 55.3624C98.5514 54.5275 96.4969 53.5932 94.3247 52.5495C94.9667 49.9652 95.4482 47.2517 95.7693 44.4686C98.5407 42.9379 101.301 41.437 104.019 40.0156C106.534 41.2581 108.974 42.4011 111.285 43.4249C110.814 45.89 110.108 48.3351 109.166 50.7107Z" stroke="white" stroke-width="1.5"/>
<path d="M111.274 28.5652C108.952 29.589 106.523 30.732 104.009 31.9745C101.291 30.5531 98.53 29.0522 95.7586 27.5215C95.4376 24.7384 94.9561 22.0249 94.314 19.4406C96.4969 18.3969 98.5407 17.4626 100.435 16.6277C103.324 18.1584 106.245 19.7289 109.155 21.2794C110.108 23.665 110.814 26.1101 111.274 28.5652Z" stroke="white" stroke-width="1.5"/>
</g>
</svg>
