<svg width="83" height="90" viewBox="0 0 83 90" fill="none" xmlns="http://www.w3.org/2000/svg">
<path d="M32.9155 37.755C30.212 37.755 28.0777 40.005 28.0777 42.75C28.0777 45.495 30.2595 47.745 32.9155 47.745C35.6189 47.745 37.7532 45.495 37.7532 42.75C37.8006 40.005 35.6189 37.755 32.9155 37.755ZM50.2269 37.755C47.5235 37.755 45.3892 40.005 45.3892 42.75C45.3892 45.495 47.5709 47.745 50.2269 47.745C52.9303 47.745 55.0646 45.495 55.0646 42.75C55.0646 40.005 52.9303 37.755 50.2269 37.755Z" fill="#7289DA"/>
<path d="M73.2775 0H9.72286C4.36343 0 0 4.14 0 9.27V70.11C0 75.24 4.36343 79.38 9.72286 79.38H63.5065L60.9931 71.0546L67.064 76.41L72.8025 81.45L83 90V9.27C83 4.14 78.6366 0 73.2775 0ZM54.9697 58.77C54.9697 58.77 53.2623 56.835 51.8394 55.125C58.0526 53.46 60.424 49.77 60.424 49.77C58.4794 50.985 56.6297 51.84 54.9697 52.425C52.5983 53.37 50.3217 54 48.0926 54.36C43.5394 55.17 39.3657 54.945 35.8086 54.315C33.1051 53.82 30.7811 53.1 28.8366 52.38C27.7457 51.975 26.56 51.48 25.3743 50.85C25.232 50.76 25.0897 50.715 24.9474 50.625C24.8526 50.58 24.8051 50.535 24.7577 50.49C23.904 50.04 23.4297 49.725 23.4297 49.725C23.4297 49.725 25.7063 53.325 31.7297 55.035C30.3069 56.745 28.552 58.77 28.552 58.77C18.0703 58.455 14.0863 51.93 14.0863 51.93C14.0863 37.44 20.916 25.695 20.916 25.695C27.7457 20.835 34.2434 20.97 34.2434 20.97L34.7177 21.51C26.1806 23.85 22.244 27.405 22.244 27.405C22.244 27.405 23.2874 26.865 25.0423 26.1C30.1171 23.985 34.1486 23.4 35.8086 23.265C36.0931 23.22 36.3303 23.175 36.6149 23.175C39.508 22.815 42.7806 22.725 46.1954 23.085C50.7011 23.58 55.5389 24.84 60.4714 27.405C60.4714 27.405 56.7246 24.03 48.6617 21.69L49.3257 20.97C49.3257 20.97 55.8234 20.835 62.6535 25.695C62.6535 25.695 69.4832 37.44 69.4832 51.93C69.4832 51.93 65.4514 58.455 54.9697 58.77Z" fill="#7289DA"/>
</svg>
