<?xml version="1.0" encoding="UTF-8"?>
<svg width="92px" height="83px" viewBox="0 0 92 83" version="1.1" xmlns="http://www.w3.org/2000/svg" xmlns:xlink="http://www.w3.org/1999/xlink">
    <!-- Generator: Sketch 52.5 (67469) - http://www.bohemiancoding.com/sketch -->
    <title>Group 12</title>
    <desc>Created with Sketch.</desc>
    <g id="/SDK-(NEW)" stroke="none" stroke-width="1" fill="none" fill-rule="evenodd">
        <g id="Cosmos_website_SDK_1920px" transform="translate(-1469.000000, -6514.000000)" stroke="#3147F2">
            <g id="Call-outs" transform="translate(231.000000, 6513.000000)">
                <g id="Group-12" transform="translate(1239.000000, 2.000000)">
                    <path d="M82.9034361,58.4048789 L89,78.8949657 L64.7588544,76.2020906 C63.6443666,76.7573608 62.4943899,77.2749374 61.3088325,77.7548203 C55.9714219,79.9169654 50.0754939,81 43.6210485,81 C37.1666031,81 31.2727748,79.9365856 25.9353642,77.8117188 C20.5958539,75.686852 16.0122318,72.7948358 12.1886973,69.1415561 C8.36306312,65.4863143 5.37940439,61.1993024 3.22512301,56.2746342 C1.075041,51.3499661 0,46.1309951 0,40.6137971 C0,35.0926751 1.075041,29.8717421 3.22512301,24.9490359 C5.37940439,20.0263298 8.40295722,15.7196977 12.3083796,12.0271776 C16.2117023,8.33465749 20.8331188,5.40928689 26.1726291,3.24714175 C31.5121394,1.08303459 37.4080674,0 43.8625128,0 C50.3148585,0 56.2107865,1.06537642 61.5481971,3.19024319 C66.8898071,5.31510997 71.4692298,8.20516423 75.2927643,11.860406 C79.1183985,15.5156477 82.1083563,19.8046216 84.2563386,24.7253658 C86.4064206,29.6500339 87.4835613,34.8690049 87.4835613,40.3881649 C87.4835613,44.0676049 86.4078204,49.2885379 84.2563386,56.0509641 C83.7978771,56.8681583 83.3469096,57.6527966 82.9034361,58.4048789 Z" id="Combined-Shape" stroke-width="2"></path>
                    <path d="M13.5,25.5 L13.5,26.5 L74.5,26.5 L74.5,25.5 L13.5,25.5 Z" id="Rectangle-2" fill="#3147F2"></path>
                    <path d="M13.5,29.5 L13.5,30.5 L42.5,30.5 L42.5,29.5 L13.5,29.5 Z" id="Rectangle-2-Copy-2" fill="#3147F2"></path>
                    <path d="M13.5,46.5 L13.5,47.5 L42.5,47.5 L42.5,46.5 L13.5,46.5 Z" id="Rectangle-2-Copy-3" fill="#3147F2"></path>
                    <path d="M13.5,41.5 L13.5,42.5 L74.5,42.5 L74.5,41.5 L13.5,41.5 Z" id="Rectangle-2-Copy" fill="#3147F2"></path>
                </g>
            </g>
        </g>
    </g>
</svg>