<svg width="128" height="72" viewBox="0 0 128 72" fill="none" xmlns="http://www.w3.org/2000/svg">
<path d="M61.2941 14.5V13.75H60.7968L60.6032 14.2081L61.2941 14.5ZM66.1 14.5V15.25H66.3991L66.6161 15.0442L66.1 14.5ZM69 11.75L69.5068 11.1971L68.9913 10.7246L68.4839 11.2058L69 11.75ZM72 14.5L71.4932 15.0529L72 15.5174L72.5068 15.0529L72 14.5ZM75 11.75L75.5068 11.1971L75 10.7326L74.4932 11.1971L75 11.75ZM78 14.5L77.4932 15.0529L77.8588 15.388L78.3104 15.1828L78 14.5ZM83.5 12L83.8104 12.6828L84.25 12.4829V12H83.5ZM83.5 7.5H84.25V6.75H83.5V7.5ZM61.2941 7.5L60.6032 7.7919L60.7968 8.25H61.2941V7.5ZM60.6032 14.2081C59.3509 17.1722 56.4172 19.25 53 19.25V20.75C57.0411 20.75 60.5063 18.2917 61.985 14.7919L60.6032 14.2081ZM66.1 13.75H61.2941V15.25H66.1V13.75ZM68.4839 11.2058L65.5839 13.9558L66.6161 15.0442L69.5161 12.2942L68.4839 11.2058ZM72.5068 13.9471L69.5068 11.1971L68.4932 12.3029L71.4932 15.0529L72.5068 13.9471ZM74.4932 11.1971L71.4932 13.9471L72.5068 15.0529L75.5068 12.3029L74.4932 11.1971ZM78.5068 13.9471L75.5068 11.1971L74.4932 12.3029L77.4932 15.0529L78.5068 13.9471ZM83.1896 11.3172L77.6896 13.8172L78.3104 15.1828L83.8104 12.6828L83.1896 11.3172ZM82.75 7.5V12H84.25V7.5H82.75ZM61.2941 8.25L83.5 8.25V6.75L61.2941 6.75V8.25ZM53 2.75C56.4172 2.75 59.3509 4.82779 60.6032 7.7919L61.985 7.2081C60.5063 3.70832 57.0411 1.25 53 1.25V2.75ZM44.75 11C44.75 6.44365 48.4437 2.75 53 2.75V1.25C47.6152 1.25 43.25 5.61522 43.25 11H44.75ZM53 19.25C48.4437 19.25 44.75 15.5563 44.75 11H43.25C43.25 16.3848 47.6152 20.75 53 20.75V19.25ZM47.25 11C47.25 12.5188 48.4812 13.75 50 13.75V12.25C49.3096 12.25 48.75 11.6904 48.75 11H47.25ZM50 8.25C48.4812 8.25 47.25 9.48122 47.25 11H48.75C48.75 10.3096 49.3096 9.75 50 9.75V8.25ZM52.75 11C52.75 9.48122 51.5188 8.25 50 8.25V9.75C50.6904 9.75 51.25 10.3096 51.25 11H52.75ZM50 13.75C51.5188 13.75 52.75 12.5188 52.75 11H51.25C51.25 11.6904 50.6904 12.25 50 12.25V13.75Z" fill="#66A1FF"/>
<path d="M41.6023 43.1026V25.2564M36.6016 42.6923V28.5385M36.6016 28.5385C36.6016 28.5385 36.6016 26.2821 34.1012 26.2821C31.6009 26.2821 31.6009 28.5385 31.6009 28.5385L31.6009 44.3526M36.6016 28.5385V25.2564C36.6016 25.2564 36.6016 23 39.102 23C41.6023 23 41.6023 25.2564 41.6023 25.2564M41.6023 25.2564V27.3077C41.6023 27.3077 41.6023 25.0513 44.1027 25.0513C46.6031 25.0513 46.6031 27.3077 46.6031 27.3077V45.5C49.611 48.625 51.1871 45.1875 53.7088 43.9375C56.2305 42.6875 58.7523 43.3125 59.698 44.5625C60.6436 45.8125 59.0675 47.4103 59.0675 47.4103C59.0675 47.4103 55.6001 48.625 53.7088 50.8125C51.8175 53 52.5149 53.875 49.6779 57C47.0773 59.8647 46.5 59.5 46.5 62V70.5H30.5V60.5673C30.5 58.516 27.8503 55.8397 27.2252 54.1987C26.7251 52.8859 26.6001 48.4359 26.6001 47.4103C26.6001 49.8718 26.6001 35.9519 26.6001 35.9519C26.6001 35.9519 26.6001 33.6955 29.1005 33.6955C31.6009 33.6955 31.6009 35.9519 31.6009 35.9519" stroke="#66A1FF" stroke-width="1.5"/>
<path d="M86.3978 43.1026V25.2564M91.3985 42.6923V28.5385M91.3985 28.5385C91.3985 28.5385 91.3985 26.2821 93.8989 26.2821C96.3993 26.2821 96.3993 28.5385 96.3993 28.5385V44.3526M91.3985 28.5385V25.2564C91.3985 25.2564 91.3985 23 88.8982 23C86.3978 23 86.3978 25.2564 86.3978 25.2564M86.3978 25.2564V27.3077C86.3978 27.3077 86.3978 25.0513 83.8974 25.0513C81.3971 25.0513 81.3971 27.3077 81.3971 27.3077V45.5C78.3892 48.625 76.813 45.1875 74.2913 43.9375C71.7696 42.6875 69.2478 43.3125 68.3022 44.5625C67.3565 45.8125 68.9326 47.4103 68.9326 47.4103C68.9326 47.4103 72.4 48.625 74.2913 50.8125C76.1826 53 75.4852 53.875 78.3222 57C80.9229 59.8647 81.5001 59.5 81.5001 62V70.5H97.5001V60.5673C97.5001 58.516 100.15 55.8397 100.775 54.1987C101.275 52.8859 101.4 48.4359 101.4 47.4103C101.4 49.8718 101.4 35.9519 101.4 35.9519C101.4 35.9519 101.4 33.6955 98.8996 33.6955C96.3993 33.6955 96.3993 35.9519 96.3993 35.9519" stroke="#66A1FF" stroke-width="1.5"/>
</svg>
