<svg width="90" height="90" viewBox="0 0 90 90" fill="none" xmlns="http://www.w3.org/2000/svg">
<path d="M37.364 38.2082C36.1907 38.3079 35.0976 38.8444 34.3009 39.7116C33.5043 40.5788 33.0623 41.7134 33.0623 42.891C33.0623 44.0685 33.5043 45.2032 34.3009 46.0704C35.0976 46.9376 36.1907 47.4741 37.364 47.5738C38.5374 47.4741 39.6305 46.9376 40.4271 46.0704C41.2238 45.2032 41.6658 44.0685 41.6658 42.891C41.6658 41.7134 41.2238 40.5788 40.4271 39.7116C39.6305 38.8444 38.5374 38.3079 37.364 38.2082ZM52.7625 38.2082C51.8194 38.1283 50.8742 38.335 50.0506 38.8013C49.227 39.2676 48.5634 39.9716 48.1465 40.8213C47.7297 41.671 47.5792 42.6268 47.7146 43.5635C47.85 44.5002 48.265 45.3741 48.9054 46.071C49.5458 46.7679 50.3816 47.2552 51.3036 47.4691C52.2255 47.6831 53.1906 47.6137 54.0724 47.27C54.9542 46.9264 55.7118 46.3245 56.2458 45.5431C56.7799 44.7618 57.0656 43.8374 57.0656 42.891C57.1151 41.6996 56.6898 40.5372 55.883 39.6592C55.0761 38.7812 53.9538 38.2593 52.7625 38.2082Z" fill="#5064FB"/>
<path d="M73.2656 2.81282H16.7344C15.6274 2.79307 14.528 2.99889 13.5032 3.41773C12.4784 3.83658 11.5495 4.45969 10.7733 5.2491C9.99702 6.03851 9.3896 6.97769 8.98804 8.00943C8.58647 9.04117 8.39916 10.1439 8.43751 11.2503V68.9066C8.41592 70.0205 8.6194 71.1274 9.03578 72.1608C9.45216 73.1943 10.0729 74.133 10.8607 74.9209C11.6485 75.7087 12.5873 76.3294 13.6207 76.7458C14.6542 77.1622 15.7611 77.3657 16.875 77.3441H64.6875L62.3391 69.4269L67.7391 74.4472L72.8438 79.1722L81.5625 87.1878V11.2503C81.6009 10.1439 81.4136 9.04117 81.012 8.00943C80.6104 6.97769 80.003 6.03851 79.2268 5.2491C78.4505 4.45969 77.5217 3.83658 76.4968 3.41773C75.472 2.99889 74.3726 2.79307 73.2656 2.81282ZM56.9813 57.9097C56.9813 57.9097 55.4625 56.0956 54.1969 54.4925C57.2549 53.7726 59.9597 51.9943 61.8328 49.4722C60.3148 50.4824 58.6873 51.3175 56.9813 51.9613C55.0187 52.799 52.9661 53.4077 50.8641 53.7753C47.2509 54.4405 43.5454 54.4262 39.9375 53.7331C37.8194 53.3187 35.7435 52.7115 33.736 51.9191C32.0482 51.2643 30.4358 50.4298 28.9266 49.43C30.732 51.8993 33.3434 53.6601 36.3094 54.4081C35.0438 56.0113 33.4828 57.9097 33.4828 57.9097C24.1594 57.6144 20.6156 51.4972 20.6156 51.4972C20.7526 42.9446 22.8298 34.5347 26.6906 26.9019C30.0882 24.2335 34.2304 22.6857 38.5453 22.4722L38.9672 22.9784C31.3734 25.1722 27.8719 28.505 27.8719 28.505C27.8719 28.505 28.8 27.9988 30.361 27.2816C33.3934 25.8973 36.6254 25.0004 39.9375 24.6238C40.1737 24.5749 40.4136 24.5467 40.6547 24.5394C43.4818 24.1711 46.3428 24.1427 49.1766 24.455C53.633 24.964 57.9468 26.3398 61.875 28.505C58.7922 25.9956 55.2117 24.1694 51.3703 23.1472L51.961 22.4722C56.2759 22.6857 60.4181 24.2335 63.8156 26.9019C67.6764 34.5347 69.7537 42.9446 69.8906 51.4972C69.8906 51.4972 66.3047 57.6144 56.9813 57.9097Z" fill="#5064FB"/>
</svg>
