<svg width="91" height="90" viewBox="0 0 91 90" fill="none" xmlns="http://www.w3.org/2000/svg">
<path d="M33 20.0005V10.0005H58V20.0005" stroke="#5064FB" stroke-width="2" stroke-miterlimit="10" stroke-linecap="square"/>
<path d="M20.5 60.0005H8V25.0005C8 22.2392 10.2387 20.0005 13 20.0005H78C80.7613 20.0005 83 22.2392 83 25.0005V60.0005H70.5" fill="white"/>
<path d="M20.5 60.0005H8V25.0005C8 22.2392 10.2387 20.0005 13 20.0005H78C80.7613 20.0005 83 22.2392 83 25.0005V60.0005H70.5" stroke="#5064FB" stroke-width="2" stroke-miterlimit="10" stroke-linecap="square"/>
<path d="M78 60.0005V75.0005C78 77.7617 75.7612 80.0005 73 80.0005H18C15.2387 80.0005 13 77.7617 13 75.0005V60.0005" fill="white"/>
<path d="M78 60.0005V75.0005C78 77.7617 75.7613 80.0005 73 80.0005H18C15.2387 80.0005 13 77.7617 13 75.0005V60.0005H78Z" stroke="#5064FB" stroke-width="2" stroke-miterlimit="10" stroke-linecap="square"/>
<path d="M26.75 20.0005V53.7505" stroke="#5064FB" stroke-width="2" stroke-miterlimit="10" stroke-linecap="square"/>
<path d="M26.75 66.2505V80.0005" stroke="#5064FB" stroke-width="2" stroke-miterlimit="10" stroke-linecap="square"/>
<path d="M64.25 20.0005V53.7505" stroke="#5064FB" stroke-width="2" stroke-miterlimit="10" stroke-linecap="square"/>
<path d="M64.25 66.2505V80.0005" stroke="#5064FB" stroke-width="2" stroke-miterlimit="10" stroke-linecap="square"/>
<path d="M33 60.0005H58" stroke="#5064FB" stroke-width="2" stroke-miterlimit="10" stroke-linecap="square"/>
<path d="M33 53.7505H20.5V66.2505H33V53.7505Z" fill="white" stroke="#5064FB" stroke-width="2" stroke-miterlimit="10" stroke-linecap="square"/>
<path d="M70.5 53.7505H58V66.2505H70.5V53.7505Z" fill="white" stroke="#5064FB" stroke-width="2" stroke-miterlimit="10" stroke-linecap="square"/>
<path fill-rule="evenodd" clip-rule="evenodd" d="M47.7482 36.2175L41.7898 42.168C41.713 42.0191 41.6436 41.864 41.5815 41.7031C41.3734 41.1624 41.2694 40.5888 41.2694 39.9829C41.2694 39.3766 41.3734 38.8032 41.5815 38.2626C41.7898 37.7217 42.0784 37.2524 42.4473 36.8542C42.8163 36.4561 43.2597 36.1413 43.7773 35.9094C44.2951 35.6778 44.8632 35.5619 45.4819 35.5619C46.1009 35.5619 46.6722 35.6807 47.1955 35.9186C47.3901 36.0068 47.5744 36.1064 47.7482 36.2175ZM47.2225 44.0918C46.7047 44.3236 46.1365 44.4393 45.5178 44.4393C44.8988 44.4393 44.3276 44.3205 43.804 44.0829C43.6096 43.9944 43.4254 43.8948 43.2517 43.7834L49.2099 37.8335C49.2867 37.9821 49.3561 38.137 49.4182 38.2982C49.6263 38.8388 49.7303 39.4124 49.7303 40.0185C49.7303 40.6246 49.6263 41.198 49.4182 41.7389C49.2099 42.2795 48.9214 42.7488 48.5524 43.1468C48.1834 43.5449 47.7403 43.8599 47.2225 44.0918ZM48.1239 45.9366C48.9214 45.5919 49.6116 45.1256 50.1947 44.537C50.7778 43.949 51.2298 43.2626 51.5511 42.4783C51.8726 41.694 52.0333 40.8621 52.0333 39.9828C52.0333 39.1032 51.8726 38.2713 51.5511 37.4868C51.3606 37.0216 51.126 36.5921 50.8476 36.1979L54.723 32.3279L53.1831 30.79L49.2959 34.6719C48.9469 34.4342 48.5681 34.2288 48.1596 34.0554C47.3622 33.7168 46.4817 33.5472 45.5178 33.5472C44.5537 33.5472 43.6732 33.7197 42.8758 34.0643C42.0784 34.409 41.3881 34.8753 40.805 35.4636C40.222 36.0519 39.7697 36.7383 39.4484 37.5226C39.1271 38.3069 38.9664 39.1388 38.9664 40.0184C38.9664 40.8977 39.1271 41.7293 39.4484 42.5139C39.6391 42.9793 39.8737 43.4088 40.1521 43.8033L36.277 47.6728L37.8169 49.2106L41.7038 45.329C42.0528 45.5667 42.4317 45.7721 42.8401 45.9455C43.6376 46.2841 44.5181 46.4534 45.4819 46.4534C46.446 46.4534 47.3265 46.281 48.1239 45.9366Z" fill="#5064FB"/>
</svg>
