<?xml version="1.0" encoding="UTF-8"?>
<svg width="75px" height="84px" viewBox="0 0 75 84" version="1.1" xmlns="http://www.w3.org/2000/svg" xmlns:xlink="http://www.w3.org/1999/xlink">
    <!-- Generator: Sketch 52.5 (67469) - http://www.bohemiancoding.com/sketch -->
    <title>documents</title>
    <desc>Created with Sketch.</desc>
    <g id="/SDK-(NEW)" stroke="none" stroke-width="1" fill="none" fill-rule="evenodd">
        <g id="Cosmos_website_SDK_1920px" transform="translate(-359.000000, -6513.000000)">
            <g id="Call-outs" transform="translate(231.000000, 6513.000000)">
                <g id="documents" transform="translate(128.000000, 0.000000)">
                    <path d="M1.38265306,6.2972973 L1.38265306,83 L69.7908163,83 L69.7908163,6.2972973 L1.38265306,6.2972973 Z" id="Rectangle-3" stroke="#3147F2" stroke-width="2" fill="#FFFFFF"></path>
                    <path d="M5.20918367,1 L5.20918367,77.7027027 L73.6173469,77.7027027 L73.6173469,1 L5.20918367,1 Z" id="Rectangle-3-Copy" stroke="#3147F2" stroke-width="2" fill="#FFFFFF"></path>
                    <g id="atom" transform="translate(14.923469, 19.675676)">
                        <g id="Group-17">
                            <path d="M39.0993908,12.2948065 C38.1033681,9.88932593 36.7169201,7.79268295 34.9439413,6.00583671 C33.1699889,4.21899047 31.0465037,2.80620222 28.569591,1.76747195 C26.0946256,0.728741692 23.3606748,0.207937877 20.3687123,0.207937877 C17.3757761,0.207937877 14.6418253,0.7373738 12.1658863,1.79528652 C9.68994722,2.85224012 7.54698936,4.28229259 5.73701268,6.08736217 C3.92606237,7.89243174 2.52403633,9.99770684 1.52509277,12.4041466 C0.528096477,14.8105863 0.0295983276,17.3628127 0.0295983276,20.061785 C0.0295983276,22.758839 0.528096477,25.3101063 1.52509277,27.7175052 C2.52403633,30.124904 3.90853705,32.2205879 5.68151582,34.0074341 C7.45449459,35.7933212 9.57992712,37.2070686 12.0558662,38.2457989 C14.5308316,39.2845291 17.2638087,39.8043738 20.2567449,39.8043738 C23.2496811,39.8043738 25.9836318,39.2749379 28.4585973,38.2179843 C30.9355099,37.1610307 33.0774942,35.7300191 34.8884445,33.9249495 C36.6984212,32.11988 38.1033681,30.0146049 39.0993908,27.6081651 C40.0963871,25.2017254 40.5958588,22.649499 40.5958588,19.9514858 C40.5958588,17.2534727 40.0963871,14.7022054 39.0993908,12.2948065" id="Fill-1" fill="#FFFFFF"></path>
                            <path d="M42.8562364,12.2948065 C41.8602137,9.88932593 40.4737657,7.79268295 38.6998133,6.00583671 C36.9268346,4.21899047 34.8033493,2.80620222 32.3264366,1.76747195 C29.8514712,0.728741692 27.1175204,0.207937877 24.1255579,0.207937877 C21.1326217,0.207937877 18.3986709,0.7373738 15.9227319,1.79528652 C13.4467928,2.85224012 11.303835,4.28229259 9.4938583,6.08736217 C7.682908,7.89243174 6.28088195,9.99770684 5.2819384,12.4041466 C4.2849421,14.8105863 3.78644395,17.3628127 3.78644395,20.061785 C3.78644395,22.758839 4.2849421,25.3101063 5.2819384,27.7175052 C6.28088195,30.124904 7.66440904,32.2205879 9.43836144,34.0074341 C11.2113402,35.7933212 13.3367727,37.2070686 15.8127118,38.2457989 C18.2876772,39.2845291 21.0206544,39.8043738 24.0135905,39.8043738 C27.0065267,39.8043738 29.7404775,39.2749379 32.2154429,38.2179843 C34.6923556,37.1610307 36.8343398,35.7300191 38.6452901,33.9249495 C40.4552668,32.11988 41.8602137,30.0146049 42.8562364,27.6081651 C43.8532327,25.2017254 44.3527045,22.649499 44.3527045,19.9514858 C44.3527045,17.2534727 43.8532327,14.7022054 42.8562364,12.2948065 Z" id="Stroke-7" stroke="#3147F2" stroke-width="2"></path>
                            <path d="M24.4598048,5.45357366 C26.299964,5.45357366 27.7915639,12.0619315 27.7915639,20.2135183 C27.7915639,28.365105 26.299964,34.9725037 24.4598048,34.9725037 C22.6196456,34.9725037 21.1290193,28.365105 21.1290193,20.2135183 C21.1290193,12.0619315 22.6196456,5.45357366 24.4598048,5.45357366 Z" id="Stroke-9" stroke="#3147F2" stroke-width="2"></path>
                            <path d="M37.4430528,12.8333541 C38.3631324,14.4024794 33.296366,18.9774964 26.125587,23.0528102 C18.9548079,27.1290832 12.3964417,29.1614649 11.4763621,27.5932987 C10.5562825,26.0241734 15.6230488,21.4481974 22.7938279,17.3719244 C29.9646069,13.2966106 36.5229732,11.2642288 37.4430528,12.8333541 Z" id="Stroke-11" stroke="#3147F2" stroke-width="2"></path>
                            <path d="M37.4430528,27.593011 C36.5229732,29.1621363 29.9646069,27.1297546 22.7938279,23.0534816 C15.6230488,18.9781678 10.5562825,14.4021917 11.4763621,12.8330664 C12.3964417,11.2649002 18.9548079,13.2972819 26.125587,17.3725958 C33.296366,21.4488687 38.3631324,26.0238857 37.4430528,27.593011 Z" id="Stroke-13" stroke="#3147F2" stroke-width="2"></path>
                            <path d="M14.3284141,16.3532398 C14.9106443,16.3532398 15.3828545,16.8174554 15.3828545,17.3919701 C15.3828545,17.9655257 14.9106443,18.4297412 14.3284141,18.4297412 C13.7461838,18.4297412 13.2749473,17.9655257 13.2749473,17.3919701 C13.2749473,16.8174554 13.7461838,16.3532398 14.3284141,16.3532398" id="Fill-15" fill="#3147F2"></path>
                        </g>
                        <path d="M31.8035977,12.3058968 C32.435288,12.3058968 32.947612,12.8153531 32.947612,13.4448054 C32.947612,14.0753102 32.435288,14.5847666 31.8035977,14.5847666 C31.1719075,14.5847666 30.6595834,14.0753102 30.6595834,13.4448054 C30.6595834,12.8153531 31.1719075,12.3058968 31.8035977,12.3058968" id="Fill-22" fill="#3147F2"></path>
                        <path d="M22.1938776,29.6253071 C22.8255678,29.6253071 23.3378919,30.1349989 23.3378919,30.764742 C23.3378919,31.3944851 22.8255678,31.9041769 22.1938776,31.9041769 C21.5621873,31.9041769 21.0498632,31.3944851 21.0498632,30.764742 C21.0498632,30.1349989 21.5621873,29.6253071 22.1938776,29.6253071" id="Fill-28" fill="#3147F2"></path>
                        <path d="M24.710709,18.2309582 C25.7212862,18.2309582 26.5411319,19.0465276 26.5411319,20.0540541 C26.5411319,21.060586 25.7212862,21.8771499 24.710709,21.8771499 C23.7001318,21.8771499 22.8802861,21.060586 22.8802861,20.0540541 C22.8802861,19.0465276 23.7001318,18.2309582 24.710709,18.2309582" id="Fill-34" fill="#3147F2"></path>
                    </g>
                </g>
            </g>
        </g>
    </g>
</svg>