<svg width="120" height="120" viewBox="0 0 120 120" fill="none" xmlns="http://www.w3.org/2000/svg">
<g clip-path="url(#clip0)">
<g clip-path="url(#clip1)">
<path d="M9.83848 31.0392L60 2.07846L110.162 31.0392V88.9608L60 117.922L9.83848 88.9608V31.0392Z" stroke="white" stroke-width="3.6"/>
</g>
<g clip-path="url(#clip2)">
<path fill-rule="evenodd" clip-rule="evenodd" d="M57.8644 40.5106C56.6772 40.1814 55.6 39.5848 54.7023 38.7898L38.8489 67.5833C40.0194 67.9605 41.073 68.6006 41.9397 69.4336L57.8644 40.5106ZM44.2392 73.6C44.3446 74.1171 44.3999 74.6521 44.3999 75.1999C44.3999 75.8903 44.312 76.5605 44.1468 77.2L76.053 77.2C75.8878 76.5605 75.7999 75.8903 75.7999 75.1999C75.7999 74.6521 75.8553 74.1171 75.9606 73.6H44.2392ZM65.3189 38.7708L81.3232 67.5921C80.1544 67.9735 79.103 68.6174 78.2391 69.4537L62.1629 40.5028C63.3487 40.1694 64.4238 39.569 65.3189 38.7708Z" fill="white"/>
<path fill-rule="evenodd" clip-rule="evenodd" d="M83.7355 72.0727C82.045 72.0727 80.67 73.4489 80.67 75.1405C80.67 76.8321 82.045 78.2083 83.7355 78.2083C85.426 78.2083 86.8014 76.8321 86.8014 75.1405C86.8014 73.4489 85.426 72.0727 83.7355 72.0727ZM83.7355 81.8808C80.0214 81.8808 77 78.8573 77 75.1404C77 71.4237 80.0214 68.3999 83.7355 68.3999C87.4497 68.3999 90.4714 71.4237 90.4714 75.1404C90.4714 78.8573 87.4497 81.8808 83.7355 81.8808Z" fill="white"/>
<path fill-rule="evenodd" clip-rule="evenodd" d="M59.9355 29.6727C58.245 29.6727 56.87 31.0489 56.87 32.7405C56.87 34.4321 58.245 35.8083 59.9355 35.8083C61.626 35.8083 63.0014 34.4321 63.0014 32.7405C63.0014 31.0489 61.626 29.6727 59.9355 29.6727ZM59.9355 39.4809C56.2214 39.4809 53.2 36.4574 53.2 32.7405C53.2 29.0238 56.2214 26 59.9355 26C63.6497 26 66.6714 29.0238 66.6714 32.7405C66.6714 36.4574 63.6497 39.4809 59.9355 39.4809Z" fill="white"/>
<path fill-rule="evenodd" clip-rule="evenodd" d="M36.3355 72.0727C34.645 72.0727 33.27 73.4489 33.27 75.1405C33.27 76.8321 34.645 78.2083 36.3355 78.2083C38.0261 78.2083 39.4015 76.8321 39.4015 75.1405C39.4015 73.4489 38.0261 72.0727 36.3355 72.0727ZM36.3355 81.8808C32.6214 81.8808 29.6 78.8573 29.6 75.1404C29.6 71.4237 32.6214 68.3999 36.3355 68.3999C40.0497 68.3999 43.0714 71.4237 43.0714 75.1404C43.0714 78.8573 40.0497 81.8808 36.3355 81.8808Z" fill="white"/>
</g>
</g>
<defs>
<clipPath id="clip0">
<rect width="120" height="120" fill="white"/>
</clipPath>
<clipPath id="clip1">
<rect width="120" height="120" fill="white"/>
</clipPath>
<clipPath id="clip2">
<rect width="80" height="80" fill="white" transform="translate(20 20)"/>
</clipPath>
</defs>
</svg>
