<?xml version="1.0" encoding="UTF-8"?>
<svg width="163px" height="62px" viewBox="0 0 163 62" version="1.1" xmlns="http://www.w3.org/2000/svg" xmlns:xlink="http://www.w3.org/1999/xlink">
    <!-- Generator: Sketch 52.5 (67469) - http://www.bohemiancoding.com/sketch -->
    <title>Go-Logo_White</title>
    <desc>Created with Sketch.</desc>
    <g id="/SDK-(NEW)" stroke="none" stroke-width="1" fill="none" fill-rule="evenodd">
        <g id="Cosmos_website_SDK_1920px" transform="translate(-1469.000000, -1775.000000)">
            <g id="SDk-Features" transform="translate(-1.000000, 1423.000000)">
                <g id="Go-Logo_White" transform="translate(1470.000000, 353.000000)">
                    <path d="M13.1087112,19.1238078 C12.8053691,19.1238078 12.7295336,18.9553161 12.8812046,18.7025786 L14.4737506,16.4279407 C14.6254216,16.1752031 15.0045992,16.0067114 15.3079413,16.0067114 L42.3812217,16.0067114 C42.6845638,16.0067114 42.7603993,16.259449 42.6087282,16.5121865 L41.3195244,18.7025786 C41.1678534,18.9553161 40.7886758,19.2080537 40.5611692,19.2080537 L13.1087112,19.1238078 Z" id="Path" fill="#FFFFFF"></path>
                    <path d="M0.310901217,25.6107383 C0,25.6107383 -0.0777253043,25.4376927 0.0777253043,25.1781244 L1.70995669,22.8420098 C1.8654073,22.5824415 2.25403383,22.409396 2.56493504,22.409396 L38.0076738,22.409396 C38.318575,22.409396 38.4740256,22.6689643 38.3963003,22.9285326 L37.7744979,25.0050789 C37.6967726,25.35117 37.3858714,25.5242155 37.0749702,25.5242155 L0.310901217,25.6107383 Z" id="Path" fill="#FFFFFF"></path>
                    <path d="M19.5221825,32.9962911 C19.2080537,32.9962911 19.1295215,32.7435535 19.2865859,32.490816 L20.3860368,30.3846697 C20.5431012,30.1319322 20.85723,29.8791946 21.1713588,29.8791946 L36.8778001,29.8791946 C37.1919289,29.8791946 37.3489933,30.1319322 37.3489933,30.4689156 L37.1919289,32.490816 C37.1919289,32.8277994 36.8778001,33.0805369 36.6422034,33.0805369 L19.5221825,32.9962911 Z" id="Path" fill="#FFFFFF"></path>
                    <g id="CXHf1q_2_" transform="translate(42.684564, 0.000000)" stroke="#FFFFFF" stroke-width="2">
                        <g id="Group">
                            <path d="M56.7037752,17.0847703 C51.8828064,18.3105834 48.592304,19.2299432 43.8478585,20.4557563 C42.7000088,20.7622096 42.6234855,20.8388229 41.6286824,19.6896231 C40.4808327,18.3871967 39.6390763,17.5444502 38.0320867,16.778317 C33.211118,14.4033041 28.5431959,15.092824 24.181367,17.9275168 C18.9777817,21.2985028 16.2994657,26.2783686 16.375989,32.4840475 C16.4525124,38.6131131 20.6612946,43.6695922 26.7066363,44.5123387 C31.9102217,45.2018585 36.2720505,43.3631389 39.7155996,39.4558596 C40.4043094,38.6131131 41.0164959,37.6937532 41.7817291,36.6211668 C39.0268898,36.6211668 35.5833407,36.6211668 27.0127296,36.6211668 C25.40574,36.6211668 25.0231235,35.6251936 25.5587866,34.3227672 C26.5535897,31.9477543 28.3901492,27.9638616 29.4614756,25.9719153 C29.6910456,25.5122354 30.2267088,24.7461022 31.3745585,24.7461022 C35.2772474,24.7461022 49.6636303,24.7461022 59.2290445,24.7461022 C59.0759979,26.8146618 59.0759979,28.8832215 58.7699046,30.9517811 C57.9281482,36.4679401 55.8620187,41.5244192 52.4949929,45.9679917 C46.9853144,53.2462571 39.7921229,57.766443 30.6858486,58.9922561 C23.1865639,59.9882292 16.2229424,58.5325761 10.1010774,53.935777 C4.43835217,49.6454311 1.22437301,43.9760454 0.382616567,36.92762 C-0.612186507,28.5767682 1.83655952,21.0686629 6.8870982,14.4799174 C12.3202534,7.35487868 19.5134449,2.83469282 28.3136259,1.22581311 C35.5068174,-0.0766133196 42.3939156,0.766133196 48.592304,4.97986577 C52.6480396,7.66133196 55.5559255,11.3387713 57.4690083,15.7823438 C57.9281482,16.4718637 57.6220549,16.8549303 56.7037752,17.0847703 Z" id="Path"></path>
                            <path d="M85.0329919,59.451936 C78.0693704,59.2987093 71.7179354,57.306763 66.3613034,52.7099639 C61.8464279,48.8026846 59.0150653,43.8228188 58.0967856,37.9235932 C56.7193659,29.2662881 59.0915887,21.6049561 64.295174,14.7863707 C69.8813758,7.431492 76.6154274,3.60082602 85.7217017,1.99194631 C93.5270797,0.612906557 100.873318,1.37903975 107.530846,5.89922561 C113.576188,10.0363449 117.32583,15.6291172 118.320633,22.9839959 C119.621529,33.326794 116.63712,41.7542592 109.520452,48.9559112 C104.469913,54.0890036 98.2715251,57.306763 91.1548569,58.7624161 C89.0887275,59.1454827 87.022598,59.222096 85.0329919,59.451936 Z M103.24554,28.5001549 C103.169017,27.5041817 103.169017,26.7380485 103.015971,25.9719153 C101.638551,18.3871967 94.6749294,14.0968508 87.4052146,15.7823438 C80.2885465,17.3912235 75.6971477,21.9114094 74.0136348,29.1130614 C72.6362151,35.0889004 75.544101,41.1413526 81.0537796,43.5929788 C85.2625618,45.4316985 89.471344,45.2018585 93.5270797,43.1332989 C99.5724214,39.9921528 102.862924,35.0889004 103.24554,28.5001549 Z" id="Shape" fill-rule="nonzero"></path>
                        </g>
                    </g>
                </g>
            </g>
        </g>
    </g>
</svg>