<?xml version="1.0" encoding="UTF-8"?>
<svg width="98px" height="95px" viewBox="0 0 98 95" version="1.1" xmlns="http://www.w3.org/2000/svg" xmlns:xlink="http://www.w3.org/1999/xlink">
    <!-- Generator: Sketch 52.5 (67469) - http://www.bohemiancoding.com/sketch -->
    <title>Path</title>
    <desc>Created with Sketch.</desc>
    <g id="/SDK-(NEW)" stroke="none" stroke-width="1" fill="none" fill-rule="evenodd">
        <g id="Cosmos_website_SDK_1920px" transform="translate(-721.000000, -2173.000000)" stroke="#FFFFFF" stroke-width="2">
            <path d="M770,2174 C743.534,2174 722,2195.47979 722,2221.87916 C722,2241.57544 734.378,2259.51217 752.792,2266.50851 C753.56,2266.81374 754.424,2266.76586 755.168,2266.40677 C755.912,2266.04169 756.476,2265.39532 756.722,2264.60532 L765.722,2235.93767 C766.148,2234.5791 765.56,2233.10682 764.312,2232.42454 C760.418,2230.28195 758,2226.24214 758,2221.87916 C758,2215.27782 763.382,2209.90937 770,2209.90937 C776.618,2209.90937 782,2215.27782 782,2221.87916 C782,2226.24214 779.582,2230.28195 775.688,2232.43052 C774.44,2233.1128 773.846,2234.58509 774.278,2235.94366 L783.278,2264.6113 C783.524,2265.40131 784.088,2266.04768 784.832,2266.41276 C785.246,2266.61026 785.696,2266.712 786.14,2266.712 C786.5,2266.712 786.866,2266.64617 787.208,2266.5145 C805.628,2259.51217 818,2241.57544 818,2221.87916 C818,2195.47979 796.466,2174 770,2174 Z" id="Path"></path>
        </g>
    </g>
</svg>