<?xml version="1.0" encoding="UTF-8"?>
<svg width="87px" height="84px" viewBox="0 0 87 84" version="1.1" xmlns="http://www.w3.org/2000/svg" xmlns:xlink="http://www.w3.org/1999/xlink">
    <!-- Generator: Sketch 52.5 (67469) - http://www.bohemiancoding.com/sketch -->
    <title>forum</title>
    <desc>Created with Sketch.</desc>
    <g id="/SDK-(NEW)" stroke="none" stroke-width="1" fill="none" fill-rule="evenodd">
        <g id="Cosmos_website_SDK_1920px" transform="translate(-918.000000, -6515.000000)" stroke="#3147F2">
            <g id="Call-outs" transform="translate(231.000000, 6513.000000)">
                <g id="forum" transform="translate(687.000000, 2.000000)">
                    <path d="M17.7904243,82.0356305 L31.7765593,66.890411 L32.2142646,66.890411 L84.7105263,66.890411 C85.4215195,66.890411 86,66.3089246 86,65.5890411 L86,2.30136986 C86,1.58148631 85.4215195,1 84.7105263,1 L2.28947368,1 C1.57848051,1 1,1.58148631 1,2.30136986 L1,65.5890411 C1,66.3089246 1.57848051,66.890411 2.28947368,66.890411 L13.2300553,66.890411 L17.7904243,82.0356305 Z" id="Combined-Shape" stroke-width="2"></path>
                    <path d="M11.9473684,15.7727273 L11.9473684,16.3 L75.0526316,16.3 L75.0526316,15.7727273 L11.9473684,15.7727273 Z" id="Rectangle-2" fill="#3147F2"></path>
                    <path d="M11.9473684,20.3545455 L11.9473684,20.8818182 L40.7105263,20.8818182 L40.7105263,20.3545455 L11.9473684,20.3545455 Z" id="Rectangle-2-Copy-2" fill="#3147F2"></path>
                    <path d="M11.9473684,36.3909091 L11.9473684,36.9181818 L40.7105263,36.9181818 L40.7105263,36.3909091 L11.9473684,36.3909091 Z" id="Rectangle-2-Copy-3" fill="#3147F2"></path>
                    <path d="M11.9473684,31.8090909 L11.9473684,32.3363636 L75.0526316,32.3363636 L75.0526316,31.8090909 L11.9473684,31.8090909 Z" id="Rectangle-2-Copy" fill="#3147F2"></path>
                </g>
            </g>
        </g>
    </g>
</svg>