<svg width="128" height="72" viewBox="0 0 128 72" fill="none" xmlns="http://www.w3.org/2000/svg">
<rect x="20.75" y="4.75" width="86.5" height="62.5" rx="3.25" stroke="white" stroke-width="1.5"/>
<line x1="20" y1="15.25" x2="108" y2="15.25" stroke="white" stroke-width="1.5"/>
<circle cx="26" cy="10" r="1.25" fill="#66A1FF" stroke="white" stroke-width="1.5"/>
<circle cx="31" cy="10" r="1.25" fill="#66A1FF" stroke="white" stroke-width="1.5"/>
<circle cx="36" cy="10" r="1.25" fill="#66A1FF" stroke="white" stroke-width="1.5"/>
<path d="M60.4033 57.9375L60.3354 58.75H61.1507H66.8493H67.6646L67.5967 57.9375L66.6316 46.3874L76.62 53.1649L77.2762 53.6101L77.6842 52.9302L80.6431 47.999L81.0819 47.2677L80.3006 46.926L69.1445 42.046L80.3053 37.0719L81.0863 36.7238L80.6394 35.9949L77.6805 31.1686L77.2726 30.5033L76.624 30.9374L66.6305 37.6253L67.5967 26.0625L67.6646 25.25H66.8493H61.1507H60.3354L60.4033 26.0625L61.3695 37.6253L51.376 30.9374L50.7274 30.5033L50.3195 31.1686L47.3606 35.9949L46.9137 36.7238L47.6947 37.0719L58.8555 42.046L47.6994 46.926L46.9181 47.2677L47.3569 47.999L50.3158 52.9302L50.7238 53.6101L51.38 53.1649L61.3684 46.3874L60.4033 57.9375Z" stroke="white" stroke-width="1.5"/>
</svg>
