<?xml version="1.0" encoding="UTF-8"?>
<svg width="140px" height="140px" viewBox="0 0 140 140" version="1.1" xmlns="http://www.w3.org/2000/svg" xmlns:xlink="http://www.w3.org/1999/xlink">
    <!-- Generator: Sketch 52.5 (67469) - http://www.bohemiancoding.com/sketch -->
    <title>Group 8</title>
    <desc>Created with Sketch.</desc>
    <defs>
        <linearGradient x1="72.8061361%" y1="33.2204147%" x2="118.598497%" y2="110.863054%" id="linearGradient-1">
            <stop stop-color="#4154E0" stop-opacity="0.910609149" offset="0%"></stop>
            <stop stop-color="#ABB3ED" offset="100%"></stop>
        </linearGradient>
    </defs>
    <g id="/SDK-(NEW)" stroke="none" stroke-width="1" fill="none" fill-rule="evenodd">
        <g id="Cosmos_website_SDK_1920px" transform="translate(-824.000000, -568.000000)">
            <g id="Deploy-your-blockchain" transform="translate(156.000000, 484.000000)">
                <g id="Group-8" transform="translate(668.000000, 84.000000)">
                    <circle id="Oval-Copy" fill="url(#linearGradient-1)" cx="70" cy="70" r="70"></circle>
                    <g id="modular-icon" transform="translate(25.000000, 24.000000)" stroke="#FFFFFF" stroke-width="2">
                        <polygon id="Polygon" points="17 51 31.7224319 59.5 31.7224319 76.5 17 85 2.27756814 76.5 2.27756814 59.5"></polygon>
                        <polygon id="Polygon-Copy-6" points="73 26 87.7224319 34.5 87.7224319 51.5 73 60 58.2775681 51.5 58.2775681 34.5"></polygon>
                        <polygon id="Polygon-Copy-7" points="58 0 72.7224319 8.5 72.7224319 25.5 58 34 43.2775681 25.5 43.2775681 8.5"></polygon>
                        <polygon id="Polygon-Copy-26" points="58 17 72.7224319 25.5 72.7224319 42.5 58 51 43.2775681 42.5 43.2775681 25.5"></polygon>
                        <path d="M17,51 L42.5,28" id="Line-Copy-3" stroke-linecap="round" stroke-dasharray="0,9"></path>
                        <path d="M31,77 L55,53" id="Line-Copy-4" stroke-linecap="round" stroke-dasharray="0,9"></path>
                    </g>
                </g>
            </g>
        </g>
    </g>
</svg>