<?xml version="1.0" encoding="UTF-8"?>
<svg width="140px" height="140px" viewBox="0 0 140 140" version="1.1" xmlns="http://www.w3.org/2000/svg" xmlns:xlink="http://www.w3.org/1999/xlink">
    <!-- Generator: Sketch 52.5 (67469) - http://www.bohemiancoding.com/sketch -->
    <title>3-connect</title>
    <desc>Created with Sketch.</desc>
    <defs>
        <linearGradient x1="72.8061361%" y1="33.2204147%" x2="118.598497%" y2="110.863054%" id="linearGradient-1">
            <stop stop-color="#4154E0" stop-opacity="0.910609149" offset="0%"></stop>
            <stop stop-color="#ABB3ED" offset="100%"></stop>
        </linearGradient>
    </defs>
    <g id="/SDK-(NEW)" stroke="none" stroke-width="1" fill="none" fill-rule="evenodd">
        <g id="Cosmos_website_SDK_1920px" transform="translate(-1333.000000, -687.000000)">
            <g id="3-connect" transform="translate(1333.000000, 687.000000)">
                <circle id="Oval-Copy-9" fill="url(#linearGradient-1)" cx="70" cy="70" r="70"></circle>
                <g id="Connect-icon" transform="translate(35.000000, 37.000000)" stroke="#FFFFFF" stroke-width="2">
                    <g id="Group-12-Copy-5">
                        <g id="Group-9-Copy" transform="translate(0.562500, 0.000000)">
                            <polyline id="Path-7" points="0.0625774593 8.09876543 8.40975956 8.09876543 12.8937011 0.0303901948"></polyline>
                            <path d="M8.40975956,8.04444065 L12.9375,15.9337075" id="Path-8"></path>
                        </g>
                        <polygon id="Polygon-Copy-25" points="13.7582623 0.0188266159 18 8.01882662 13.2417377 16 4.24173765 15.9811734 0 7.98117338 4.75826235 0"></polygon>
                    </g>
                    <g id="Group-12-Copy-6" transform="translate(66.000000, 8.000000)">
                        <g id="Group-9-Copy" transform="translate(0.562500, 0.000000)">
                            <polyline id="Path-7" points="0.0625774593 8.09876543 8.40975956 8.09876543 12.8937011 0.0303901948"></polyline>
                            <path d="M8.40975956,8.04444065 L12.9375,15.9337075" id="Path-8"></path>
                        </g>
                        <polygon id="Polygon-Copy-25" points="13.7582623 0.0188266159 18 8.01882662 13.2417377 16 4.24173765 15.9811734 0 7.98117338 4.75826235 0"></polygon>
                    </g>
                    <g id="Group-12-Copy-7" transform="translate(0.000000, 56.000000)">
                        <g id="Group-9-Copy" transform="translate(0.562500, 0.000000)">
                            <polyline id="Path-7" points="0.0625774593 8.09876543 8.40975956 8.09876543 12.8937011 0.0303901948"></polyline>
                            <path d="M8.40975956,8.04444065 L12.9375,15.9337075" id="Path-8"></path>
                        </g>
                        <polygon id="Polygon-Copy-25" points="13.7582623 0.0188266159 18 8.01882662 13.2417377 16 4.24173765 15.9811734 0 7.98117338 4.75826235 0"></polygon>
                    </g>
                    <g id="Group-12-Copy-8" transform="translate(42.000000, 44.000000)">
                        <g id="Group-9-Copy" transform="translate(0.562500, 0.000000)">
                            <polyline id="Path-7" points="0.0625774593 8.09876543 8.40975956 8.09876543 12.8937011 0.0303901948"></polyline>
                            <path d="M8.40975956,8.04444065 L12.9375,15.9337075" id="Path-8"></path>
                        </g>
                        <polygon id="Polygon-Copy-25" points="13.7582623 0.0188266159 18 8.01882662 13.2417377 16 4.24173765 15.9811734 0 7.98117338 4.75826235 0"></polygon>
                    </g>
                    <path d="M13,56 L13,16" id="Line-Copy-4" stroke-linecap="round" stroke-dasharray="0,9"></path>
                    <path d="M46,44 L13,16" id="Line-Copy-5" stroke-linecap="round" stroke-dasharray="0,9"></path>
                    <path d="M66,16 L18,8" id="Line-Copy-9" stroke-linecap="round" stroke-dasharray="0,9"></path>
                </g>
            </g>
        </g>
    </g>
</svg>