<?xml version="1.0" standalone="no"?>
<!DOCTYPE svg PUBLIC "-//W3C//DTD SVG 20010904//EN"
 "http://www.w3.org/TR/2001/REC-SVG-20010904/DTD/svg10.dtd">
<svg version="1.0" xmlns="http://www.w3.org/2000/svg"
 width="736.000000pt" height="736.000000pt" viewBox="0 0 736.000000 736.000000"
 preserveAspectRatio="xMidYMid meet">
<metadata>
Created by potrace 1.11, written by Peter Selinger 2001-2013
</metadata>
<g transform="translate(0.000000,736.000000) scale(0.100000,-0.100000)"
fill="#000000" stroke="none">
<path d="M6118 6742 c-323 -323 -668 -668 -767 -766 l-181 -180 -52 36 c-88
58 -148 92 -268 150 -98 47 -149 69 -275 118 -31 12 -128 40 -160 46 -16 3
-33 8 -38 11 -4 3 -38 11 -75 19 -127 27 -153 32 -217 39 -22 2 -51 7 -64 9
-105 23 -541 23 -681 1 -14 -2 -50 -7 -80 -10 -30 -4 -64 -9 -75 -11 -11 -3
-36 -7 -55 -10 -19 -3 -87 -19 -150 -36 -63 -16 -119 -31 -125 -32 -5 -2 -23
-8 -38 -14 -16 -7 -32 -12 -36 -12 -35 0 -348 -147 -470 -220 -130 -80 -159
-98 -185 -122 -11 -10 -26 -18 -33 -18 -7 0 -13 -4 -13 -8 0 -5 -20 -23 -45
-41 -80 -57 -277 -245 -355 -337 -76 -90 -220 -287 -220 -301 0 -3 -11 -21
-26 -40 -14 -18 -22 -33 -19 -33 4 0 -2 -12 -13 -28 -33 -45 -148 -288 -156
-327 -1 -5 -5 -15 -8 -21 -37 -59 -126 -409 -144 -569 -2 -22 -7 -53 -10 -70
-10 -52 -12 -477 -3 -550 18 -146 20 -161 26 -195 3 -19 8 -44 10 -55 2 -11 6
-31 9 -45 2 -14 7 -36 11 -50 3 -14 7 -32 9 -40 6 -34 72 -244 89 -285 56
-133 72 -171 112 -250 51 -102 137 -250 163 -280 10 -11 20 -27 22 -35 3 -10
-265 -284 -764 -781 l-768 -767 306 -306 306 -306 769 767 c423 423 771 770
774 771 2 2 37 -18 77 -44 173 -112 459 -240 658 -295 25 -7 50 -14 55 -15 17
-6 97 -24 150 -34 28 -5 59 -11 71 -14 52 -11 166 -24 289 -32 158 -11 450 -5
544 11 23 4 91 13 146 21 11 1 20 3 20 4 0 1 11 3 25 5 31 4 61 11 120 26 25
6 54 13 65 14 11 2 21 4 23 5 1 2 5 3 10 4 55 15 130 41 140 48 6 6 12 8 12 4
0 -4 13 0 30 9 16 8 32 15 35 15 3 0 21 7 41 15 20 8 38 15 40 15 8 0 160 74
164 80 3 4 16 11 28 15 33 10 186 102 295 177 29 20 128 96 177 136 73 60 310
302 310 316 0 2 12 17 28 33 15 17 41 50 57 74 16 24 47 68 68 97 21 28 34 52
30 52 -4 0 -3 4 3 8 23 16 141 238 186 350 7 17 16 32 19 32 3 0 6 6 6 13 1 6
19 64 41 127 100 284 137 512 137 850 0 244 -12 382 -50 558 -3 12 -7 32 -10
45 -4 18 -13 58 -21 90 -1 4 -2 8 -4 10 -1 1 -3 9 -5 17 -5 28 -87 264 -98
285 -6 11 -12 25 -13 31 -2 13 -107 223 -136 274 -29 48 -66 107 -100 157
l-29 43 771 769 770 770 -301 301 c-165 165 -306 300 -312 300 -7 -1 -276
-265 -599 -588z m-2510 -1303 c11 7 90 6 202 -2 102 -8 184 -22 275 -47 22 -6
47 -12 55 -14 45 -11 121 -40 126 -47 3 -5 12 -9 21 -9 19 0 210 -95 244 -121
l24 -19 -1175 -1174 c-646 -647 -1180 -1175 -1186 -1176 -7 0 -24 30 -40 68
-15 37 -31 72 -35 77 -7 11 -59 173 -77 240 -59 218 -71 482 -37 765 6 46 14
89 39 190 13 53 41 138 67 205 30 78 125 275 138 285 3 3 12 16 19 30 23 45
126 177 192 247 108 114 236 215 365 288 49 28 145 78 155 80 3 1 19 7 35 14
61 26 112 44 180 62 118 33 155 40 289 53 33 4 62 8 64 11 2 2 14 0 26 -5 13
-4 28 -5 34 -1z m1542 -911 c0 -6 14 -40 31 -76 37 -79 103 -276 119 -353 25
-126 26 -133 36 -239 14 -138 8 -388 -12 -470 -3 -14 -6 -32 -6 -40 0 -8 -7
-44 -15 -80 -8 -36 -17 -75 -19 -88 -7 -34 -53 -171 -70 -209 -8 -17 -14 -38
-14 -46 0 -8 -7 -20 -15 -27 -8 -7 -15 -18 -15 -25 0 -29 -110 -217 -184 -315
-83 -111 -211 -241 -296 -300 -19 -14 -39 -30 -45 -36 -18 -19 -146 -95 -234
-139 -148 -73 -293 -121 -421 -140 -20 -3 -47 -8 -60 -11 -61 -12 -340 -24
-340 -14 0 3 -30 6 -68 7 -74 2 -133 9 -202 24 -25 6 -54 12 -65 15 -12 2 -48
13 -80 24 -33 11 -67 22 -75 25 -71 19 -320 146 -320 163 0 9 2353 2361 2363
2362 4 0 7 -5 7 -12z"/>
</g>
</svg>
