<svg fill="none" height="144" viewBox="0 0 144 144" width="144" xmlns="http://www.w3.org/2000/svg"><path d="m30.01 69.6215 41.99 24.7906v-94.4121z" fill="#e6ecf2"/><path d="m72.0001 0v94.4121l41.9739-24.7906z" fill="#ccd9e6"/><path d="m30.01 77.5715 41.99 59.1145v-34.324z" fill="#8ca9c6"/><path d="m72.0001 102.362v34.324l42.0069-59.1145z" fill="#369"/><path d="m72 50.5378-41.99 19.0837 41.99 24.7906 41.973-24.7906z" fill="#004080" opacity=".25"/><g clip-rule="evenodd" fill="#3d6b99" fill-rule="evenodd"><path d="m81.7371 42.4695c-3.071-1.2123-6.3783-1.8455-9.7185-1.8455-7.0203 0-13.6237 2.7599-18.5935 7.7709-4.9483 4.989-7.6975 11.6162-7.7418 18.6606l-.0058.946.8209.4676c3.9563 2.254 8.4305 3.4398 12.9642 3.4398.1247 0 .2504-.0008.3753-.0028 3.9521-.0569 7.862-1.0085 11.4066-2.7648-1.1177-.626-2.1888-1.331-3.207-2.1082-6.1783 2.4372-13.1804 2.1367-19.1062-.9158.5764-12.3619 10.7406-22.264 23.0873-22.264 3.434 0 6.8259.7606 9.8893 2.206.0394-1.1967-.0173-2.3963-.1708-3.5898"/><path d="m98.4391 66.8502c-.094-8.7801-4.352-16.7906-11.4498-21.6703.0052 1.2848-.0803 2.5688-.256 3.8452 5.0435 4.1349 8.1182 10.2237 8.4546 16.8945-10.8793 5.6288-24.4472 1.6868-30.6275-9.0695-1.6694-2.9055-2.6929-6.1539-2.9937-9.4732-1.05.5749-2.0528 1.2363-2.9996 1.978.4993 3.1943 1.5841 6.2964 3.2031 9.1139 3.5156 6.1186 9.1678 10.5053 15.9147 12.3516 2.2891.6266 4.6165.9365 6.9311.9365 4.5097 0 8.9713-1.1766 13.0083-3.482l.8248-.4714z"/><path d="m72.9703 22.2699-.8128-.4777-.8129.477c-4.0163 2.3549-7.353 5.7313-9.6496 9.7638-1.9832 3.4826-3.1562 7.3837-3.4313 11.3657 1.0994-.6548 2.2448-1.2305 3.4291-1.7226 1.0202-6.5643 4.8302-12.497 10.4632-16.1224 10.3459 6.6651 13.7483 20.4843 7.5339 31.2765-1.6829 2.9228-3.9841 5.4498-6.7103 7.39 1.0183.6221 2.0875 1.1622 3.1985 1.6139 2.5203-2.0473 4.6658-4.5552 6.2985-7.3907 7.2557-12.6004 2.991-28.8277-9.5063-36.1735"/></g></svg>