<svg fill="none" height="144" viewBox="0 0 144 144" width="144" xmlns="http://www.w3.org/2000/svg"><path d="m15.9863 39.6605 56.0137-32.33955 56.014 32.33955v64.6795l-56.014 32.339-56.0137-32.339z" stroke="#000" stroke-opacity=".3" stroke-width="4.02"/><path d="m52.6883 86.48c5.24 0 8.44-1.92 11.36-4.96l-3.16-3.2c-2.4 2.24-4.6 3.6-8.04 3.6-5.36 0-9.24-4.44-9.24-9.92v-.08c0-5.48 3.92-9.84 9.2-9.84 3.24 0 5.6 1.36 7.88 3.44l3.16-3.64c-2.68-2.56-5.8-4.36-11-4.36-8.44 0-14.4 6.52-14.4 14.48v.08c0 8.04 6.04 14.4 14.24 14.4zm22.735-.28h4.28l6.88-20.12 6.88 20.12h4.28l9.7197-28.2h-5.16l-6.6797 20.76-6.88-20.84h-4.16l-6.88 20.84-6.68-20.76h-5.32z" fill="#000" fill-opacity=".3"/></svg>