<svg width="603" height="476" viewBox="0 0 603 476" fill="none" xmlns="http://www.w3.org/2000/svg">
<path d="M303.822 50.0659C228.481 63.0473 171.149 128.998 171.149 208.403C171.149 229.794 175.309 250.208 182.861 268.873" stroke="url(#paint0_linear)"/>
<path d="M263.356 251.634L209.624 227.764V218.481L228.198 178.035L213.604 170.742V161.459L249.426 130.295C261.841 101.93 279.526 82.5186 307.176 78.6316L319.743 239.699L263.356 251.634Z" fill="url(#paint1_linear)"/>
<path d="M488.592 199.84L318.295 237.964L300.856 13.6426C307.271 12.9048 313.794 12.5256 320.406 12.5256C413.83 12.5256 489.564 88.2247 489.564 181.604C489.564 187.765 489.235 193.849 488.592 199.84Z" fill="url(#paint2_linear)"/>
<path d="M484.5 280C484.5 280 587.093 395.834 603 476H82.9208L190.386 414.999C246.109 329.465 264.683 338.085 349.594 329.465C366.263 297.812 373.5 288.5 484.5 280Z" fill="url(#paint3_linear)"/>
<path d="M183.089 329.465C165.494 313.73 151.911 296.312 144.614 277.084L524.06 192.876C529.515 256.765 530.97 285.956 524.06 329.465H183.089Z" fill="url(#paint4_linear)"/>
<path d="M318.675 241.025L300.101 1" stroke="url(#paint5_linear)"/>
<path d="M136.653 279.073L529.366 191.55L524.723 172.068L132.01 259.591L136.653 279.073Z" stroke="url(#paint6_linear)"/>
<path d="M323.059 253.877C347.606 253.877 367.505 233.988 367.505 209.453C367.505 184.918 347.606 165.028 323.059 165.028C304.442 165.028 288.497 176.47 281.882 192.703L258.328 183.072C255.615 181.962 252.517 183.261 251.407 185.973C250.297 188.684 251.596 191.781 254.309 192.891L279.077 203.018C278.772 205.119 278.614 207.267 278.614 209.453C278.614 233.988 298.513 253.877 323.059 253.877Z" fill="url(#paint7_linear)"/>
<ellipse cx="323.06" cy="210.116" rx="31.1783" ry="30.5005" fill="url(#paint8_linear)"/>
<path d="M374.965 210.525C374.965 238.806 351.733 261.743 323.059 261.743C294.386 261.743 271.154 238.806 271.154 210.525C271.154 182.244 294.386 159.307 323.059 159.307C351.733 159.307 374.965 182.244 374.965 210.525Z" stroke="url(#paint9_linear)"/>
<path d="M98.1782 32.4172L101.978 40.5545L110.119 44.3522L101.978 48.1499L98.1782 56.2872L94.3787 48.1499L86.2375 44.3522L94.3787 40.5545L98.1782 32.4172Z" fill="url(#paint10_linear)"/>
<path d="M58.3763 77.5049L60.9093 82.9297L66.3367 85.4615L60.9093 87.9933L58.3763 93.4182L55.8433 87.9933L50.4159 85.4615L55.8433 82.9297L58.3763 77.5049Z" fill="url(#paint11_linear)"/>
<path d="M5.9703 16.5042L7.87003 20.5728L11.9406 22.4716L7.87003 24.3705L5.9703 28.4391L4.07056 24.3705L0 22.4716L4.07056 20.5728L5.9703 16.5042Z" fill="url(#paint12_linear)"/>
<path d="M159.101 432.757L190.386 414.999C198.915 401.907 214.178 379.728 220.901 370.321C237.485 347.114 344.95 396.18 314.435 442.593L295.198 476H249.841C246.109 455.855 197.683 409.441 159.101 432.757Z" fill="url(#paint13_linear)"/>
<path fill-rule="evenodd" clip-rule="evenodd" d="M249.037 403.079L233.102 406.169C233.138 405.849 233.193 405.527 233.265 405.203C233.509 404.117 233.956 403.089 234.604 402.122C235.253 401.154 236.033 400.351 236.946 399.712C237.859 399.072 238.824 398.634 239.843 398.395C240.861 398.156 241.91 398.13 242.989 398.317C244.069 398.504 245.105 398.93 246.099 399.595C247.093 400.261 247.883 401.065 248.469 402.007C248.687 402.357 248.877 402.715 249.037 403.079ZM239.769 415.082C238.69 414.896 237.653 414.469 236.66 413.804C235.666 413.138 234.875 412.334 234.288 411.392C234.071 411.042 233.882 410.685 233.722 410.32L249.656 407.23C249.62 407.55 249.566 407.872 249.493 408.196C249.249 409.283 248.803 410.31 248.154 411.278C247.506 412.245 246.725 413.048 245.813 413.688C244.9 414.327 243.934 414.766 242.916 415.004C241.898 415.243 240.849 415.269 239.769 415.082ZM239.243 418.997C240.893 419.304 242.5 419.302 244.066 418.99C245.632 418.678 247.092 418.068 248.447 417.162C249.802 416.256 250.95 415.101 251.891 413.697C252.832 412.293 253.464 410.793 253.787 409.195C253.978 408.247 254.061 407.309 254.036 406.381L264.4 404.371L263.572 400.26L253.176 402.276C252.87 401.522 252.481 400.786 252.011 400.07C251.092 398.672 249.86 397.455 248.312 396.418C246.763 395.382 245.165 394.71 243.515 394.403C241.866 394.095 240.258 394.097 238.693 394.409C237.127 394.721 235.666 395.331 234.311 396.237C232.956 397.143 231.808 398.299 230.867 399.702C229.927 401.106 229.295 402.606 228.972 404.204C228.78 405.152 228.697 406.09 228.722 407.019L218.359 409.028L219.187 413.139L229.582 411.123C229.889 411.878 230.277 412.613 230.748 413.329C231.666 414.727 232.899 415.944 234.447 416.981C235.995 418.017 237.594 418.689 239.243 418.997Z" fill="url(#paint14_linear)"/>
<defs>
<linearGradient id="paint0_linear" x1="244.728" y1="50.0659" x2="244.728" y2="268.873" gradientUnits="userSpaceOnUse">
<stop stop-color="#2374FA"/>
<stop offset="1" stop-color="#B3C9F3"/>
</linearGradient>
<linearGradient id="paint1_linear" x1="262.973" y1="78.6316" x2="262.973" y2="253.219" gradientUnits="userSpaceOnUse">
<stop stop-color="#66A1FF"/>
<stop offset="1" stop-color="#3147F2"/>
</linearGradient>
<linearGradient id="paint2_linear" x1="446" y1="140" x2="254.845" y2="31.6892" gradientUnits="userSpaceOnUse">
<stop stop-color="#4154E0" stop-opacity="0.76"/>
<stop offset="1" stop-color="#ABB3ED"/>
</linearGradient>
<linearGradient id="paint3_linear" x1="540.5" y1="458" x2="301.875" y2="185.122" gradientUnits="userSpaceOnUse">
<stop stop-color="#4154E0" stop-opacity="0"/>
<stop offset="0.433003" stop-color="#4154E0" stop-opacity="0.910609"/>
<stop offset="1" stop-color="#ABB3ED"/>
</linearGradient>
<linearGradient id="paint4_linear" x1="495" y1="350" x2="304.171" y2="92.7353" gradientUnits="userSpaceOnUse">
<stop offset="0.00737831" stop-color="#4154E0" stop-opacity="0.28"/>
<stop offset="0.30535" stop-color="#4154E0" stop-opacity="0.910609"/>
<stop offset="1" stop-color="#ABB3ED"/>
</linearGradient>
<linearGradient id="paint5_linear" x1="309.388" y1="1" x2="309.388" y2="241.025" gradientUnits="userSpaceOnUse">
<stop stop-color="#8997FF"/>
<stop offset="1" stop-color="#505EFF"/>
</linearGradient>
<linearGradient id="paint6_linear" x1="521.406" y1="191.551" x2="132.694" y2="287.779" gradientUnits="userSpaceOnUse">
<stop stop-color="#505EFF"/>
<stop offset="1" stop-color="#8997FF"/>
</linearGradient>
<linearGradient id="paint7_linear" x1="309.021" y1="229.295" x2="270.807" y2="146.346" gradientUnits="userSpaceOnUse">
<stop stop-color="#4154E0" stop-opacity="0.910609"/>
<stop offset="1" stop-color="#F2F4FF"/>
</linearGradient>
<linearGradient id="paint8_linear" x1="317.753" y1="210.116" x2="346.931" y2="232.01" gradientUnits="userSpaceOnUse">
<stop offset="0.0553744" stop-color="#D1D6FA" stop-opacity="0.910609"/>
<stop offset="1" stop-color="#98A2F0"/>
</linearGradient>
<linearGradient id="paint9_linear" x1="314.139" y1="210.525" x2="363.493" y2="247.234" gradientUnits="userSpaceOnUse">
<stop offset="0.0553744" stop-color="#D1D6FA" stop-opacity="0.910609"/>
<stop offset="1" stop-color="#98A2F0"/>
</linearGradient>
<linearGradient id="paint10_linear" x1="96.1457" y1="44.3522" x2="107.492" y2="52.6851" gradientUnits="userSpaceOnUse">
<stop offset="0.0553744" stop-color="#DFE2F9" stop-opacity="0.910609"/>
<stop offset="1" stop-color="#CCD1FC"/>
</linearGradient>
<linearGradient id="paint11_linear" x1="57.0213" y1="85.4615" x2="64.5858" y2="91.0168" gradientUnits="userSpaceOnUse">
<stop offset="0.0553744" stop-color="#DFE2F9" stop-opacity="0.910609"/>
<stop offset="1" stop-color="#CCD1FC"/>
</linearGradient>
<linearGradient id="paint12_linear" x1="4.95408" y1="22.4716" x2="10.6274" y2="26.6381" gradientUnits="userSpaceOnUse">
<stop offset="0.0553744" stop-color="#DFE2F9" stop-opacity="0.910609"/>
<stop offset="1" stop-color="#CCD1FC"/>
</linearGradient>
<linearGradient id="paint13_linear" x1="241.677" y1="531.736" x2="122.623" y2="346.317" gradientUnits="userSpaceOnUse">
<stop stop-color="#4154E0" stop-opacity="0.910609"/>
<stop offset="1" stop-color="#ABB3ED"/>
</linearGradient>
<linearGradient id="paint14_linear" x1="238.858" y1="405.011" x2="245.925" y2="424.747" gradientUnits="userSpaceOnUse">
<stop offset="0.0553744" stop-color="#D1D6FA" stop-opacity="0.910609"/>
<stop offset="1" stop-color="#98A2F0"/>
</linearGradient>
</defs>
</svg>
