<svg width="512" height="512" viewBox="0 0 512 512" fill="none" xmlns="http://www.w3.org/2000/svg">
<path fill-rule="evenodd" clip-rule="evenodd" d="M256.5 64.3686C362.335 64.3686 448.131 150.165 448.131 256C448.131 361.835 362.335 447.631 256.5 447.631C150.665 447.631 64.8686 361.835 64.8686 256C64.8686 150.165 150.665 64.3686 256.5 64.3686Z" fill="#2E3148"/>
<path fill-rule="evenodd" clip-rule="evenodd" d="M256.131 145.443C317.19 145.443 366.688 194.941 366.688 256C366.688 317.059 317.19 366.557 256.131 366.557C195.073 366.557 145.575 317.059 145.575 256C145.575 194.941 195.073 145.443 256.131 145.443Z" fill="#1B1E36"/>
<path fill-rule="evenodd" clip-rule="evenodd" d="M259.51 97.1461C257.988 95.7451 257.202 95.7186 257.07 95.7186C256.938 95.7186 256.152 95.7451 254.63 97.1461C253.068 98.5841 251.2 101.065 249.187 104.894C245.17 112.535 241.325 124.085 238.011 138.989C231.41 168.674 227.263 210.048 227.263 256C227.263 301.952 231.41 343.326 238.011 373.011C241.325 387.915 245.17 399.465 249.187 407.106C251.2 410.935 253.068 413.416 254.63 414.854C256.152 416.255 256.938 416.281 257.07 416.281C257.202 416.281 257.988 416.255 259.51 414.854C261.073 413.416 262.941 410.935 264.953 407.106C268.97 399.465 272.815 387.915 276.129 373.011C282.73 343.326 286.877 301.952 286.877 256C286.877 210.048 282.73 168.674 276.129 138.989C272.815 124.085 268.97 112.535 264.953 104.894C262.941 101.065 261.073 98.5841 259.51 97.1461ZM294.377 256C294.377 163.337 277.674 88.2186 257.07 88.2186C236.466 88.2186 219.763 163.337 219.763 256C219.763 348.663 236.466 423.781 257.07 423.781C277.674 423.781 294.377 348.663 294.377 256Z" fill="#6F7390"/>
<path fill-rule="evenodd" clip-rule="evenodd" d="M395.948 178.68C396.401 176.663 396.031 175.973 395.967 175.862C395.902 175.75 395.488 175.084 393.511 174.466C391.482 173.832 388.397 173.456 384.073 173.628C375.441 173.972 363.508 176.42 348.936 181.004C319.91 190.134 281.983 207.231 242.162 230.207C202.341 253.183 168.561 277.46 146.137 298.016C134.879 308.336 126.792 317.439 122.179 324.736C119.868 328.393 118.652 331.25 118.187 333.32C117.735 335.337 118.104 336.027 118.169 336.138C118.233 336.25 118.648 336.916 120.624 337.534C122.653 338.168 125.738 338.544 130.063 338.372C138.694 338.028 150.627 335.58 165.199 330.996C194.225 321.866 232.152 304.769 271.973 281.793C311.794 258.817 345.574 234.54 367.998 213.984C379.257 203.664 387.343 194.561 391.956 187.264C394.268 183.607 395.484 180.75 395.948 178.68ZM111.675 339.89C121.977 357.723 195.423 334.62 275.722 288.289C356.02 241.958 412.763 189.943 402.461 172.11C392.158 154.278 318.712 177.38 238.414 223.711C158.116 270.042 101.372 322.057 111.675 339.89Z" fill="#6F7390"/>
<path fill-rule="evenodd" clip-rule="evenodd" d="M402.461 339.89C412.763 322.057 356.02 270.042 275.722 223.711C195.423 177.38 121.977 154.278 111.675 172.11C101.372 189.943 158.116 241.958 238.414 288.289C318.712 334.62 392.158 357.723 402.461 339.89ZM118.169 175.862C118.233 175.75 118.648 175.083 120.624 174.466C122.653 173.832 125.738 173.456 130.063 173.628C138.694 173.972 150.627 176.42 165.199 181.004C194.225 190.134 232.152 207.231 271.973 230.207C311.794 253.183 345.574 277.46 367.998 298.016C379.257 308.336 387.343 317.439 391.956 324.736C394.268 328.393 395.484 331.25 395.948 333.32C396.401 335.337 396.031 336.027 395.967 336.138C395.902 336.25 395.488 336.916 393.511 337.534C391.482 338.168 388.397 338.544 384.073 338.372C375.441 338.028 363.508 335.58 348.936 330.996C319.91 321.866 281.983 304.769 242.162 281.793C202.341 258.817 168.561 234.54 146.137 213.984C134.879 203.664 126.792 194.561 122.179 187.264C119.868 183.607 118.652 180.75 118.187 178.68C117.735 176.664 118.104 175.973 118.169 175.862" fill="#6F7390"/>
<path fill-rule="evenodd" clip-rule="evenodd" d="M149.83 209.013C156.346 209.013 161.629 214.298 161.629 220.818C161.629 227.337 156.346 232.622 149.83 232.622C143.314 232.622 138.032 227.337 138.032 220.818C138.032 214.298 143.314 209.013 149.83 209.013Z" fill="#B7B9C8"/>
<path fill-rule="evenodd" clip-rule="evenodd" d="M337.345 168.591C343.864 168.591 349.149 173.876 349.149 180.395C349.149 186.915 343.864 192.2 337.345 192.2C330.825 192.2 325.54 186.915 325.54 180.395C325.54 173.876 330.825 168.591 337.345 168.591Z" fill="#B7B9C8"/>
<path fill-rule="evenodd" clip-rule="evenodd" d="M233.295 353.866C239.814 353.866 245.099 359.148 245.099 365.664C245.099 372.18 239.814 377.463 233.295 377.463C226.775 377.463 221.49 372.18 221.49 365.664C221.49 359.148 226.775 353.866 233.295 353.866Z" fill="#B7B9C8"/>
<path fill-rule="evenodd" clip-rule="evenodd" d="M256.413 235.928C267.45 235.928 276.398 244.875 276.398 255.913C276.398 266.95 267.45 275.898 256.413 275.898C245.375 275.898 236.428 266.95 236.428 255.913C236.428 244.875 245.375 235.928 256.413 235.928Z" fill="#B7B9C8"/>
</svg>
