<svg width="512" height="512" viewBox="0 0 512 512" fill="none" xmlns="http://www.w3.org/2000/svg">
<path fill-rule="evenodd" clip-rule="evenodd" d="M169.574 435.323C145.812 435.328 122.061 426.281 103.972 408.197C86.4512 390.676 76.8 367.38 76.8 342.605C76.8 317.829 86.4512 294.533 103.972 277.012L104.637 276.347L227.384 153.6L247.388 173.599L123.996 296.991C111.795 309.192 105.088 325.381 105.088 342.605C105.088 359.828 111.795 376.018 123.976 388.193C149.115 413.332 190.019 413.332 215.158 388.193C215.496 387.855 227.011 376.34 227.011 376.34L247.009 396.349C247.009 396.349 235.356 408.003 235.136 408.218C217.068 426.286 193.321 435.323 169.574 435.323" fill="#DF542A"/>
<path fill-rule="evenodd" clip-rule="evenodd" d="M338.565 247.383L215.173 123.991C202.977 111.795 186.783 105.083 169.559 105.083C152.34 105.083 136.146 111.795 123.971 123.971C111.79 136.146 105.083 152.34 105.083 169.564C105.083 186.788 111.79 202.977 123.971 215.153C124.165 215.352 135.818 227.005 135.818 227.005L115.82 247.009L103.987 235.172C86.4461 217.631 76.8 194.34 76.8 169.564C76.8 144.783 86.4461 121.492 103.967 103.967C121.487 86.4461 144.783 76.8 169.559 76.8C194.34 76.8 217.636 86.4461 235.156 103.972L235.802 104.612L358.569 227.384L338.565 247.383Z" fill="#F3B229"/>
<path fill-rule="evenodd" clip-rule="evenodd" d="M286.244 358.564L266.24 338.565L389.652 215.148C401.828 202.972 408.54 186.783 408.54 169.559C408.54 152.34 401.828 136.146 389.652 123.971C364.513 98.8314 323.61 98.8314 298.47 123.971L286.618 135.818L266.614 115.82L278.467 103.967C295.987 86.4512 319.283 76.8 344.064 76.8C368.84 76.8 392.136 86.4512 409.656 103.967C427.172 121.487 436.823 144.783 436.823 169.559C436.823 194.34 427.172 217.636 409.656 235.151L286.244 358.564Z" fill="#6CC0B1"/>
<path fill-rule="evenodd" clip-rule="evenodd" d="M342.61 436.823C317.829 436.823 294.533 427.172 277.012 409.656L153.6 286.244L173.604 266.24L297.016 389.652C309.197 401.833 325.386 408.54 342.61 408.54C359.828 408.54 376.018 401.833 388.198 389.652C413.332 364.513 413.332 323.61 388.198 298.47C388.019 298.291 376.346 286.618 376.346 286.618L396.349 266.619C396.349 266.619 407.772 278.042 408.172 278.436C444.37 314.634 444.37 373.489 408.202 409.651C390.682 427.172 367.386 436.823 342.61 436.823" fill="#35A0CD"/>
</svg>
