<svg width="32" height="32" viewBox="0 0 32 32" fill="none" xmlns="http://www.w3.org/2000/svg">
<g clip-path="url(#clip0)">
<path fill-rule="evenodd" clip-rule="evenodd" d="M19.9104 9.81965L9.98864 19.6721C9.86071 19.4256 9.74521 19.1688 9.64174 18.9023C9.29525 18.0071 9.122 17.0574 9.122 16.0542C9.122 15.0503 9.29525 14.101 9.64174 13.2057C9.98864 12.3101 10.4691 11.5332 11.0835 10.8737C11.6979 10.2147 12.4362 9.69341 13.298 9.30952C14.1603 8.92603 15.1063 8.73409 16.1366 8.73409C17.1673 8.73409 18.1185 8.93081 18.99 9.32466C19.314 9.4708 19.6208 9.63567 19.9104 9.81965ZM19.0349 22.8575C18.1727 23.2414 17.2266 23.4329 16.1963 23.4329C15.1657 23.4329 14.2144 23.2362 13.3425 22.8428C13.0189 22.6962 12.7121 22.5313 12.423 22.347L22.3443 12.4953C22.4722 12.7414 22.5877 12.9979 22.6912 13.2647C23.0377 14.1599 23.2109 15.1096 23.2109 16.1132C23.2109 17.1167 23.0377 18.0661 22.6912 18.9617C22.3443 19.8569 21.8639 20.6338 21.2495 21.2929C20.6351 21.9519 19.8972 22.4736 19.0349 22.8575ZM20.536 25.9123C21.8638 25.3416 23.0132 24.5695 23.9841 23.595C24.9551 22.6214 25.7078 21.4848 26.2428 20.1862C26.7782 18.8876 27.0457 17.5102 27.0457 16.0542C27.0457 14.5979 26.7782 13.2205 26.2428 11.9215C25.9256 11.1513 25.535 10.4401 25.0714 9.78739L31.5245 3.37956L28.9602 0.833313L22.4875 7.26065C21.9063 6.86721 21.2755 6.52712 20.5953 6.24C19.2675 5.6793 17.8013 5.39856 16.1963 5.39856C14.591 5.39856 13.1248 5.68408 11.7969 6.25474C10.4691 6.82539 9.31971 7.59755 8.34879 8.57161C7.37787 9.54566 6.62472 10.6822 6.08973 11.9808C5.55475 13.2794 5.28725 14.6569 5.28725 16.1132C5.28725 17.5691 5.55475 18.9461 6.08973 20.2452C6.40736 21.0157 6.79797 21.7269 7.26157 22.38L0.808838 28.7871L3.37309 31.3333L9.84547 24.9064C10.4266 25.2998 11.0574 25.6399 11.7376 25.927C13.0654 26.4877 14.5316 26.7681 16.1366 26.7681C17.7419 26.7681 19.2082 26.4825 20.536 25.9123Z" fill="white"/>
</g>
<defs>
<clipPath id="clip0">
<path d="M0 0H32V32H0V0Z" fill="white"/>
</clipPath>
</defs>
</svg>
