<svg width="32" height="32" viewBox="0 0 32 32" fill="none" xmlns="http://www.w3.org/2000/svg">
<g clip-path="url(#clip0)">
<path fill-rule="evenodd" clip-rule="evenodd" d="M26.0534 0C26.4852 0.0010493 26.9125 0.0871353 27.311 0.253343C27.7096 0.419551 28.0714 0.662625 28.376 0.968687C28.6806 1.27475 28.9219 1.63781 29.0862 2.03713C29.2504 2.43645 29.3344 2.86421 29.3334 3.296V32L25.8934 28.96L23.9574 27.168L21.9094 25.264L22.7574 28.224H4.61338C4.1816 28.2229 3.75424 28.1369 3.35573 27.9707C2.95721 27.8045 2.59533 27.5614 2.29076 27.2553C1.98618 26.9493 1.74487 26.5862 1.5806 26.1869C1.41634 25.7876 1.33233 25.3598 1.33338 24.928V3.296C1.33233 2.86421 1.41634 2.43645 1.5806 2.03713C1.74487 1.63781 1.98618 1.27475 2.29076 0.968687C2.59533 0.662625 2.95721 0.419551 3.35573 0.253343C3.75424 0.0871353 4.1816 0.0010493 4.61338 0L26.0534 0ZM19.8774 20.896C23.4134 20.784 24.7734 18.464 24.7734 18.464C24.7734 13.312 22.4694 9.136 22.4694 9.136C20.1654 7.408 17.9734 7.456 17.9734 7.456L17.7494 7.712C20.4694 8.544 21.7334 9.744 21.7334 9.744C19.2817 8.39184 16.4599 7.86451 13.6854 8.24L13.4134 8.272C12.8534 8.32 11.4934 8.528 9.78138 9.28C9.18938 9.552 8.83738 9.744 8.83738 9.744C8.83738 9.744 10.1654 8.48 13.0454 7.648L12.8854 7.456C12.8854 7.456 10.6934 7.408 8.38938 9.136C8.38938 9.136 6.08538 13.312 6.08538 18.464C6.08538 18.464 7.42938 20.784 10.9654 20.896C10.9654 20.896 11.5574 20.176 12.0374 19.568C10.0054 18.96 9.23738 17.68 9.23738 17.68L9.68538 17.952L9.74938 18L9.81205 18.036L9.83072 18.044L9.89338 18.08C10.2934 18.304 10.6934 18.48 11.0614 18.624C11.7174 18.88 12.5014 19.136 13.4134 19.312C14.6134 19.536 16.0214 19.616 17.5574 19.328C18.3546 19.1886 19.1331 18.9577 19.8774 18.64C20.4374 18.432 21.0614 18.128 21.7174 17.696C21.7174 17.696 20.9174 19.008 18.8214 19.6C19.3014 20.208 19.8774 20.896 19.8774 20.896ZM12.4374 13.424C11.5254 13.424 10.8054 14.224 10.8054 15.2C10.8054 16.176 11.5414 16.976 12.4374 16.976C13.3494 16.976 14.0694 16.176 14.0694 15.2C14.0854 14.224 13.3494 13.424 12.4374 13.424ZM18.2774 13.424C17.3654 13.424 16.6454 14.224 16.6454 15.2C16.6454 16.176 17.3814 16.976 18.2774 16.976C19.1894 16.976 19.9094 16.176 19.9094 15.2C19.9094 14.224 19.1894 13.424 18.2774 13.424Z" fill="white"/>
</g>
<defs>
<clipPath id="clip0">
<path d="M0 0H32V32H0V0Z" fill="white"/>
</clipPath>
</defs>
</svg>
