<svg width="48" height="48" viewBox="0 0 48 48" fill="none" xmlns="http://www.w3.org/2000/svg">
<path d="M28 7.60205L25.236 7.20004L24 4.69604L22.764 7.20004L20 7.60205L22 9.55104L21.528 12.304L24 11.005L26.472 12.304L26 9.55104L28 7.60205Z" stroke="#5064FB" stroke-width="2" stroke-miterlimit="10" stroke-linecap="square"/>
<path d="M13 24C13 24 24 28 24 46" stroke="#5064FB" stroke-width="2" stroke-miterlimit="10" stroke-linecap="square"/>
<path d="M35 24C35 24 24 28 24 46" stroke="#5064FB" stroke-width="2" stroke-miterlimit="10" stroke-linecap="square"/>
<path d="M24 19V25" stroke="#5064FB" stroke-width="2" stroke-miterlimit="10" stroke-linecap="square"/>
<path d="M13 36.906L10.236 36.504L9 34L7.764 36.504L5 36.906L7 38.855L6.528 41.608L9 40.309L11.472 41.608L11 38.855L13 36.906Z" stroke="#5064FB" stroke-width="2" stroke-miterlimit="10" stroke-linecap="square"/>
<path d="M43 36.906L40.236 36.504L39 34L37.764 36.504L35 36.906L37 38.855L36.528 41.608L39 40.309L41.472 41.608L41 38.855L43 36.906Z" stroke="#5064FB" stroke-width="2" stroke-miterlimit="10" stroke-linecap="square"/>
<path d="M5.5 23C6.88071 23 8 21.8807 8 20.5C8 19.1193 6.88071 18 5.5 18C4.11929 18 3 19.1193 3 20.5C3 21.8807 4.11929 23 5.5 23Z" stroke="#5064FB" stroke-width="2" stroke-miterlimit="10" stroke-linecap="square"/>
<path d="M42.5 23C43.8807 23 45 21.8807 45 20.5C45 19.1193 43.8807 18 42.5 18C41.1193 18 40 19.1193 40 20.5C40 21.8807 41.1193 23 42.5 23Z" stroke="#5064FB" stroke-width="2" stroke-miterlimit="10" stroke-linecap="square"/>
</svg>
