<svg width="48" height="48" viewBox="0 0 48 48" fill="none" xmlns="http://www.w3.org/2000/svg">
<path d="M24 3.3335C12.2133 3.3335 2.66667 12.8855 2.66667 24.6668C2.66667 34.0944 8.77867 42.0891 17.2533 44.9068C18.32 45.1077 18.7111 44.4482 18.7111 43.8811C18.7111 43.3744 18.6933 42.0322 18.6844 40.2544C12.7502 41.5415 11.4987 37.3922 11.4987 37.3922C10.528 34.9299 9.12533 34.2722 9.12533 34.2722C7.19289 32.9495 9.27467 32.9762 9.27467 32.9762C11.4169 33.1255 12.5422 35.1735 12.5422 35.1735C14.4444 38.4357 17.536 37.4935 18.7556 36.9477C18.9476 35.5682 19.4969 34.6277 20.1067 34.0944C15.3689 33.5611 10.3893 31.7264 10.3893 23.5522C10.3893 21.2233 11.216 19.3211 12.5849 17.8277C12.3449 17.2891 11.6249 15.1202 12.7716 12.1815C12.7716 12.1815 14.5582 11.6091 18.6382 14.3682C20.3449 13.8935 22.1582 13.6588 23.9716 13.6482C25.7849 13.6588 27.5982 13.8935 29.3049 14.3682C33.3582 11.6091 35.1449 12.1815 35.1449 12.1815C36.2916 15.1202 35.5716 17.2891 35.3582 17.8277C36.7182 19.3211 37.5449 21.2233 37.5449 23.5522C37.5449 31.7477 32.5582 33.5522 27.8116 34.0766C28.5582 34.7166 29.2516 36.0251 29.2516 38.0233C29.2516 40.8784 29.2249 43.1717 29.2249 43.8651C29.2249 44.4251 29.5982 45.0917 30.6916 44.8784C39.2267 42.0802 45.3333 34.0802 45.3333 24.6668C45.3333 12.8855 35.7813 3.3335 24 3.3335Z" fill="white" fill-opacity="0.2"/>
</svg>
