<svg width="32" height="32" viewBox="0 0 32 32" fill="none" xmlns="http://www.w3.org/2000/svg">
<g opacity="0.5">
<g clip-path="url(#clip0)">
<path d="M16 0.396729C7.16 0.396729 0 7.56073 0 16.3967C0 23.4674 4.584 29.4634 10.94 31.5767C11.74 31.7274 12.0333 31.2327 12.0333 30.8074C12.0333 30.4274 12.02 29.4207 12.0133 28.0874C7.56267 29.0527 6.624 25.9407 6.624 25.9407C5.896 24.0941 4.844 23.6007 4.844 23.6007C3.39467 22.6087 4.956 22.6287 4.956 22.6287C6.56267 22.7407 7.40667 24.2767 7.40667 24.2767C8.83333 26.7234 11.152 26.0167 12.0667 25.6074C12.2107 24.5727 12.6227 23.8674 13.08 23.4674C9.52667 23.0674 5.792 21.6914 5.792 15.5607C5.792 13.8141 6.412 12.3874 7.43867 11.2674C7.25867 10.8634 6.71867 9.23673 7.57867 7.03273C7.57867 7.03273 8.91867 6.6034 11.9787 8.67273C13.2587 8.31673 14.6187 8.14073 15.9787 8.13273C17.3387 8.14073 18.6987 8.31673 19.9787 8.67273C23.0187 6.6034 24.3587 7.03273 24.3587 7.03273C25.2187 9.23673 24.6787 10.8634 24.5187 11.2674C25.5387 12.3874 26.1587 13.8141 26.1587 15.5607C26.1587 21.7074 22.4187 23.0607 18.8587 23.4541C19.4187 23.9341 19.9387 24.9154 19.9387 26.4141C19.9387 28.5554 19.9187 30.2754 19.9187 30.7954C19.9187 31.2154 20.1987 31.7154 21.0187 31.5554C27.42 29.4567 32 23.4567 32 16.3967C32 7.56073 24.836 0.396729 16 0.396729Z" fill="black"/>
</g>
</g>
<defs>
<clipPath id="clip0">
<path d="M0 0.000732422H32V32.0007H0V0.000732422Z" fill="white"/>
</clipPath>
</defs>
</svg>
