<svg width="32" height="32" viewBox="0 0 32 32" fill="none" xmlns="http://www.w3.org/2000/svg">
<path d="M16 0.396973C7.16 0.396973 0 7.56097 0 16.397C0 23.4676 4.584 29.4636 10.94 31.577C11.74 31.7276 12.0333 31.233 12.0333 30.8076C12.0333 30.4276 12.02 29.421 12.0133 28.0876C7.56267 29.053 6.624 25.941 6.624 25.941C5.896 24.0943 4.844 23.601 4.844 23.601C3.39467 22.609 4.956 22.629 4.956 22.629C6.56267 22.741 7.40667 24.277 7.40667 24.277C8.83333 26.7236 11.152 26.017 12.0667 25.6076C12.2107 24.573 12.6227 23.8676 13.08 23.4676C9.52667 23.0676 5.792 21.6916 5.792 15.561C5.792 13.8143 6.412 12.3876 7.43867 11.2676C7.25867 10.8636 6.71867 9.23697 7.57867 7.03297C7.57867 7.03297 8.91867 6.60364 11.9787 8.67297C13.2587 8.31697 14.6187 8.14097 15.9787 8.13297C17.3387 8.14097 18.6987 8.31697 19.9787 8.67297C23.0187 6.60364 24.3587 7.03297 24.3587 7.03297C25.2187 9.23697 24.6787 10.8636 24.5187 11.2676C25.5387 12.3876 26.1587 13.8143 26.1587 15.561C26.1587 21.7076 22.4187 23.061 18.8587 23.4543C19.4187 23.9343 19.9387 24.9156 19.9387 26.4143C19.9387 28.5556 19.9187 30.2756 19.9187 30.7956C19.9187 31.2156 20.1987 31.7156 21.0187 31.5556C27.42 29.457 32 23.457 32 16.397C32 7.56097 24.836 0.396973 16 0.396973Z" fill="white"/>
</svg>
