<svg width="48" height="48" viewBox="0 0 48 48" fill="none" xmlns="http://www.w3.org/2000/svg">
<g clip-path="url(#clip0)">
<path d="M3.93539 12.4157L24 0.831385L44.0646 12.4157V35.5843L24 47.1686L3.93539 35.5843V12.4157Z" stroke="white" stroke-opacity="0.2" stroke-width="1.44"/>
<g clip-path="url(#clip1)">
<path fill-rule="evenodd" clip-rule="evenodd" d="M23.1457 16.2043C22.6708 16.0726 22.24 15.8339 21.8809 15.5159L15.5395 27.0333C16.0077 27.1842 16.4291 27.4402 16.7759 27.7734L23.1457 16.2043ZM17.6957 29.4399C17.7379 29.6468 17.76 29.8608 17.76 30.08C17.76 30.3561 17.7249 30.6241 17.6588 30.8799L30.4212 30.8799C30.3552 30.6241 30.32 30.3561 30.32 30.08C30.32 29.8608 30.3422 29.6468 30.3843 29.4399L17.6957 29.4399ZM26.1276 15.5083L32.5294 27.0369C32.0618 27.1894 31.6413 27.4469 31.2957 27.7815L24.8653 16.2012C25.3396 16.0678 25.7696 15.8276 26.1276 15.5083Z" fill="white" fill-opacity="0.2"/>
<path fill-rule="evenodd" clip-rule="evenodd" d="M33.4942 28.8291C32.818 28.8291 32.268 29.3796 32.268 30.0562C32.268 30.7328 32.818 31.2833 33.4942 31.2833C34.1704 31.2833 34.7206 30.7328 34.7206 30.0562C34.7206 29.3796 34.1704 28.8291 33.4942 28.8291ZM33.4942 32.7522C32.0085 32.7522 30.8 31.5428 30.8 30.0561C30.8 28.5694 32.0085 27.3599 33.4942 27.3599C34.9799 27.3599 36.1886 28.5694 36.1886 30.0561C36.1886 31.5428 34.9799 32.7522 33.4942 32.7522Z" fill="white" fill-opacity="0.2"/>
<path fill-rule="evenodd" clip-rule="evenodd" d="M23.9742 11.8691C23.298 11.8691 22.748 12.4196 22.748 13.0962C22.748 13.7728 23.298 14.3233 23.9742 14.3233C24.6504 14.3233 25.2006 13.7728 25.2006 13.0962C25.2006 12.4196 24.6504 11.8691 23.9742 11.8691ZM23.9742 15.7923C22.4885 15.7923 21.28 14.5828 21.28 13.0961C21.28 11.6094 22.4885 10.3999 23.9742 10.3999C25.4599 10.3999 26.6686 11.6094 26.6686 13.0961C26.6686 14.5828 25.4599 15.7923 23.9742 15.7923Z" fill="white" fill-opacity="0.2"/>
<path fill-rule="evenodd" clip-rule="evenodd" d="M14.5342 28.8291C13.858 28.8291 13.308 29.3796 13.308 30.0562C13.308 30.7328 13.858 31.2833 14.5342 31.2833C15.2104 31.2833 15.7606 30.7328 15.7606 30.0562C15.7606 29.3796 15.2104 28.8291 14.5342 28.8291ZM14.5342 32.7522C13.0485 32.7522 11.84 31.5428 11.84 30.0561C11.84 28.5694 13.0485 27.3599 14.5342 27.3599C16.0199 27.3599 17.2286 28.5694 17.2286 30.0561C17.2286 31.5428 16.0199 32.7522 14.5342 32.7522Z" fill="white" fill-opacity="0.2"/>
</g>
</g>
<defs>
<clipPath id="clip0">
<rect width="48" height="48" fill="white"/>
</clipPath>
<clipPath id="clip1">
<rect width="32" height="32" fill="white" transform="translate(8 8)"/>
</clipPath>
</defs>
</svg>
