<svg width="32" height="32" viewBox="0 0 32 32" fill="none" xmlns="http://www.w3.org/2000/svg">
<path d="M32 15.7053C31.9972 15.012 31.7908 14.3348 31.4064 13.7578C31.0221 13.1808 30.4767 12.7294 29.838 12.4597C29.1993 12.1899 28.4954 12.1138 27.8138 12.2407C27.1322 12.3675 26.5029 12.6918 26.004 13.1733C23.5907 11.5853 20.3253 10.5746 16.7093 10.4453L18.6867 4.21996L24.0413 5.47463L24.0333 5.55196C24.0358 6.31863 24.3425 7.05297 24.886 7.59371C25.4294 8.13445 26.1653 8.43738 26.932 8.43596C28.5293 8.43596 29.828 7.14263 29.828 5.55196C29.8263 4.8779 29.5895 4.22556 29.1583 3.70745C28.7271 3.18935 28.1286 2.83797 27.466 2.71393C26.8035 2.58989 26.1184 2.70096 25.529 3.02799C24.9396 3.35502 24.4827 3.87749 24.2373 4.5053L18.4653 3.15196C18.3437 3.12256 18.2154 3.14049 18.1065 3.20214C17.9975 3.26378 17.9161 3.36453 17.8787 3.48396L15.6733 10.4266C11.8893 10.472 8.46133 11.4906 5.94 13.1266C5.28917 12.5184 4.43214 12.1792 3.54133 12.1773C2.6042 12.1766 1.70506 12.5476 1.04116 13.209C0.37726 13.8704 0.00282454 14.7682 0 15.7053C0 16.9986 0.710667 18.12 1.756 18.7333C1.683 19.1099 1.64462 19.4924 1.64133 19.876C1.64133 25.0906 8.052 29.3333 15.9333 29.3333C23.8147 29.3333 30.2267 25.0906 30.2267 19.876C30.2267 19.5106 30.188 19.1506 30.1267 18.796C30.6898 18.4991 31.1616 18.0546 31.4916 17.5102C31.8216 16.9658 31.9973 16.3419 32 15.7053ZM9.03467 18.1266C9.03467 16.9693 9.98133 16.0266 11.144 16.0266C12.3067 16.0266 13.252 16.9693 13.252 18.1266C13.252 19.284 12.3067 20.2253 11.144 20.2253C9.98133 20.2253 9.03467 19.284 9.03467 18.1266ZM21.116 24.352C20.0533 25.4093 18.3853 25.924 16.0173 25.924L16 25.92L15.9827 25.924C13.6133 25.924 11.9453 25.4093 10.884 24.352C10.8381 24.3062 10.8016 24.2519 10.7768 24.1921C10.7519 24.1322 10.7391 24.0681 10.7391 24.0033C10.7391 23.9385 10.7519 23.8743 10.7768 23.8145C10.8016 23.7547 10.8381 23.7003 10.884 23.6546C10.977 23.5616 11.1031 23.5094 11.2347 23.5094C11.3662 23.5094 11.4923 23.5616 11.5853 23.6546C12.452 24.5173 13.8907 24.936 15.9827 24.936L16 24.94L16.0173 24.936C18.1093 24.936 19.548 24.516 20.4147 23.6533C20.5079 23.5606 20.6339 23.5086 20.7653 23.5086C20.8967 23.5086 21.0228 23.5606 21.116 23.6533C21.162 23.6991 21.1984 23.7536 21.2233 23.8135C21.2482 23.8735 21.261 23.9377 21.261 24.0026C21.261 24.0675 21.2482 24.1318 21.2233 24.1917C21.1984 24.2517 21.162 24.3061 21.116 24.352ZM20.864 20.2253C20.3064 20.2257 19.7715 20.005 19.3763 19.6116C18.9812 19.2182 18.7581 18.6842 18.756 18.1266C18.756 16.9693 19.7013 16.0266 20.864 16.0266C22.0267 16.0266 22.972 16.9693 22.972 18.1266C22.972 19.284 22.0267 20.2253 20.864 20.2253Z" fill="white"/>
</svg>
