<svg width="32" height="32" viewBox="0 0 32 32" fill="none" xmlns="http://www.w3.org/2000/svg">
<g clip-path="url(#clip0)">
<path fill-rule="evenodd" clip-rule="evenodd" d="M24.512 30.372C24.7235 30.5225 24.9686 30.6188 25.226 30.6525C25.4833 30.6862 25.745 30.6563 25.988 30.5653C26.2297 30.4741 26.4446 30.3238 26.6132 30.1281C26.7818 29.9325 26.8988 29.6978 26.9534 29.4453C28.112 24 30.9227 10.2173 31.9774 5.26399C32.0164 5.07992 32.0048 4.88871 31.9438 4.71073C31.8827 4.53275 31.7745 4.37466 31.6307 4.25332C31.4862 4.13055 31.3115 4.04853 31.1247 4.01572C30.9379 3.98291 30.7458 4.00049 30.568 4.06665C24.9774 6.13599 7.76004 12.596 0.72271 15.2C0.505853 15.2795 0.319439 15.4251 0.189776 15.6162C0.0601125 15.8074 -0.00625337 16.0344 4.38584e-05 16.2653C0.0160439 16.7373 0.333377 17.1467 0.790711 17.284C3.94671 18.228 8.08938 19.5413 8.08938 19.5413C8.08938 19.5413 10.0254 25.388 11.0347 28.3613C11.1614 28.7347 11.4534 29.028 11.8387 29.1293C12.0276 29.1784 12.2258 29.1789 12.4149 29.1306C12.604 29.0824 12.7778 28.987 12.92 28.8533L17.048 24.956C17.048 24.956 21.8107 28.448 24.512 30.372ZM9.83204 18.8027L12.0707 26.1867L12.568 21.5107L26.148 9.26265C26.2178 9.20007 26.2611 9.11334 26.2693 9.02001C26.2774 8.92668 26.2498 8.83373 26.192 8.75999C26.134 8.68608 26.0505 8.63641 25.9578 8.62064C25.8652 8.60487 25.77 8.62412 25.6907 8.67465L9.83204 18.8027Z" fill="white"/>
</g>
<defs>
<clipPath id="clip0">
<path d="M0 0H32V32H0V0Z" fill="white"/>
</clipPath>
</defs>
</svg>
