<svg width="48" height="48" viewBox="0 0 48 48" fill="none" xmlns="http://www.w3.org/2000/svg">
<path d="M48 9.09998C46.2 9.89998 44.3 10.4 42.3 10.7C44.3 9.49998 45.9 7.59998 46.6 5.29998C44.7 6.39998 42.6 7.19998 40.3 7.69998C38.5 5.79998 35.9 4.59998 33.1 4.59998C27.7 4.59998 23.3 8.99997 23.3 14.4C23.3 15.2 23.4 15.9 23.6 16.6C15.5 16.2 8.2 12.3 3.3 6.29998C2.5 7.79998 2 9.39998 2 11.2C2 14.6 3.7 17.6 6.4 19.4C4.8 19.3 3.3 18.9 1.9 18.2V18.3C1.9 23.1 5.3 27.1 9.8 28C9 28.2 8.1 28.3 7.2 28.3C6.6 28.3 5.9 28.2 5.3 28.1C6.6 32 10.2 34.9 14.5 34.9C11.1 37.5 6.9 39.1 2.3 39.1C1.5 39.1 0.7 39.1 0 39C4.4 41.8 9.5 43.4 15.1 43.4C33.2 43.4 43.1 28.4 43.1 15.4C43.1 15 43.1 14.5 43.1 14.1C45 12.8 46.7 11.1 48 9.09998Z" fill="white" fill-opacity="0.2"/>
</svg>
