<svg width="32" height="32" viewBox="0 0 32 32" fill="none" xmlns="http://www.w3.org/2000/svg">
<g clip-path="url(#clip0)">
<path d="M32 6.07599C30.8018 6.60701 29.5308 6.95533 28.2293 7.10932C29.6009 6.28956 30.627 4.99848 31.116 3.47732C29.8272 4.2421 28.4171 4.78097 26.9467 5.07065C26.3326 4.41518 25.5904 3.89291 24.766 3.53625C23.9417 3.17958 23.0528 2.99615 22.1547 2.99732C17.916 2.99732 14.8013 6.95199 15.7587 11.0573C13.1485 10.9267 10.595 10.2485 8.26395 9.06691C5.93289 7.8853 3.8764 6.22665 2.228 4.19865C1.38865 5.64404 1.13142 7.35489 1.50865 8.98319C1.88588 10.6115 2.86923 12.0349 4.25867 12.964C3.21668 12.9311 2.19767 12.6495 1.28667 12.1427C1.21467 15.184 3.39467 18.0293 6.552 18.6627C5.58498 18.9253 4.57074 18.9636 3.58667 18.7747C4.00601 20.0792 4.8227 21.2199 5.92245 22.0373C7.0222 22.8547 8.34998 23.3079 9.72 23.3333C6.96827 25.4918 3.47239 26.4701 0 26.0533C3.00202 27.9821 6.49578 29.006 10.064 29.0027C22.2533 29.0027 29.14 18.708 28.724 9.47465C30.009 8.54508 31.1183 7.39425 32 6.07599Z" fill="white"/>
</g>
<defs>
<clipPath id="clip0">
<path d="M0 0H32V32H0V0Z" fill="white"/>
</clipPath>
</defs>
</svg>
