<svg width="48" height="48" viewBox="0 0 48 48" fill="none" xmlns="http://www.w3.org/2000/svg">
<path d="M30 44H2V39.375C2 36.948 3.45 34.76 5.692 33.831C7.962 32.89 11.341 32 16 32C20.659 32 24.038 32.89 26.308 33.831C28.55 34.76 30 36.948 30 39.375V44Z" stroke="#5064FB" stroke-width="2" stroke-miterlimit="10" stroke-linecap="square"/>
<path d="M8 17C8 12.582 11.582 9 16 9C20.418 9 24 12.582 24 17C24 21.418 20.418 26 16 26C11.582 26 8 21.418 8 17Z" stroke="#5064FB" stroke-width="2" stroke-miterlimit="10" stroke-linecap="square"/>
<path d="M34.002 12.7101C35.245 14.1201 36 15.9721 36 18.0001C36 20.0291 35.245 21.8811 34 23.2911" stroke="#5064FB" stroke-width="2" stroke-miterlimit="10" stroke-linecap="square"/>
<path d="M40.003 4.58606C43.684 7.88206 46 12.6701 46 18.0001C46 23.3301 43.683 28.1201 40.001 31.4151" stroke="#5064FB" stroke-width="2" stroke-miterlimit="10" stroke-linecap="square"/>
</svg>
