<?xml version="1.0" encoding="UTF-8"?>
<svg width="110px" height="110px" viewBox="0 0 110 110" version="1.1" xmlns="http://www.w3.org/2000/svg" xmlns:xlink="http://www.w3.org/1999/xlink">
    <!-- Generator: Sketch 52.4 (67378) - http://www.bohemiancoding.com/sketch -->
    <title>Usability_110px</title>
    <desc>Created with Sketch.</desc>
    <g id="Usability_110px" stroke="none" stroke-width="1" fill="none" fill-rule="evenodd">
        <ellipse id="Oval-Copy-4" fill="#5064FB" cx="44.6745027" cy="12.1672213" rx="9.17450271" ry="9.1672213"></ellipse>
        <ellipse id="Oval-Copy-5" fill="#5064FB" cx="91.6745027" cy="20.6672213" rx="4.67450271" ry="4.6672213"></ellipse>
        <ellipse id="Oval-Copy-6" fill="#5064FB" cx="17.6745027" cy="29.6672213" rx="4.67450271" ry="4.6672213"></ellipse>
        <polyline id="Line-4" stroke="#5064FB" stroke-width="2" stroke-linecap="square" points="20.48884 28.0182525 45.1005188 12.6371143 91.9593737 21.11125"></polyline>
        <path d="M75,42.231995 C75.0170852,42.237158 75.0341773,42.2423266 75.0512761,42.2475009 C75.4371097,39.2861562 77.9533786,37 81,37 C84.3137085,37 87,39.7045656 87,43.0408163 C87,43.0684418 86.9998158,43.0960239 86.9994486,43.1235615 L86.9996873,53.8735327 C87.0809428,60.2906932 87.1215705,64.9995157 87.1215705,68 C87.1215705,74.11245 85.1459661,83.55645 82.8377754,88.94455 C81.2989816,92.5366167 81.0033929,98.1425833 81.9510093,105.76245 L41.815769,105.96865 C41.815769,104.522983 41.815769,101.2001 41.815769,96 C41.815769,88.19985 28.492448,87.2755036 28,79 C27.9692817,78.4837848 27.9732402,77.9223653 28.0118754,77.3157415 C28.0040039,77.1963995 28,77.0774827 28,76.9591837 L28,52.0308 C28,48.6945493 30.6862915,46 34,46 C35.7497237,46 37.3245165,46.7540634 38.4212717,47.9570217 C38.5782483,47.6267163 38.7369949,47.2941036 38.8975114,46.9591837 C38.9320146,46.9813669 38.9662948,47.0034061 39.000352,47.0253013 C39.0001175,47.0032901 39,46.9812507 39,46.9591837 L38.8976971,20.9524286 C38.8975734,20.9366737 38.8975114,20.9209313 38.8975114,20.9052 C38.8975114,17.5689493 41.6862915,16 45,16 C48.3137085,16 51,17.9182493 51,21.2545 C51,21.2649025 50.9999739,21.2753064 50.9999217,21.2857118 L50.9999765,39.1874519 C51.0203847,39.1829174 51.0408316,39.178415 51.061317,39.1739446 C51.4788931,36.2483844 53.9786515,34 57,34 C60.0597132,34 62.5845061,36.3058464 62.9535797,39.2857143 L63,39.2857143 L63.0464203,39.2857143 C63.4154939,36.3058464 65.9402868,34 69,34 C72.0597132,34 74.5845061,36.3058464 74.9535797,39.2857143 L75,39.2857143 L75,42.231995 Z" id="Combined-Shape" stroke="#5064FB" stroke-width="2" fill="#FFFFFF" stroke-linecap="round"></path>
        <path d="M51,37 L51,58.7894737" id="Line-5" stroke="#5064FB" stroke-width="2" stroke-linecap="round"></path>
        <path d="M39,45 L39,66.7894737" id="Line-5-Copy-3" stroke="#5064FB" stroke-width="2" stroke-linecap="round"></path>
        <path d="M63,38.2105263 L63,58.7894737" id="Line-5-Copy" stroke="#5064FB" stroke-width="2" stroke-linecap="round"></path>
        <path d="M75,42 L75,58.8" id="Line-5-Copy-2" stroke="#5064FB" stroke-width="2" stroke-linecap="round"></path>
    </g>
</svg>