<?xml version="1.0" encoding="UTF-8"?>
<svg width="110px" height="110px" viewBox="0 0 110 110" version="1.1" xmlns="http://www.w3.org/2000/svg" xmlns:xlink="http://www.w3.org/1999/xlink">
    <!-- Generator: Sketch 52.4 (67378) - http://www.bohemiancoding.com/sketch -->
    <title>Interoperability_120px</title>
    <desc>Created with Sketch.</desc>
    <g id="Interoperability_120px" stroke="none" stroke-width="1" fill="none" fill-rule="evenodd">
        <g id="Interoperability" transform="translate(1.000000, 6.000000)">
            <path d="M64.5284051,21.1465943 C62.8833553,17.1370991 60.5934717,13.6423796 57.6635785,10.6640345 C54.7352934,7.68568937 51.2281051,5.33083035 47.1371895,3.59945742 C43.04949,1.86808449 38.5340454,1 33.5924637,1 C28.649274,1 24.1338294,1.88247263 20.0445218,3.6458192 C15.9552142,5.4075671 12.4158646,7.7912024 9.42647306,10.7999225 C6.43547342,13.8086426 4.11986079,17.3177502 2.4699868,21.3288441 C0.823328933,25.339938 0,29.5940316 0,34.0927236 C0,38.5882182 0.823328933,42.8407131 2.4699868,46.8534057 C4.11986079,50.8660982 6.4049202,54.3592191 9.33481339,57.3375642 C12.2630985,60.3143106 15.7735029,62.6707683 19.8628105,64.4021413 C23.95051,66.1335142 28.4643466,67 33.4075363,67 C38.350726,67 42.8661706,66.1175274 46.9538702,64.3557795 C51.0447858,62.5940316 54.5825273,60.2087976 57.5735269,57.2000775 C60.5629185,54.1913574 62.8833553,50.6822498 64.5284051,46.6711559 C66.175063,42.660062 67,38.4059684 67,33.9088751 C67,29.4117818 66.175063,25.1592869 64.5284051,21.1465943 Z" id="Stroke-7" stroke="#5064FB" stroke-width="2"></path>
            <path d="M105.528405,21.1465943 C103.883355,17.1370991 101.593472,13.6423796 98.6635785,10.6640345 C95.7352934,7.68568937 92.2281051,5.33083035 88.1371895,3.59945742 C84.04949,1.86808449 79.5340454,1 74.5924637,1 C69.649274,1 65.1338294,1.88247263 61.0445218,3.6458192 C56.9552142,5.4075671 53.4158646,7.7912024 50.4264731,10.7999225 C47.4354734,13.8086426 45.1198608,17.3177502 43.4699868,21.3288441 C41.8233289,25.339938 41,29.5940316 41,34.0927236 C41,38.5882182 41.8233289,42.8407131 43.4699868,46.8534057 C45.1198608,50.8660982 47.4049202,54.3592191 50.3348134,57.3375642 C53.2630985,60.3143106 56.7735029,62.6707683 60.8628105,64.4021413 C64.95051,66.1335142 69.4643466,67 74.4075363,67 C79.350726,67 83.8661706,66.1175274 87.9538702,64.3557795 C92.0447858,62.5940316 95.5825273,60.2087976 98.5735269,57.2000775 C101.562919,54.1913574 103.883355,50.6822498 105.528405,46.6711559 C107.175063,42.660062 108,38.4059684 108,33.9088751 C108,29.4117818 107.175063,25.1592869 105.528405,21.1465943 Z" id="Stroke-7" stroke="#5064FB" stroke-width="2"></path>
            <path d="M83.5284051,52.1465943 C81.8833553,48.1370991 79.5934717,44.6423796 76.6635785,41.6640345 C73.7352934,38.6856894 70.2281051,36.3308303 66.1371895,34.5994574 C62.04949,32.8680845 57.5340454,32 52.5924637,32 C47.649274,32 43.1338294,32.8824726 39.0445218,34.6458192 C34.9552142,36.4075671 31.4158646,38.7912024 28.4264731,41.7999225 C25.4354734,44.8086426 23.1198608,48.3177502 21.4699868,52.3288441 C19.8233289,56.339938 19,60.5940316 19,65.0927236 C19,69.5882182 19.8233289,73.8407131 21.4699868,77.8534057 C23.1198608,81.8660982 25.4049202,85.3592191 28.3348134,88.3375642 C31.2630985,91.3143106 34.7735029,93.6707683 38.8628105,95.4021413 C42.95051,97.1335142 47.4643466,98 52.4075363,98 C57.350726,98 61.8661706,97.1175274 65.9538702,95.3557795 C70.0447858,93.5940316 73.5825273,91.2087976 76.5735269,88.2000775 C79.5629185,85.1913574 81.8833553,81.6822498 83.5284051,77.6711559 C85.175063,73.660062 86,69.4059684 86,64.9088751 C86,60.4117818 85.175063,56.1592869 83.5284051,52.1465943 Z" id="Stroke-7" stroke="#5064FB" stroke-width="2"></path>
            <circle id="Oval-Copy-2" fill="#5064FB" cx="53.5" cy="60.5" r="4.5"></circle>
            <circle id="Oval-Copy-3" fill="#5064FB" cx="53.5" cy="4.5" r="4.5"></circle>
            <circle id="Oval-Copy-4" fill="#5064FB" cx="42.5" cy="33.5" r="4.5"></circle>
            <circle id="Oval-Copy-5" fill="#5064FB" cx="65.5" cy="33.5" r="4.5"></circle>
            <circle id="Oval-Copy-6" fill="#5064FB" cx="9.5" cy="12.5" r="4.5"></circle>
            <circle id="Oval-Copy-7" fill="#5064FB" cx="99.5" cy="12.5" r="4.5"></circle>
            <circle id="Oval-Copy-8" fill="#5064FB" cx="53.5" cy="96.5" r="4.5"></circle>
        </g>
    </g>
</svg>