<svg width="1456" height="633" viewBox="0 0 1456 633" fill="none" xmlns="http://www.w3.org/2000/svg">
<ellipse cx="1491.96" cy="435.082" rx="122.449" ry="61.2245" stroke="url(#paint0_radial)" stroke-width="1.83673" stroke-linecap="round" stroke-dasharray="0.04 9"/>
<ellipse cx="1322.37" cy="62.2245" rx="122.449" ry="61.2245" stroke="url(#paint1_radial)" stroke-width="1.83673" stroke-linecap="round" stroke-dasharray="0.04 9"/>
<ellipse rx="122.449" ry="61.2245" transform="matrix(-1 0 0 1 -36.2041 435.082)" stroke="url(#paint2_radial)" stroke-width="1.83673" stroke-linecap="round" stroke-dasharray="0.04 9"/>
<ellipse rx="122.449" ry="61.2245" transform="matrix(-1 0 0 1 133.388 62.2245)" stroke="url(#paint3_radial)" stroke-width="1.83673" stroke-linecap="round" stroke-dasharray="0.04 9"/>
<g filter="url(#filter0_d)">
<path fill-rule="evenodd" clip-rule="evenodd" d="M513.592 153.449C513.592 188.513 516.052 228.22 521.041 264.395C509.208 265.259 500.122 270.354 500.122 276.51C500.122 283.273 511.087 288.755 524.612 288.755C524.707 288.755 524.801 288.755 524.896 288.755C525.667 293.026 526.478 297.213 527.329 301.298C531.934 323.4 537.733 342.661 544.788 356.442C550.9 368.38 558.255 376.769 567.039 378.658C558.28 387.431 542.897 395.254 522.733 400.555C500.662 406.358 473.11 409.072 442.882 406.809C432.578 406.037 421.967 404.688 411.16 402.687C411.681 401.692 411.959 400.648 411.959 399.571C411.959 392.809 400.995 387.327 387.469 387.327C380.016 387.327 373.341 388.991 368.849 391.618C328.969 378.021 288.397 354.84 252.237 318.681L249.64 321.278C285.536 357.174 325.735 380.435 365.36 394.299C363.834 395.896 362.98 397.684 362.98 399.571C362.98 406.334 373.944 411.816 387.469 411.816C396.355 411.816 404.136 409.45 408.428 405.909C420.082 408.151 431.52 409.642 442.608 410.472C473.202 412.762 501.165 410.024 523.667 404.108C542.373 399.19 557.48 392.029 567.139 383.589C557.652 416.311 544.248 448.126 524.689 473.947C521.832 473.363 518.706 473.041 515.429 473.041C501.903 473.041 490.939 478.523 490.939 485.286C490.939 490.081 496.451 494.232 504.481 496.242C503.298 497.323 502.098 498.384 500.88 499.426C466.165 529.128 416.98 543.081 346.274 525.747L345.399 529.315C417.04 546.878 467.499 532.821 503.268 502.217C505.207 500.558 507.102 498.851 508.955 497.098C511.017 497.38 513.188 497.531 515.429 497.531C528.954 497.531 539.918 492.048 539.918 485.286C539.918 480.934 535.378 477.112 528.537 474.941C547.51 449.468 560.624 418.563 569.982 386.951C574.883 431.802 584.165 473.307 599.837 508.816C592.225 510.892 587.061 514.93 587.061 519.571C587.061 526.308 597.941 531.774 611.394 531.816C636.285 575.441 673.368 607.319 727.422 621.147L728.333 617.588C676.181 604.247 640.04 573.73 615.541 531.655C627.168 530.702 636.041 525.655 636.041 519.571C636.041 512.809 625.076 507.327 611.551 507.327C608.727 507.327 606.014 507.566 603.489 508.005C587.657 472.414 578.319 430.511 573.454 384.895C600.25 425.183 646.986 448.418 697.268 454.254C697.474 460.928 708.358 466.306 721.755 466.306C734.996 466.306 745.783 461.052 746.23 454.486C802.664 448.54 857.407 421.068 888.317 371.151L885.194 369.217C854.929 418.093 801.111 445.127 745.41 450.879C742.608 445.659 733.079 441.816 721.755 441.816C710.585 441.816 701.161 445.556 698.218 450.667C645.854 444.728 597.693 419.645 572.423 376.299L571.892 375.388H570.837C562.648 375.388 554.976 368.278 548.058 354.768C541.223 341.418 535.505 322.529 530.926 300.549C530.114 296.653 529.339 292.663 528.6 288.594C540.229 287.642 549.102 282.594 549.102 276.51C549.102 269.768 538.202 264.298 524.731 264.266C519.736 228.194 517.265 188.505 517.265 153.449H513.592Z" fill="url(#paint4_radial)"/>
</g>
<path d="M376.139 404.776H378.402V394.49H376.139V404.776ZM380.825 404.776H385.718C388.04 404.776 389.568 403.835 389.568 401.954V401.925C389.568 400.544 388.833 399.853 387.643 399.398C388.378 398.986 388.995 398.34 388.995 397.179V397.149C388.995 396.444 388.76 395.871 388.29 395.401C387.702 394.813 386.776 394.49 385.601 394.49H380.825V404.776ZM386.747 397.561C386.747 398.325 386.115 398.648 385.116 398.648H383.029V396.474H385.263C386.218 396.474 386.747 396.856 386.747 397.531V397.561ZM387.32 401.646V401.675C387.32 402.439 386.717 402.792 385.718 402.792H383.029V400.529H385.645C386.806 400.529 387.32 400.955 387.32 401.646ZM396.102 404.952C398.086 404.952 399.261 404.247 400.319 403.115L398.879 401.66C398.071 402.395 397.351 402.865 396.176 402.865C394.412 402.865 393.193 401.396 393.193 399.633V399.603C393.193 397.84 394.442 396.4 396.176 396.4C397.204 396.4 398.012 396.841 398.806 397.561L400.246 395.9C399.291 394.96 398.13 394.314 396.19 394.314C393.031 394.314 390.827 396.709 390.827 399.633V399.662C390.827 402.616 393.075 404.952 396.102 404.952Z" fill="white"/>
<path d="M513.282 281.714H515.544V271.429H513.282V281.714ZM517.968 281.714H522.861C525.183 281.714 526.711 280.774 526.711 278.893V278.864C526.711 277.482 525.976 276.792 524.786 276.336C525.521 275.925 526.138 275.278 526.138 274.118V274.088C526.138 273.383 525.903 272.81 525.433 272.34C524.845 271.752 523.919 271.429 522.744 271.429H517.968V281.714ZM523.89 274.5C523.89 275.264 523.258 275.587 522.259 275.587H520.172V273.412H522.406C523.361 273.412 523.89 273.794 523.89 274.47V274.5ZM524.463 278.584V278.614C524.463 279.378 523.86 279.731 522.861 279.731H520.172V277.468H522.788C523.948 277.468 524.463 277.894 524.463 278.584ZM533.245 281.891C535.229 281.891 536.404 281.185 537.462 280.054L536.022 278.599C535.214 279.334 534.494 279.804 533.318 279.804C531.555 279.804 530.336 278.335 530.336 276.571V276.542C530.336 274.779 531.585 273.339 533.318 273.339C534.347 273.339 535.155 273.78 535.949 274.5L537.389 272.839C536.434 271.899 535.273 271.252 533.333 271.252C530.174 271.252 527.97 273.647 527.97 276.571V276.601C527.97 279.554 530.218 281.891 533.245 281.891Z" fill="white"/>
<path d="M504.098 490.49H506.361V480.204H504.098V490.49ZM508.785 490.49H513.678C515.999 490.49 517.527 489.549 517.527 487.669V487.639C517.527 486.258 516.793 485.567 515.603 485.112C516.337 484.7 516.954 484.054 516.954 482.893V482.864C516.954 482.158 516.719 481.585 516.249 481.115C515.661 480.527 514.736 480.204 513.56 480.204H508.785V490.49ZM514.706 483.275C514.706 484.039 514.074 484.362 513.075 484.362H510.989V482.188H513.222C514.177 482.188 514.706 482.57 514.706 483.246V483.275ZM515.279 487.36V487.389C515.279 488.154 514.677 488.506 513.678 488.506H510.989V486.243H513.604C514.765 486.243 515.279 486.669 515.279 487.36ZM524.061 490.666C526.045 490.666 527.221 489.961 528.279 488.829L526.839 487.375C526.03 488.109 525.31 488.58 524.135 488.58C522.372 488.58 521.152 487.11 521.152 485.347V485.318C521.152 483.554 522.401 482.114 524.135 482.114C525.164 482.114 525.972 482.555 526.765 483.275L528.205 481.615C527.25 480.674 526.089 480.028 524.15 480.028C520.99 480.028 518.786 482.423 518.786 485.347V485.376C518.786 488.33 521.035 490.666 524.061 490.666Z" fill="white"/>
<path d="M600.22 524.775H602.483V514.49H600.22V524.775ZM604.907 524.775H609.8C612.121 524.775 613.65 523.835 613.65 521.954V521.925C613.65 520.544 612.915 519.853 611.725 519.398C612.459 518.986 613.077 518.34 613.077 517.179V517.149C613.077 516.444 612.841 515.871 612.371 515.401C611.784 514.813 610.858 514.49 609.682 514.49H604.907V524.775ZM610.828 517.561C610.828 518.325 610.197 518.648 609.197 518.648H607.111V516.473H609.344C610.299 516.473 610.828 516.855 610.828 517.531V517.561ZM611.401 521.646V521.675C611.401 522.439 610.799 522.792 609.8 522.792H607.111V520.529H609.726C610.887 520.529 611.401 520.955 611.401 521.646ZM620.184 524.952C622.167 524.952 623.343 524.247 624.401 523.115L622.961 521.66C622.153 522.395 621.433 522.865 620.257 522.865C618.494 522.865 617.274 521.396 617.274 519.633V519.603C617.274 517.84 618.523 516.4 620.257 516.4C621.286 516.4 622.094 516.841 622.887 517.561L624.327 515.9C623.372 514.96 622.211 514.313 620.272 514.313C617.113 514.313 614.909 516.709 614.909 519.633V519.662C614.909 522.615 617.157 524.952 620.184 524.952Z" fill="white"/>
<path d="M710.424 459.265H712.687V448.98H710.424V459.265ZM715.111 459.265H720.004C722.326 459.265 723.854 458.325 723.854 456.444V456.415C723.854 455.033 723.119 454.343 721.929 453.887C722.664 453.476 723.281 452.829 723.281 451.669V451.639C723.281 450.934 723.046 450.361 722.575 449.891C721.988 449.303 721.062 448.98 719.886 448.98H715.111V459.265ZM721.033 452.051C721.033 452.815 720.401 453.138 719.401 453.138H717.315V450.963H719.548C720.504 450.963 721.033 451.345 721.033 452.021V452.051ZM721.606 456.135V456.165C721.606 456.929 721.003 457.282 720.004 457.282H717.315V455.019H719.93C721.091 455.019 721.606 455.445 721.606 456.135ZM730.388 459.442C732.371 459.442 733.547 458.736 734.605 457.605L733.165 456.15C732.357 456.885 731.637 457.355 730.461 457.355C728.698 457.355 727.478 455.886 727.478 454.122V454.093C727.478 452.33 728.727 450.89 730.461 450.89C731.49 450.89 732.298 451.331 733.091 452.051L734.531 450.39C733.576 449.45 732.416 448.803 730.476 448.803C727.317 448.803 725.113 451.198 725.113 454.122V454.152C725.113 457.105 727.361 459.442 730.388 459.442Z" fill="white"/>
<g filter="url(#filter1_d)">
<path fill-rule="evenodd" clip-rule="evenodd" d="M929.265 264.394C934.254 228.22 936.714 188.513 936.714 153.449H933.041C933.041 188.505 930.57 228.194 925.575 264.265C912.104 264.297 901.204 269.767 901.204 276.51C901.204 282.594 910.077 287.641 921.706 288.593C920.967 292.663 920.192 296.652 919.38 300.549C914.801 322.529 909.083 341.418 902.248 354.768C895.33 368.278 887.658 375.388 879.469 375.388H877.798L877.641 377.051C873.032 425.709 863.552 470.383 846.817 508.005C844.292 507.566 841.579 507.327 838.755 507.327C825.23 507.327 814.265 512.809 814.265 519.571C814.265 525.655 823.138 530.702 834.765 531.655C810.266 573.73 774.125 604.247 721.973 617.588L722.884 621.147C776.938 607.319 814.021 575.441 838.912 531.816C852.365 531.774 863.245 526.308 863.245 519.571C863.245 514.93 858.081 510.892 850.469 508.815C866.141 473.307 875.423 431.802 880.324 386.951C889.682 418.563 902.796 449.468 921.769 474.941C914.928 477.112 910.388 480.934 910.388 485.286C910.388 492.048 921.352 497.531 934.877 497.531C937.118 497.531 939.289 497.38 941.351 497.098C943.203 498.851 945.099 500.558 947.038 502.217C982.807 532.821 1033.27 546.878 1104.91 529.315L1104.03 525.747C1033.33 543.081 984.141 529.128 949.426 499.426C948.208 498.384 947.008 497.323 945.825 496.242C953.854 494.232 959.367 490.081 959.367 485.286C959.367 478.523 948.403 473.041 934.877 473.041C931.6 473.041 928.474 473.363 925.617 473.947C906.057 448.126 892.654 416.311 883.167 383.589C892.826 392.029 907.933 399.19 926.639 404.108C949.141 410.024 977.104 412.762 1007.7 410.472C1018.79 409.642 1030.22 408.151 1041.88 405.909C1046.17 409.45 1053.95 411.816 1062.84 411.816C1076.36 411.816 1087.33 406.334 1087.33 399.571C1087.33 397.684 1086.47 395.896 1084.95 394.299C1124.57 380.435 1164.77 357.174 1200.67 321.278L1198.07 318.681C1161.91 354.84 1121.34 378.021 1081.46 391.618C1076.97 388.991 1070.29 387.327 1062.84 387.327C1049.31 387.327 1038.35 392.809 1038.35 399.571C1038.35 400.648 1038.62 401.692 1039.15 402.687C1028.34 404.688 1017.73 406.037 1007.42 406.809C977.195 409.072 949.644 406.358 927.573 400.555C907.409 395.254 892.026 387.431 883.266 378.658C892.05 376.769 899.405 368.38 905.517 356.442C912.573 342.661 918.372 323.4 922.977 301.298C923.828 297.212 924.639 293.026 925.41 288.754L925.505 288.755C925.568 288.755 925.631 288.755 925.694 288.755C939.219 288.755 950.184 283.273 950.184 276.51C950.184 270.354 941.098 265.259 929.265 264.394Z" fill="url(#paint5_radial)"/>
</g>
<path d="M1050.89 404.776H1053.16V394.49H1050.89V404.776ZM1055.58 404.776H1060.47C1062.79 404.776 1064.32 403.835 1064.32 401.954V401.925C1064.32 400.544 1063.59 399.853 1062.4 399.398C1063.13 398.986 1063.75 398.34 1063.75 397.179V397.149C1063.75 396.444 1063.51 395.871 1063.04 395.401C1062.46 394.813 1061.53 394.49 1060.36 394.49H1055.58V404.776ZM1061.5 397.561C1061.5 398.325 1060.87 398.648 1059.87 398.648H1057.78V396.474H1060.02C1060.97 396.474 1061.5 396.856 1061.5 397.532V397.561ZM1062.07 401.646V401.675C1062.07 402.439 1061.47 402.792 1060.47 402.792H1057.78V400.529H1060.4C1061.56 400.529 1062.07 400.955 1062.07 401.646ZM1070.86 404.952C1072.84 404.952 1074.02 404.247 1075.07 403.115L1073.63 401.66C1072.83 402.395 1072.11 402.865 1070.93 402.865C1069.17 402.865 1067.95 401.396 1067.95 399.633V399.603C1067.95 397.84 1069.2 396.4 1070.93 396.4C1071.96 396.4 1072.77 396.841 1073.56 397.561L1075 395.9C1074.05 394.96 1072.88 394.314 1070.95 394.314C1067.79 394.314 1065.58 396.709 1065.58 399.633V399.662C1065.58 402.616 1067.83 404.952 1070.86 404.952Z" fill="white"/>
<path d="M913.751 281.714H916.014V271.429H913.751V281.714ZM918.437 281.714H923.33C925.652 281.714 927.18 280.774 927.18 278.893V278.864C927.18 277.482 926.445 276.792 925.255 276.336C925.99 275.925 926.607 275.278 926.607 274.118V274.088C926.607 273.383 926.372 272.81 925.902 272.34C925.314 271.752 924.388 271.429 923.213 271.429H918.437V281.714ZM924.359 274.5C924.359 275.264 923.727 275.587 922.728 275.587H920.641V273.412H922.875C923.83 273.412 924.359 273.794 924.359 274.47V274.5ZM924.932 278.584V278.614C924.932 279.378 924.33 279.731 923.33 279.731H920.641V277.468H923.257C924.418 277.468 924.932 277.894 924.932 278.584ZM933.714 281.891C935.698 281.891 936.873 281.185 937.931 280.054L936.491 278.599C935.683 279.334 934.963 279.804 933.788 279.804C932.024 279.804 930.805 278.335 930.805 276.571V276.542C930.805 274.779 932.054 273.339 933.788 273.339C934.816 273.339 935.624 273.78 936.418 274.5L937.858 272.839C936.903 271.899 935.742 271.252 933.802 271.252C930.643 271.252 928.439 273.647 928.439 276.571V276.601C928.439 279.554 930.687 281.891 933.714 281.891Z" fill="white"/>
<path d="M922.934 490.49H925.197V480.204H922.934V490.49ZM927.621 490.49H932.514C934.835 490.49 936.363 489.549 936.363 487.668V487.639C936.363 486.258 935.629 485.567 934.439 485.112C935.173 484.7 935.79 484.054 935.79 482.893V482.863C935.79 482.158 935.555 481.585 935.085 481.115C934.497 480.527 933.572 480.204 932.396 480.204H927.621V490.49ZM933.542 483.275C933.542 484.039 932.91 484.362 931.911 484.362H929.825V482.188H932.058C933.013 482.188 933.542 482.57 933.542 483.246V483.275ZM934.115 487.36V487.389C934.115 488.153 933.513 488.506 932.514 488.506H929.825V486.243H932.44C933.601 486.243 934.115 486.669 934.115 487.36ZM942.898 490.666C944.881 490.666 946.057 489.961 947.115 488.829L945.675 487.374C944.867 488.109 944.147 488.579 942.971 488.579C941.208 488.579 939.988 487.11 939.988 485.347V485.317C939.988 483.554 941.237 482.114 942.971 482.114C944 482.114 944.808 482.555 945.601 483.275L947.041 481.614C946.086 480.674 944.925 480.028 942.986 480.028C939.827 480.028 937.622 482.423 937.622 485.347V485.376C937.622 488.33 939.871 490.666 942.898 490.666Z" fill="white"/>
<path d="M826.812 524.775H829.075V514.49H826.812V524.775ZM831.499 524.775H836.392C838.713 524.775 840.241 523.835 840.241 521.954V521.925C840.241 520.544 839.507 519.853 838.316 519.398C839.051 518.986 839.668 518.34 839.668 517.179V517.149C839.668 516.444 839.433 515.871 838.963 515.401C838.375 514.813 837.45 514.49 836.274 514.49H831.499V524.775ZM837.42 517.561C837.42 518.325 836.788 518.648 835.789 518.648H833.703V516.473H835.936C836.891 516.473 837.42 516.855 837.42 517.531V517.561ZM837.993 521.646V521.675C837.993 522.439 837.391 522.792 836.392 522.792H833.703V520.529H836.318C837.479 520.529 837.993 520.955 837.993 521.646ZM846.775 524.952C848.759 524.952 849.935 524.247 850.993 523.115L849.553 521.66C848.744 522.395 848.024 522.865 846.849 522.865C845.086 522.865 843.866 521.396 843.866 519.633V519.603C843.866 517.84 845.115 516.4 846.849 516.4C847.878 516.4 848.686 516.841 849.479 517.561L850.919 515.9C849.964 514.96 848.803 514.313 846.864 514.313C843.704 514.313 841.5 516.709 841.5 519.633V519.662C841.5 522.615 843.749 524.952 846.775 524.952Z" fill="white"/>
<path d="M250.326 393.449L372.775 332.224V291.408L250.326 352.633V393.449Z" fill="url(#paint6_linear)"/>
<path d="M127.878 332.224L250.327 393.449V352.633L127.878 291.408V332.224Z" fill="url(#paint7_linear)"/>
<path d="M250.327 230.184L372.776 291.408L250.327 352.633L127.878 291.408L250.327 230.184Z" fill="url(#paint8_radial)"/>
<path d="M290.93 286.314C292.628 280.578 283.983 277.494 272.163 275.437L275.997 267.667L266.635 266.488L262.902 274.054C260.441 273.744 257.913 273.451 255.401 273.162L259.161 265.546L249.804 264.367L245.967 272.135C243.93 271.901 241.93 271.669 239.989 271.425L239.999 271.401L227.088 269.772L224.597 274.824C224.597 274.824 231.544 275.628 231.397 275.678C235.189 276.157 235.874 277.424 235.759 278.429C225.253 299.716 235.759 278.429 225.253 299.716C224.789 300.298 223.614 301.171 220.963 300.84C221.056 300.908 214.158 299.981 214.158 299.981L209.51 305.396L221.694 306.93C223.96 307.217 226.181 307.518 228.368 307.8L224.493 315.66L233.845 316.839L237.682 309.063C240.237 309.413 242.716 309.736 245.143 310.041L241.319 317.78L250.681 318.959L254.556 311.115C270.52 312.641 282.525 312.025 287.578 304.73C291.65 298.857 287.375 295.468 278.976 293.259C285.093 292.546 289.7 290.513 290.93 286.314V286.314ZM269.539 301.469C266.646 307.342 247.071 304.167 240.725 303.371L245.866 292.959C252.212 293.759 272.563 295.343 269.539 301.469ZM272.435 286.229C269.795 291.572 253.502 288.858 248.217 288.192L252.878 278.749C258.164 279.414 275.184 280.656 272.435 286.229V286.229Z" fill="white"/>
<path d="M1205.43 393.449L1327.88 332.224V291.408L1205.43 352.633V393.449Z" fill="url(#paint9_linear)"/>
<path d="M1082.98 332.224L1205.43 393.449V352.633L1082.98 291.408V332.224Z" fill="url(#paint10_linear)"/>
<path d="M1205.43 230.184L1327.88 291.408L1205.43 352.633L1082.98 291.408L1205.43 230.184Z" fill="url(#paint11_radial)"/>
<path d="M1205.42 257.735L1204.52 259.258V303.452L1205.42 303.899L1246.22 291.773L1205.42 257.735Z" fill="#343434"/>
<path d="M1205.42 257.735L1164.61 291.773L1205.42 303.899V282.449V257.735Z" fill="#8C8C8C"/>
<path d="M1205.42 307.783L1204.91 308.091V323.834L1205.42 324.572L1246.24 295.663L1205.42 307.783Z" fill="#3C3C3B"/>
<path d="M1205.42 324.572V307.783L1164.61 295.663L1205.42 324.572Z" fill="#8C8C8C"/>
<path d="M1205.42 303.899L1246.22 291.773L1205.42 282.449V303.899Z" fill="#141414"/>
<path d="M1164.61 291.773L1205.42 303.899V282.449L1164.61 291.773Z" fill="#393939"/>
<path d="M345.224 598.551C412.851 598.551 467.673 571.14 467.673 537.327V527.531C467.673 493.717 412.851 466.306 345.224 466.306C277.598 466.306 222.776 493.717 222.776 527.531V537.327C222.776 571.14 277.598 598.551 345.224 598.551Z" fill="url(#paint12_linear)"/>
<ellipse cx="345.224" cy="527.531" rx="122.449" ry="61.2245" fill="url(#paint13_radial)"/>
<g opacity="0.9" filter="url(#filter2_d)">
<path fill-rule="evenodd" clip-rule="evenodd" d="M284 471.204L299.306 457.938H329.918L345.225 471.204L329.918 484.469H299.306L284 471.204ZM381.959 471.204L397.265 457.938H427.878L443.184 471.204L427.878 484.469H397.265L381.959 471.204ZM348.286 473.245L332.98 486.51L348.286 499.775H378.898L394.204 486.51L378.898 473.245H348.286ZM381.959 501.816L397.265 488.551H427.878L443.184 501.816L427.878 515.082H397.265L381.959 501.816ZM299.306 488.551L284 501.816L299.306 515.082H329.918L345.225 501.816L329.918 488.551H299.306ZM235.021 517.122L250.327 503.857H280.939L296.245 517.122L280.939 530.388H250.327L235.021 517.122ZM299.306 519.163L284 532.429L299.306 545.694H329.918L345.225 532.429L329.918 519.163H299.306Z" fill="url(#paint14_radial)"/>
</g>
<path d="M727.878 691C795.504 691 850.326 663.589 850.326 629.776V619.98C850.326 586.166 795.504 558.755 727.878 558.755C660.251 558.755 605.429 586.166 605.429 619.98V629.776C605.429 663.589 660.251 691 727.878 691Z" fill="url(#paint15_linear)"/>
<ellipse cx="727.878" cy="619.98" rx="122.449" ry="61.2245" fill="url(#paint16_radial)"/>
<g opacity="0.9" filter="url(#filter3_d)">
<path fill-rule="evenodd" clip-rule="evenodd" d="M685.02 553.857L700.326 540.592H730.939L746.245 553.857L730.939 567.122H700.326L685.02 553.857ZM734 569.164L749.306 555.898H779.918L795.224 569.164L779.918 582.429H749.306L734 569.164ZM700.326 571.205L685.02 584.47L700.326 597.735H730.939L746.245 584.47L730.939 571.205H700.326ZM734 599.776L749.306 586.511H779.918L795.224 599.776L779.918 613.041H749.306L734 599.776ZM651.347 586.51L636.041 599.776L651.347 613.041H681.959L697.265 599.776L681.959 586.51H651.347ZM685.02 615.082L700.326 601.817H730.939L746.245 615.082L730.939 628.347H700.326L685.02 615.082ZM749.306 617.123L734 630.388L749.306 643.653H779.918L795.224 630.388L779.918 617.123H749.306Z" fill="url(#paint17_radial)"/>
</g>
<path d="M1109.92 598.55C1177.55 598.55 1232.37 571.139 1232.37 537.326V527.53C1232.37 493.717 1177.55 466.305 1109.92 466.305C1042.29 466.305 987.469 493.717 987.469 527.53V537.326C987.469 571.139 1042.29 598.55 1109.92 598.55Z" fill="url(#paint18_linear)"/>
<ellipse cx="1109.92" cy="527.53" rx="122.449" ry="61.2245" fill="url(#paint19_radial)"/>
<g opacity="0.9" filter="url(#filter4_d)">
<path fill-rule="evenodd" clip-rule="evenodd" d="M1066.64 445.686L1051.31 458.974L1066.64 472.262H1097.31L1112.64 458.974L1097.31 445.686H1066.64ZM1115.71 461.018L1100.38 474.306L1115.71 487.595H1146.37L1161.71 474.306L1146.37 461.018H1115.71ZM1149.44 489.639L1164.77 476.351H1195.44L1210.77 489.639L1195.44 502.927H1164.77L1149.44 489.639ZM1066.64 476.351L1051.31 489.639L1066.64 502.927H1097.31L1112.64 489.639L1097.31 476.351H1066.64ZM1100.38 504.972L1115.71 491.684H1146.37L1161.71 504.972L1146.37 518.26H1115.71L1100.38 504.972ZM1017.58 491.684L1002.25 504.972L1017.58 518.26H1048.24L1063.58 504.972L1048.24 491.684H1017.58ZM1051.31 520.304L1066.64 507.016H1097.31L1112.64 520.304L1097.31 533.592H1066.64L1051.31 520.304ZM1115.71 522.348L1100.38 535.637L1115.71 548.925H1146.37L1161.71 535.637L1146.37 522.348H1115.71Z" fill="url(#paint20_radial)"/>
</g>
<path d="M940.327 225.694C1007.95 225.694 1062.78 198.282 1062.78 164.469V154.673C1062.78 120.86 1007.95 93.4487 940.327 93.4487C872.7 93.4487 817.878 120.86 817.878 154.673V164.469C817.878 198.282 872.7 225.694 940.327 225.694Z" fill="url(#paint21_linear)"/>
<ellipse cx="940.327" cy="154.673" rx="122.449" ry="61.2245" fill="url(#paint22_radial)"/>
<g opacity="0.8">
<path d="M961.551 154.095L963.578 155.102L972.809 150.566L970.782 149.559L961.551 154.095ZM965.617 156.115L967.643 157.121L970.597 155.67L972.19 156.46L971.21 158.892L973.579 160.069L974.625 157.331C976.232 157.699 977.971 157.637 979.461 156.905L979.487 156.892C980.358 156.465 980.807 155.971 980.808 155.463C980.809 154.864 980.231 154.251 979.059 153.67L974.848 151.578L965.617 156.115ZM972.391 154.788L975.042 153.486L977.055 154.486C978.042 154.976 978.199 155.497 977.329 155.924L977.303 155.937C976.524 156.32 975.431 156.298 974.444 155.808L972.391 154.788ZM974.956 160.753L976.983 161.759L986.214 157.223L984.187 156.217L974.956 160.753ZM982.167 164.464C984.154 165.451 986.578 165.638 988.411 164.738L988.437 164.725C990.046 163.934 989.666 163.081 988.285 161.913C987.101 160.921 986.904 160.628 987.511 160.33L987.537 160.317C987.986 160.096 988.75 160.124 989.526 160.51C990.303 160.895 990.763 161.463 991.011 162.146L993.594 161.918C993.411 161.084 992.688 160.308 991.346 159.641C989.464 158.707 987.014 158.585 985.339 159.408L985.313 159.42C983.48 160.321 984.163 161.169 985.544 162.324C986.688 163.283 986.74 163.569 986.226 163.822L986.199 163.835C985.659 164.101 984.829 164.014 984 163.602C982.947 163.08 982.514 162.434 982.37 161.686L979.735 161.797C979.852 162.832 980.772 163.771 982.167 164.464ZM990.859 168.651L992.885 169.657L996.591 167.836L1000.33 169.692L996.623 171.513L998.65 172.52L1007.88 167.984L1005.85 166.977L1002.2 168.772L998.464 166.916L1002.12 165.121L1000.09 164.114L990.859 168.651ZM1002.59 174.609C1003.61 175.112 1004.74 175.141 1005.79 175.078L1004.79 175.571L1006.79 176.564L1013.86 173.091L1011.86 172.097L1007.92 174.035C1006.97 174.501 1005.99 174.499 1005.23 174.12C1004.47 173.741 1004.51 173.279 1005.46 172.813L1009.4 170.875L1007.4 169.881L1002.82 172.13C1001.2 172.927 1001.08 173.858 1002.59 174.609ZM1012.39 179.472C1014.06 180.302 1016.89 180.432 1019.25 179.272L1019.28 179.259C1021.64 178.099 1021.36 176.686 1019.72 175.869C1018.68 175.353 1017.52 175.259 1016.37 175.341L1019.95 173.585L1017.95 172.592L1008.32 177.322L1010.32 178.316L1011.24 177.862C1011.15 178.376 1011.32 178.943 1012.39 179.472ZM1013.57 178.381C1012.64 177.917 1012.64 177.149 1013.82 176.573L1013.84 176.56C1015.02 175.983 1016.57 175.986 1017.5 176.45C1018.44 176.914 1018.45 177.689 1017.28 178.265L1017.25 178.278C1016.06 178.862 1014.51 178.845 1013.57 178.381Z" fill="white"/>
</g>
<g opacity="0.9" filter="url(#filter5_d)">
<path fill-rule="evenodd" clip-rule="evenodd" d="M928.082 83.0405L943.388 69.7751H974L989.306 83.0405L974 96.3058H943.388L928.082 83.0405ZM977.061 98.3468L992.367 85.0815H1022.98L1038.29 98.3468L1022.98 111.612H992.367L977.061 98.3468ZM894.408 85.0815L879.102 98.3468L894.408 111.612H925.02L940.326 98.3468L925.02 85.0815H894.408ZM928.082 113.653L943.388 100.388H974L989.306 113.653L974 126.918H943.388L928.082 113.653ZM894.408 115.694L879.102 128.959L894.408 142.225H925.02L940.326 128.959L925.02 115.694H894.408ZM830.122 144.265L845.428 131H876.041L891.347 144.265L876.041 157.531H845.428L830.122 144.265ZM894.408 146.306L879.102 159.571L894.408 172.837H925.02L940.326 159.571L925.02 146.306H894.408Z" fill="url(#paint23_radial)"/>
</g>
<path d="M515.428 225.694C583.055 225.694 637.877 198.283 637.877 164.469V154.673C637.877 120.86 583.055 93.4489 515.428 93.4489C447.802 93.4489 392.979 120.86 392.979 154.673V164.469C392.979 198.283 447.802 225.694 515.428 225.694Z" fill="url(#paint24_linear)"/>
<ellipse cx="515.428" cy="154.673" rx="122.449" ry="61.2245" fill="url(#paint25_radial)"/>
<g opacity="0.9" filter="url(#filter6_d)">
<path fill-rule="evenodd" clip-rule="evenodd" d="M516.176 84.7407L531.56 71.408H562.328L577.712 84.7407L562.328 98.0735H531.56L516.176 84.7407ZM565.405 100.125L580.789 86.7919H611.557L626.941 100.125L611.557 113.457H580.789L565.405 100.125ZM531.56 102.176L516.176 115.509L531.56 128.842H562.328L577.712 115.509L562.328 102.176H531.56ZM466.947 130.893L482.331 117.56H513.099L528.483 130.893L513.099 144.225H482.331L466.947 130.893ZM531.56 132.944L516.176 146.277L531.56 159.61H562.328L577.712 146.277L562.328 132.944H531.56ZM417.719 146.277L433.103 132.944H463.871L479.255 146.277L463.871 159.61H433.103L417.719 146.277ZM482.331 148.328L466.947 161.661L482.331 174.993H513.099L528.483 161.661L513.099 148.328H482.331Z" fill="url(#paint26_radial)"/>
</g>
<g filter="url(#filter7_d)">
<path d="M571.143 443.653C638.77 443.653 693.592 416.242 693.592 382.429V372.633C693.592 338.819 638.77 311.408 571.143 311.408C503.516 311.408 448.694 338.819 448.694 372.633V382.429C448.694 416.242 503.516 443.653 571.143 443.653Z" fill="url(#paint27_linear)"/>
</g>
<ellipse cx="571.143" cy="372.633" rx="122.449" ry="61.2245" fill="url(#paint28_radial)"/>
<g opacity="0.9" filter="url(#filter8_d)">
<path fill-rule="evenodd" clip-rule="evenodd" d="M555.837 305.49L540.531 318.755L555.837 332.021H586.449L601.755 318.755L586.449 305.49H555.837ZM604.816 320.796L589.51 334.062L604.816 347.327H635.428L650.735 334.062L635.428 320.796H604.816ZM540.531 349.368L555.837 336.102H586.449L601.755 349.368L586.449 362.633H555.837L540.531 349.368ZM604.816 351.408L589.51 364.674L604.816 377.939H635.428L650.735 364.674L635.428 351.408H604.816ZM491.551 364.674L506.857 351.408H537.469L552.775 364.674L537.469 377.939H506.857L491.551 364.674ZM555.837 366.715L540.531 379.98L555.837 393.245H586.449L601.755 379.98L586.449 366.715H555.837Z" fill="url(#paint29_radial)"/>
</g>
<g opacity="0.8">
<path d="M481.602 388.886L483.668 389.912L486.581 389.313L490.476 391.248L489.248 392.684L491.367 393.736L496.716 387.206L494.847 386.278L481.602 388.886ZM489.098 388.791L493.316 387.928L491.546 390.007L489.098 388.791ZM493.003 396.659C494.372 397.339 495.675 397.7 496.993 397.702C498.178 397.705 499.404 397.402 500.67 396.78L506.143 394.09L504.143 393.097L503.219 393.55C503.273 392.991 503.09 392.444 501.998 391.901C500.379 391.097 497.679 390.929 495.569 391.966L495.542 391.979C493.445 393.009 493.732 394.337 495.377 395.154C496.443 395.684 497.524 395.79 498.828 395.734L498.485 395.903C497.219 396.525 495.915 396.529 494.546 395.849C493.612 395.385 493.125 394.909 492.81 394.348L490.623 394.747C491.043 395.425 491.858 396.091 493.003 396.659ZM497.618 394.625C496.644 394.142 496.567 393.452 497.543 392.972L497.569 392.959C498.532 392.486 499.941 392.522 500.915 393.005C501.889 393.489 501.967 394.192 501.004 394.665L500.977 394.678C500.015 395.151 498.592 395.109 497.618 394.625ZM503.901 400.117C506.099 401.209 509.379 401.209 511.41 400.211L511.437 400.198C513.468 399.2 513.471 397.599 511.286 396.514C509.089 395.423 505.808 395.422 503.777 396.42L503.751 396.433C501.72 397.431 501.717 399.032 503.901 400.117ZM505.655 399.281C504.55 398.732 504.71 397.913 505.751 397.401L505.778 397.388C506.82 396.876 508.387 396.781 509.532 397.35C510.638 397.899 510.478 398.719 509.436 399.231L509.41 399.244C508.368 399.756 506.8 399.85 505.655 399.281ZM509.074 402.53L511.075 403.523L513.686 402.24C515.374 401.411 516.994 401.421 518.324 402.081L518.429 402.133L520.526 401.103C519.394 400.489 518.103 400.473 516.719 400.75L518.143 400.05L516.143 399.056L509.074 402.53ZM522.198 401.295L524.304 402.341L526.084 401.466L523.978 400.42L522.198 401.295ZM514.404 405.177L516.404 406.17L523.473 402.697L521.472 401.703L514.404 405.177ZM521.191 408.704C522.599 409.403 523.93 409.53 525.366 409.5L525.381 408.335C524.433 408.32 523.682 408.234 523.011 407.901C521.918 407.358 522.091 406.584 523.173 406.053L523.199 406.04C524.241 405.528 525.835 405.447 526.835 405.943C527.546 406.296 527.69 406.667 527.663 407.123L530.206 407.083C530.286 406.393 529.905 405.761 528.576 405.101C526.418 404.029 523.216 404.081 521.199 405.072L521.172 405.085C519.155 406.077 519.072 407.652 521.191 408.704Z" fill="white"/>
</g>
<g filter="url(#filter9_d)">
<path d="M884.612 443.653C952.239 443.653 1007.06 416.242 1007.06 382.428V372.633C1007.06 338.819 952.239 311.408 884.612 311.408C816.985 311.408 762.163 338.819 762.163 372.633V382.428C762.163 416.242 816.985 443.653 884.612 443.653Z" fill="url(#paint30_linear)"/>
</g>
<ellipse cx="884.612" cy="372.633" rx="122.449" ry="61.2245" fill="url(#paint31_radial)"/>
<g opacity="0.9">
<g filter="url(#filter10_d)">
<path d="M854 318.755L869.306 305.49H899.918L915.224 318.755L899.918 332.021H869.306L854 318.755Z" fill="url(#paint32_radial)"/>
</g>
<g filter="url(#filter11_d)">
<path d="M902.98 334.061L918.286 320.796H948.898L964.204 334.061L948.898 347.327H918.286L902.98 334.061Z" fill="url(#paint33_radial)"/>
</g>
<g filter="url(#filter12_d)">
<path d="M854 349.367L869.306 336.102H899.918L915.224 349.367L899.918 362.633H869.306L854 349.367Z" fill="url(#paint34_radial)"/>
</g>
<g filter="url(#filter13_d)">
<path d="M902.98 364.673L918.286 351.408H948.898L964.204 364.673L948.898 377.939H918.286L902.98 364.673Z" fill="url(#paint35_radial)"/>
</g>
<g filter="url(#filter14_d)">
<path d="M805.02 364.673L820.326 351.408H850.939L866.245 364.673L850.939 377.939H820.326L805.02 364.673Z" fill="url(#paint36_radial)"/>
</g>
<g filter="url(#filter15_d)">
<path d="M854 379.98L869.306 366.714H899.918L915.224 379.98L899.918 393.245H869.306L854 379.98Z" fill="url(#paint37_radial)"/>
</g>
</g>
<g opacity="0.8">
<path d="M785.005 381.578C786.782 382.46 788.467 382.672 790.43 382.643L790.446 381.361C789.063 381.326 787.996 381.213 786.943 380.69C785.364 379.906 785.591 378.715 787.173 377.938L787.2 377.925C788.782 377.147 791.193 377.067 792.746 377.839C793.667 378.296 793.995 378.85 794.06 379.52L796.84 379.429C796.828 378.589 796.369 377.788 794.632 376.925C791.802 375.52 787.679 375.596 785.054 376.885L785.028 376.898C782.377 378.201 782.294 380.231 785.005 381.578ZM793.263 385.679C795.461 386.77 798.741 386.771 800.772 385.773L800.799 385.76C802.83 384.762 802.833 383.161 800.648 382.076C798.451 380.984 795.17 380.984 793.139 381.982L793.113 381.995C791.082 382.993 791.079 384.594 793.263 385.679ZM795.017 384.843C793.912 384.294 794.072 383.474 795.113 382.962L795.14 382.949C796.182 382.437 797.749 382.343 798.894 382.912C800 383.461 799.84 384.28 798.798 384.792L798.772 384.805C797.73 385.317 796.162 385.412 795.017 384.843ZM800.779 389.385C802.305 390.143 804.189 390.375 805.758 389.604L805.784 389.591C807.077 388.956 806.407 388.154 805.749 387.502C805.25 386.993 804.763 386.569 805.159 386.375L805.185 386.362C805.462 386.226 805.923 386.246 806.41 386.488C806.923 386.743 807.37 387.212 807.659 387.76L809.807 387.458C809.558 386.826 808.887 386.194 807.993 385.749C806.571 385.043 804.609 384.864 803.171 385.57L803.145 385.583C801.773 386.257 802.43 387.039 803.127 387.672C803.666 388.174 804.206 388.585 803.77 388.799L803.744 388.812C803.428 388.968 802.953 388.941 802.374 388.653C801.716 388.326 801.204 387.785 800.994 387.134L798.82 387.357C799.016 388.184 799.792 388.895 800.779 389.385ZM804.779 391.242L806.779 392.235L810.723 390.297C811.672 389.831 812.621 389.82 813.371 390.192C814.121 390.565 814.054 391.014 813.105 391.48L809.161 393.418L811.162 394.412L815.105 392.474C816.054 392.007 817.003 391.996 817.753 392.369C818.503 392.741 818.436 393.19 817.487 393.657L813.544 395.594L815.544 396.588L820.147 394.326C821.848 393.49 821.85 392.605 820.363 391.867C819.402 391.39 818.269 391.218 816.925 391.267C817.269 390.734 816.98 390.187 816.059 389.729C815.046 389.226 813.9 389.191 812.846 389.254L813.848 388.762L811.848 387.768L804.779 391.242ZM820.324 399.118C822.521 400.209 825.802 400.21 827.833 399.212L827.859 399.199C829.89 398.201 829.893 396.6 827.709 395.515C825.511 394.423 822.231 394.423 820.2 395.421L820.173 395.434C818.142 396.432 818.139 398.033 820.324 399.118ZM822.077 398.282C820.972 397.733 821.132 396.913 822.174 396.401L822.2 396.388C823.242 395.876 824.81 395.782 825.955 396.351C827.06 396.9 826.9 397.719 825.859 398.231L825.832 398.244C824.79 398.756 823.222 398.851 822.077 398.282ZM827.839 402.824C829.366 403.582 831.249 403.814 832.818 403.043L832.845 403.03C834.137 402.395 833.467 401.593 832.81 400.941C832.31 400.432 831.823 400.008 832.219 399.814L832.245 399.801C832.522 399.665 832.983 399.685 833.47 399.927C833.984 400.182 834.431 400.651 834.719 401.199L836.867 400.897C836.618 400.265 835.948 399.633 835.053 399.188C833.632 398.482 831.669 398.303 830.232 399.009L830.205 399.022C828.834 399.696 829.491 400.478 830.188 401.111C830.727 401.613 831.266 402.024 830.831 402.238L830.804 402.251C830.488 402.407 830.014 402.38 829.435 402.092C828.777 401.765 828.264 401.224 828.055 400.573L825.88 400.796C826.076 401.623 826.852 402.334 827.839 402.824ZM835.732 406.614L837.759 407.621L841.465 405.8L845.202 407.656L841.496 409.477L843.523 410.483L852.754 405.947L850.728 404.94L847.075 406.735L843.337 404.879L846.99 403.084L844.964 402.078L835.732 406.614ZM847.468 412.573C848.481 413.076 849.614 413.104 850.668 413.041L849.666 413.534L851.666 414.527L858.735 411.054L856.734 410.06L852.791 411.998C851.842 412.465 850.867 412.463 850.104 412.084C849.34 411.704 849.381 411.242 850.33 410.776L854.274 408.838L852.273 407.845L847.697 410.093C846.075 410.891 845.954 411.821 847.468 412.573ZM857.26 417.436C858.931 418.266 861.763 418.395 864.124 417.235L864.15 417.222C866.511 416.062 866.237 414.649 864.592 413.832C863.552 413.316 862.393 413.223 861.247 413.305L864.821 411.549L862.82 410.555L853.193 415.286L855.194 416.279L856.117 415.826C856.024 416.34 856.194 416.906 857.26 417.436ZM858.448 416.345C857.513 415.881 857.515 415.113 858.689 414.536L858.715 414.523C859.889 413.946 861.443 413.949 862.378 414.414C863.312 414.878 863.324 415.652 862.15 416.229L862.123 416.242C860.937 416.825 859.382 416.809 858.448 416.345Z" fill="white"/>
</g>
<defs>
<filter id="filter0_d" x="188.415" y="92.2245" width="761.126" height="590.147" filterUnits="userSpaceOnUse" color-interpolation-filters="sRGB">
<feFlood flood-opacity="0" result="BackgroundImageFix"/>
<feColorMatrix in="SourceAlpha" type="matrix" values="0 0 0 0 0 0 0 0 0 0 0 0 0 0 0 0 0 0 127 0"/>
<feOffset/>
<feGaussianBlur stdDeviation="30.6122"/>
<feColorMatrix type="matrix" values="0 0 0 0 0 0 0 0 0 0.0562482 0 0 0 0 0.49345 0 0 0 0.5 0"/>
<feBlend mode="normal" in2="BackgroundImageFix" result="effect1_dropShadow"/>
<feBlend mode="normal" in="SourceGraphic" in2="effect1_dropShadow" result="shape"/>
</filter>
<filter id="filter1_d" x="660.749" y="92.2245" width="601.142" height="590.147" filterUnits="userSpaceOnUse" color-interpolation-filters="sRGB">
<feFlood flood-opacity="0" result="BackgroundImageFix"/>
<feColorMatrix in="SourceAlpha" type="matrix" values="0 0 0 0 0 0 0 0 0 0 0 0 0 0 0 0 0 0 127 0"/>
<feOffset/>
<feGaussianBlur stdDeviation="30.6122"/>
<feColorMatrix type="matrix" values="0 0 0 0 0 0 0 0 0 0.0562482 0 0 0 0 0.49345 0 0 0 0.5 0"/>
<feBlend mode="normal" in2="BackgroundImageFix" result="effect1_dropShadow"/>
<feBlend mode="normal" in="SourceGraphic" in2="effect1_dropShadow" result="shape"/>
</filter>
<filter id="filter2_d" x="215.429" y="453.041" width="247.347" height="126.939" filterUnits="userSpaceOnUse" color-interpolation-filters="sRGB">
<feFlood flood-opacity="0" result="BackgroundImageFix"/>
<feColorMatrix in="SourceAlpha" type="matrix" values="0 0 0 0 0 0 0 0 0 0 0 0 0 0 0 0 0 0 127 0"/>
<feOffset dy="14.6939"/>
<feGaussianBlur stdDeviation="9.79592"/>
<feColorMatrix type="matrix" values="0 0 0 0 0 0 0 0 0 0 0 0 0 0 0 0 0 0 0.25 0"/>
<feBlend mode="normal" in2="BackgroundImageFix" result="effect1_dropShadow"/>
<feBlend mode="normal" in="SourceGraphic" in2="effect1_dropShadow" result="shape"/>
</filter>
<filter id="filter3_d" x="616.449" y="535.694" width="198.367" height="142.245" filterUnits="userSpaceOnUse" color-interpolation-filters="sRGB">
<feFlood flood-opacity="0" result="BackgroundImageFix"/>
<feColorMatrix in="SourceAlpha" type="matrix" values="0 0 0 0 0 0 0 0 0 0 0 0 0 0 0 0 0 0 127 0"/>
<feOffset dy="14.6939"/>
<feGaussianBlur stdDeviation="9.79592"/>
<feColorMatrix type="matrix" values="0 0 0 0 0 0 0 0 0 0 0 0 0 0 0 0 0 0 0.25 0"/>
<feBlend mode="normal" in2="BackgroundImageFix" result="effect1_dropShadow"/>
<feBlend mode="normal" in="SourceGraphic" in2="effect1_dropShadow" result="shape"/>
</filter>
<filter id="filter4_d" x="982.656" y="440.788" width="247.706" height="142.422" filterUnits="userSpaceOnUse" color-interpolation-filters="sRGB">
<feFlood flood-opacity="0" result="BackgroundImageFix"/>
<feColorMatrix in="SourceAlpha" type="matrix" values="0 0 0 0 0 0 0 0 0 0 0 0 0 0 0 0 0 0 127 0"/>
<feOffset dy="14.6939"/>
<feGaussianBlur stdDeviation="9.79592"/>
<feColorMatrix type="matrix" values="0 0 0 0 0 0 0 0 0 0 0 0 0 0 0 0 0 0 0.25 0"/>
<feBlend mode="normal" in2="BackgroundImageFix" result="effect1_dropShadow"/>
<feBlend mode="normal" in="SourceGraphic" in2="effect1_dropShadow" result="shape"/>
</filter>
<filter id="filter5_d" x="810.531" y="64.8772" width="247.347" height="142.245" filterUnits="userSpaceOnUse" color-interpolation-filters="sRGB">
<feFlood flood-opacity="0" result="BackgroundImageFix"/>
<feColorMatrix in="SourceAlpha" type="matrix" values="0 0 0 0 0 0 0 0 0 0 0 0 0 0 0 0 0 0 127 0"/>
<feOffset dy="14.6939"/>
<feGaussianBlur stdDeviation="9.79592"/>
<feColorMatrix type="matrix" values="0 0 0 0 0 0 0 0 0 0 0 0 0 0 0 0 0 0 0.25 0"/>
<feBlend mode="normal" in2="BackgroundImageFix" result="effect1_dropShadow"/>
<feBlend mode="normal" in="SourceGraphic" in2="effect1_dropShadow" result="shape"/>
</filter>
<filter id="filter6_d" x="398.127" y="66.51" width="248.406" height="142.769" filterUnits="userSpaceOnUse" color-interpolation-filters="sRGB">
<feFlood flood-opacity="0" result="BackgroundImageFix"/>
<feColorMatrix in="SourceAlpha" type="matrix" values="0 0 0 0 0 0 0 0 0 0 0 0 0 0 0 0 0 0 127 0"/>
<feOffset dy="14.6939"/>
<feGaussianBlur stdDeviation="9.79592"/>
<feColorMatrix type="matrix" values="0 0 0 0 0 0 0 0 0 0 0 0 0 0 0 0 0 0 0.25 0"/>
<feBlend mode="normal" in2="BackgroundImageFix" result="effect1_dropShadow"/>
<feBlend mode="normal" in="SourceGraphic" in2="effect1_dropShadow" result="shape"/>
</filter>
<filter id="filter7_d" x="409.51" y="286.918" width="323.265" height="210.612" filterUnits="userSpaceOnUse" color-interpolation-filters="sRGB">
<feFlood flood-opacity="0" result="BackgroundImageFix"/>
<feColorMatrix in="SourceAlpha" type="matrix" values="0 0 0 0 0 0 0 0 0 0 0 0 0 0 0 0 0 0 127 0"/>
<feOffset dy="14.6939"/>
<feGaussianBlur stdDeviation="19.5918"/>
<feColorMatrix type="matrix" values="0 0 0 0 0.341176 0 0 0 0 0.0313726 0 0 0 0 0.905882 0 0 0 0.19 0"/>
<feBlend mode="normal" in2="BackgroundImageFix" result="effect1_dropShadow"/>
<feBlend mode="normal" in="SourceGraphic" in2="effect1_dropShadow" result="shape"/>
</filter>
<filter id="filter8_d" x="471.959" y="300.592" width="198.367" height="126.939" filterUnits="userSpaceOnUse" color-interpolation-filters="sRGB">
<feFlood flood-opacity="0" result="BackgroundImageFix"/>
<feColorMatrix in="SourceAlpha" type="matrix" values="0 0 0 0 0 0 0 0 0 0 0 0 0 0 0 0 0 0 127 0"/>
<feOffset dy="14.6939"/>
<feGaussianBlur stdDeviation="9.79592"/>
<feColorMatrix type="matrix" values="0 0 0 0 0 0 0 0 0 0 0 0 0 0 0 0 0 0 0.25 0"/>
<feBlend mode="normal" in2="BackgroundImageFix" result="effect1_dropShadow"/>
<feBlend mode="normal" in="SourceGraphic" in2="effect1_dropShadow" result="shape"/>
</filter>
<filter id="filter9_d" x="722.98" y="286.918" width="323.265" height="210.612" filterUnits="userSpaceOnUse" color-interpolation-filters="sRGB">
<feFlood flood-opacity="0" result="BackgroundImageFix"/>
<feColorMatrix in="SourceAlpha" type="matrix" values="0 0 0 0 0 0 0 0 0 0 0 0 0 0 0 0 0 0 127 0"/>
<feOffset dy="14.6939"/>
<feGaussianBlur stdDeviation="19.5918"/>
<feColorMatrix type="matrix" values="0 0 0 0 0.341176 0 0 0 0 0.0313726 0 0 0 0 0.905882 0 0 0 0.19 0"/>
<feBlend mode="normal" in2="BackgroundImageFix" result="effect1_dropShadow"/>
<feBlend mode="normal" in="SourceGraphic" in2="effect1_dropShadow" result="shape"/>
</filter>
<filter id="filter10_d" x="834.408" y="300.592" width="100.408" height="65.7143" filterUnits="userSpaceOnUse" color-interpolation-filters="sRGB">
<feFlood flood-opacity="0" result="BackgroundImageFix"/>
<feColorMatrix in="SourceAlpha" type="matrix" values="0 0 0 0 0 0 0 0 0 0 0 0 0 0 0 0 0 0 127 0"/>
<feOffset dy="14.6939"/>
<feGaussianBlur stdDeviation="9.79592"/>
<feColorMatrix type="matrix" values="0 0 0 0 0 0 0 0 0 0 0 0 0 0 0 0 0 0 0.25 0"/>
<feBlend mode="normal" in2="BackgroundImageFix" result="effect1_dropShadow"/>
<feBlend mode="normal" in="SourceGraphic" in2="effect1_dropShadow" result="shape"/>
</filter>
<filter id="filter11_d" x="883.388" y="315.898" width="100.408" height="65.7143" filterUnits="userSpaceOnUse" color-interpolation-filters="sRGB">
<feFlood flood-opacity="0" result="BackgroundImageFix"/>
<feColorMatrix in="SourceAlpha" type="matrix" values="0 0 0 0 0 0 0 0 0 0 0 0 0 0 0 0 0 0 127 0"/>
<feOffset dy="14.6939"/>
<feGaussianBlur stdDeviation="9.79592"/>
<feColorMatrix type="matrix" values="0 0 0 0 0 0 0 0 0 0 0 0 0 0 0 0 0 0 0.25 0"/>
<feBlend mode="normal" in2="BackgroundImageFix" result="effect1_dropShadow"/>
<feBlend mode="normal" in="SourceGraphic" in2="effect1_dropShadow" result="shape"/>
</filter>
<filter id="filter12_d" x="834.408" y="331.204" width="100.408" height="65.7143" filterUnits="userSpaceOnUse" color-interpolation-filters="sRGB">
<feFlood flood-opacity="0" result="BackgroundImageFix"/>
<feColorMatrix in="SourceAlpha" type="matrix" values="0 0 0 0 0 0 0 0 0 0 0 0 0 0 0 0 0 0 127 0"/>
<feOffset dy="14.6939"/>
<feGaussianBlur stdDeviation="9.79592"/>
<feColorMatrix type="matrix" values="0 0 0 0 0 0 0 0 0 0 0 0 0 0 0 0 0 0 0.25 0"/>
<feBlend mode="normal" in2="BackgroundImageFix" result="effect1_dropShadow"/>
<feBlend mode="normal" in="SourceGraphic" in2="effect1_dropShadow" result="shape"/>
</filter>
<filter id="filter13_d" x="883.388" y="346.51" width="100.408" height="65.7143" filterUnits="userSpaceOnUse" color-interpolation-filters="sRGB">
<feFlood flood-opacity="0" result="BackgroundImageFix"/>
<feColorMatrix in="SourceAlpha" type="matrix" values="0 0 0 0 0 0 0 0 0 0 0 0 0 0 0 0 0 0 127 0"/>
<feOffset dy="14.6939"/>
<feGaussianBlur stdDeviation="9.79592"/>
<feColorMatrix type="matrix" values="0 0 0 0 0 0 0 0 0 0 0 0 0 0 0 0 0 0 0.25 0"/>
<feBlend mode="normal" in2="BackgroundImageFix" result="effect1_dropShadow"/>
<feBlend mode="normal" in="SourceGraphic" in2="effect1_dropShadow" result="shape"/>
</filter>
<filter id="filter14_d" x="785.428" y="346.51" width="100.408" height="65.7143" filterUnits="userSpaceOnUse" color-interpolation-filters="sRGB">
<feFlood flood-opacity="0" result="BackgroundImageFix"/>
<feColorMatrix in="SourceAlpha" type="matrix" values="0 0 0 0 0 0 0 0 0 0 0 0 0 0 0 0 0 0 127 0"/>
<feOffset dy="14.6939"/>
<feGaussianBlur stdDeviation="9.79592"/>
<feColorMatrix type="matrix" values="0 0 0 0 0 0 0 0 0 0 0 0 0 0 0 0 0 0 0.25 0"/>
<feBlend mode="normal" in2="BackgroundImageFix" result="effect1_dropShadow"/>
<feBlend mode="normal" in="SourceGraphic" in2="effect1_dropShadow" result="shape"/>
</filter>
<filter id="filter15_d" x="834.408" y="361.817" width="100.408" height="65.7143" filterUnits="userSpaceOnUse" color-interpolation-filters="sRGB">
<feFlood flood-opacity="0" result="BackgroundImageFix"/>
<feColorMatrix in="SourceAlpha" type="matrix" values="0 0 0 0 0 0 0 0 0 0 0 0 0 0 0 0 0 0 127 0"/>
<feOffset dy="14.6939"/>
<feGaussianBlur stdDeviation="9.79592"/>
<feColorMatrix type="matrix" values="0 0 0 0 0 0 0 0 0 0 0 0 0 0 0 0 0 0 0.25 0"/>
<feBlend mode="normal" in2="BackgroundImageFix" result="effect1_dropShadow"/>
<feBlend mode="normal" in="SourceGraphic" in2="effect1_dropShadow" result="shape"/>
</filter>
<radialGradient id="paint0_radial" cx="0" cy="0" r="1" gradientUnits="userSpaceOnUse" gradientTransform="translate(1561.14 387.939) rotate(151.673) scale(178.057 120.915)">
<stop stop-color="white" stop-opacity="0"/>
<stop offset="1" stop-color="#812D97"/>
</radialGradient>
<radialGradient id="paint1_radial" cx="0" cy="0" r="1" gradientUnits="userSpaceOnUse" gradientTransform="translate(1391.55 15.0816) rotate(151.673) scale(178.057 120.915)">
<stop stop-color="white" stop-opacity="0"/>
<stop offset="1" stop-color="#1D685F"/>
</radialGradient>
<radialGradient id="paint2_radial" cx="0" cy="0" r="1" gradientUnits="userSpaceOnUse" gradientTransform="translate(191.633 14.0816) rotate(151.673) scale(178.057 120.915)">
<stop stop-color="white" stop-opacity="0"/>
<stop offset="1" stop-color="#774D0D"/>
</radialGradient>
<radialGradient id="paint3_radial" cx="0" cy="0" r="1" gradientUnits="userSpaceOnUse" gradientTransform="translate(191.633 14.0816) rotate(151.673) scale(178.057 120.915)">
<stop stop-color="white" stop-opacity="0"/>
<stop offset="1" stop-color="#523293"/>
</radialGradient>
<radialGradient id="paint4_radial" cx="0" cy="0" r="1" gradientUnits="userSpaceOnUse" gradientTransform="translate(568.679 387.59) rotate(90) scale(233.528 434.265)">
<stop offset="0.258879" stop-color="#350950"/>
<stop offset="0.340172" stop-color="#AB31F6"/>
<stop offset="0.752384" stop-color="#3147F2" stop-opacity="0.49"/>
<stop offset="0.845499" stop-color="#040931" stop-opacity="0.77"/>
</radialGradient>
<radialGradient id="paint5_radial" cx="0" cy="0" r="1" gradientUnits="userSpaceOnUse" gradientTransform="translate(886.449 387.327) rotate(89.475) scale(233.887 325.986)">
<stop offset="0.25" stop-color="#350950"/>
<stop offset="0.364583" stop-color="#AB31F6"/>
<stop offset="0.752384" stop-color="#3147F2" stop-opacity="0.49"/>
<stop offset="0.845499" stop-color="#040931" stop-opacity="0.77"/>
</radialGradient>
<linearGradient id="paint6_linear" x1="372.775" y1="317.837" x2="250.326" y2="377.531" gradientUnits="userSpaceOnUse">
<stop stop-color="#63389B"/>
<stop offset="1" stop-color="#7A58A6"/>
</linearGradient>
<linearGradient id="paint7_linear" x1="127.878" y1="319.061" x2="250.327" y2="379.98" gradientUnits="userSpaceOnUse">
<stop stop-color="#BEACD4"/>
<stop offset="1" stop-color="#A68FC2"/>
</linearGradient>
<radialGradient id="paint8_radial" cx="0" cy="0" r="1" gradientUnits="userSpaceOnUse" gradientTransform="translate(186.041 318.143) rotate(-28.0092) scale(130.372 220.722)">
<stop stop-color="#F7B363"/>
<stop offset="1" stop-color="#F79928"/>
</radialGradient>
<linearGradient id="paint9_linear" x1="1327.88" y1="317.837" x2="1205.43" y2="377.531" gradientUnits="userSpaceOnUse">
<stop stop-color="#63389B"/>
<stop offset="1" stop-color="#7A58A6"/>
</linearGradient>
<linearGradient id="paint10_linear" x1="1082.98" y1="319.061" x2="1205.43" y2="379.98" gradientUnits="userSpaceOnUse">
<stop stop-color="#BEACD4"/>
<stop offset="1" stop-color="#A68FC2"/>
</linearGradient>
<radialGradient id="paint11_radial" cx="0" cy="0" r="1" gradientUnits="userSpaceOnUse" gradientTransform="translate(1141.14 318.143) rotate(-28.0092) scale(130.372 186.979)">
<stop stop-color="#F6F6F6"/>
<stop offset="1" stop-color="#E6E6E6"/>
</radialGradient>
<linearGradient id="paint12_linear" x1="467.673" y1="532.429" x2="223.786" y2="516.733" gradientUnits="userSpaceOnUse">
<stop stop-color="#376189"/>
<stop offset="1" stop-color="#5B85AE"/>
</linearGradient>
<radialGradient id="paint13_radial" cx="0" cy="0" r="1" gradientUnits="userSpaceOnUse" gradientTransform="translate(414.408 480.388) rotate(151.673) scale(178.057 120.915)">
<stop stop-color="#33679A"/>
<stop offset="1" stop-color="#8CA9C6"/>
</radialGradient>
<radialGradient id="paint14_radial" cx="0" cy="0" r="1" gradientUnits="userSpaceOnUse" gradientTransform="translate(274.204 532.735) rotate(-22.0074) scale(174.005 182.898)">
<stop stop-color="#1F4162"/>
<stop offset="1" stop-color="#1B1E36"/>
</radialGradient>
<linearGradient id="paint15_linear" x1="850.327" y1="624.878" x2="606.439" y2="609.182" gradientUnits="userSpaceOnUse">
<stop stop-color="#111216"/>
<stop offset="1" stop-color="#25262B"/>
</linearGradient>
<radialGradient id="paint16_radial" cx="0" cy="0" r="1" gradientUnits="userSpaceOnUse" gradientTransform="translate(797.061 572.837) rotate(151.673) scale(178.057 120.915)">
<stop stop-color="#111215"/>
<stop offset="1" stop-color="#313134"/>
</radialGradient>
<radialGradient id="paint17_radial" cx="0" cy="0" r="1" gradientUnits="userSpaceOnUse" gradientTransform="translate(649.51 623.653) rotate(-24.3864) scale(151.249 203.882)">
<stop stop-color="white"/>
<stop offset="1" stop-color="#F3F3F3"/>
</radialGradient>
<linearGradient id="paint18_linear" x1="1232.37" y1="532.428" x2="988.479" y2="516.733" gradientUnits="userSpaceOnUse">
<stop stop-color="#161931"/>
<stop offset="1" stop-color="#2C304F"/>
</linearGradient>
<radialGradient id="paint19_radial" cx="0" cy="0" r="1" gradientUnits="userSpaceOnUse" gradientTransform="translate(1179.1 480.387) rotate(151.673) scale(178.057 120.915)">
<stop stop-color="#232642"/>
<stop offset="1" stop-color="#3B4165"/>
</radialGradient>
<radialGradient id="paint20_radial" cx="0" cy="0" r="1" gradientUnits="userSpaceOnUse" gradientTransform="translate(1045.33 524.162) rotate(-16.8617) scale(155.139 152.085)">
<stop stop-color="#FCE482"/>
<stop offset="1" stop-color="#FAD021"/>
</radialGradient>
<linearGradient id="paint21_linear" x1="1062.78" y1="159.571" x2="818.888" y2="143.876" gradientUnits="userSpaceOnUse">
<stop stop-color="#2D1969"/>
<stop offset="1" stop-color="#5E39CD"/>
</linearGradient>
<radialGradient id="paint22_radial" cx="0" cy="0" r="1" gradientUnits="userSpaceOnUse" gradientTransform="translate(1009.51 107.531) rotate(151.673) scale(178.057 120.915)">
<stop stop-color="#502BBD"/>
<stop offset="1" stop-color="#714BE3"/>
</radialGradient>
<radialGradient id="paint23_radial" cx="0" cy="0" r="1" gradientUnits="userSpaceOnUse" gradientTransform="translate(862.571 161.408) rotate(-28.1716) scale(156.267 126.304)">
<stop stop-color="#FFB5FE"/>
<stop offset="1" stop-color="#EA78E8"/>
</radialGradient>
<linearGradient id="paint24_linear" x1="637.877" y1="159.571" x2="393.99" y2="143.876" gradientUnits="userSpaceOnUse">
<stop stop-color="#742825"/>
<stop offset="1" stop-color="#F95F59"/>
</linearGradient>
<radialGradient id="paint25_radial" cx="0" cy="0" r="1" gradientUnits="userSpaceOnUse" gradientTransform="translate(584.612 107.53) rotate(151.673) scale(178.057 120.915)">
<stop stop-color="#FF564F"/>
<stop offset="1" stop-color="#FF736D"/>
</radialGradient>
<radialGradient id="paint26_radial" cx="0" cy="0" r="1" gradientUnits="userSpaceOnUse" gradientTransform="translate(432.163 158.653) rotate(-20.2553) scale(170.656 190.885)">
<stop stop-color="white"/>
<stop offset="1" stop-color="#F3F3F3"/>
</radialGradient>
<linearGradient id="paint27_linear" x1="693.592" y1="377.531" x2="449.704" y2="361.835" gradientUnits="userSpaceOnUse">
<stop stop-color="#590C11"/>
<stop offset="1" stop-color="#981E26"/>
</linearGradient>
<radialGradient id="paint28_radial" cx="0" cy="0" r="1" gradientUnits="userSpaceOnUse" gradientTransform="translate(640.327 325.49) rotate(151.673) scale(178.057 120.915)">
<stop stop-color="#5E1B1F"/>
<stop offset="1" stop-color="#B12029"/>
</radialGradient>
<radialGradient id="paint29_radial" cx="0" cy="0" r="1" gradientUnits="userSpaceOnUse" gradientTransform="translate(505.02 376.215) rotate(-21.1069) scale(147.662 208.301)">
<stop stop-color="white"/>
<stop offset="1" stop-color="#F8F8F8"/>
</radialGradient>
<linearGradient id="paint30_linear" x1="1007.06" y1="377.53" x2="763.173" y2="361.835" gradientUnits="userSpaceOnUse">
<stop stop-color="#0C0E1F"/>
<stop offset="1" stop-color="#2D314E"/>
</linearGradient>
<radialGradient id="paint31_radial" cx="0" cy="0" r="1" gradientUnits="userSpaceOnUse" gradientTransform="translate(953.796 325.49) rotate(151.673) scale(178.057 120.915)">
<stop stop-color="#12152B"/>
<stop offset="1" stop-color="#353956"/>
</radialGradient>
<radialGradient id="paint32_radial" cx="0" cy="0" r="1" gradientUnits="userSpaceOnUse" gradientTransform="translate(861.653 325.49) rotate(-16.3051) scale(46.8857 37.8957)">
<stop stop-color="#6879F9"/>
<stop offset="1" stop-color="#5064FB"/>
</radialGradient>
<radialGradient id="paint33_radial" cx="0" cy="0" r="1" gradientUnits="userSpaceOnUse" gradientTransform="translate(910.633 340.796) rotate(-16.3051) scale(46.8857 37.8957)">
<stop stop-color="#6879F9"/>
<stop offset="1" stop-color="#5064FB"/>
</radialGradient>
<radialGradient id="paint34_radial" cx="0" cy="0" r="1" gradientUnits="userSpaceOnUse" gradientTransform="translate(861.653 356.102) rotate(-16.3051) scale(46.8857 58.3137)">
<stop stop-color="#54DB54"/>
<stop offset="1" stop-color="#00BB00"/>
</radialGradient>
<radialGradient id="paint35_radial" cx="0" cy="0" r="1" gradientUnits="userSpaceOnUse" gradientTransform="translate(910.633 371.408) rotate(-16.3051) scale(46.8857 37.8957)">
<stop stop-color="#C560DE"/>
<stop offset="1" stop-color="#BA3FD9"/>
</radialGradient>
<radialGradient id="paint36_radial" cx="0" cy="0" r="1" gradientUnits="userSpaceOnUse" gradientTransform="translate(812.673 371.408) rotate(-16.3051) scale(46.8858 37.8957)">
<stop stop-color="#6879F9"/>
<stop offset="1" stop-color="#5064FB"/>
</radialGradient>
<radialGradient id="paint37_radial" cx="0" cy="0" r="1" gradientUnits="userSpaceOnUse" gradientTransform="translate(861.653 386.714) rotate(-16.3051) scale(46.8857 37.8957)">
<stop stop-color="#6879F9"/>
<stop offset="1" stop-color="#5064FB"/>
</radialGradient>
</defs>
</svg>
