<svg width="240" height="240" viewBox="0 0 240 240" fill="none" xmlns="http://www.w3.org/2000/svg">
<g clip-path="url(#clip0)">
<g clip-path="url(#clip1)">
<path d="M26.6439 66.1018L120 12.2026L213.356 66.1018V173.9L120 227.799L26.6439 173.9V66.1018Z" stroke="#00BB00" stroke-width="6.7"/>
</g>
<path fill-rule="evenodd" clip-rule="evenodd" d="M140.682 98.7723C134.173 96.2065 127.164 94.8663 120.085 94.8663C105.207 94.8663 91.2129 100.707 80.6804 111.313C70.1936 121.872 64.3673 135.899 64.2735 150.808L64.2611 152.81L66.0008 153.8C74.3854 158.57 83.8674 161.08 93.4757 161.08C93.7399 161.08 94.0063 161.078 94.2711 161.074C102.647 160.954 110.933 158.94 118.445 155.223C116.076 153.898 113.806 152.405 111.648 150.76C98.5548 155.919 83.7153 155.283 71.1568 148.822C72.3784 122.659 93.9193 101.701 120.085 101.701C127.363 101.701 134.552 103.311 141.044 106.37C141.127 103.837 141.007 101.298 140.682 98.7723" fill="#00BB00"/>
<path fill-rule="evenodd" clip-rule="evenodd" d="M175.897 150.343C175.698 131.807 166.672 114.895 151.625 104.593C151.637 107.305 151.455 110.016 151.083 112.711C161.774 121.441 168.292 134.295 169.005 148.379C145.943 160.262 117.181 151.94 104.08 129.231C100.541 123.097 98.3714 116.239 97.7338 109.231C95.508 110.445 93.3821 111.841 91.3751 113.407C92.4334 120.151 94.7331 126.7 98.165 132.649C105.618 145.566 117.599 154.827 131.902 158.725C136.754 160.048 141.688 160.702 146.594 160.702C156.154 160.702 165.612 158.218 174.17 153.351L175.918 152.356L175.897 150.343Z" fill="#00BB00"/>
<path fill-rule="evenodd" clip-rule="evenodd" d="M122.058 56.2466L120.333 55.2347L118.608 56.245C110.083 61.2337 103.001 68.3861 98.1267 76.9284C93.9175 84.3058 91.4278 92.5698 90.8439 101.005C93.1774 99.6181 95.6085 98.3985 98.1221 97.3562C100.287 83.4505 108.374 70.8829 120.33 63.203C142.289 77.3221 149.51 106.596 136.32 129.458C132.748 135.65 127.864 141.003 122.078 145.113C124.239 146.431 126.508 147.575 128.867 148.532C134.216 144.195 138.769 138.882 142.235 132.875C157.635 106.183 148.583 71.8078 122.058 56.2466" fill="#00BB00"/>
<path fill-rule="evenodd" clip-rule="evenodd" d="M120.299 114.571C117.153 114.571 114.594 117.132 114.594 120.28C114.594 123.428 117.153 125.989 120.299 125.989C123.445 125.989 126.004 123.428 126.004 120.28C126.004 117.132 123.445 114.571 120.299 114.571M120.299 132.824C113.387 132.824 107.764 127.197 107.764 120.281C107.764 113.364 113.387 107.737 120.299 107.737C127.211 107.737 132.834 113.364 132.834 120.281C132.834 127.197 127.211 132.824 120.299 132.824" fill="#00BB00"/>
</g>
<defs>
<clipPath id="clip0">
<path d="M8.33337 8.33435H231.667V231.668H8.33337V8.33435Z" fill="white"/>
</clipPath>
<clipPath id="clip1">
<path d="M8.33337 8.33435H231.667V231.668H8.33337V8.33435Z" fill="white"/>
</clipPath>
</defs>
</svg>
