<svg width="273" height="242" viewBox="0 0 273 242" fill="none" xmlns="http://www.w3.org/2000/svg">
<path fill-rule="evenodd" clip-rule="evenodd" d="M252.532 51.3821L161.311 0.875988L56.1271 13.2506L0.587891 102.01L33.7126 196.208L111.408 241.789L219.348 213.519L272.295 143.96L252.532 51.3821ZM59.8197 22.4311L11.3597 99.8764L100.27 68.0557L59.8197 22.4311ZM10.8727 107.141L40.0496 190.113L77.0235 163.923L10.8727 107.141ZM41.5273 191.517L107.635 230.301L78.2366 165.515L41.5273 191.517ZM112.201 232.979L110.628 232.057L79.8987 164.338L143.297 119.43L112.201 232.979ZM114.607 232.681L114.337 232.752L145.435 119.195L175.225 157.673L114.607 232.681ZM117.869 231.827L213.287 206.837L176.483 159.298L117.869 231.827ZM215.541 205.312L215.092 205.901L177.887 157.845L208.524 132.872L215.541 205.312ZM217.324 202.97L262.618 143.466L210.467 132.184L217.324 202.97ZM263.619 141.636L254.377 98.3439L211.69 130.403L263.619 141.636ZM253.917 96.1883L245.599 57.228L205.556 81.4851L210.163 129.048L253.917 96.1883ZM242.644 55.0521L244.048 55.8294L204.854 79.572L190.901 55.4845L242.644 55.0521ZM239.086 53.0818L166.1 12.6718L189.748 53.4941L239.086 53.0818ZM160.85 9.76476L162.697 10.7878L187.987 54.4454L146.553 113.068L160.85 9.76476ZM157.925 9.3296L158.907 9.21404L144.902 110.41L132.567 37.3109L157.925 9.3296ZM154.903 9.68503L64.6682 20.3009L131.154 35.8908L154.903 9.68503ZM102.02 67.0144L129.588 37.5777L61.8366 21.6912L102.02 67.0144ZM74.8034 108.618L102.087 70.1051L142.543 115.735L74.8034 108.618ZM74.1214 110.557L142.257 117.716L79.4653 162.194L74.1214 110.557ZM147.666 116.553L208.212 129.65L203.658 82.6349L147.666 116.553ZM203.143 80.6084L189.09 56.3497L148.586 113.657L203.143 80.6084ZM207.097 131.455L147.47 118.557L176.663 156.263L207.097 131.455ZM103.353 68.5174L143.433 113.724L130.85 39.1561L103.353 68.5174ZM72.0886 110.343L77.3938 161.605L10.084 103.829L72.0886 110.343ZM72.5221 108.378L11.4658 101.963L99.3499 70.5094L72.5221 108.378Z" fill="#5271FF"/>
</svg>
