<svg width="384" height="384" viewBox="0 0 384 384" fill="none" xmlns="http://www.w3.org/2000/svg">
<path fill-rule="evenodd" clip-rule="evenodd" d="M192 13.3021L37.2431 102.651V281.349L192 370.698L346.757 281.349V102.651L192 13.3021ZM358.277 96L192 0L25.7231 96V288L192 384L358.277 288V96ZM185.166 129.634C181.367 128.581 177.92 126.671 175.047 124.128L124.317 216.267C128.062 217.474 131.434 219.522 134.207 222.188L185.166 129.634ZM141.566 235.52C141.903 237.175 142.08 238.887 142.08 240.64C142.08 242.849 141.799 244.994 141.27 247.04L243.37 247.04C242.841 244.994 242.56 242.849 242.56 240.64C242.56 238.887 242.737 237.175 243.074 235.52L141.566 235.52ZM209.021 124.067L260.234 216.295C256.494 217.516 253.13 219.576 250.365 222.252L198.921 129.609C202.716 128.542 206.156 126.621 209.021 124.067ZM258.144 240.449C258.144 235.036 262.544 230.632 267.954 230.632C273.363 230.632 277.765 235.036 277.765 240.449C277.765 245.863 273.363 250.267 267.954 250.267C262.544 250.267 258.144 245.863 258.144 240.449ZM246.4 240.449C246.4 252.343 256.068 262.019 267.954 262.019C279.839 262.019 289.508 252.343 289.508 240.449C289.508 228.556 279.839 218.88 267.954 218.88C256.068 218.88 246.4 228.556 246.4 240.449ZM191.794 94.9523C186.384 94.9523 181.984 99.3563 181.984 104.769C181.984 110.182 186.384 114.586 191.794 114.586C197.203 114.586 201.605 110.182 201.605 104.769C201.605 99.3563 197.203 94.9523 191.794 94.9523ZM191.794 126.339C179.908 126.339 170.24 116.663 170.24 104.769C170.24 92.8758 179.908 83.1998 191.794 83.1998C203.679 83.1998 213.348 92.8758 213.348 104.769C213.348 116.663 203.679 126.339 191.794 126.339ZM106.464 240.449C106.464 235.036 110.864 230.632 116.274 230.632C121.683 230.632 126.085 235.036 126.085 240.449C126.085 245.863 121.683 250.267 116.274 250.267C110.864 250.267 106.464 245.863 106.464 240.449ZM94.72 240.449C94.72 252.343 104.388 262.019 116.274 262.019C128.159 262.019 137.829 252.343 137.829 240.449C137.829 228.556 128.159 218.88 116.274 218.88C104.388 218.88 94.72 228.556 94.72 240.449Z" fill="url(#paint0_linear)"/>
<defs>
<linearGradient id="paint0_linear" x1="354.696" y1="95.6053" x2="25.8134" y2="287.772" gradientUnits="userSpaceOnUse">
<stop stop-color="#B37AFF"/>
<stop offset="0.359375" stop-color="#9A6EFF"/>
<stop offset="0.713451" stop-color="#8061F5"/>
<stop offset="1" stop-color="#584FBA"/>
</linearGradient>
</defs>
</svg>
