<svg width="380" height="380" viewBox="0 0 380 380" fill="none" xmlns="http://www.w3.org/2000/svg">
<g style="mix-blend-mode:overlay">
<g clip-path="url(#clip0)">
<path d="M31.1552 98.2909L190 6.5818L348.845 98.2909V281.709L190 373.418L31.1552 281.709V98.2909Z" stroke="white" stroke-width="11.4"/>
<g clip-path="url(#clip1)">
<path fill-rule="evenodd" clip-rule="evenodd" d="M183.237 128.284C179.478 127.242 176.067 125.352 173.224 122.835L123.022 214.014C126.728 215.209 130.064 217.235 132.809 219.873L183.237 128.284ZM140.091 233.067C140.425 234.704 140.6 236.399 140.6 238.133C140.6 240.32 140.322 242.442 139.799 244.467L240.835 244.467C240.312 242.442 240.033 240.32 240.033 238.133C240.033 236.399 240.209 234.704 240.542 233.067L140.091 233.067ZM206.843 122.774L257.524 214.042C253.822 215.25 250.493 217.289 247.757 219.937L196.849 128.259C200.604 127.204 204.009 125.302 206.843 122.774Z" fill="white"/>
<path fill-rule="evenodd" clip-rule="evenodd" d="M265.163 228.23C259.809 228.23 255.455 232.588 255.455 237.945C255.455 243.302 259.809 247.66 265.163 247.66C270.516 247.66 274.871 243.302 274.871 237.945C274.871 232.588 270.516 228.23 265.163 228.23ZM265.163 259.29C253.401 259.29 243.833 249.715 243.833 237.945C243.833 226.175 253.401 216.6 265.163 216.6C276.924 216.6 286.493 226.175 286.493 237.945C286.493 249.715 276.924 259.29 265.163 259.29Z" fill="white"/>
<path fill-rule="evenodd" clip-rule="evenodd" d="M189.796 93.9634C184.443 93.9634 180.088 98.3215 180.088 103.678C180.088 109.035 184.443 113.393 189.796 113.393C195.149 113.393 199.505 109.035 199.505 103.678C199.505 98.3215 195.149 93.9634 189.796 93.9634ZM189.796 125.023C178.034 125.023 168.467 115.448 168.467 103.678C168.467 91.9086 178.034 82.3334 189.796 82.3334C201.557 82.3334 211.126 91.9086 211.126 103.678C211.126 115.448 201.557 125.023 189.796 125.023Z" fill="white"/>
<path fill-rule="evenodd" clip-rule="evenodd" d="M115.063 228.23C109.709 228.23 105.355 232.588 105.355 237.945C105.355 243.302 109.709 247.66 115.063 247.66C120.416 247.66 124.771 243.302 124.771 237.945C124.771 232.588 120.416 228.23 115.063 228.23ZM115.063 259.29C103.301 259.29 93.7333 249.715 93.7333 237.945C93.7333 226.175 103.301 216.6 115.063 216.6C126.824 216.6 136.393 226.175 136.393 237.945C136.393 249.715 126.824 259.29 115.063 259.29Z" fill="white"/>
</g>
</g>
</g>
<defs>
<clipPath id="clip0">
<rect width="380" height="380" fill="white"/>
</clipPath>
<clipPath id="clip1">
<rect width="253.333" height="253.333" fill="white" transform="translate(63.3333 63.3334)"/>
</clipPath>
</defs>
</svg>
