<svg width="72" height="72" viewBox="0 0 72 72" fill="none" xmlns="http://www.w3.org/2000/svg">
<circle cx="36" cy="36" r="30.375" fill="url(#paint0_radial)"/>
<path d="M4.799 31.6088C1.86533 33.2444 0.226773 35.0621 0.312005 36.9166C0.57041 42.5392 16.5757 46.3712 36.0608 45.4757C55.5459 44.5802 71.1322 39.2963 70.8738 33.6737C70.7966 31.9949 69.3156 30.4757 66.7572 29.1943C66.8431 29.5815 66.9218 29.9706 66.9932 30.3611C67.1024 30.4241 67.2087 30.4875 67.3121 30.5512C69.0316 31.6121 69.8032 32.6931 69.8504 33.7207C69.8976 34.7484 69.2285 35.8956 67.6135 37.1097C66.0083 38.3164 63.596 39.4861 60.5056 40.5338C54.3352 42.6256 45.6826 44.1571 36.0206 44.6011C26.3585 45.0452 17.602 44.3138 11.2657 42.7968C8.09223 42.037 5.58279 41.0934 3.87369 40.039C2.15416 38.9782 1.38258 37.8972 1.33536 36.8696C1.28813 35.8419 1.9573 34.6947 3.57227 33.4806C3.90136 33.2332 4.26438 32.9874 4.66021 32.7438C4.69947 32.3654 4.74572 31.987 4.799 31.6088Z" fill="white" fill-opacity="0.75"/>
<path d="M6.02109 45.6975C2.84381 50.4042 1.75368 54.4629 3.41574 57.0372C7.33855 63.1131 25.1071 58.6199 43.1029 47.0013C61.0986 35.3827 72.507 21.0385 68.5842 14.9625C66.9213 12.3868 62.7701 11.7104 57.1683 12.6711C57.5181 12.989 57.8606 13.3145 58.1956 13.6474C60.074 13.3753 61.7375 13.3109 63.1461 13.4528C65.4795 13.6878 66.9221 14.4622 67.6391 15.5727C68.3561 16.6832 68.4681 18.3167 67.7218 20.54C66.9801 22.7499 65.4445 25.3591 63.1825 28.2031C58.6661 33.8819 51.4162 40.2949 42.4927 46.0562C33.5691 51.8175 24.7405 55.7852 17.7061 57.564C14.1831 58.4549 11.1731 58.7805 8.85387 58.5469C6.52047 58.3119 5.07784 57.5375 4.36088 56.427C3.64391 55.3165 3.53191 53.683 4.27815 51.4597C4.72792 50.1196 5.46962 48.6328 6.48819 47.0357C6.32272 46.594 6.16694 46.1479 6.02109 45.6975Z" fill="white" fill-opacity="0.75"/>
<defs>
<radialGradient id="paint0_radial" cx="0" cy="0" r="1" gradientUnits="userSpaceOnUse" gradientTransform="translate(18.99 15.345) rotate(45) scale(67.0125)">
<stop stop-color="#66A1FF"/>
<stop offset="0.427083" stop-color="#5064FB" stop-opacity="0.58"/>
<stop offset="0.807692" stop-color="#9214B1" stop-opacity="0"/>
</radialGradient>
</defs>
</svg>
